<svg xmlns="http://www.w3.org/2000/svg" width="150" height="155.686" viewBox="0 0 150 155.686"><path d="m76.083 4.332.472.159.494.179.276.099.588.213.948.342 1.337.482q1.571.566 3.145 1.126l.313.112a2302 2302 0 0 0 5.258 1.869 1328 1328 0 0 1 5.285 1.886 1220 1220 0 0 0 4.898 1.746 1347 1347 0 0 1 5.285 1.884 1311 1311 0 0 0 4.31 1.54q2.257.801 4.513 1.608l.322.115 3.206 1.146 1.555.556.313.112a2196 2196 0 0 0 5.241 1.863q2.697.956 5.389 1.923a1225 1225 0 0 0 4.011 1.433q3.552 1.262 7.102 2.533l.286.102 2.005.718.619.222.182.065c.208.075.411.148.609.247-.057 1.266-.204 2.519-.351 3.777l-.082.709-.178 1.538-.265 2.291-.448 3.876-.623 5.381q-.511 4.425-1.024 8.849l-.971 8.39-.03.256-.796 6.887-.03.255-.794 6.867a35257 35257 0 0 0-2.651 22.973l-1.047 9.104-.388 3.376-.244 2.122-.181 1.576-.073.637-.099.862-.029.252-.077.634-.038.316c-.052.226-.052.226-.264.399l-.284.149-.156.084q-.254.135-.511.267l-.358.191-.738.391c-.531.281-1.054.574-1.578.868l-.604.336-.305.169-1.784.985a705 705 0 0 0-2.362 1.308 748 748 0 0 1-2.527 1.399 1111 1111 0 0 0-3.745 2.076 1150 1150 0 0 1-3.911 2.167 704 704 0 0 0-2.362 1.308 795 795 0 0 1-2.693 1.49 705 705 0 0 0-2.362 1.308 748 748 0 0 1-2.527 1.399 1111 1111 0 0 0-3.745 2.076 1150 1150 0 0 1-3.911 2.167 704 704 0 0 0-2.362 1.308 795 795 0 0 1-2.693 1.49 705 705 0 0 0-2.362 1.308 748 748 0 0 1-2.527 1.399 1111 1111 0 0 0-3.745 2.076 1118 1118 0 0 1-3.745 2.076 1008 1008 0 0 0-2.973 1.644l-.288.16-.252.14c-.238.129-.238.129-.461.296-.224.107-.224.107-.447.05l-.225-.129-.234-.118-.251-.135-.284-.153-.303-.164-.317-.171q-1.122-.609-2.231-1.242a178 178 0 0 0-2.077-1.159l-.166-.092-.84-.462-1.657-.913-.164-.091a853 853 0 0 1-2.653-1.47 691 691 0 0 0-2.225-1.23 835 835 0 0 1-2.828-1.566 695 695 0 0 0-2.226-1.232 1200 1200 0 0 1-4.046-2.243 974 974 0 0 0-3.61-2 794 794 0 0 1-2.663-1.475 693 693 0 0 0-2.226-1.232 835 835 0 0 1-2.828-1.566 695 695 0 0 0-2.226-1.232 1200 1200 0 0 1-4.046-2.243 974 974 0 0 0-3.61-2 794 794 0 0 1-2.663-1.475A693 693 0 0 0 26.218 125a835 835 0 0 1-2.828-1.566 695 695 0 0 0-2.226-1.232q-1.327-.731-2.651-1.467l-.306-.17-.286-.159-.249-.138-.253-.142-.322-.138c-.197-.114-.291-.179-.382-.39a6 6 0 0 1-.085-.652l-.028-.254q-.045-.422-.084-.844l-.065-.608q-.07-.654-.137-1.308c-.105-1.017-.227-2.032-.346-3.047l-.192-1.651-.089-.772-.046-.396-.242-2.097-.449-3.884-.448-3.883-.029-.248-.115-.997-1.049-9.086-1.265-10.958L9.92 60.5 8.467 47.92l-.026-.227-.383-3.317-.025-.215-.362-3.135-.023-.203-.369-3.189-.362-3.131-.194-1.673-.175-1.518-.063-.547-.085-.74-.025-.214a9 9 0 0 1-.057-1.201 359 359 0 0 1 5.145-1.857l1.922-.679.195-.069a745 745 0 0 0 3.72-1.328q2.584-.927 5.173-1.843 2.596-.919 5.19-1.85a985 985 0 0 1 5.19-1.85 1347 1347 0 0 0 5.285-1.884 1311 1311 0 0 1 4.31-1.54q2.257-.802 4.513-1.608l.322-.115 3.206-1.146 1.868-.668a2196 2196 0 0 1 5.241-1.863q2.697-.956 5.389-1.923a1223 1223 0 0 1 4.011-1.433 2733 2733 0 0 0 5.099-1.817l.943-.337.28-.1.267-.095.259-.09a8 8 0 0 0 .505-.207c.668-.289 1.064-.233 1.734.023" fill="#DD0032"/><path d="m77.049 4.67.275.099.588.213.948.342 1.337.482q1.571.566 3.145 1.126l.313.112a2302 2302 0 0 0 5.258 1.869 1328 1328 0 0 1 5.285 1.886 1220 1220 0 0 0 4.899 1.746 1347 1347 0 0 1 5.285 1.884 1311 1311 0 0 0 4.31 1.54q2.257.801 4.513 1.608l.322.115 3.206 1.146 1.868.668a2196 2196 0 0 0 5.241 1.863q2.697.956 5.389 1.923a1225 1225 0 0 0 4.011 1.433 3387 3387 0 0 1 7.388 2.635l2.005.718.619.222.182.065c.208.075.411.148.609.247-.057 1.266-.204 2.519-.351 3.777l-.082.709-.178 1.538-.265 2.291-.448 3.876-.45 3.89-.029.247-.144 1.244q-.511 4.425-1.024 8.849l-.971 8.39-.03.256-.796 6.887-.03.255-.794 6.867a35257 35257 0 0 0-2.651 22.973l-1.047 9.104-.388 3.376-.244 2.122-.181 1.576-.073.637-.099.862-.029.252-.077.634-.038.316c-.052.226-.052.226-.264.399l-.284.149-.156.084q-.254.135-.511.267l-.358.191-.738.391c-.531.281-1.054.574-1.578.868l-.604.336-.305.169-1.784.985a705 705 0 0 0-2.362 1.308 748 748 0 0 1-2.527 1.399 1111 1111 0 0 0-3.745 2.076 1150 1150 0 0 1-3.911 2.167 704 704 0 0 0-2.362 1.308 795 795 0 0 1-2.693 1.49 705 705 0 0 0-2.362 1.308 748 748 0 0 1-2.527 1.399 1111 1111 0 0 0-3.745 2.076 1150 1150 0 0 1-3.911 2.167 704 704 0 0 0-2.362 1.308 795 795 0 0 1-2.693 1.49 705 705 0 0 0-2.362 1.308 748 748 0 0 1-2.527 1.399 1111 1111 0 0 0-3.745 2.076 1118 1118 0 0 1-3.745 2.076 1008 1008 0 0 0-2.973 1.644l-.288.16-.252.14a8 8 0 0 0-.472.29l-.209.108-.271-.09.181-.09V95.488c-10.154-1.985-10.154-1.985-18.502.361l.09-.451h36.643c1.234 2.983 1.234 2.983 1.658 4.073a342 342 0 0 0 1.08 2.731l.236.59.354.883.94 2.351.575 1.437.235.587.118.294.469 1.172.233.582.572 1.43q.493 1.233.989 2.467l.411 1.021.192.476.261.649.078.193c.174.434.174.434.174.635h16.065l-1.083-2.347a111 111 0 0 1-.553-1.275 179 179 0 0 0-1.416-3.204l-.524-1.162q-.514-1.142-1.021-2.285l-.088-.197q-.815-1.837-1.625-3.676a546 546 0 0 0-1.472-3.307q-.571-1.271-1.136-2.545l-.092-.207-.462-1.041-.817-1.838-.453-1.015-.181-.406-27.888-62.748-.632-1.421-.997-2.242-.717-1.614q-.282-.635-.566-1.269l-.382-.858-.182-.408-.25-.562-.144-.323c-.1-.261-.1-.261-.1-.532h-.181l.001-.252q.009-3.029.013-6.058l.006-2.93q.004-1.276.005-2.553 0-.677.003-1.352.003-.636.002-1.272l.002-.468v-.637l.001-.36-.033-.273-.271-.181c.664-.221 1.591.286 2.229.519" fill="#C20130"/><path d="M75.09 20.578h.181a750 750 0 0 1 2.524 5.634l.815 1.836.45 1.011.18.406 36.193 81.433.181.407.448 1.008q.424.957.853 1.913l.406.909.195.436.269.602.082.181c.183.412.183.412.183.613h-16.065l-1.873-4.659-.584-1.453a2939 2939 0 0 1-2.405-5.997l-.454-1.135-.489-1.224-.925-2.31-.546-1.359-.337-.839-.379-.942-.115-.284-.106-.266-.092-.23c-.104-.286-.184-.58-.268-.872H56.769l-.09.451a10 10 0 0 1-.163.439l-.106.27-.12.302-.131.33c-.708 1.786-1.428 3.568-2.146 5.351l-1.164 2.894-.132.328a2382 2382 0 0 0-1.876 4.681l-.115.287-1.079 2.701-.391.978-.179.449-.244.612-.07.175c-.179.446-.373.881-.569 1.321H32.13c.934-2.179.934-2.179 1.245-2.877l.108-.243.339-.761.241-.541a1002 1002 0 0 1 1.406-3.145 701 701 0 0 0 1.209-2.713 788 788 0 0 1 1.882-4.212 822 822 0 0 0 2.039-4.565l1.091-2.457.116-.261q.823-1.853 1.652-3.703a1224 1224 0 0 0 1.6-3.589 1162 1162 0 0 1 2.054-4.596 1437 1437 0 0 0 2.514-5.634l1.023-2.303.118-.265a879 879 0 0 1 1.489-3.335q.725-1.618 1.443-3.239a673 673 0 0 1 1.738-3.88 316 316 0 0 0 1.507-3.399 291 291 0 0 1 1.687-3.785 433 433 0 0 0 1.563-3.475l.087-.197.356-.804 1.164-2.62.577-1.297.693-1.561a1063 1063 0 0 1 2.523-5.647 590 590 0 0 0 1.484-3.322l1.057-2.381.12-.269a890 890 0 0 1 1.51-3.384 704 704 0 0 0 1.209-2.713 822 822 0 0 1 1.982-4.433 757 757 0 0 0 2.134-4.782" fill="#FEFEFE"/><path d="M75.09 51.895h.181l.075.181q1.12 2.707 2.242 5.413l.692 1.669q.949 2.29 1.902 4.578a1670 1670 0 0 1 1.459 3.512 1535 1535 0 0 0 1.346 3.239 1572 1572 0 0 1 1.416 3.407 2369 2369 0 0 0 1.749 4.208l.114.273.327.784.104.251a169 169 0 0 0 .521 1.236l.102.241.193.45c.213.502.213.502.213.703H62.635c.609-1.624.609-1.624.837-2.166l.076-.182.16-.382.351-.838.186-.445q.475-1.135.945-2.271l.289-.697.586-1.413.778-1.878.097-.233 1.419-3.412a1562 1562 0 0 0 1.361-3.276l1.455-3.503.084-.201.665-1.594a2851 2851 0 0 0 2.2-5.288c.49-1.18.49-1.18.967-2.366" fill="#C20130"/><path d="M75 52.437h.181V81.95H62.906c0-.812 0-.812.125-1.102l.084-.199.093-.21.097-.227.318-.738.223-.522.46-1.077q.459-1.078.904-2.162l.379-.916.285-.689.969-2.34.097-.233 1.419-3.412a1562 1562 0 0 0 1.361-3.276 1820 1820 0 0 1 1.539-3.703l.845-2.024.351-.84.256-.613q.399-.952.781-1.911l.138-.346.251-.639.112-.281.096-.245c.099-.184.099-.184.369-.274V53.7h.181l.028-.175c.084-.373.208-.728.333-1.089" fill="#DD0032"/><path d="M87.184 80.776c.152.228.262.434.372.683l.097.215c.073.185.073.185.073.366H62.635l.181-.542h.09v.451h24.639l-.271-.451c-.055-.242-.069-.473-.09-.722" fill="#AF1037"/><path d="m32.31 116.516.181.271c.279.042.279.042.614.036l.194.002q.323.002.646.001l.462.003q.628.004 1.256.004l1.311.005 2.484.009q1.414.003 2.828.011 2.91.012 5.819.02v-.181h.181l-.09.271H32.13z" fill="#FFD0DF"/><path d="M87.184 80.776c.152.228.262.434.372.683l.097.215c.073.185.073.185.073.366h-4.603v-.09h4.422l-.271-.451c-.055-.242-.069-.473-.09-.722" fill="#A51035"/><path d="M52.978 104.874c.096.329.068.507-.039.835l-.079.244-.062.184h-.181l.017.197c-.017.254-.017.254-.139.455-.23.387-.345.809-.484 1.236-.116.278-.116.278-.386.459.213-.796.52-1.551.829-2.313l.153-.379z" fill="#C81E47"/><path d="M70.758 62.365c.11.355.044.556-.09.903h-.181l.013.199c-.015.285-.084.433-.222.681a7 7 0 0 0-.513 1.286h-.181c.061-.382.187-.712.336-1.068l.072-.174.229-.546.155-.372z" fill="#C82148"/><path d="M75.09 51.895h.181l.181.632-.181.09-.09-.181H75l-.033.162c-.081.383-.166.743-.328 1.102h-.181v.271l-.181-.09z" fill="#C4234A"/><path d="M49.097 114.621c.137.424-.003.699-.158 1.1l-.073.201a7 7 0 0 1-.221.504l-.271.09c.205-.648.455-1.27.722-1.895" fill="#C91E46"/><path d="m46.119 85.199.181.09-.812 1.805c-.102-.409-.075-.452.119-.801.176-.33.313-.646.423-1.004z" fill="#C61640"/><path d="M55.505 98.556c.16.641-.154 1.159-.451 1.715l-.181-.09z" fill="#CA214A"/><path d="M36.733 106.137h.181c-.175.56-.384 1.093-.632 1.625h-.09c-.02-.348.036-.586.181-.903h.181v-.361h.181z" fill="#C81740"/><path d="m68.863 34.206.181.09-.632 1.444-.181-.361.09-.181h.181l.028-.192c.07-.295.19-.534.333-.801" fill="#C81841"/><path d="M63.448 79.874h.181c-.067.518-.31.981-.542 1.444l-.181-.09z" fill="#C92148"/><path d="M67.87 69.314c.125.336.054.544-.068.874l-.094.266c-.109.214-.109.214-.379.304.158-.493.33-.971.542-1.444" fill="#C91F47"/><path d="M48.195 80.866h.09c.058.462-.144.783-.361 1.173h-.181l.124-.384.07-.216a5 5 0 0 1 .257-.574" fill="#FDD5E4"/><path d="M87.184 80.776c.152.228.262.434.372.683l.097.215c.073.185.073.185.073.366h-.181l-.181-.429-.102-.241c-.078-.233-.078-.233-.078-.594" fill="#B3264B"/><path d="M69.495 65.433h.09v.451h-.181v.451l-.271.09.13-.395.073-.222c.068-.194.068-.194.159-.375" fill="#CB1C44"/><path d="M71.48 60.65c.086.196.103.322.036.526q-.103.235-.216.467h-.181l.13-.395.073-.222c.068-.196.068-.196.158-.376" fill="#CA1E48"/><path d="M70.397 63.538c0 .349-.128.587-.271.903-.09-.244-.094-.35-.017-.604.108-.209.108-.209.288-.299" fill="#CC1640"/><path d="m65.162 42.599.09.181c-.07.195-.07.195-.175.417l-.104.224-.081.171c-.126-.378.012-.553.181-.903z" fill="#C71A42"/></svg>