<svg xmlns="http://www.w3.org/2000/svg" width="150" height="154.255" viewBox="0 0 150 154.255"><path d="M72.935 10.58c6.128 2.649 9.798 11.883 12.33 17.809a82 82 0 0 1 1.968 6.713c.245.862.489 1.713.734 2.596 1.319 10.798-1.053 20.053-3.926 30.383 1.011-.34 2.011-.681 3.053-1.032 16.074-4.564 33.415-.872 47.745 6.819 5.223 2.947 5.223 2.947 6.691 6.351-.053 3.723-1.362 5.234-3.628 8.149-3.362 4.34-3.362 4.34-4.926 9.5l5.319 4.255c-5.957 16.638-19.33 32.032-35.053 39.862-19.787 8.723-39.043 6.521-58.819-1.043-6.691-2.702-12.809-6.202-18.894-10.096 1.064-3.191 1.064-3.191 4.447-4.947 1.468-.66 2.926-1.309 4.394-1.968 13.287-6.287 22.404-15.16 29.457-28.191l1.255-2.191c1.149-2.34 1.149-2.34.872-6.319l-4.255-1.064c-.489.947-.979 1.883-1.489 2.851-8.021 14.957-17.883 24.915-32.553 33.319l-2.298 1.394c-2.574.968-3.713.798-6.213-.33C6.944 109.985 3.252 90.709 3.816 73.187 4.944 55.602 14.061 40.73 26.593 28.719c4.436-3.766 9.128-7.191 13.83-10.638.777-.617 1.553-1.245 2.351-1.883 2.787-2.202 4.479-3.415 8.085-3.5 2.819 1.372 3.426 2.489 4.457 5.383 4.787-.862 8.223-3.521 12.202-6.191 2.691-1.255 2.691-1.255 5.415-1.309" fill="#F15E95"/><path d="M128.524 95.945c1.149.957 1.149.957 2.33 1.926.936.351 1.883.702 2.862 1.064 2.457 1.064 2.457 1.064 3.798 3.011.787 2.309.787 2.309.106 4.287-.447.67-.883 1.33-1.34 2.021q-.718 1.117-1.468 2.266c-.543.787-1.074 1.574-1.628 2.383-.543.809-1.085 1.617-1.649 2.447-10.968 16.064-23.979 27.415-43.372 31.787-22.032 3.628-44.277-4.532-62.628-16.287 1.064-3.191 1.064-3.191 4.436-4.947 1.468-.66 2.936-1.309 4.404-1.968 14.883-7.053 24.351-17.606 31.585-32.447h2.128l1.064-5.319c19.787-3.415 42.926-3.021 59.372 9.777" fill="#CB387E"/><path d="M72.935 10.58c6.128 2.649 9.798 11.883 12.33 17.809a82 82 0 0 1 1.968 6.713c.362 1.287.362 1.287.734 2.596 1.319 10.798-1.053 20.053-3.926 30.383 1.011-.34 2.011-.681 3.053-1.032 16.074-4.564 33.415-.872 47.745 6.819 5.223 2.947 5.223 2.947 6.691 6.351-.053 3.713-1.351 5.191-3.628 8.074-2.819 3.585-4.351 6.085-4.926 10.638-3.415-1.138-5.66-2.394-8.511-4.649-8.468-6.309-20.574-8.255-30.904-8.213h-2.128l-6.66.032c-1.511.011-3.032.011-4.543.021-3.691.011-7.394.021-11.085.043l-1.064 5.319c-.266-.67-.521-1.351-.798-2.053-1.138-2.362-1.138-2.362-3.457-3.128-.702-.043-1.404-.085-2.128-.138l-2.128 2.128c.309-1.309.617-2.628.936-3.989 4.702-21.479 4.479-40.84-5.191-60.904l-1.287-2.67q-1.452-2.936-2.968-5.84l-5.319 1.064 2.128-3.191c2.532.266 2.532.266 5.319 1.064 1.394 2.202 1.394 2.202 2.128 4.255 4.787-.862 8.223-3.521 12.202-6.191 2.691-1.255 2.691-1.255 5.415-1.309" fill="#E0DBDD"/><path d="M65.957 48.936h2.128v10.638l4.255 1.064 2.128 1.064v4.255h8.511v-2.128l2.128 1.064-1.064 3.191 3.319-1.064c3.574-1.032 6.777-1.245 10.511-1.064-4.074 2.543-8.085 2.723-12.766 3.191v2.128l5.319 1.064v2.128h2.128c.128.681.266 1.362.404 2.064.213.723.436 1.447.66 2.191l2.128 1.064c.532 1.053.532 1.053 1.064 2.128-8.84 3.16-18.266 4.691-27.66 4.255-.532 2.628-.532 2.628-1.064 5.319-.266-.681-.521-1.362-.798-2.064-1.138-2.351-1.138-2.351-3.457-3.128l-2.129-.126-2.128 2.128c1.032-4.904 2.117-9.574 3.787-14.298 2.543-8.053 2.33-16.691 2.596-25.064" fill="#F1EBF0"/><path d="M11.702 47.872c1.394 4.574.489 8.447-.468 13.032-.16.798-.309 1.585-.468 2.404-.394 1.947-.787 3.894-1.192 5.841H6.383L7.447 86.17l5.319 2.128-2.128 19.149C3.34 96.5 2.681 80.798 4.255 68.085c1.426-7.043 3.447-14.213 7.447-20.213" fill="#E3729E"/><path d="m41.489 120.213 2.128 1.064c-.5.83-1.011 1.67-1.532 2.532-.957 1.606-1.883 3.234-2.723 4.915-3.255.66-3.255.66-6.383 1.064v3.191c.851.16.851.16 1.723.33 3.202.926 5.979 2.394 8.915 3.926v2.128c-6.745-1.926-12.309-4.532-18.085-8.511 1.298-3.883 2.809-4.394 6.351-6.17 1.032-.5 1.032-.5 2.096-1.011a385 385 0 0 1 2.085-1.064c1.777-.872 3.596-1.638 5.426-2.394" fill="#C36A94"/><path d="m50 95.745 2.128 1.064 1.064-1.064h2.128c-3.447 10.415-13.096 18.117-22.34 23.404l-2.128-3.191 6.383-1.064v-2.128h2.128v-3.191h2.128l1.064-4.255h3.191v-6.383h4.255z" fill="#E67CA6"/><path d="M125.532 95.745c1.532.457 3.064.926 4.585 1.394.851.266 1.702.521 2.585.787 2.511 1.053 3.83 2.16 5.596 4.202-1.691 4.851-4.245 8.84-7.043 13.096a185 185 0 0 0-1.362 2.085 1312 1312 0 0 1-3.298 5.032l-2.128-1.064v-2.128h2.128v-5.319l3.191-1.064c1.34-3.085 1.894-6.234 2.128-9.574-1.649-3.585-3.862-4.894-7.447-6.383z" fill="#BA5482"/><path d="M10.638 107.447c2.628.532 2.628.532 5.319 1.064.064.766.128 1.532.202 2.33 1.16 4.011 2.936 5.723 6.181 8.309 3.128.436 4.638.34 7.447-1.064l2.128 2.128a177 177 0 0 1-3.989 2.191c-.745.415-1.479.819-2.245 1.234-2.777 1.011-3.862.989-6.532-.234-4.064-4.617-6.979-10-8.511-15.957" fill="#E083A7"/><path d="M11.702 47.872c1.394 4.574.489 8.447-.468 13.032-.16.798-.309 1.585-.468 2.404-.394 1.947-.787 3.894-1.192 5.841l-3.191 1.064-1.064 18.085H4.255c-.691-14.032-.649-28.287 7.447-40.426" fill="#E895B6"/><path d="M85.106 142.553H100c-11.851 7.904-27.266 5.723-40.426 3.191v-1.064h25.532z" fill="#C36894"/><path d="M20.213 36.17c1.713 3.415 1.128 6.851 1.064 10.638l-7.447 1.064-1.064-2.128z" fill="#ED72A0"/><path d="m45.745 137.234 1.064 2.128a602 602 0 0 0 3.989-.266c3.574-.021 4.255.053 7.181 2.394.521.702 1.053 1.404 1.596 2.128-4.032 1.521-6.457.543-10.372-1-1.043-.404-2.096-.809-3.17-1.223-.798-.319-1.596-.638-2.415-.968z" fill="#C45A8B"/><path d="M59.574 103.191c1.33 2.649.83 3.628 0 6.383h-2.128l-2.128 5.319-4.255-2.128z" fill="#D488AD"/><path d="m121.277 122.34 4.255 1.064-6.383 7.447c-1.106-3.33-.989-4.245 0-7.447l1.064 1.064z" fill="#C86697"/><path d="m26.596 28.723 2.128 1.064-1.064 4.255h-2.128v2.128h-4.255c1.372-3.064 2.83-5.181 5.319-7.447" fill="#ED9EBE"/><path d="m20.213 36.17 1.064 2.128a102 102 0 0 1-3.191 6.383l-3.191-2.128z" fill="#E68DAF"/><path d="M132.979 98.936c2.064.862 2.064.862 4.255 2.128l1.064 3.191-3.191 3.191z" fill="#DEB4C9"/><path d="M7.447 97.872h2.128c1.574 3.149 1.128 6.106 1.064 9.574-2.266-3.394-2.66-5.606-3.191-9.574" fill="#E89DBB"/><path d="m32.979 23.404 2.128 1.064-1.064 5.319-5.319-1.064z" fill="#E687AD"/></svg>