<svg xmlns="http://www.w3.org/2000/svg" width="150" height="150" viewBox="0 0 150 150"><path d="m12.771 14.244.664-.004q1.102-.004 2.205.002l1.596-.005q2.194-.005 4.387-.001 2.366 0 4.731-.005 4.634-.007 9.268-.004 3.765.002 7.531-.001l1.082-.001 2.176-.001q10.206-.005 20.411.001 9.342.003 18.683-.008 9.587-.011 19.175-.008 5.385.002 10.769-.005 4.583-.006 9.166.001 2.339.005 4.679-.001 2.14-.006 4.28.003.776.002 1.551-.003 1.051-.004 2.104.005l.611-.008c1.692.026 2.657.711 3.902 1.785 1.105 1.337.723 3.495.641 5.108-.182 1.753-.492 3.489-.784 5.227l-.255 1.56q-.348 2.125-.703 4.249-.378 2.283-.752 4.567-.645 3.929-1.296 7.857a11996 11996 0 0 0-2.034 12.329l-.859 5.22-1.044 6.336a7649 7649 0 0 0-4.399 26.967l-1.427 8.839-.138.851q-.803 4.973-1.6 9.947-.495 3.091-.996 6.18-.341 2.106-.676 4.213-.203 1.27-.411 2.539-.138.854-.271 1.708c-.627 3.802-.627 3.802-2.149 5.174-1.03.713-1.546.824-2.788.827l-.961.004h-1.064l-1.124.003q-1.55.004-3.099.005l-3.338.006q-4.034.008-8.068.011l-3.798.004a18550 18550 0 0 1-16.725.013q-6.597.004-13.195.019-6.771.014-13.543.016-3.803 0-7.605.011-3.239.01-6.478.006a520 520 0 0 0-3.305.005q-1.793.007-3.585-.001l-1.052.01c-2.13-.017-3.866-.242-5.473-1.738-1.327-1.49-1.683-3.014-2-4.941l-.107-.644q-.177-1.07-.35-2.14l-.255-1.545q-.35-2.119-.696-4.239-.372-2.271-.747-4.542l-1.452-8.841a25661 25661 0 0 0-2.531-15.411l-.171-1.042-1.036-6.306a10883 10883 0 0 0-4.261-25.775l-1.028-6.18-.143-.861-.562-3.385a6600 6600 0 0 0-1.627-9.757 2915 2915 0 0 1-1.01-6.071q-.286-1.734-.579-3.467-.267-1.579-.525-3.159-.138-.83-.281-1.661C7 17.746 7 17.746 8.093 15.909c1.403-1.366 2.77-1.686 4.678-1.668m40.842 41.13 2.838 14.905.887 4.656.538 2.824.351 1.846 1.063 5.575.586 3.084.399 2.092.188.991.175.916.154.809c.141.722.141.722.438 1.559h27.832c.94-4.908.94-4.908 1.816-9.827l.165-.961.523-3.059.369-2.157.765-4.475.786-4.594.956-5.583.363-2.121.502-2.942.152-.886.137-.805.12-.701c.098-.565.098-.565.084-1.149z" fill="#2584FF"/></svg>