<svg xmlns="http://www.w3.org/2000/svg" width="150" height="148.82" viewBox="0 0 150 148.82"><path d="m26.455 3.419.508-.001h1.395l1.517-.001 3.01-.001 3.605-.002 8.713-.003 4.123-.001 17.895-.003 14.322-.004a30830 30830 0 0 1 17.031-.005h.414l6.585-.003 6.621-.001q1.966.001 3.931-.002 1.315-.002 2.63 0 .748.001 1.496-.001c5.496-.014 10.692.975 15.266 4.225l.344.243c4.88 3.56 8.212 8.672 9.52 14.57l.061.274c.314 1.531.407 3.073.401 4.631l.001.518q.001.707-.001 1.412v1.541q.001 1.348-.001 2.697l-.001 4.01-.002 6.746-.003 9.208-.001 4.29v.217l-.003 10.432-.002 3.619v.227l-.003 11.118-.003 13.647v.425q-.003 14.048-.009 28.094h-.215l.008.255.006.342.008.336c-.024.399-.117.724-.236 1.106l-.132.507a31.6 31.6 0 0 1-2.336 6.253l-.12.24-.094.19h-.215l-.074.218c-.181.41-.421.757-.677 1.123l-.157.226a50 50 0 0 1-1.083 1.491l-.136.181a8 8 0 0 1-.341.409h-.215l-.101.201-.22.443h-.215v.215c-.142.144-.142.144-.349.315-.372.315-.727.643-1.08.979-1.335 1.248-2.923 2.426-4.573 3.219l-.454.221-.217.105c-.238.118-.47.245-.704.371-.778.389-1.617.648-2.44.923l-.744.253c-.766.257-1.483.434-2.297.455l-.232.026-.107.215c-.22.042-.22.042-.508.064l-.314.026-.331.024-.642.051-.289.021c-.272.023-.272.023-.518.083-.336.06-.649.066-.99.066l-.209.001H26.316l-.66-.001h-.371c-.285-.014-.285-.014-.5-.121a12 12 0 0 0-.5-.07l-.308-.038-.331-.04q-.511-.066-1.021-.134l-.541-.069c-1.89-.242-3.843-.988-5.56-1.795l-.225-.104-.64-.299-.219-.103-.526-.245v-.215l-.276-.08a6 6 0 0 1-1.106-.563l-.193-.116a8 8 0 0 1-.464-.314v-.215l-.248-.094c-.288-.12-.288-.12-.61-.335v-.215l-.429-.107v-.215l-.173-.069c-.355-.201-.633-.476-.927-.756l-.374-.352-.182-.171a17 17 0 0 0-.644-.557 5.2 5.2 0 0 1-.839-.949 21 21 0 0 0-.598-.773c-2.379-2.965-2.379-2.965-2.379-3.776l-.215-.107c-1.031-1.87-1.661-4.016-2.126-6.089l-.063-.28c-.323-1.531-.418-3.074-.413-4.634l-.001-.511v-1.391q.001-.759-.001-1.518l-.001-2.656q.001-1.975-.001-3.95l-.002-7.466-.001-7.845-.001-11.613v-3.773q.001-7.041-.002-14.082l-.002-3.548v-.221l-.001-13.471v-.413l-.002-6.17q-.002-3.51 0-7.019.001-1.963-.001-3.925-.001-1.313.001-2.626v-1.494c-.017-7.232 2.059-13.619 7.237-18.835 3.719-3.682 8.668-5.96 13.835-6.62l.223-.029c.839-.097 1.677-.094 2.52-.092" fill="#573D7B"/><path d="m41.631 34.549 21.124-.02 6.655-.009 3.958-.002L76 34.515q1.523-.003 3.045-.003l1.553-.002c1.914-.006 3.814.014 5.722.183l.22.019c5.833.526 12.032 2.672 16.035 7.133 3.181 3.82 4.369 8.392 4.339 13.291l-.001.341c-.006 1.639-.053 3.229-.475 4.823l-.063.242c-.134.501-.295.988-.474 1.475l-.075.204c-1.857 5.009-5.586 8.263-10.259 10.61-.288.13-.288.13-.503.13v.322l.332.023c.719.091 1.398.343 2.082.574l.217.073c1.104.371 2.149.79 3.162 1.369l.347.19c4.236 2.378 7.098 6.472 8.435 11.095.164.598.309 1.2.445 1.806l.054.23c.445 1.915.518 3.841.511 5.799q-.001.537.001 1.073l-.001.694.001.318a9.2 9.2 0 0 1-.191 1.813 14 14 0 0 0-.131.789 19.6 19.6 0 0 1-2.283 6.667l-.186.343c-1.175 2.105-2.859 3.97-4.75 5.451l-.174.138c-1.744 1.365-3.702 2.411-5.727 3.296l-.224.098c-16.167 6.945-43.644 2.904-55.353 2.904z" fill="#FEFEFE"/><path d="M56.223 80.043c6.843-.013 6.843-.013 9.715-.016l1.971-.002h.25q1.986-.002 3.972-.007 2.043-.005 4.086-.005 1.257-.001 2.515-.005l1.938-.002.788-.002c3.728-.017 7.552.428 10.496 2.935l.283.234c1.822 1.565 2.948 3.648 3.506 5.962l.052.215c.821 3.688.306 8.073-1.696 11.294-.232.341-.481.655-.751.966l-.216.259c-1.504 1.747-3.315 2.771-5.471 3.496l-.275.099c-1.667.563-3.561.67-5.306.665h-.338l-1.109-.001h-.8l-1.716-.001-2.48-.001q-2.013 0-4.025-.002l-3.908-.002h-.246l-1.906-.001-9.329-.005zm0-33.584c6.335-.009 6.335-.009 8.994-.011l1.823-.001h.231l3.678-.005 3.78-.004q1.061 0 2.121-.002l1.999-.002.731-.001c1.319-.004 2.593.034 3.897.24l.445.065c2.383.35 4.841 1.46 6.362 3.376.716.973 1.179 1.993 1.529 3.144l.066.214c.375 1.298.437 2.597.437 3.939q.001.416.008.832c.02 2.925-.886 5.622-2.945 7.743l-.195.219c-.994 1.077-2.328 1.811-3.669 2.357l-.293.123c-.733.289-1.485.456-2.261.588q-.25.043-.498.094c-1.193.22-2.387.19-3.596.185h-.743l-2.006-.003-2.1-.002q-1.761-.001-3.521-.004-1.812-.003-3.625-.004h-.228l-1.968-.001-8.454-.01z" fill="#573D7B"/><path d="M99.464 70.494c0 .322 0 .322-.134.49a2 2 0 0 1-.617.369l-.429-.107z" fill="#5D4A7C"/><path d="M95.923 72.532v.322l-.751.429-.107-.322z" fill="#5F4C7A"/></svg>