<svg xmlns="http://www.w3.org/2000/svg" width="150" height="150.439" viewBox="0 0 150 150.439"><path d="M78.509 32.456a128 128 0 0 1 1.781 4.658c.149.417.303.829.456 1.254 2.105 8.219 1.864 19.566-1.36 27.421-.066.706-.066.706-.136 1.425-.469 2.544-1.719 4.645-2.934 6.908l-.649 1.241c-1.544 2.899-3.259 5.662-5.053 8.408q-.263.414-.539.842a17.7 17.7 0 0 1-2.531 3.105c-.667.781-1.32 1.57-1.974 2.36-.658.711-.658.711-1.974 1.589l-.439 1.316-2.193.439c-.026.272-.053.544-.083.825-.118.307-.232.614-.355.93a55 55 0 0 1-2.193.877l-.439 1.316c-.904.303-.904.303-1.754.439v.877c-1.316.877-1.316.877-2.632.877v.877c-2.32 1.754-2.32 1.754-3.947 1.754v.877c-3.601 2.478-8.004 5.118-12.281 6.14l-1.232.711c-1.763.763-2.623.654-4.469.167a27 27 0 0 1-3.07-1.754l-1.316-.864q-1.98-1.316-3.947-2.645l-1.316-.877v-.877l-.987-.329c-1.307-.592-2.039-1.211-2.961-2.303v-.877c-.25-.105-.5-.211-.759-.316-1.202-.68-1.947-1.478-2.86-2.509-.311-.342-.618-.684-.939-1.039-.705-.962-.705-.962-.705-2.278l-1.316-.439c-.627-.996-.627-.996-1.263-2.303q-.308-.624-.623-1.268-.379-.843-.746-1.693-.276-.61-.566-1.241c-1.526-3.596-1.978-6.684-1.899-10.575.004-.539.009-1.079.018-1.632.105-3.961.557-7.145 2.447-10.675.237-.461.478-.921.719-1.395 2.061-3.728 4.518-7.075 7.614-10.009.351-.364.706-.724 1.07-1.096 3.37-3.288 3.37-3.288 4.633-3.288v-.877c.618-.496.618-.496 1.496-1.035.325-.197.645-.395.978-.601.351-.211.702-.421 1.061-.64l1.079-.649c8.281-4.926 8.281-4.926 12.93-5.409v-.877c.285-.083.57-.171.868-.259l1.158-.346c.605-.175.605-.175 1.224-.36a56 56 0 0 0 2.478-.842c1.417-.425 2.741-.566 4.211-.675 1.281-.189 2.43-.614 3.658-1.026 8.132-1.886 16.259-1.82 24.561-1.754" fill="#4DB849"/><path d="M123.684 48.684c.868.219.868.219 1.754.439V50c.272.11.544.219.825.329 1.105.654 1.246 1.18 1.807 2.303.412.206.412.206.829.417 4.794 2.395 7.522 9.461 9.202 14.246.89 2.807 1.013 5.333 1.018 8.254l.013 1.202c.022 9.303-5.039 17.004-11.294 23.531a26 26 0 0 1-2.811 2.351 44 44 0 0 0-3.149 2.496c-1.25 1-2.456 1.645-3.895 2.329l-.877.877c-.298.118-.596.237-.904.355-1.083.439-1.965.912-2.961 1.509-4.281 2.408-9.132 3.89-13.855 5.154a62 62 0 0 0-2.882.868c-4.325 1.39-8.605 1.829-13.118 2.206-1.263.105-2.526.219-3.789.333-.816.075-1.636.145-2.452.219-.368.031-.741.066-1.123.096-6.627.548-6.627.548-8.917-.215q-1.066-.138-2.145-.237l-1.246-.114-1.298-.114c-.434-.039-.864-.079-1.311-.123l-3.21-.29v-1.316q.389-.104.789-.215c2.548-.689 5.096-1.386 7.645-2.083q1.526-.42 3.053-.82c3.667-.996 6.969-2.342 10.338-4.088.386-.202.776-.399 1.175-.605.342-.184.684-.368 1.039-.557.961-.403.961-.403 2.715-.403v-.877a36 36 0 0 1 2.386-1.425 74 74 0 0 0 6.061-3.807c.764-.47.764-.47 1.641-.47v-.877c1.711-1.798 3.386-3.061 5.702-3.947l.399-.816c.675-1.325 1.671-1.987 2.82-2.886.776-.649.776-.649 1.18-1.588.425-.851.425-.851 1.741-1.728l.439-1.316 1.754-1.754c.921-1.14 1.781-2.32 2.632-3.509.228-.32.456-.636.693-.965 1.526-2.206 2.693-4.439 3.693-6.93h.877c.07-.268.14-.531.211-.807.57-2.048 1.224-3.895 2.228-5.772.952-1.816 1.417-3.452 1.746-5.465.206-1.149.518-2.219.86-3.333.711-2.5.991-5 1.25-7.579.246-2.404.246-2.404.724-3.36" fill="#0377C0"/><path d="M99.544 19.687c.566.004 1.136.004 1.719.009h.912l2.895.013q.98.005 1.961.004c1.605.009 3.206.013 4.811.022.136 7.961.232 15.746-1.154 23.614-.228 1.325-.395 2.658-.575 3.991-.491 3.145-1.346 6.184-2.219 9.237-.224.807-.224.807-.456 1.627-.491 1.693-1.092 3.311-1.737 4.952-.206.526-.206.526-.412 1.061-.969 2.452-1.982 4.882-3.096 7.272-.285.61-.285.61-.57 1.232-1.592 3.303-3.478 6.289-5.57 9.294l-.829 1.228a35.7 35.7 0 0 1-4.434 5.351 214 214 0 0 0-3.031 3.846l-.917.978h-1.316c-.061.399-.061.399-.127.807-.382 1.167-.759 1.421-1.763 2.101-1.618 1.14-3.127 2.364-4.632 3.645-11.487 9.675-11.487 9.675-15.408 9.675v.877c-1.478.715-2.961 1.43-4.439 2.14l-1.268.61c-2.022.969-3.991 1.851-6.136 2.513q-.981.426-1.947.877c-1.662.754-3.307 1.276-5.07 1.754-.496.202-.996.399-1.509.605-2.364.912-4.842 1.452-7.307 2.044-1.605.39-3.189.846-4.781 1.298-3.697.939-7.145 1.526-10.965 1.316l-.439-.877c.439-.877.439-.877 1.18-1.162.325-.083.645-.167.978-.25.364-.101.728-.197 1.105-.298.399-.105.794-.211 1.206-.316 3.535-.969 7-2.066 10.443-3.316.408-.149.811-.294 1.228-.443 1.921-.711 3.601-1.478 5.351-2.548a88 88 0 0 1 2.583-.961c1.544-.592 3.013-1.333 4.491-2.079.294-.149.592-.294.899-.447 1.82-.912 3.5-1.934 5.184-3.092.518-.307 1.035-.61 1.561-.904a72 72 0 0 0 2.741-1.618c.961-.548.961-.548 1.838-.548l.439-1.316c1.053-.737 1.921-1.254 3.18-1.535q.38-.107.768-.219l.439-1.316c.728-.868 1.404-1.364 2.386-1.943 1.162-.649 1.162-.649 2.083-1.645l.794-.798h.877l.439-1.316h.877q.164-.374.329-.768c.636-1.14 1.364-1.825 2.303-2.741.544-.596 1.083-1.202 1.618-1.807.263-.298.526-.601.798-.908.68-.768.68-.768 1.092-1.671h.877l.351-.982c.522-1.202 1.083-1.996 1.925-2.991 4.219-5.285 7.009-11.579 9.434-17.846.57-1.425.57-1.425 1.061-2.368.443-.934.605-1.763.772-2.785.303-1.658.741-3.162 1.325-4.741 1.123-3.325 1.649-6.68 2.127-10.14l.145-1.018c1.048-7.5 1.039-14.947.829-22.504.018-1.711.018-1.711 1.75-1.776" fill="#CDDD35"/><path d="M136.842 65.789c.877.439.877.439 1.25 1.215.908 2.908 1.07 5.684 1.079 8.706l.009 1.175c-.101 9.263-5.136 16.917-11.368 23.421-1.058 1.01-1.058 1.01-2.373 1.887.127-.237.254-.469.386-.711.566-1.197.969-2.417 1.368-3.675h2.193v-2.193c1.088-.219 1.088-.219 2.193-.439q.027-1.096 0-2.193l-.439-.439v2.193h-.439V90.35h1.754l.439-1.754h1.316c.018-.263.031-.531.048-.803.298-3.605.298-3.605 1.706-4.899h.877V81.14h.877v-3.947l-1.316-.439.439-4.825.439 1.754.439-.439a49 49 0 0 0-.412-2.522c-.311-1.675-.518-3.228-.465-4.934" fill="#0B78BD"/><path d="M78.509 32.456a128 128 0 0 1 1.781 4.658c.149.417.303.829.456 1.254.987 3.864.904 7.886.886 11.851.004.461.004.921.009 1.395a83 83 0 0 1-.5 8.912h-.439l.009-1.382c.004-1.693.013-3.386.013-5.079l.013-2.197c.004-1.057.004-2.11.009-3.162.004-.491.004-.491.004-.991 0-1.509-.075-2.846-.487-4.294.026-.469.053-.939.083-1.425-.105-2.088-.838-3.364-1.838-5.154l-1.316-2.632-10.088-.439v.877l-6.579.439v-.877h-1.316v.877h-1.316v-.877l-3.509.439v.877h-3.07l.439-.877c.785-.254.785-.254 1.811-.456l1.145-.224 1.237-.224 1.276-.237c7.061-1.246 14.136-1.11 21.285-1.053" fill="#76C072"/><path d="m12.719 57.018 1.316.439-.439 1.754h-1.754l.439 4.386-1.316.877v-.877c-1.224.61-1.285 1.386-1.754 2.632l-.439.439c-.101.592-.18 1.184-.246 1.781-.066.57-.127 1.14-.193 1.728h-.877c.136 2.487.281 4.969.439 7.456.031.509.061 1.018.096 1.539.031.421.061.846.096 1.285l.079 1.123c.101.974.101.974 1.044 1.754.088 1.044.088 1.044.053 2.246-.004.404-.013.803-.022 1.211-.009.307-.022.614-.031.93-2.5-3.75-2.934-7.289-2.877-11.732l.013-1.654c.092-3.991.509-7.18 2.425-10.737l.798-1.487a83 83 0 0 1 3.149-5.092" fill="#61B95C"/><path d="M48.684 35.526v.877c-.728.447-1.456.886-2.193 1.316l-.439.877c-1.342.272-1.342.272-2.632.439l.439 3.07H40.35v-2.632c-.434.649-.434.649-.877 1.316l-.877-.439v-.439l-3.509.439c1.873-1.25 2.974-1.882 5.263-1.754v-.877c.285-.083.57-.171.868-.259 1.684-.5 3.364-1.004 5.026-1.579 1.124-.355 1.124-.355 2.44-.355" fill="#5DBD58"/><path d="m44.737 104.386.877.877a644 644 0 0 1-3.18 1.728l-.908.496c-.289.158-.579.311-.882.474l-.807.439c-.842.39-1.658.588-2.557.811-.408.237-.816.469-1.232.711-1.746.754-2.654.671-4.469.167-1.07-.904-1.07-.904-1.754-1.754q1.348-.153 2.697-.298c.816-.061.816-.061 1.25-.579 1.132-.123 2.263-.197 3.399-.272.325-.057.649-.11.987-.167l.439-.877h3.509v-1.316l1.754.877v-.877z" fill="#68BD64"/><path d="m34.211 40.351.877.439-.439.877h-1.316v.877l-1.452.386c-1.636.412-1.636.412-2.934 1.368l.439.877H28.07v3.947h-.877v-1.316h-1.316v-.877H25l.439 2.193h-1.754c-.623.066-1.246.136-1.864.219-.816.11-.816.11-1.645.219a39 39 0 0 1 1.754-1.754h.877v-.877c.671-.513.671-.513 1.605-1.079.338-.206.68-.412 1.031-.627l1.092-.654 1.053-.64c2.158-1.303 4.32-2.544 6.623-3.579" fill="#6EC36B"/><path d="m92.982 101.754.439.877h-.877l.439 1.316-.439 1.316h-1.316c-.083.561-.162 1.123-.246 1.702-.048.311-.092.627-.14.952-.127.89-.127.89.386 1.732h-1.754l-.548-.877c-.671-.961-.671-.961-1.627-.996-.886.009-1.768.061-2.649.118v-.877c.794-.518 1.61-.996 2.439-1.452 2.066-1.171 3.996-2.386 5.895-3.811" fill="#1B82C1"/><path d="m18.86 100.877 3.947.877-.439 1.316q.5-.038 1.013-.083c1.425.101 1.579.368 2.496 1.399.583.311.583.311 1.18.632.333.224.667.452 1.013.684v1.754h1.754v.877c-1.982-.232-3.114-.991-4.689-2.193-1.539-1.202-1.539-1.202-3.206-2.193v-.877a97 97 0 0 0-1.044-.355c-1.148-.522-1.148-.522-2.025-1.838" fill="#71C170"/><path d="M79.386 35.965c2.89 2.89 2.25 9.088 2.254 12.86-.004.461-.004.921-.009 1.395.004.461.004.921.009 1.395a83 83 0 0 1-.5 8.912h-.439c.004-.456.004-.912.009-1.382.004-1.693.013-3.386.013-5.079l.013-2.197c.004-1.057.004-2.11.009-3.162.004-.491.004-.491.004-.991 0-1.509-.075-2.846-.487-4.294l.026-1.561c.11-1.561.11-1.561-.904-2.825a42 42 0 0 1 0-3.07" fill="#86CF84"/><path d="M75.439 71.93h1.316c-.724 2.627-1.754 4.882-3.096 7.237-.158.272-.311.548-.469.829-1.145 1.965-1.145 1.965-2.136 2.461-.544-1.57-.329-2.781 0-4.386.868.219.868.219 1.754.439l.439-3.07 1.754-.439v-1.316h.877z" fill="#6CBC66"/><path d="m19.737 49.561.439 1.316-.877.877c-.202.864-.202.864-.272 1.807-.057.561-.11 1.123-.167 1.702-.469.044-.939.092-1.425.136-1.583.289-2.241.553-3.399 1.618l-.877-.439c1.772-2.583 3.728-4.592 6.14-6.579z" fill="#65BD61"/><path d="m123.246 102.193 1.316.439c-2.079 1.943-3.947 3.671-6.579 4.825l-.877.877c-1.368-.167-1.368-.167-2.632-.439l1.316-.439v-.877l-.877-.439 4.386-.877.439-1.754h2.632v-.877z" fill="#2E88C0"/><path d="m133.772 91.228.439 1.316c-.553.899-.553.899-1.368 1.89-.285.351-.57.697-.864 1.057-.417.496-.417.496-.838 1-.307.377-.307.377-.618.768-1.518 1.873-3.07 3.592-5.083 4.934.127-.237.254-.469.386-.711.566-1.197.969-2.417 1.368-3.675h2.193v-2.193l2.193-.439v-2.193h1.316z" fill="#3F97C5"/><path d="M78.947 118.421v.439c-1.561.088-3.123.167-4.689.246-.439.026-.882.048-1.338.075-.64.031-.64.031-1.298.066-.39.022-.785.039-1.189.061-1.171-.009-2.189-.197-3.329-.447a132 132 0 0 0-3.425-.246c-.456-.031-.456-.031-.921-.057-.746-.048-1.487-.092-2.232-.136v-.439c6.193-.693 12.237-.14 18.421.439" fill="#57A2CD"/><path d="M84.649 108.333h-.877v3.07c-.732-.11-.732-.11-1.482-.219-1.833-.298-1.833-.298-3.509.246-1.263.452-1.662.351-2.904-.026a367 367 0 0 1 3.399-1.781l.969-.518c.311-.162.623-.32.943-.487l.864-.452c1.026-.333 1.588-.18 2.596.167" fill="#328BC1"/><path d="M121.053 61.842h.439v6.14h-.877v.877h-.877v1.754l1.316.439-1.316 1.316c-.583-.294-1.171-.583-1.754-.877.719-2.829.719-2.829 1.535-4.083.974-1.75 1.211-3.605 1.535-5.566" fill="#338CC2"/><path d="M102.632 112.281h4.825c-2.219 2.219-6.575 2.785-9.649 3.07 0-1.316 0-1.316.439-2.193h3.947z" fill="#2B86C2"/><path d="M50.877 99.561h2.632v.877c-2.32 1.754-2.32 1.754-3.947 1.754v.877c-2.311 1.412-2.311 1.412-3.07 1.754l-.877-.439.439-.877h.877v-.877h2.193l.439-2.193h1.316z" fill="#66B85F"/><path d="m14.035 93.86.439 1.754h1.754c.877 1.316.877 1.316.877 2.632l1.316.439.439 2.193-.877-.439v-.877c-.25-.101-.5-.206-.759-.311-1.224-.693-1.947-1.531-2.86-2.592-.311-.36-.618-.719-.939-1.088-.232-.276-.465-.548-.706-.833z" fill="#7BC174"/><path d="m123.684 48.684 1.754.439V50c.272.11.544.219.825.329 1.105.654 1.246 1.18 1.807 2.303l.877.439c1.092.548 1.311 1.083 1.754 2.193-1.982-.64-3.338-1.614-4.825-3.07-.605-1.452-.605-1.452-.877-2.632h-1.316z" fill="#368BB8"/><path d="m58.772 94.298 1.754.877c-.531.175-.531.175-1.07.355l-1.123.522-.439 1.316c-.904.303-.904.303-1.754.439v.877l-2.193.877c.355-1.07.355-1.07.877-2.193l1.316-.439v-2.193h.877v.877h1.754z" fill="#74C06E"/><path d="M130.702 55.263c1.833.61 2.417 1.917 3.399 3.482l.566.86c.461.728.882 1.478 1.298 2.237-.439.877-.439.877-1.316 1.316q-.08-.525-.167-1.07l-.272-1.123-.877-.439v-.877l-1.316-.439c-1.211-1.211-1.132-2.285-1.316-3.947" fill="#4B98C9"/><path d="M136.842 65.789c.877.439.877.439 1.25 1.43.636 2.351 1.202 4.465.943 6.904l-.877.877c-.224-1.123-.439-2.246-.658-3.373-.061-.316-.127-.632-.189-.956-.32-1.654-.548-3.189-.469-4.882" fill="#4896C5"/><path d="M110.526 39.035h.439c.079 2.478-.224 4.772-.658 7.211-.061.36-.127.724-.189 1.096q-.232 1.329-.469 2.658h-.439c-.605-3.776-.575-7.539 1.316-10.965" fill="#D2DC60"/><path d="M99.561 97.368c-.632 1.474-1.425 2.452-2.632 3.509h-.877l-.439 1.316-1.754-.877h.877v-.877c.719-.759.719-.759 1.671-1.588.311-.281.623-.557.943-.842.896-.641.896-.641 2.211-.641" fill="#2883BA"/><path d="M97.368 39.474h.439a85 85 0 0 1-.018 1.105c0 .478-.004.952-.009 1.443-.004.474-.013.947-.018 1.434-.018 1.311-.018 1.311.482 2.596h-.877c.022.461.022.461.048.93.009.399.022.798.035 1.211.013.395.031.789.044 1.202q-.06.512-.127 1.044l-1.316.877q.203-2.222.412-4.439c.035-.421.075-.838.114-1.268.193-2.061.408-4.096.789-6.136" fill="#D4E16A"/><path d="M80.263 60.526c.465 1.395.43 2.092-.167 3.425-.522 1.268-.759 2.167-.956 3.566l-.193 1.342-.877.439q.093-1.48.193-2.961l.105-1.667c.11-1.154.246-2.162.579-3.268h1.316z" fill="#79C275"/><path d="M39.035 116.667c-2.465 1.807-4.816 2.851-7.895 3.07a48 48 0 0 1-1.754-.439 720 720 0 0 1 4.333-1.561l1.241-.456 1.193-.425c.364-.127.724-.259 1.101-.395.904-.233.904-.233 1.781.206" fill="#D0E166"/><path d="m68.421 83.772 1.316.439c-.535 1.522-1.044 2.404-2.193 3.509-.469.535-.939 1.075-1.399 1.618-.232.272-.465.544-.702.825l-.531.627-.877-.439a47 47 0 0 1 1.754-2.193h.877v-3.07h1.754z" fill="#83C97D"/><path d="M48.684 35.526v.877c-.728.447-1.456.886-2.193 1.316l-.439.877-.439-.439a59 59 0 0 0-2.658-.026c-.487.004-.969.009-1.469.009q-.558.012-1.136.018v-.439c.285-.083.57-.171.868-.259 1.684-.5 3.364-1.004 5.026-1.579 1.124-.355 1.124-.355 2.44-.355" fill="#7FC678"/><path d="m75.877 112.281-1.316.439-.439.877c-1.123.272-1.123.272-2.193.439v.877l-3.947-.439a70 70 0 0 1 3.947-1.838c.373-.158.741-.32 1.123-.482 1.158-.338 1.711-.276 2.825.127" fill="#3D97CA"/><path d="m6.579 81.14 1.316.439-.439 1.316 1.754.439v4.386c-.789-1.184-1.285-2.224-1.807-3.535-.158-.386-.311-.772-.474-1.167-.35-1-.35-1-.35-1.878" fill="#80CB77"/><path d="M79.386 35.965c1.961 1.961 1.912 5.018 2.026 7.649l.053.969c.044.785.079 1.566.114 2.346-.921-1.803-1.325-3.013-1.289-5.07.11-1.561.11-1.561-.904-2.825a42 42 0 0 1 0-3.07" fill="#AEE2A9"/><path d="m67.105 114.035.439.877.877.439q-1.349.153-2.697.298c-.816.061-.816.061-1.25.579-.886.101-1.772.18-2.658.246-.487.039-.969.075-1.469.114l-1.136.079c1.575-.882 3.202-1.329 4.934-1.807.829-.232.829-.232 1.68-.474z" fill="#55A2C5"/><path d="m92.982 101.754.439.877h-.877l.439 1.316-.439 1.316h-2.632v-1.316c.671-.61.671-.61 1.535-1.18.285-.189.57-.382.864-.579.219-.145.443-.285.671-.434" fill="#3A91CA"/><path d="M94.737 114.912v.877c1.522-.219 1.522-.219 3.07-.439-1.974 1.316-3.763 1.895-6.14 1.754l1.754-.439v-.877l-1.754.439-.439-.877c1.268-.364 2.145-.439 3.509-.439" fill="#4AA2D4"/><path d="m62.281 116.228.439 1.754h-4.825v-1.316c3.399-.439 3.399-.439 4.386-.439" fill="#2E80A6"/><path d="m9.211 62.719.877 1.316c-.57 1.991-1.689 3.86-2.632 5.702-.509-1.259-.434-1.763 0-3.079.206-.465.417-.934.632-1.417.206-.474.412-.947.627-1.434.162-.36.329-.719.496-1.088" fill="#87CA85"/><path d="M136.404 84.211h1.316c-.197.715-.399 1.425-.605 2.14-.11.395-.224.789-.338 1.202-.373 1.043-.373 1.043-1.251 1.921-.079-1.996 0-3.456.877-5.263" fill="#3B97CB"/><path d="m12.719 57.018 1.316.439-.439 1.754h-1.754v1.754l-1.754.877c.636-1.803 1.539-3.259 2.632-4.825" fill="#7FCA7B"/><path d="M9.211 87.719c.649.434.649.434 1.316.877l-.439.877 1.316.439c.417.811.417.811.741 1.781l.333.978q.117.369.241.75c-1.596-.531-1.719-.917-2.496-2.36q-.283-.517-.579-1.048c-.433-.978-.433-.978-.433-2.294" fill="#7FC47C"/><path d="M138.158 77.193c.877.877.877.877.899 1.974l-.132 1.289c-.039.425-.079.846-.118 1.285-.211 1.154-.211 1.154-1.088 2.47-.044-2.39-.057-4.667.439-7.018" fill="#4798C9"/><path d="M117.544 71.93c.706 1.763.259 3.114-.439 4.825-1.149.632-1.149.632-2.193.877l.877-2.632h.877z" fill="#4696C3"/><path d="M91.667 64.474c.491.711.491.711.877 1.754-.272 1.368-.272 1.368-.877 2.632-.917.518-.917.518-1.754.877l.632-2.14c.114-.395.232-.789.355-1.202.328-1.044.328-1.044.767-1.921" fill="#D8E661"/><path d="M42.105 117.982h2.632c-1.522 1.395-3.241 1.956-5.263 2.193-.987-.197-.987-.197-1.754-.439 1.491-.917 2.654-.956 4.386-.877z" fill="#DAE579"/><path d="M70.614 96.053h.877l.439 1.316-.961.329c-1.338.596-2.289 1.382-3.425 2.303h-.877v-.877a223 223 0 0 1 2.193-1.316l.961-.961z" fill="#D3E064"/><path d="m62.719 91.667.439 1.316-2.193.439-.439 1.316-.439-2.632z" fill="#78C577"/><path d="M84.211 80.263c0 1.364-.237 1.908-.877 3.07h-.877l-.439 1.754-.877-.877 1.289-1.728c.237-.32.478-.64.724-.969.618-.811.618-.811 1.057-1.25" fill="#D9E474"/><path d="M108.772 110.088h3.947c-1.289 1.096-2.272 1.522-3.947 1.754z" fill="#4193C5"/><path d="M37.281 109.211c-2.096 1.276-3.311 1.404-5.702.877 1.851-1.232 3.57-1.588 5.702-.877" fill="#97D188"/><path d="M89.474 70.175h.439c.053 2.522.053 2.522-.439 3.509h-.877v.877h-.877c.583-1.461 1.171-2.925 1.754-4.386" fill="#D1E15F"/><path d="M46.93 102.632h2.632c-2.254 1.943-2.254 1.943-3.947 2.193l.439-1.316h.877z" fill="#83C57E"/><path d="m108.333 87.281.439 1.754c-.434.219-.434.219-.877.439v.877l-1.754-.439c.601-1.386.873-1.75 2.193-2.632" fill="#4898CA"/><path d="m94.737 54.825.877.439c-.496 1.803-1.026 3.544-1.754 5.263-.522-1.504-.351-2.36.193-3.838q.184-.524.382-1.061c.101-.268.197-.531.303-.803" fill="#D7E27A"/><path d="m57.895 97.368-1.754.439v.877l-2.193.877c.329-1.07.329-1.07.877-2.193 1.285-.579 1.702-.456 3.07 0" fill="#8FCE8B"/><path d="m110.965 83.772.439 1.754-1.754.439v1.316h-.877c.522-1.482 1-2.478 2.193-3.509" fill="#5EAFD0"/><path d="m96.053 99.123.877.439-1.316 2.632-1.754-.877h.877v-.877c.658-.711.658-.711 1.316-1.316" fill="#4FA3CC"/><path d="M122.368 57.018h.439q.032 1.067.053 2.14c.013.395.022.789.035 1.202-.088 1.044-.088 1.044-.965 1.921-.64-1.982-.118-3.298.439-5.263" fill="#55A3D0"/><path d="m15.351 53.947.439 1.754-1.754 1.316-.877-.439z" fill="#8ACE84"/><path d="M79.386 35.965c1.32 1.32 1.14 2.553 1.316 4.386-.658-.465-.658-.465-1.316-1.316-.083-1.618-.083-1.618 0-3.07" fill="#86D186"/></svg>