<svg xmlns="http://www.w3.org/2000/svg" width="50" height="50" viewBox="0 0 50 50"><path d="m8.206 6.225.368-.002.405.001.43-.002q.591-.002 1.182-.001.638 0 1.274-.003l2.787-.003 1.74-.002 6.066-.004h.314q2.517 0 5.034-.007 2.584-.006 5.167-.006 1.45 0 2.902-.004 1.235-.004 2.471-.002.63.002 1.261-.002.577-.003 1.154 0 .209.001.417-.002c.782-.007 1.386.011 1.988.55.437.472.61.824.612 1.467l.002.368v.405l.002.429q.003.591.002 1.181 0 .637.003 1.274.004 1.393.005 2.786l.002 1.739.005 4.815v1.563q.002 2.515.009 5.032.007 2.583.007 5.166 0 1.45.005 2.9.005 1.235.002 2.47-.002.63.002 1.26.004.578 0 1.154-.001.208.002.417c.01.853-.061 1.459-.66 2.097-.452.389-.864.5-1.453.501l-.365.001h-.403l-.427.001-1.176.002-1.267.002-3.062.004-1.441.001-6.034.004h-.312l-5.007.006q-2.57.005-5.139.005-1.443 0-2.886.004-1.229.003-2.458.002l-1.254.002q-.574.003-1.149 0l-.415.001c-.768.006-1.329-.016-1.982-.44-.201-.199-.201-.199-.336-.397l-.14-.199c-.211-.355-.22-.65-.221-1.054l-.001-.366v-.405l-.001-.428-.002-1.179-.003-1.271-.005-3.07-.001-.867-.007-6.629v-.313q-.002-2.511-.009-5.022a2439 2439 0 0 1-.007-5.154q0-1.448-.005-2.894-.004-1.232-.003-2.465l-.002-1.258q-.003-.576 0-1.152l-.002-.416c-.01-.777.008-1.379.547-1.98.472-.437.824-.61 1.468-.611" fill="#222020"/><path d="m8.206 6.225.368-.002.405.001.43-.002q.591-.002 1.182-.001.638 0 1.274-.003l2.787-.003 1.74-.002 6.066-.004h.314q2.517 0 5.034-.007 2.584-.006 5.167-.006 1.45 0 2.902-.004 1.235-.004 2.471-.002.63.002 1.261-.002.577-.003 1.154 0 .209.001.417-.002c.782-.007 1.386.011 1.988.55.437.472.61.824.612 1.467l.002.368v.405l.002.429q.003.591.002 1.181 0 .637.003 1.274.004 1.393.005 2.786l.002 1.739.005 4.815v1.563q.002 2.515.009 5.032.007 2.583.007 5.166 0 1.45.005 2.9.005 1.235.002 2.47-.002.63.002 1.26.004.578 0 1.154-.001.208.002.417c.01.853-.061 1.459-.66 2.097-.452.389-.864.5-1.453.501l-.365.001h-.403l-.427.001-1.176.002-1.267.002-3.062.004-1.441.001-6.034.004h-.312l-5.007.006q-2.57.005-5.139.005-1.443 0-2.886.004-1.229.003-2.458.002l-1.254.002q-.574.003-1.149 0l-.415.001c-.768.006-1.329-.016-1.982-.44-.201-.199-.201-.199-.336-.397l-.14-.199c-.211-.355-.22-.65-.221-1.054l-.001-.366v-.405l-.001-.428-.002-1.179-.003-1.271-.005-3.07-.001-.867-.007-6.629v-.313q-.002-2.511-.009-5.022a2439 2439 0 0 1-.007-5.154q0-1.448-.005-2.894-.004-1.232-.003-2.465l-.002-1.258q-.003-.576 0-1.152l-.002-.416c-.01-.777.008-1.379.547-1.98.472-.437.824-.61 1.468-.611m10.056 5.689c-.405.49-.759.962-.977 1.563l-.223.001c-1.964.071-3.594 1.083-4.953 2.44l-.198.195c-1.581 1.671-2.017 3.872-1.974 6.092a6.46 6.46 0 0 0 .743 2.881c.355.7.355.7.35 1.052-.078.22-.18.413-.289.62q-.086.303-.159.61l-.071.288-.062.274-.056.235c-.333 2.013.287 4.162 1.423 5.82.277.343.572.661.879.977l.16.182c1.113 1.222 3.042 2.206 4.687 2.286 1.272.068 1.272.068 1.666.371.19.25.353.509.519.775 1.382 1.487 3.399 2.313 5.407 2.395 2.399.033 4.618-.95 6.334-2.603.527-.547.987-1.125 1.247-1.844l.198-.001c1.969-.079 3.616-1.081 4.978-2.441l.198-.195c1.627-1.719 2.017-3.974 1.962-6.245-.041-1.006-.275-1.837-.732-2.728-.424-.835-.424-.835-.281-1.276l.101-.226c.786-1.782.691-3.847.021-5.64-.91-2.149-2.567-3.765-4.702-4.679-.77-.294-1.506-.496-2.329-.544-.962-.06-.962-.06-1.326-.347-.188-.248-.188-.248-.359-.513-.833-1.289-2.466-1.987-3.881-2.412l-.238-.073c-2.952-.741-6.035.604-8.063 2.71" fill="#B61C1C"/><path d="m33.594 16.016.3.125c1.756.806 2.829 2.196 3.519 3.958.238.749.214 1.487.185 2.264l-.133-.104c-2.212-1.698-4.458-2.397-7.241-2.117-1.651.249-3.429 1.27-4.461 2.593-.177.214-.177.214-.439.251-.226-.037-.226-.037-.324-.134-.152-1.792.357-3.473 1.44-4.913 1.754-2.05 4.606-3.008 7.154-1.923m-9.18 11.035c.304-.012.304-.012.586 0 .05 1.87-.273 3.495-1.465 4.98l-.151.202c-.906 1.142-2.411 1.938-3.853 2.142-1.974.091-3.587-.346-5.139-1.624-1.099-1.022-1.832-2.446-1.99-3.942a18 18 0 0 1 0-1.172l.133.104c2.242 1.721 4.6 2.444 7.417 2.087 1.565-.318 3.34-1.287 4.285-2.582z" fill="#B51C1C"/><path d="m16.406 15.43-.021.216c-.249 2.796.156 5.145 1.915 7.409 1.135 1.271 2.698 2.134 4.39 2.34l.259.093c.135.301.135.301.195.586-1.834.947-3.84 1.677-5.926 1.019a9 9 0 0 1-.519-.238l-.31-.14c-1.671-.817-2.682-2.123-3.303-3.863-.506-1.475-.241-3.208.391-4.596.472-.897 1.825-2.826 2.93-2.826m14.373 7.293.304-.001c1.59.011 3.124.668 4.286 1.759 1.32 1.409 1.793 2.987 1.766 4.873-.062 1.758-.972 3.18-2.214 4.366-.931.85-.931.85-1.328.85l.021-.159c.33-2.928-.173-5.228-2.008-7.552-.999-1.186-2.722-2.103-4.258-2.298l-.298-.049c-.195-.293-.195-.293-.195-.586a87 87 0 0 1 .763-.421l.213-.12c.96-.52 1.864-.679 2.949-.662" fill="#B51C1C"/><path d="M26.758 26.074c1.663.736 2.951 2.034 3.641 3.725.19.541.339 1.071.363 1.646l.015.332c.02.817-.05 1.529-.308 2.304l-.094.288c-.572 1.55-1.7 2.651-3.172 3.362-.63.288-1.213.507-1.91.549l-.2.014c-1.498.09-2.82-.157-4.096-.99v-.195l.307-.108c2.239-.8 3.868-2.169 4.966-4.287.834-1.797.919-3.764.391-5.664l-.063-.235a15 15 0 0 0-.133-.448zm2.246-13.379c-.151.302-.448.337-.751.446-2.18.833-3.675 2.421-4.675 4.506-.72 1.652-.705 3.488-.238 5.205.131.715.131.715 0 .977-1.106-.128-2.087-1.117-2.775-1.944-1.091-1.479-1.507-3.165-1.327-4.99.279-1.566 1.13-3.03 2.417-3.973 2.236-1.482 5.03-1.696 7.349-.226" fill="#B51C1C"/></svg>