<svg xmlns="http://www.w3.org/2000/svg" width="150" height="168.875" viewBox="0 0 150 168.875"><path d="M74.672-.03q.392-.002.784-.009c3.28-.026 5.899 1.306 8.669 2.914l.308.178q.632.368 1.26.742c.7.416 1.407.822 2.112 1.228l.419.242.852.49 2.049 1.183.813.469 4.875 2.813.406.234.812.469 2.041 1.177a689 689 0 0 1 3.913 2.269 336 336 0 0 0 3.265 1.881 371 371 0 0 1 3.633 2.098q1.974 1.151 3.956 2.291l2.035 1.174.813.469 17.875 10.313.406.234.812.469 2.036 1.172q1.219.7 2.433 1.406l.426.246q.631.367 1.261.738l.382.221c.863.512 1.582 1.103 2.306 1.795l.352.318c2.125 2.026 3.975 5.442 4.055 8.424q.002.342.001.683l.001.385v1.275l.002.924q.002 1.004.001 2.008l.002 2.986q.004 2.822.003 5.644l.002 5.614v.315l.002 10.789v1.01q0 5.238.005 10.476a11339 11339 0 0 1 .006 13.029v.312q0 2.486.004 4.971.003 2.499.001 4.999-.002 1.484.002 2.967.003 1.11-.001 2.219-.001.448.002.895c.016 3.639-1.001 6.983-3.439 9.757l-.255.31c-1.468 1.728-3.376 2.728-5.324 3.827-.644.365-1.282.739-1.921 1.113a777 777 0 0 1-4.34 2.514l-2.035 1.174-.813.469-.406.234-24.375 14.063-.812.469-2.041 1.177a689 689 0 0 0-3.913 2.269 366 366 0 0 1-3.489 2.01 351 351 0 0 0-3.41 1.97c-1.315.769-2.636 1.53-3.956 2.291L87.5 163.94l-.807.465-2.114 1.22-.839.483c-.82.471-.82.471-1.629.958a12.5 12.5 0 0 1-4.736 1.687l-.273.042c-3.355.425-6.691-.208-9.586-1.948l-.797-.471-.418-.247c-.716-.421-1.438-.831-2.16-1.242l-1.11-.633q-1.754-1.004-3.503-2.017l-2.027-1.17-.813-.469-.406-.234-5.687-3.281-2.041-1.177a689 689 0 0 1-3.913-2.269 336 336 0 0 0-3.266-1.887 371 371 0 0 1-3.633-2.098c-1.315-.769-2.636-1.53-3.956-2.291l-2.035-1.174-.813-.469-17.875-10.313-.407-.235-.808-.467-2.092-1.204a532 532 0 0 1-2.381-1.374l-.277-.161c-3.529-2.057-5.793-5.225-6.859-9.138l-.114-.451-.069-.263c-.083-.533-.074-1.06-.074-1.599l-.001-.383-.001-1.277-.002-.921-.003-2.272-.003-2.722-.007-6.579-.002-2.18-.009-14.619q-.002-5.408-.011-10.814a8773 8773 0 0 1-.01-12.694v-.313a2874 2874 0 0 0-.006-4.971q-.005-2.501-.003-5.002a692 692 0 0 0-.004-2.968q-.004-1.111.001-2.222.001-.447-.002-.895c-.022-3.816 1.117-7.336 3.788-10.14L4 39.25l.323-.325.302-.3.214-.213c.795-.739 1.726-1.249 2.661-1.787l.73-.423 2.092-1.206 2.053-1.183.813-.469.406-.234 4.875-2.813.812-.469 2.041-1.177a689 689 0 0 0 3.913-2.269 346 346 0 0 1 3.489-2.01 351 351 0 0 0 3.41-1.97q1.974-1.152 3.956-2.291l2.035-1.174 1.219-.703L63.719 4.172l.808-.466A192 192 0 0 0 66.4 2.617l.654-.384.813-.481C70.011.497 72.204-.023 74.672-.03" fill="#659AD0"/><path d="M148.133 42.271c.439.189.556.672.734 1.089l.122.263c.931 2.126 1.102 4.193 1.089 6.487l.003.927q.003 1.002 0 2.003a592 592 0 0 0 0 2.979q.004 2.661 0 5.322-.003 2.328-.002 4.657v.313l.001 1.257q.001 5.887-.005 11.774-.005 5.226-.002 10.451l.002 2.677v.333a8378 8378 0 0 1-.002 10.311v4.654q.002 2.646-.003 5.293-.003 1.48-.001 2.959 0 1.106-.003 2.213-.001.446.001.892c.013 3.636-1.005 6.978-3.441 9.75l-.255.31c-1.468 1.728-3.376 2.728-5.324 3.827-.644.365-1.282.739-1.921 1.113a777 777 0 0 1-4.34 2.514l-2.035 1.174-.813.469-.406.234-24.375 14.063-.812.469-2.041 1.177a689 689 0 0 0-3.913 2.269 366 366 0 0 1-3.489 2.01 351 351 0 0 0-3.41 1.97c-1.315.769-2.636 1.53-3.956 2.291l-2.035 1.174-.807.465-2.114 1.22-.839.483c-.82.471-.82.471-1.629.958a12.5 12.5 0 0 1-4.736 1.687l-.274.042c-3.355.425-6.691-.208-9.586-1.948l-.797-.471-.418-.247c-.716-.421-1.438-.831-2.16-1.242l-.889-.507-.222-.127c-1.17-.668-2.336-1.343-3.503-2.017l-2.027-1.17-.813-.469-.406-.234-4.469-2.578-.406-.234-.812-.469-2.041-1.177a689 689 0 0 1-3.913-2.269 336 336 0 0 0-3.265-1.885 371 371 0 0 1-3.633-2.098c-1.315-.769-2.636-1.53-3.956-2.291l-2.035-1.174-.813-.469-17.875-10.313-.407-.235-.808-.467-2.092-1.204a532 532 0 0 1-2.381-1.374l-.277-.161c-2.265-1.32-3.888-2.986-5.223-5.214a4.2 4.2 0 0 1 1.127-.87l.375-.207.404-.22.855-.473.22-.121a99 99 0 0 0 2.121-1.218 296 296 0 0 1 3.273-1.891 316 316 0 0 0 3.25-1.875A318 318 0 0 1 16.75 118a370 370 0 0 0 3.633-2.098q1.974-1.151 3.956-2.291l1.63-.94.805-.464q.954-.55 1.905-1.103l.9-.524.636-.372.389-.226.342-.2c.273-.141.504-.224.803-.281q.581.867 1.153 1.739c1.3 1.975 2.67 3.852 4.222 5.636l.241.279a96 96 0 0 0 .635.72l.224.259c1.286 1.465 2.661 2.909 4.2 4.109.303.238.594.487.885.74 2.361 2.048 5.033 3.704 7.758 5.22l.576.323c2.381 1.346 4.953 2.409 7.554 3.25q.307.1.613.203c3.317 1.123 6.828 1.823 10.315 2.113q.324.028.647.064c.811.09 1.611.114 2.427.115l.412.001.861.001q.644.001 1.288.005a43 43 0 0 0 7.421-.606l.287-.048c8.076-1.376 16.032-4.822 22.408-9.998l.358-.286a41 41 0 0 0 1.944-1.672 29 29 0 0 1 .539-.478 37 37 0 0 0 2.026-1.908l.337-.337c.637-.643 1.244-1.286 1.799-2.002.234-.3.48-.588.731-.875 1.402-1.615 2.6-3.39 3.738-5.197q.165-.261.332-.519l.174-.271.159-.245c.135-.205.135-.205.115-.459l-.251-.144a896 896 0 0 1-4.502-2.608 845 845 0 0 0-4.34-2.514l-2.441-1.408-2.041-1.177a840 840 0 0 1-4.354-2.525A847 847 0 0 0 96.75 97c-.353.429-.667.869-.969 1.336-.784 1.184-1.685 2.255-2.656 3.289l-.186.199c-4.245 4.501-10.407 7.348-16.605 7.565-2.057.055-4.061 0-6.084-.39l-.329-.063c-2.438-.484-4.745-1.364-6.921-2.561l-.235-.129c-1.867-1.042-3.545-2.329-5.079-3.815a62 62 0 0 0-.544-.519c-.892-.862-1.661-1.789-2.392-2.787l-.158-.214c-3.729-5.152-5.391-11.816-4.393-18.117 1.104-6.436 4.3-12.297 9.579-16.252q.216-.162.43-.326c3.476-2.66 7.604-4.154 11.917-4.715l.261-.036c2.358-.3 4.783-.136 7.114.286l.285.049c2.388.417 4.748 1.291 6.871 2.457q.32.174.645.343c1.971 1.065 3.726 2.463 5.324 4.025l.32.296c1.472 1.398 2.623 3.106 3.68 4.829a9.5 9.5 0 0 0 1.295-.613l.388-.217.411-.232.427-.24a134 134 0 0 0 2.531-1.461c.789-.468 1.583-.927 2.378-1.385l.419-.241 1.276-.736q2.379-1.367 4.75-2.75a845 845 0 0 1 4.34-2.514l2.035-1.174.813-.469.406-.234 11.375-6.563.812-.469 2.041-1.177a690 690 0 0 0 3.913-2.269 347 347 0 0 1 3.25-1.875 851 851 0 0 0 6.695-3.859l.386-.225.355-.207.312-.182c.679-.406.679-.406.899-.389" fill="#00599C"/><path d="m86.25 35.625.287.066c.535.126 1.062.275 1.588.434l.363.108c2.49.747 4.885 1.587 7.262 2.642l.301.133c1.767.784 3.421 1.743 5.074 2.742l.323.193c1.647.989 3.169 2.117 4.677 3.307l.225.176c.802.632 1.556 1.31 2.304 2.005a29 29 0 0 0 .846.749 25 25 0 0 1 2.664 2.699c.241.281.492.552.743.824 1.71 1.901 3.19 4.017 4.57 6.164l.234.361.214.338.191.3c.134.259.134.259.134.634l-1.866 1.076-2.218 1.279a746 746 0 0 0-3.916 2.27 845 845 0 0 1-4.34 2.514l-2.439 1.407-2.073 1.195-.425.245-.828.476a96 96 0 0 0-1.809 1.063l-.3.181q-.271.164-.539.331a9 9 0 0 1-.623.338c-.498-.166-.625-.477-.883-.906-.932-1.499-2.026-2.817-3.241-4.094l-.262-.287c-1.359-1.437-3.056-2.565-4.738-3.588l-.388-.247c-5.235-3.197-11.991-4.048-17.909-2.667C65.726 61 62.351 62.559 59.375 65l-.206.168c-5.009 4.088-8.229 10.028-8.962 16.459-.618 6.782 1.238 13.41 5.593 18.679 1.838 2.17 3.918 3.937 6.325 5.444l.227.143c5.383 3.351 12.162 4.137 18.281 2.763 3.811-.903 7.389-2.584 10.367-5.156l.295-.254q.484-.428.955-.871l.187-.174c1.671-1.568 2.993-3.378 4.188-5.326.9.435 1.765.913 2.625 1.422l1.211.711a340 340 0 0 0 2.023 1.172l.408.235 1.233.71c1.71.985 3.417 1.971 5.121 2.967q1.367.798 2.739 1.588l2.299 1.323.659.378.822.471c.844.485 1.669.994 2.486 1.523a6 6 0 0 1-.559 1.144l-.183.291-.196.307-.203.32c-2.053 3.203-4.514 6.097-7.195 8.79l-.302.303a32 32 0 0 1-1.863 1.72l-.241.206a50.6 50.6 0 0 1-15.985 9.154q-.414.146-.825.297a33 33 0 0 1-3.09.961l-.246.064c-1.383.355-2.776.63-4.184.866l-.27.046c-2.609.438-5.204.58-7.847.571l-.43-.001c-3.082-.007-6.067-.24-9.092-.855a54 54 0 0 0-.809-.156c-7.419-1.411-14.761-4.871-20.606-9.653l-.339-.272a89 89 0 0 1-1.036-.853l-.373-.303c-1.012-.832-1.943-1.74-2.869-2.666l-.188-.188a37 37 0 0 1-2.07-2.218l-.334-.383c-2.266-2.642-4.213-5.534-5.886-8.585a47 47 0 0 0-.417-.74c-1.248-2.231-2.212-4.667-3.006-7.093a60 60 0 0 0-.253-.746 37 37 0 0 1-.98-3.392l-.064-.266a57 57 0 0 1-1.061-5.797l-.05-.367c-.618-4.824-.388-10.052.607-14.808a74 74 0 0 0 .199-1c1.224-6.126 3.75-12.333 7.37-17.448l.359-.517a43 43 0 0 1 2.141-2.857l.263-.328a41 41 0 0 1 1.917-2.2 31 31 0 0 0 .765-.863 23 23 0 0 1 2.418-2.382c.3-.261.589-.534.879-.806.83-.756 1.719-1.428 2.618-2.099q.368-.276.735-.554c2.942-2.218 6.185-3.991 9.53-5.519l.279-.128c4.124-1.873 8.738-3.064 13.221-3.622l.442-.056a49.5 49.5 0 0 1 17.308.931" fill="#FEFEFE"/><path d="M31.735 109.567c.369.255.537.595.749.979 2.458 4.27 6.045 8.648 9.935 11.693.304.24.597.49.889.744 2.361 2.048 5.033 3.704 7.758 5.22l.576.323c2.381 1.346 4.953 2.409 7.554 3.25q.307.1.613.203c3.317 1.123 6.828 1.823 10.315 2.113q.324.028.647.064c.811.09 1.611.114 2.427.115l.412.001.861.001q.644.001 1.288.005a43 43 0 0 0 7.421-.606l.287-.048c8.076-1.376 16.032-4.822 22.408-9.998l.358-.286a41 41 0 0 0 1.944-1.672 29 29 0 0 1 .539-.478 37 37 0 0 0 2.026-1.908l.336-.337c.637-.643 1.244-1.286 1.799-2.002.234-.3.48-.588.73-.875 1.408-1.623 2.597-3.406 3.748-5.216.291-.455.592-.903.894-1.351.466.069.76.185 1.141.461a12 12 0 0 0 1.252.768 116 116 0 0 1 2.052 1.138l.368.208a427 427 0 0 1 5.591 3.225c.461.266.929.517 1.399.767.37.21.718.446 1.071.682q.438.264.883.516l.227.131c.412.236.82.44 1.265.603v.25l.273.104c.999.414 1.926 1.009 2.856 1.557a37 37 0 0 0 1.05.582c.656.354 1.286.745 1.919 1.139.486.295.983.564 1.483.832.362.2.699.432 1.044.662.697.396 1.404.774 2.125 1.125v.25l.314.092c.505.183.948.423 1.413.69l.266.151c.646.37 1.274.762 1.883 1.193-.383.862-.89 1.534-1.5 2.25l-.258.314c-1.471 1.725-3.374 2.724-5.322 3.823-.644.365-1.282.739-1.921 1.113a777 777 0 0 1-4.34 2.514l-2.035 1.174-.813.469-.406.234-24.375 14.063-.812.469-2.041 1.177a689 689 0 0 0-3.913 2.269 346 346 0 0 1-3.489 2.01 351 351 0 0 0-3.41 1.97q-1.974 1.151-3.956 2.291l-2.035 1.174-.807.465-2.114 1.22-.839.483c-.82.471-.82.471-1.629.958a12.5 12.5 0 0 1-4.736 1.687l-.273.042c-3.355.425-6.691-.208-9.586-1.948l-.797-.471-.418-.247c-.716-.421-1.438-.831-2.16-1.242l-.889-.507-.222-.127q-1.754-1.004-3.503-2.017l-2.027-1.17-.813-.469-.406-.234-4.469-2.578-.406-.234-.812-.469-2.041-1.177a689 689 0 0 1-3.913-2.269 336 336 0 0 0-3.263-1.887 371 371 0 0 1-3.633-2.098c-1.315-.769-2.636-1.53-3.956-2.291l-2.035-1.174-.813-.469-17.875-10.313-.407-.235-.808-.467-2.092-1.204a532 532 0 0 1-2.381-1.374l-.277-.161c-2.265-1.32-3.888-2.986-5.223-5.214a4.2 4.2 0 0 1 1.127-.87l.375-.207.404-.22.855-.473.22-.121a99 99 0 0 0 2.121-1.218 296 296 0 0 1 3.273-1.891 316 316 0 0 0 3.25-1.875A318 318 0 0 1 16.75 118a370 370 0 0 0 3.633-2.098q1.974-1.151 3.956-2.291l2.035-1.174.4-.231 2.819-1.627.644-.372.391-.226.346-.2c.505-.287.505-.287.76-.214" fill="#004480"/><path d="m79.5 59.75.285.049c2.388.417 4.748 1.291 6.871 2.457q.32.174.645.343c1.971 1.066 3.726 2.464 5.324 4.026l.32.296c1.256 1.192 2.28 2.621 3.219 4.071l.143.222c.318.503.318.503.318.786a991 991 0 0 1-4.796 2.758 400 400 0 0 0-3.837 2.215c-1.316.77-2.637 1.53-3.958 2.291l-1.214.701a818 818 0 0 1-3.989 2.291 403 403 0 0 0-3.84 2.217c-1.315.769-2.636 1.53-3.956 2.291L69 87.938l-.813.469-.406.234-4.875 2.813-.812.469-2.86 1.649-.404.233a301 301 0 0 0-2.033 1.182l-.406.238-.755.445a32 32 0 0 1-2.261 1.205c-.667-.979-1.143-2.046-1.625-3.125l-.177-.394c-2.382-5.732-2.087-12.643.177-18.356 1.715-4.094 4.468-7.792 8.028-10.459q.216-.162.43-.326c3.476-2.66 7.604-4.154 11.917-4.715l.261-.036c2.358-.3 4.783-.136 7.114.286" fill="#659AD0"/><path d="M75 84.375c.352.152.352.152.766.367l.415.214.319.169v.25l.292.079c.633.237 1.195.573 1.778.913l.353.204q.645.372 1.286.754a23 23 0 0 0 .814.464c.76.421 1.504.868 2.239 1.33.78.489 1.563.926 2.391 1.328.422.218.802.475 1.192.744.392.26.803.476 1.218.697.588.32 1.167.654 1.748.987 1.459.858 1.459.858 2.964 1.628.225.122.225.122.35.372.387.238.749.452 1.174.614.368.154.68.348 1.014.566.433.282.868.557 1.313.82-2.268 5.155-7.746 8.916-12.774 10.968-4.266 1.652-9.125 2.019-13.602 1.157l-.329-.063c-2.438-.485-4.745-1.365-6.921-2.562l-.235-.129c-1.867-1.042-3.545-2.329-5.079-3.815a62 62 0 0 0-.544-.519c-1.363-1.318-3.156-3.205-3.767-5.037a469 469 0 0 1 4.951-2.881l2.049-1.182.813-.469.406-.234 4.875-2.813.812-.469 2.041-1.177a765 765 0 0 0 4.505-2.614l.357-.209.314-.184a10 10 0 0 1 .502-.268" fill="#004480"/><path d="M113.875 76h5.625v5.625h5.5v5.625h-5.5v5.5h-5.625v-5.625h-5.5v-5.5h5.5z" fill="#FCFEFE"/><path d="M134.75 76.125h5.5v5.5h5.625v5.625h-5.625v5.5h-5.5v-5.625h-5.625v-5.5h5.625z" fill="#FEFEFE"/><path d="M129.125 81.625h5.625c-.563.281-.563.281-1.004.278h-.3l-.311-.004-.289-.001q-.532-.002-1.065-.008l-2.406-.015V87h5.5v5.625h5.375v.125h-5.5v-5.625h-5.625z" fill="#DDF5FD"/><path d="M140.25 81.625h5.625v5.625h-5.625V87h5.375v-5.125h-5.25z" fill="#C8E5F0"/><path d="M113.875 76h5.625v5.625c-.325-.488-.294-.911-.302-1.478l-.007-.289q-.011-.534-.02-1.069l-.046-2.414-5-.125v5.25l-.25.125z" fill="#C4E1ED"/><path d="M71.875 109.25h5.875v.125c-.793.284-1.538.288-2.375.281l-.418-.002a18 18 0 0 1-3.082-.28z" fill="#DEF2F8"/><path d="m56 68.125.25.125-.233.279-.306.37-.303.365c-.25.32-.454.637-.658.987a23 23 0 0 1-.398.539l-.201.264-.151.196-.25-.125.703-1.008.198-.285A19 19 0 0 1 56 68.125" fill="#76A0C9"/><path d="m61 63.625.25.125c-.394.416-.759.71-1.25 1q-.569.43-1.125.875l-.25-.125c1.561-1.32 1.561-1.32 2.375-1.875" fill="#759EC7"/><path d="m63.5 62.125.25.125-.297.234c-.324.253-.324.253-.578.516q-.373.075-.75.125v.25c-.227.133-.227.133-.5.25l-.375-.125.993-.612.632-.388.35-.228z" fill="#79A0C9"/><path d="M110.5 64c-.125.375-.125.375-.336.5l-.289.125c-.534.255-.534.255-1.016.594-.234.156-.234.156-.499.103l-.235-.072 1.047-.625.301-.181.288-.171.266-.159c.223-.114.223-.114.473-.114" fill="#165E94"/><path d="M84.125 133.625c-.307.307-.429.29-.852.32-.352.027-.671.06-1.016.141-.257.039-.257.039-.632-.211 1.704-.287 1.704-.287 2.5-.25" fill="#295C87"/><path d="m113.375 116.375.125.375-1 1.125-.375-.125z" fill="#1D5382"/><path d="m87.25 106.125.25.125c-.759.613-.759.613-1.242.664l-.258-.039c.391-.316.789-.55 1.25-.75" fill="#DBEEF6"/><path d="m94.125 100.375.25.5a3.6 3.6 0 0 1-1.125.625l.367-.492.206-.277c.177-.231.177-.231.302-.356" fill="#DDEFF7"/><path d="M52.75 72.875h.125c.077.634-.173.979-.5 1.5l-.25-.125z" fill="#78A1C9"/><path d="m95.125 99.125.125.375c-.152.228-.152.228-.367.461l-.214.236-.169.178-.25-.125z" fill="#DAEEF7"/><path d="m53.625 71.375.125.25c-.124.298-.124.298-.305.641l-.179.345-.141.264c-.082-.217-.082-.217-.125-.5.124-.268.124-.268.305-.531l.179-.268z" fill="#77A0CA"/><path d="m109.625 120.375.125.375-.75.625-.25-.125z" fill="#12477A"/><path d="M106.25 123.375v.375c-.375.274-.375.274-.75.5l-.25-.125z" fill="#184F7C"/></svg>