<svg xmlns="http://www.w3.org/2000/svg" width="150" height="157.399" viewBox="0 0 150 157.399"><path d="M11.351 10.762h122.085c0 1.135 0 1.135-.034 1.519l-.023.268-.026.284-.027.311-.076.851-.083.931-.146 1.634-.218 2.442-.371 4.148-.374 4.179-.024.266-.12 1.34-.862 9.642-1.381 15.434-.027.299-.943 10.541a50724 50724 0 0 0-2.699 30.256l-.022.248-.022.247-.044.494-.022.246-.471 5.292-.104 1.172-.565 6.355-.02.221-.624 7.025-.724 8.15-.263 2.962-.256 2.886-.136 1.538q-.061.697-.124 1.393l-.044.502-.061.677-.017.198c-.055.584-.055.584-.23.824a5 5 0 0 1-.625.205l-.197.055-.657.177-.468.128q-.504.138-1.01.274-.807.218-1.613.438l-1.673.456a614 614 0 0 0-3.592.987l-.233.065-1.157.322-2.343.652-.236.066q-2.933.814-5.867 1.624a5326 5326 0 0 0-7.487 2.077 5623 5623 0 0 1-7.982 2.212l-5.767 1.597-.257.071-2.213.615-.227.063-.447.124-1.081.3a224 224 0 0 0-1.985.557l-.931.264-.441.127q-.305.088-.609.173l-.179.053c-.642.176-1.165.038-1.792-.139l-.178-.05-.584-.165-.421-.118-.906-.255-1.455-.409-.501-.141-.253-.071-.772-.217a1735 1735 0 0 0-5.049-1.408l-.705-.196a6203 6203 0 0 0-7.516-2.081 4869 4869 0 0 1-9.377-2.604l-.255-.071-.509-.142q-3.834-1.068-7.669-2.131l-3.436-.955-1.528-.425-1.433-.398-.891-.248-.645-.18a263 263 0 0 0-2.011-.552l-.948-.256-.67-.18-.404-.109-.188-.049a8 8 0 0 1-.432-.135c-.123-.246-.12-.481-.145-.754l-.017-.186-.055-.626-.04-.453-.112-1.257-.122-1.368-.214-2.411-.322-3.619-.548-6.166-.55-6.19-.017-.195-.592-6.654-.532-5.98-2.562-28.758-2.162-24.239-1.244-13.959q-.447-5.022-.897-10.043l-.18-2.008-.024-.273-.117-1.313-.237-2.64-.152-1.696-.1-1.114-.072-.813-.026-.282a20 20 0 0 1-.057-1.777" fill="#264DE3"/><path d="M34.137 36.323h76.429c0 1.637 0 1.637-.071 2.268l-.023.226-.051.487q-.074.7-.144 1.403l-.031.313c-.136 1.373-.252 2.747-.369 4.122l-.153 1.789-.038.445a988 988 0 0 1-.387 4.39l-.11 1.222-.321 3.618-.27 3.056-.015.173c-.255 2.886-.513 5.772-.791 8.656a513 513 0 0 0-.533 5.938 684 684 0 0 1-.526 5.901c-.16 1.72-.318 3.439-.457 5.16-.125 1.546-.268 3.09-.415 4.635a550 550 0 0 0-.546 6.149 607 607 0 0 1-.562 6.317 342 342 0 0 0-.415 4.635q-.15 1.845-.315 3.69l-.042.472a65 65 0 0 1-.305 2.796 229 229 0 0 1-2.99.841c-.684.188-1.366.379-2.044.589-.692.213-1.39.394-2.092.573a111 111 0 0 0-2.769.741l-.172.049a107 107 0 0 0-2.217.653 32 32 0 0 1-1.666.444c-.704.173-1.4.372-2.094.58-.764.228-1.531.436-2.303.635q-.914.238-1.82.502c-.603.174-1.208.338-1.814.5q-1.347.36-2.684.753-1.398.415-2.808.781a82 82 0 0 0-1.481.395l-.183.05a24 24 0 0 0-.927.277l-.192.06q-.178.056-.355.117c-.726.229-1.42.009-2.131-.193l-.25-.07-.787-.221-.516-.144a369 369 0 0 1-2.693-.764 95 95 0 0 0-1.404-.39c-.964-.261-1.925-.53-2.886-.799a741 741 0 0 0-3.341-.926l-1.577-.433a178 178 0 0 1-3.063-.868 62 62 0 0 0-1.865-.514q-1.517-.402-3.027-.83l-.216-.061a312 312 0 0 1-1.877-.536c-.949-.275-1.903-.53-2.859-.782q-1.245-.326-2.484-.671l-.266-.074-.241-.068-.209-.059c-.173-.055-.173-.055-.342-.139-.047-.222-.047-.222-.084-.525l-.021-.169c-.093-.781-.159-1.564-.227-2.347l-.046-.519-.122-1.383-.128-1.445-.275-3.115-.198-2.253-.016-.179-.106-1.2q-.167-1.906-.341-3.811l-.017-.187-.178-1.939c-.152-1.658-.29-3.316-.428-4.975h15.387c.145 1.356.29 2.707.403 4.065l.157 1.863.028.324c.118 1.37.247 2.739.377 4.108l.051.54.024.246c.036.378.063.749.053 1.129l.274.026c.478.06.934.192 1.397.321l.595.163.303.083q.633.173 1.267.342 1.849.498 3.698 1l3.218.871.193.052 1.839.496.276.074.524.14a67 67 0 0 1 1.28.355l.67.192.475.139.293.084.258.075c.471.079.923-.053 1.378-.176l.311-.084.333-.091.35-.095.742-.201 1.734-.469.572-.155a350 350 0 0 1 2.897-.768 92 92 0 0 0 2.483-.679c.701-.203 1.407-.389 2.112-.575q.977-.259 1.952-.529l.233-.064 1.145-.317.419-.116.196-.055c.448-.124.448-.124.636-.124l.015-.232a109 109 0 0 1 .173-2.28l.03-.353.081-.939.051-.594a624 624 0 0 1 .463-5.166 617 617 0 0 0 .369-4.089l.023-.262.23-2.635.086-.991.04-.466.056-.645.016-.19c.03-.339.076-.665.133-1.002h-52.97a699 699 0 0 1-.431-4.57l-.047-.528-.123-1.37-.171-1.901-.096-1.069q-.119-1.326-.241-2.651l-.048-.516-.09-.967-.04-.434-.019-.196a11 11 0 0 1-.041-1.017h55.661l.084-1.513q.052-.667.11-1.335l.032-.369.083-.962.082-.951.149-1.718.103-1.188c.14-1.609.29-3.217.441-4.824l.088-.943.175-1.833h-.153l-16.532.004H76.9l-8.255.001-8.489.002-9.95.002h-.245l-3.906.001-3.922.001-2.333.001h-3.396l-.283.001-.254-.001h-.221c-.164-.012-.164-.012-.248-.097a8 8 0 0 1-.044-.422l-.023-.275-.024-.302-.026-.311-.054-.663-.128-1.551-.043-.51a265 265 0 0 0-.313-3.442 1453 1453 0 0 1-.333-3.492l-.06-.632-.091-.978-.033-.355-.045-.492-.026-.276c-.026-.505-.018-1.011-.018-1.517" fill="#FEFEFE"/><path d="M72.393 21.02h49.86c0 1.324 0 1.324-.046 1.807l-.031.332-.034.35-.035.378-.076.804-.121 1.275-.02.218-.041.438-.062.663q-.194 2.075-.374 4.151l-.124 1.416-.03.339a971 971 0 0 1-.282 3.154l-.021.225a495 495 0 0 1-.228 2.45l-.035.372-.027.283a181 181 0 0 0-.194 2.226 323 323 0 0 1-.3 3.444l-.019.204-.114 1.226-.172 1.849-.018.199a244 244 0 0 0-.23 2.628q-.091 1.091-.193 2.181a354 354 0 0 0-.337 3.866 382 382 0 0 1-.457 5.123 784 784 0 0 0-.509 5.59l-.016.184-.125 1.43a734 734 0 0 1-.299 3.313 387 387 0 0 0-.332 3.891 103 103 0 0 1-.304 3.185 86 86 0 0 0-.24 2.634 241 241 0 0 1-.234 2.686 754 754 0 0 0-.391 4.392l-.024.275-.168 1.953c-.27 3.14-.545 6.279-.841 9.417a554 554 0 0 0-.589 6.558 352 352 0 0 1-.299 3.42 1344 1344 0 0 0-.399 4.464c-.25 2.841-.504 5.681-.772 8.521q-.137 1.465-.253 2.934c-.707.273-.707.273-1.046.336-.245.05-.464.111-.702.193-.527.179-1.065.313-1.603.452-1.04.27-2.076.549-3.103.866l-.227.069-.194.06a2.3 2.3 0 0 1-.608.042v.168l-.261.062c-1.12.272-2.229.579-3.338.892q-1.084.305-2.176.572c-.224.057-.44.12-.657.197-.376.132-.76.221-1.147.314-.613.151-1.215.339-1.817.53a12 12 0 0 1-1.335.332 5 5 0 0 0-.546.157c-.516.18-1.045.31-1.574.447-.994.258-1.985.526-2.97.818-.856.253-1.718.489-2.579.725a260 260 0 0 0-1.67.465 187 187 0 0 1-2.165.594c-1.055.283-2.109.571-3.159.874l-.317.091-.621.179c-.408.117-.813.234-1.228.321a6 6 0 0 0-.701.195c-.553.191-1.122.331-1.688.479l-.509.134-.46.121a14 14 0 0 0-.781.245q-.259.071-.52.137l-.261.066c-.228.048-.228.048-.481.048v-15.807c1.432-.477 1.432-.477 2.113-.636a24 24 0 0 0 1.607-.444 80 80 0 0 1 3.629-.999 62 62 0 0 0 1.985-.56q.867-.254 1.744-.477a45 45 0 0 0 2.041-.575q.731-.222 1.472-.414c1.299-.342 2.592-.709 3.886-1.072l.26-.073 1.267-.357q1.608-.453 3.225-.875a83 83 0 0 0 2.531-.706 78 78 0 0 1 2.067-.573 78 78 0 0 0 1.497-.415l.164-.047.79-.23.285-.083.253-.074c.21-.05.21-.05.463-.05l.015-.2c.34-4.458.742-8.91 1.149-13.362q.252-2.74.486-5.482a512 512 0 0 1 .447-4.95 792 792 0 0 0 .504-5.528l.015-.177.11-1.258.016-.183q.193-2.192.391-4.385c.221-2.457.221-2.457.439-4.914l.091-1.035a1980 1980 0 0 1 .603-6.725q.399-4.371.788-8.744l.027-.307q.327-3.666.65-7.334a3785 3785 0 0 1 .584-6.567l.106-1.183.017-.191q.09-1.01.189-2.018l.017-.177q.04-.407.082-.813c.077-.776.121-1.544.167-2.325H34.137v.673h-.084v-.757h38.341z" fill="#2A65EF"/><path d="M38.845 90.135h15.387c.145 1.356.29 2.707.403 4.065l.157 1.863.028.324c.118 1.37.247 2.739.377 4.108l.051.54.024.246c.036.378.063.749.053 1.129l.274.026c.478.06.934.192 1.397.321l.595.163.303.083q.633.173 1.267.342 1.849.498 3.698 1l3.218.871.193.052q1.057.286 2.115.57 1.25.335 2.497.678l.489.134.297.082.265.073c.208.062.208.062.376.146v15.723l.757-.084c-.368.246-.708.288-1.138.217a17 17 0 0 1-.728-.196l-.273-.076q-.43-.12-.861-.244l-.566-.158a339 339 0 0 1-1.647-.467l-.256-.073-.248-.071-.24-.068-.436-.125a96 96 0 0 0-1.396-.388c-.964-.261-1.925-.53-2.886-.799a741 741 0 0 0-3.341-.926l-1.577-.433a178 178 0 0 1-3.063-.868 62 62 0 0 0-1.865-.514q-1.517-.402-3.027-.83l-.216-.061a312 312 0 0 1-1.877-.536c-.949-.275-1.903-.53-2.859-.782q-1.245-.326-2.484-.671l-.266-.074-.241-.068-.209-.059c-.166-.054-.166-.054-.335-.138-.047-.222-.047-.222-.084-.525l-.021-.169c-.093-.781-.159-1.564-.227-2.347l-.046-.519-.122-1.383-.128-1.445-.275-3.115-.198-2.253-.016-.179-.106-1.2q-.167-1.906-.341-3.811l-.017-.187-.178-1.939c-.152-1.658-.29-3.316-.428-4.975m-4.707-53.812h38.257l-.084 15.219h21.609l-.084.336v-.252h-.153l-16.532.004h-.249l-8.255.001-8.489.002-9.95.002h-.245l-3.906.001-3.922.001-2.333.001h-3.396l-.283.001-.254-.001h-.221c-.165-.012-.165-.012-.249-.097a8 8 0 0 1-.044-.422l-.023-.275-.024-.302-.026-.311-.054-.663-.128-1.551-.043-.51a265 265 0 0 0-.313-3.442 1453 1453 0 0 1-.333-3.492l-.06-.632-.091-.978-.033-.355-.045-.492-.026-.276c-.026-.505-.018-1.011-.018-1.517m2.69 30.942h35.482v15.219H38.173a699 699 0 0 1-.431-4.57l-.047-.528-.123-1.37-.171-1.901-.096-1.069q-.119-1.326-.241-2.651l-.048-.516-.09-.967-.04-.434-.019-.196a11 11 0 0 1-.041-1.017" fill="#EAEAEB"/><path d="M38.173 82.483h52.971c-.097 1.643-.097 1.643-.147 2.216l-.017.203-.057.652-.041.47-.109 1.25-.068.78a883 883 0 0 1-.652 7.16 280 280 0 0 0-.397 4.578c-.068.849-.152 1.69-.277 2.533-.814.256-1.632.492-2.454.72l-.193.054c-1.253.348-2.51.679-3.769 1.005l-.215.056-.388.1c-.51.132-1.018.274-1.526.416-1.297.361-2.599.71-3.899 1.061l-1.046.283-1.274.345-.482.131-.672.182-.198.054a8 8 0 0 1-1.122.219l.252-.084v-24.3h-34.22zm34.22-30.857h21.441c-.096 2.12-.096 2.12-.164 2.784l-.023.241-.05.515-.139 1.459-.03.323c-.145 1.544-.276 3.09-.409 4.635l-.183 2.129-.17 2.001-.04.48-.018.208-.015.175c-.026.231-.067.459-.105.688H36.827v-.084h35.566z" fill="#2B65EF"/><path d="M34.137 36.323h38.257v.084H34.221l.168 1.009c.023.261.042.517.053.778l.01.203c.029.654.03 1.307.022 1.962h-.084q-.055-.578-.108-1.157l-.037-.392-.053-.57-.017-.171c-.052-.587-.038-1.148-.038-1.746" fill="#E2EAFF"/><path d="M37.752 77.354c.197.295.197.454.215.804.009.368.009.368.121.709q.017.187.024.375l.01.225.009.235.018.46.008.206c.01.196.01.196.1.433v1.598H72.31v.084H38.173l-.252-2.607c-.069-.662-.069-.662-.14-1.323-.037-.4-.034-.798-.028-1.199" fill="#DFEAFF"/><path d="M36.827 67.265h35.482v.084l-35.314.084.084.084q.019.17.027.341l.011.217.01.235.011.238c.031.749.034 1.497.026 2.247h-.084l-.108-1.265-.037-.43-.053-.62-.017-.193a12 12 0 0 1-.038-1.023" fill="#E3EBFF"/><path d="M38.845 90.135h15.387c.168 1.598.168 1.598.168 2.354-.232-.232-.199-.39-.215-.715a32 32 0 0 0-.121-1.471H39.098v1.682h-.084z" fill="#C8D3F7"/><path d="m92.909 60.622.168.084-.046.556-.015.179-.083.998-.161 1.943-.068.829-.032.397-.045.556-.026.319c-.028.277-.028.277-.112.697H72.393v-.084h20.011v-1.429l.084-.252q.034-.322.058-.646l.015-.195.032-.412.1-1.272a82 82 0 0 1 .216-2.267" fill="#2F66E0"/><path d="m105.605 92.152.252.084-.084.084a6 6 0 0 0-.042.375l-.021.239-.021.258-.022.262a45 45 0 0 0-.117 1.897c-.02.467-.02.467-.071.66a3 3 0 0 0-.066.61l-.01.248-.018.518-.01.247-.008.227c-.014.177-.014.177-.098.261q-.049.388-.084.778l-.022.237a36 36 0 0 0-.117 1.956l-.008.212-.006.186c-.015.163-.015.163-.099.415a7 7 0 0 0-.027.356l-.011.204-.01.212-.011.215-.025.526h-.168c-.034-.984.06-1.95.156-2.928l.144-1.498.03-.316q.11-1.167.21-2.334l.014-.169.125-1.473.052-.615.047-.557q.057-.69.147-1.376" fill="#4371D9"/><path d="M107.455 71.132h.084l.005 1.088.002.314.001.298.001.276c-.009.21-.009.21-.093.294a6 6 0 0 0-.024.361l-.01.223-.009.235-.018.456-.008.205c-.015.202-.015.202-.057.411a4 4 0 0 0-.066.636l-.01.236-.018.491-.01.235-.008.215c-.014.164-.014.164-.098.248a6 6 0 0 0-.024.37l-.01.227-.009.239-.018.465-.008.209c-.015.172-.015.172-.099.34a6 6 0 0 0-.039.335l-.02.209-.02.227-.022.233-.068.74-.068.737-.042.459c-.034.369-.076.731-.143 1.096h-.084a70 70 0 0 1 .209-2.954l.037-.402.077-.845.199-2.196.02-.219a488 488 0 0 0 .335-3.884l.021-.258.11-1.35" fill="#4773D9"/><path d="m39.77 99.552.168.084.015.322.021.419.01.212.011.204.009.188c.013.185.013.185.101.42q.02.376.032.752c.029.724.092 1.44.173 2.16.18 1.602.344 3.21.299 4.824h-.084l-.014-.154-.119-1.333-.114-1.28a550 550 0 0 0-.277-3.037l-.047-.502-.067-.701c-.084-.863-.141-1.71-.12-2.579" fill="#D2DDFB"/><path d="M109.978 43.217h.084q.004.452.005.904l.002.259.001.25.001.23a2.5 2.5 0 0 1-.094.544 7 7 0 0 0-.024.361l-.01.202-.018.421c-.025.52-.025.52-.117.613a8 8 0 0 0-.024.425l-.01.261-.009.275-.018.536-.008.241c-.014.196-.014.196-.098.364a6 6 0 0 0-.024.36l-.01.214-.009.224-.018.439-.008.197c-.015.164-.015.164-.099.332a8 8 0 0 0-.027.403l-.011.24-.01.251-.011.253-.026.619h-.084c-.084-.401-.084-.776-.057-1.182l.012-.199c.052-.802.126-1.602.2-2.403l.045-.491.117-1.276.12-1.309.235-2.556" fill="#4170D9"/><path d="M40.107 104.765h.084l.101 1.08.016.168.189 2.016.017.186.069.738q.09.963.182 1.925l.072.76.046.474c.059.636.075 1.264.064 1.903-.184-.332-.202-.636-.215-1.009-.01-.422-.01-.422-.079-.836a2.7 2.7 0 0 1-.066-.562l-.01-.222-.018-.46-.01-.222-.008-.202c-.011-.186-.011-.186-.059-.355a2.2 2.2 0 0 1-.049-.57l.001-.227.002-.235.001-.238.004-.581h-.168l-.072-1.103-.025-.374a25 25 0 0 1-.072-2.054" fill="#3C59C9"/><path d="M106.362 83.408h.084l.047.625.014.18q.015.228.022.456l-.084.084a6 6 0 0 0-.024.367l-.01.226-.009.237-.018.462-.008.208c-.014.182-.014.182-.098.434a9 9 0 0 0-.024.445l-.01.261-.018.546-.01.26-.008.239c-.014.183-.014.183-.098.267a16 16 0 0 0-.063.615l-.017.186-.051.591-.035.4-.086.982h-.168q.213-2.822.474-5.637c.075-.811.145-1.621.198-2.434" fill="#3E6CD7"/><path d="M36.911 68.778h.084q.116 1.254.23 2.509l.107 1.165.103 1.127.039.427c.076.811.129 1.608.109 2.423h-.084l-.03-.328-.11-1.203-.047-.521-.068-.748-.021-.236-.02-.219-.018-.193c-.02-.185-.02-.185-.107-.42a8 8 0 0 1-.024-.384l-.01-.224-.018-.466-.01-.224-.008-.205c-.01-.195-.01-.195-.1-.431a8 8 0 0 1-.008-.429l.001-.25.002-.261.001-.264.004-.645" fill="#3A58CA"/><path d="M104.596 103.419h.084l.005.962.002.277.001.264.001.244c-.009.187-.009.187-.093.271a8 8 0 0 0-.024.428l-.01.262-.009.276-.018.539-.008.243c-.015.186-.015.186-.099.27a32 32 0 0 0-.044.965l-.009.204-.006.188c-.025.157-.025.157-.193.325-.013-.718.025-1.422.092-2.138l.028-.312.09-.976.061-.667z" fill="#3F6ED8"/><path d="m39.098 92.068.168.084.015.335.021.438.01.22c.017.351.051.68.121 1.025.025.309.037.618.051.927.01.346.01.346.117.671q.01.22.008.439l-.001.263-.002.275-.001.277-.003.68h-.084l-.18-1.88-.061-.638-.088-.922-.028-.284a18 18 0 0 1-.064-1.909" fill="#D2DEFB"/><path d="m92.909 60.622.168.084-.504 6.054h-.168l-.005-.531-.003-.299c.008-.263.008-.263.092-.515q.034-.322.058-.646l.015-.195.032-.412.1-1.272a82 82 0 0 1 .216-2.267" fill="#406ED8"/><path d="M37.752 77.354c.197.295.197.454.215.804.009.368.009.368.121.709q.017.187.024.375l.01.225.009.235.018.46.008.206c.01.196.01.196.1.433q.009.302.005.604l-.002.324-.003.25-.168-.084c-.033-.145-.033-.145-.05-.336l-.02-.216-.02-.236-.022-.242-.045-.51-.069-.774-.044-.496-.021-.231a15 15 0 0 1-.047-1.498" fill="#D3DEFB"/><path d="M34.137 36.323h2.186v.084h-2.102l.168 1.009c.023.261.042.517.053.778l.01.203c.029.654.03 1.307.022 1.962h-.084q-.055-.578-.108-1.157l-.037-.392a23 23 0 0 1-.108-2.487" fill="#D5E1FC"/><path d="M100.308 115.191c-.407.228-.851.322-1.303.415a3.7 3.7 0 0 0-.797.275c-.62.243-1.352.422-2.02.403a1.7 1.7 0 0 1 .619-.277l.223-.06.24-.063c.51-.135 1.019-.272 1.526-.421l.243-.071q.231-.068.461-.138l.21-.062.184-.056c.162-.029.162-.029.414.055" fill="#3F6EDB"/><path d="M90.219 91.312h.168c-.266 3.267-.266 3.267-.42 4.709h-.084c-.013-.715.022-1.426.067-2.14l.034-.557.022-.354.02-.322c.024-.243.024-.243.109-.327q.03-.255.047-.51l.021-.282z" fill="#406ED8"/><path d="M39.434 97.197h.084c.164 1.401.295 2.794.336 4.204h-.084a12.6 12.6 0 0 1-.168-2.522h-.168z" fill="#4360CC"/><path d="M36.827 67.265h.841v.084l-.673.084.084.084q.019.17.027.341l.011.217.01.235.011.238c.031.749.034 1.497.026 2.247h-.084l-.108-1.265-.037-.43-.053-.62-.017-.193a10 10 0 0 1-.038-1.023" fill="#CCD9FA"/><path d="M34.557 42.209h.084l.108 1.184.037.402.053.581.017.179c.035.396.043.787.038 1.185h-.168l-.015-.307-.021-.397-.01-.202c-.011-.357-.011-.357-.121-.691a8 8 0 0 1-.008-.439l.001-.263.002-.275.001-.277.004-.679" fill="#3E5CCC"/><path d="M54.568 93.414c.201.201.191.256.2.531l.009.216.007.225.016.442.006.198c-.002.155-.002.155.099.238q.01.318.005.636l-.001.181-.004.444-.168-.084c-.034-.152-.034-.152-.053-.35l-.021-.221-.02-.238-.022-.24a18 18 0 0 1-.052-1.977" fill="#3A59CC"/><path d="M108.464 60.202h.084l.005 1.004.002.289.001.275.001.255c-.009.195-.009.195-.093.279a23 23 0 0 0-.089.72l-.023.205-.056.504h-.084c.049-1.181.136-2.355.252-3.531" fill="#3F6ED6"/><path d="M89.63 98.374h.084a49 49 0 0 1-.252 3.363h-.084l-.005-.92-.002-.265-.001-.252-.001-.233c.009-.179.009-.179.093-.263q.05-.36.089-.72l.023-.205z" fill="#406FD6"/><path d="M108.128 64.07h.084l.005.878.002.253.001.24.001.223c-.009.171-.009.171-.093.255a25 25 0 0 0-.044.856c-.023.471-.023.471-.209.657a49 49 0 0 1 .252-3.363" fill="#3F6DD6"/><path d="M107.119 75.504h.084l.005.878.002.253.001.24.001.223c-.009.172-.009.172-.093.256a12 12 0 0 0-.047.51l-.021.281-.016.218h-.084c-.024-.967.044-1.9.168-2.859" fill="#3C6CD9"/><path d="M58.184 103.083c.616.03 1.112.105 1.682.336.197.04.388.063.589.084v.168h.42l-.084.168a43 43 0 0 1-2.607-.673z" fill="#3E5BCD"/><path d="M55.998 102.578c.488.058.95.171 1.424.3l.223.06.539.145v.084c-.525.032-.86-.032-1.345-.252a7 7 0 0 0-.673-.084v-.168z" fill="#CAD8FA"/><path d="M37.5 74.496h.084c.21.484.187.944.179 1.461l-.002.26-.008.633h-.084c-.193-1.582-.193-1.582-.168-2.354" fill="#D5E0FB"/><path d="M104.596 103.419h.084q.007.47.011.941l.004.269.002.26.003.239a1.8 1.8 0 0 1-.187.646h-.084c.081-1.582.081-1.582.168-2.354" fill="#4774DB"/><path d="m78.784 121.16-.084.168q-.294.046-.589.084-.447.122-.888.263a2.5 2.5 0 0 1-.794.074v-.084q.517-.151 1.035-.299l.297-.087.285-.081.263-.076c.222-.046.222-.046.475.038" fill="#4472DA"/><path d="M76.429 121.833c-.229.229-.425.236-.741.3l-.312.063-.293.058-.248.05-.172.034-.084-.168.267-.071.348-.092.176-.046c.791-.21.791-.21 1.059-.127" fill="#4573DB"/><path d="M68.442 121.833c.499.049.951.152 1.429.3l.197.06.475.145c-.367.1-.633.056-1.009 0v-.168l-.175-.031-.23-.043-.228-.041c-.207-.054-.207-.054-.459-.222" fill="#3555C8"/><path d="M100.308 115.191c-.41.23-.866.325-1.319.436l-.185.046c-.196.025-.325-.009-.514-.061l.867-.257.249-.075.239-.07.22-.065c.191-.038.191-.038.443.046" fill="#4876D9"/><path d="m65.331 105.017.646.074.184.02c.337.04.624.097.936.243l-.084.168q-.35-.078-.699-.158l-.2-.044-.193-.044-.177-.04c-.161-.051-.161-.051-.413-.219" fill="#4562CF"/><path d="M63.145 104.428c.754.036 1.348.142 2.018.504-.233.116-.341.052-.589-.018l-.251-.07-.263-.075-.265-.074-.65-.183z" fill="#4663CC"/><path d="M67.853 121.581c.627.031 1.181.102 1.766.336l-.084.168-.652-.158-.186-.044c-.3-.074-.575-.145-.844-.303" fill="#CAD6FA"/><path d="m81.138 104.26.589.084c-.188.188-.263.205-.516.258l-.205.044-.214.044-.216.046-.53.111v-.168l.315-.084.177-.047c.179-.036.179-.036.516-.036z" fill="#3E6ED7"/><path d="M34.473 40.527c.33.495.279 1.115.168 1.682h-.084a12 12 0 0 1-.084-1.682" fill="#C9D6F8"/><path d="M92.489 117.377c-.458.265-.981.42-1.513.42v-.168q.331-.088.662-.173l.19-.051c.474-.122.474-.122.661-.028" fill="#4471DA"/><path d="M61.715 104.008h.589v.168h.673v.168l.168.084a5.4 5.4 0 0 1-1.429-.336z" fill="#3E5DCD"/><path d="M87.528 118.638v.168l-.252.084-.168.168c-.237.035-.237.035-.515.053l-.279.019-.215.012v-.168l.62-.168.178-.049c.444-.12.444-.12.631-.12" fill="#4370DA"/><path d="M47.674 115.947c.457-.035.846.071 1.261.252l.168.168a5.4 5.4 0 0 1-1.429-.336z" fill="#CCD8F9"/><path d="m58.52 118.974.485.061q.254.03.508.055c.27.053.36.088.52.305-.53-.049-1.008-.172-1.513-.336z" fill="#C8D6FA"/><path d="M106.362 83.408h.084q.031.307.058.615l.018.176c.014.17.014.17.008.471l-.252.252z" fill="#4B77DB"/><path d="M37.164 70.796h.084c.223.565.15 1.086.084 1.682h-.084z" fill="#D0DBFB"/><path d="M92.909 61.883h.084c.074.55.114.989-.084 1.513h-.084z" fill="#CBE1FC"/><path d="M65.415 120.908q.268.01.536.026l.302.015.256.043.168.252a10 10 0 0 1-1.261-.252z" fill="#CAD8F9"/><path d="M104.849 100.897h.168l.005.363.003.204c-.008.19-.008.19-.092.442h-.168z" fill="#366ADB"/><path d="M83.408 119.899c-.421.253-.7.277-1.177.252.358-.239.754-.422 1.177-.252" fill="#4873DA"/><path d="M61.799 119.899q.244.01.489.026l.275.015c.26.046.34.09.498.295a6.3 6.3 0 0 1-1.261-.252z" fill="#C8D5FA"/><path d="M41.62 114.266c.406-.016.714.02 1.093.168v.168a4.7 4.7 0 0 1-1.093-.252z" fill="#CCDAFA"/><path d="M80.549 104.849c-.286.191-.434.199-.772.221l-.277.019-.212.012c.217-.145.34-.206.583-.268l.17-.046c.192-.025.324.004.507.061" fill="#D1E6FC"/><path d="m69.703 122.085 1.009.084v.252l-1.009-.252z" fill="#C7D1F6"/><path d="M46.497 115.611c.382-.015.663 0 1.009.168v.168l-.41-.074-.231-.041c-.2-.053-.2-.053-.368-.221" fill="#CEDBFA"/><path d="M56.923 102.915c.456-.019.822.045 1.261.168v.084c-.457.018-.83.009-1.261-.168z" fill="#DBE4FB"/><path d="M89.378 102.326v.168c-.257.15-.439.187-.736.179l-.204-.005-.154-.006c.339-.178.705-.336 1.093-.336" fill="#D4E7FD"/><path d="m95.179 116.62-.084.168c-.174.035-.174.035-.384.053l-.211.019-.163.012v-.168c.557-.179.557-.179.841-.084" fill="#4171DE"/><path d="M76.177 106.026c-.26.173-.312.188-.604.179l-.321-.011c.337-.225.535-.293.925-.168" fill="#D4E7FC"/></svg>