<svg xmlns="http://www.w3.org/2000/svg" width="150" height="146.211" viewBox="0 0 150 146.211"><path d="M116.526 49.895c5.463 2.684 9.831 7.26 12.052 12.94.39 1.234.58 2.174.58 3.481l1.087-.153c6.638-.822 12.983-.037 18.492 3.942-.5 4.416-3.787 8.402-7.155 11.091-4.672 3.195-10.047 3.917-15.582 3.751l-.09.637c-.288 1.204-.782 2.277-1.311 3.39l-.339.712c-3.013 6.213-6.924 11.909-11.523 17.051l-.479.538c-1.838 2.055-3.693 4.037-5.837 5.778l-.997.841C99.027 119.224 91.785 123.12 84 126l-.701.263c-8.468 3.131-17.719 4.792-26.745 4.865l-.962.009c-13.207.102-13.207.102-18.96-1.348l-.829-.2c-10.688-2.651-19.974-9.079-25.802-18.477-2.412-4.058-3.99-8.368-5.264-12.901l-.23-.81c-1.532-5.693-1.737-12.649-.718-18.454l.654-.001a32789 32789 0 0 0 43.052-.065l.929-.002q7.435-.014 14.871-.019 7.635-.006 15.27-.026 4.707-.012 9.414-.011 3.233 0 6.465-.013 1.862-.008 3.724-.004c7.872.432 7.872.432 14.885-2.385l-.323-.671-.427-.908-.422-.888c-2.198-5.433-1.713-12.113.54-17.428 1.141-2.381 2.423-4.592 4.105-6.632M67.895 29.053h15.158v14.211H67.895zm-18 16.736h15.474v13.895H49.895zm-17.684 0h15.474v13.895H32.211z" fill="#099BEB"/><path d="M67.895 45.789h15.158v13.895H67.895z" fill="#089BEB"/><path d="M49.895 62.211h15.474V75.79H49.895zm-17.684 0h15.474V75.79H32.211zm-17.685 0H30V75.79H14.526z" fill="#0A9BEA"/><path d="M85.579 62.211h15.158V75.79H85.579zm-17.684 0h15.158V75.79H67.895z" fill="#099BEB"/></svg>