<svg xmlns="http://www.w3.org/2000/svg" width="150" height="153.468" viewBox="0 0 150 153.468"><path d="M128.324 13.006c.017 12.078.035 24.165.043 36.243.009 5.61.009 11.22.026 16.829.009 5.41.009 10.812.009 16.223.009 2.072.009 4.136.017 6.208v8.653c.009.867.009 1.734.009 2.627v4.439c-.104 1.552-.104 1.552-.971 2.419-2.038.061-4.084.069-6.121.052l-3.39-.017c-.867-.017-1.734-.026-2.627-.035l-.867-9.538-1.734 2.601h-1.734v1.734c-1.682 1.249-1.682 1.249-3.954 2.601-.737.451-1.474.893-2.228 1.353-7.708 3.858-17.046 4.361-25.361 2.237a91 91 0 0 1-6.607-2.723c-1.283-.434-1.283-.434-2.601-.867l-.867 1.734c-10.561 4.613-22.11 4.994-32.922 1.118-8.221-3.57-14.785-10.247-18.236-18.458-.277-.624-.546-1.257-.832-1.899-3.815-10.335-2.749-22.864 1.699-32.783 1.474-2.627 3.13-4.76 5.202-6.936.564-.598 1.127-1.197 1.699-1.812 7.951-7.734 16.171-10.049 27.009-9.919 6.087.243 11.922 1.205 16.379 5.662q.791-.443 1.595-.884c8.592-4.379 18.954-6.676 28.483-4.171 6.122 2.193 10.448 4.734 15.009 9.39-.035-.78-.069-1.561-.095-2.367a299 299 0 0 1-.156-8.783 92 92 0 0 0-.104-3.789c-.173-4.171-.113-7.934 1.223-11.939 3.139-2.801 8.766-7.318 13.006-5.202M65.896 42.486l-.867 1.734 2.601-.867zM30.347 53.757c-2.601 4.049-4.335 7.275-4.335 12.139H73.7c-.095-6.52-.095-6.52-2.601-8.671-2.046 3.694-2.046 3.694-2.601 7.803H55.491c3.347-12.017 3.347-12.017 7.803-17.341-.434-.858-.434-.858-.867-1.734-12.052-3.806-23.645-2.072-32.081 7.803m48.555-4.335-.867 1.734 1.734.867c3.581 7.465 3.798 14.393 3.468 22.543l-15.607.867c1.561 8.592 4.925 14.012 12.139 19.075 6.329 3.191 12.858 3.572 19.613 1.569 7.639-2.896 11.506-7.223 15.069-14.575 2.228-6.503 1.743-15.295-.772-21.65-3.269-5.991-8.133-10.604-14.705-12.668-6.668-1.301-13.977-.919-20.072 2.237M76.3 51.154l-.867 1.734 2.601-.867zm-50.288 24.28c.945 8.48 2.462 13.76 8.645 19.474 7.283 5.54 15.754 5.714 24.572 4.535.52-.087 1.04-.182 1.569-.269 2.792-.364 3.598.069 5.965 1.405-.772-.824-1.535-1.647-2.332-2.497-5.801-6.825-7.604-13.839-9.807-22.648z" fill="#055A97"/><path d="M67.63 39.017c0 3.468 0 3.468-2.064 5.965-1.89 1.465-2.757 1.855-5.168 1.725-1.5-.329-2.983-.685-4.465-1.075-6.13-1.543-12.052-.494-17.783 2.055-6.789 4.266-10.231 10.569-12.139 18.208h47.688l-1.734-8.671c1.587-3.043 2.783-4.006 5.853-5.471.642-.199 1.283-.399 1.951-.598.564 1.223 1.118 2.454 1.682 3.685.468 1.023.468 1.023.945 2.072 1.647 4.014 1.829 7.396 1.812 11.749.009 1.63.009 1.63.009 3.286-.113 2.619-.113 2.619-.98 3.487a90 90 0 0 1-4.829.113c-1.491 0-1.491 0-3.009.009-1.04-.009-2.09-.009-3.165-.017-1.023.009-2.055.009-3.113.017-.997 0-1.994-.009-3.017-.009h-2.766c-2.679-.113-5.211-.486-7.847-.981-.425.858-.425.858-.867 1.734l-28.613-.867c2.723 9.98 4.803 16.422 13.647 21.711 6.312 2.896 14.315 2.488 20.931.884 3.373-.069 4.058.763 6.555 2.931a130 130 0 0 1 3.087 3.087c-.867 1.734-.867 1.734-2.991 2.662-10.829 3.529-21.919 4.058-32.506-.546-7.422-4.006-13.257-9.954-16.526-17.723-.277-.624-.546-1.257-.832-1.899-3.815-10.335-2.749-22.864 1.699-32.783 1.474-2.627 3.13-4.76 5.202-6.936.564-.598 1.127-1.197 1.699-1.812C36.789 34.5 54.191 31.275 67.63 39.017" fill="#0A91C9"/><path d="M38.164 98.793c5.697 1.387 11.358.971 17.176.772 7.942-.147 7.942-.147 11.419 2.749l-.867 3.468c-5.497 1.448-10.621 2.003-16.309 1.951-.72.009-1.439.009-2.185.017-.694 0-1.396 0-2.116-.009H43.4c-2.046-.26-3.468-.954-5.254-1.96v-1.734h-3.468l-.867-1.734H31.21v-3.468c2.679-.858 4.275-.832 6.954-.052" fill="#0595D3"/><path d="M111.21 117.695c5.384.512 10.838.286 16.249.225l-.867 2.601h-5.202v14.74h-2.601v-13.873h-6.936c-1.092-.182-2.185-.355-3.303-.546-2.896-.642-2.896-.642-5.367 1.413-.503 1.899-.503 1.899-.598 4.006-.052.711-.113 1.422-.173 2.15-.035.546-.061 1.084-.095 1.647l1.734.867 1.734 1.734a96 96 0 0 0 6.069-.867h2.601l-.867 2.601c-3.954 1.543-7.257 2.471-11.272.867-2.558-3.182-3.451-6.078-3.52-10.136 1.101-3.434 2.462-4.951 5.254-7.205 2.775-.928 4.335-.642 7.162-.225" fill="#636365"/><path d="M52.89 117.919h3.468a56 56 0 0 1 4.118 5.636c.355.538.711 1.075 1.084 1.63q1.314 1.99 2.601 4.006l.867-11.272h2.601v17.341h-4.335a223 223 0 0 1-.694-1.908c-1.04-2.428-2.254-4.422-3.746-6.598l-2.496-3.633-.867 12.139H52.89z" fill="#6A6C6C"/><path d="M70.231 117.919h3.468a56 56 0 0 1 4.118 5.636c.355.538.711 1.075 1.084 1.63q1.314 1.99 2.601 4.006l.867-11.272h2.601v17.341h-3.468a56 56 0 0 1-4.118-5.636c-.355-.538-.711-1.075-1.084-1.63a317 317 0 0 1-2.601-4.006l-.867 11.272h-2.601z" fill="#6B6D6E"/><path d="M46.821 117.919c2.176 1.318 3.199 2.072 4.335 4.335.546 4.396.728 7.621-1.838 11.324-2.766 1.864-4.379 2.48-7.699 2.549-3.451-.902-5.801-2.228-7.803-5.202-.546-2.991-.572-5.688 0-8.671 3.832-5.081 6.945-5.61 13.006-4.335m-9.538 3.468c-1.396 2.792-1.387 5.653-.867 8.671 1.708 2.367 1.708 2.367 4.335 3.468 2.792-.052 4.465-.364 6.772-1.951 1.361-2.003 1.725-3.434 1.899-5.853-.668-2.618-1.127-3.91-3.364-5.471-3.408-1.11-5.818-.702-8.775 1.136" fill="#67696A"/><path d="M87.572 117.919h11.272l-.867 2.601h-7.803v4.335h7.803v2.601h-7.803v5.202h8.671v2.601H87.573z" fill="#68696B"/><path d="M31.214 117.919c1.049 1.777 1.049 1.777 1.734 3.468-.52-.095-1.049-.182-1.587-.277-4.275-.668-4.275-.668-8.436.225-1.986 2.835-1.474 5.315-1.249 8.723l1.734.867v1.734c5.029.208 5.029.208 9.538-1.734v2.601c-2.28 2.28-3.754 2.35-6.936 2.601-2.835-.676-4.188-1.595-6.338-3.572-1.873-3.191-2.289-5.879-1.465-9.434 3.191-5.645 6.841-6.659 13.006-5.202" fill="#696A6B"/><path d="M73.699 62.428h1.734l-.867 4.335c-2.714.789-5.185.997-8.003 1.049l-2.731.052c-.971.009-1.934.026-2.939.043l-3.017.052-9.538.156c-2.159.043-4.309.078-6.468.113-5.289.095-10.569.182-15.858.269v-2.601H73.7z" fill="#1C85B0"/><path d="m66.312 38.259 1.318.763v3.468l-3.468 1.734c.286-1.153.572-2.298.867-3.468l-1.734-.867v-1.734l-2.116.052c-2.22-.052-2.22-.052-3.087-.919-8.506-.694-15.451-.477-23.22 3.468-.633.286-1.266.572-1.925.867l-1.734-.867c1.387-.711 2.783-1.413 4.171-2.116.78-.39 1.552-.789 2.35-1.188 8.263-3.971 20.488-3.165 28.578.806" fill="#1582B2"/><path d="M116.185 17.341h1.734l-.867 27.746h-1.734c-.017-3.815-.035-7.621-.043-11.436l-.026-3.893c-.009-1.864-.009-3.72-.017-5.584 0-1.118-.009-2.246-.009-3.399.095-2.567.095-2.567.962-3.434" fill="#094A76"/><path d="m78.035 51.156 2.601.867c-1.101 2.202-2.142 2.471-4.335 3.468-.858.434-.858.434-1.734.867-.572 2.627-.572 2.627-.867 5.202l-1.734-2.601c.884-3.841 2.783-5.723 6.069-7.803" fill="#187CA8"/></svg>