<svg xmlns="http://www.w3.org/2000/svg" width="150" height="150" viewBox="0 0 150 150"><path d="M0 0h150v150H0z" fill="#1B1F22"/><path d="m81.328 24.023.421.051c1.891.231 3.733.581 5.582 1.04q.429.106.859.205c3.554.833 7.011 2.306 10.249 3.974l.469.239c3.999 2.029 7.598 4.712 10.897 7.734l.183.167c1.004.917 1.995 1.833 2.882 2.865q.359.411.728.812c8.21 9.133 12.713 21.443 12.671 33.677v.476c-.005 2.717-.176 5.378-.644 8.056l-.042.243a50 50 0 0 1-.661 3.156l-.092.382c-1.309 5.313-3.394 10.475-6.353 15.088l-.155.242a57 57 0 0 1-1.017 1.515l-.144.208a52 52 0 0 1-3.723 4.714l-.223.254a53 53 0 0 1-2.193 2.3q-.31.31-.617.622a28 28 0 0 1-2.476 2.215 31 31 0 0 0-.385.331c-4.147 3.617-11.851 9.138-17.54 9.076-.687-.063-1.175-.334-1.631-.846-.378-.545-.513-.959-.514-1.622l-.002-.41.001-.447-.002-.473-.002-1.018q0-.808-.005-1.618-.008-2.012-.012-4.023a1082 1082 0 0 0-.01-3.119q-.003-.67-.003-1.341c.001-3.849-.242-7.612-2.878-10.643-.219-.253-.219-.253-.454-.605l.253-.036c7-.991 14.06-2.905 18.531-8.799.619-.841 1.131-1.721 1.606-2.65l.21-.397c1.502-3.006 2.211-6.35 2.486-9.68l.039-.422c.249-3.139.24-6.403-.742-9.422l-.08-.25c-.82-2.509-2.061-4.914-3.883-6.845-.139-.171-.139-.171-.139-.405h-.234c.058-.362.153-.69.278-1.033 1.312-3.847.721-8.199-.549-11.957a10 10 0 0 1-.198-.721c-4.908-.093-8.983 1.999-13.046 4.592l-.341.217-.302.194c-.387.229-.548.284-.994.178l-.508-.15c-5.919-1.633-12.138-1.712-18.207-1.047l-.353.038c-1.463.166-2.888.506-4.314.86l-.437.107-.39.097c-.463.088-.87.157-1.312-.037l-.222-.151-.257-.17-.274-.187c-1.231-.807-2.502-1.519-3.809-2.197l-.286-.149c-2.756-1.419-5.625-2.31-8.737-2.195a136 136 0 0 0-.439 1.26l-.124.347c-.684 2.002-.929 3.955-.909 6.062l.001.333c.007 1.53.097 2.957.575 4.421.285.878.285.878.31 1.289-.167.298-.167.298-.439.542-1.936 1.927-3.229 4.694-3.977 7.288l-.068.231c-.508 1.864-.608 3.685-.594 5.609q.003.602.002 1.202c.002 1.428.061 2.818.272 4.23l.05.373c.241 1.77.663 3.446 1.239 5.135l.15.441a19.2 19.2 0 0 0 3.717 6.237l.219.262c4.214 5.041 11.322 6.492 17.476 7.355l-.14.161c-1.374 1.591-2.557 3.521-2.846 5.642-.061.407-.121.738-.295 1.111-.437.313-.891.445-1.406.586l-.483.19c-2.954.923-6.042.757-8.793-.645a7.5 7.5 0 0 1-1.622-1.187l-.168-.154c-.915-.841-1.615-1.73-2.294-2.774a19 19 0 0 0-2.344-2.93l-.259-.263c-1.662-1.582-3.656-2.25-5.906-2.225-.564.019-1.266.075-1.686.496-.082.48.003.766.271 1.157.545.673 1.271 1.137 1.998 1.595 2.635 1.663 4.52 5.086 5.59 7.948.879 2.269 2.722 3.745 4.856 4.762 1.957.827 4.017 1.103 6.13 1.105l.421.009c1.83.006 3.649-.284 5.46-.521q.021 2.016.03 4.031.004.936.014 1.872.01.903.011 1.808l.006.688q.006.483.005.967l.006.285c-.006.7-.215 1.174-.659 1.716-.867.701-1.729.797-2.813.703-.516-.126-1.001-.309-1.494-.505l-.413-.159a58 58 0 0 1-4.069-1.797l-.266-.127a52 52 0 0 1-1.607-.811l-.269-.141a47 47 0 0 1-4.419-2.672l-.266-.18a44 44 0 0 1-3.396-2.58c-.283-.234-.57-.461-.857-.69-1.28-1.052-2.453-2.223-3.626-3.391l-.297-.295a31 31 0 0 1-1.636-1.769l-.313-.359a48 48 0 0 1-2.382-3.04l-.197-.271c-1.687-2.322-3.085-4.784-4.374-7.346l-.154-.303c-.91-1.799-1.621-3.664-2.307-5.556l-.121-.327c-.996-2.699-1.637-5.611-2.052-8.456a42 42 0 0 0-.117-.741c-.386-2.339-.452-4.671-.455-7.038l-.003-.702a48 48 0 0 1 .405-6.407l.036-.28a39 39 0 0 1 .22-1.448l.074-.435c.738-4.152 2.026-8.18 3.771-12.016l.167-.369c1.622-3.562 3.687-7.017 6.161-10.06l.225-.288c1.648-2.103 3.467-4.193 5.497-5.935.291-.254.573-.516.856-.779a32 32 0 0 1 2.129-1.749 41 41 0 0 0 .544-.431c2.049-1.63 4.297-3.008 6.57-4.297l.237-.135c3.233-1.83 6.759-3.142 10.31-4.201l.285-.085c2.643-.777 5.419-1.247 8.152-1.555l.293-.037c3.833-.469 7.838-.346 11.66.154" fill="#FEFEFE"/><path d="M149.063 144.375h.938V150h-5.625v-.938h1.875v-.938h.938v-.938h.938v-.938h.938zM0 144.375h.938v1.875h.938v.938h.938v.938h.938v.938h1.875v.938H0zM144.375 0H150v5.625h-.938V3.75h-.938v-.938h-.938v-.938h-.938V.938h-1.875zM0 0h5.625v.938H3.75v.938h-.938v.938h-.938v.938H.938v1.875H0z"/><path d="M111.797 110.508c0 .438-.106.512-.396.828l-.222.246a21 21 0 0 1-.437.45l-.352-.117z" fill="#303334"/><path d="M47.344 47.227c.234.234.234.234.264.513-.031.325-.12.488-.264.776q-.069.408-.117.82l-.234-.117c.074-.677.194-1.329.352-1.992" fill="#2D3031"/></svg>