<svg xmlns="http://www.w3.org/2000/svg" width="150" height="150" viewBox="0 0 150 150"><path d="M33.984 12.305c1.175.981 1.706 1.83 2.171 3.277l.182.552q.303.931.595 1.866l.447 1.377q.509 1.571 1.011 3.144.95 2.966 1.911 5.927a8490 8490 0 0 1 4.523 14.033l5.566 17.285h49.219c3.51-10.75 3.51-10.75 6.976-21.515l1.448-4.522a2537 2537 0 0 0 1.675-5.242q.846-2.659 1.703-5.313.463-1.434.918-2.87a591 591 0 0 1 1.025-3.189l.301-.962c.539-1.641.974-2.78 2.36-3.848.604-.195.604-.195 1.172-.183l.568-.012c.951.306 1.501.865 2.069 1.66.514 1.149.883 2.337 1.26 3.537l.349 1.074q.469 1.446.927 2.895.488 1.53.984 3.057a1853 1853 0 0 1 2.162 6.751q.688 2.155 1.378 4.309.833 2.604 1.663 5.208a1780 1780 0 0 0 5.083 15.63l.21.638 1.641 4.986a3655 3655 0 0 1 3.943 12.046 1034 1034 0 0 1 1.293 3.99q.206.638.414 1.275.31.954.617 1.908l.358 1.105c.547 2.019.734 3.832-.31 5.691-.903 1.359-2.057 2.197-3.386 3.114l-1.503 1.072-.779.552c-1.252.895-2.478 1.824-3.705 2.752a993 993 0 0 1-9.866 7.303 447 447 0 0 0-7.364 5.515 172 172 0 0 1-5.532 4.091c-1.741 1.231-3.441 2.517-5.145 3.8a544 544 0 0 1-5.125 3.809 554 554 0 0 0-5.055 3.755 832 832 0 0 1-7.2 5.337l-2.8 2.063-1.38 1.012a158 158 0 0 0-3.632 2.739l-.763.585a100 100 0 0 0-1.443 1.128l-.66.502-.576.451c-.589.245-.589.245-1.31.056a14 14 0 0 1-2.088-1.377l-.763-.59-.804-.628q-.836-.646-1.673-1.29l-.819-.63a90 90 0 0 0-2.818-2.053 191 191 0 0 1-4.871-3.57 660 660 0 0 0-6.516-4.85 2260 2260 0 0 0-3.442-2.526 493 493 0 0 1-8.156-6.121 146 146 0 0 0-4.717-3.461c-1.582-1.119-3.116-2.298-4.654-3.476a174 174 0 0 0-5.624-4.164 182 182 0 0 1-4.392-3.234 681 681 0 0 0-5.822-4.339l-.683-.505a209 209 0 0 0-3.616-2.613l-.763-.545a117 117 0 0 0-1.444-1.015c-1.473-1.059-2.63-2.078-3.29-3.8-.325-2.597.274-4.83 1.117-7.264l.539-1.622q.287-.857.579-1.712.61-1.794 1.208-3.592a1616 1616 0 0 1 1.436-4.282 999 999 0 0 0 3.114-9.427l.853-2.616c1.463-4.483 2.901-8.974 4.335-13.466a2185 2185 0 0 1 5.951-18.353q.75-2.28 1.472-4.569.398-1.257.802-2.512a166 166 0 0 0 .513-1.65l.313-.967.258-.825c.826-1.551 2.24-1.791 3.877-1.557" fill="#E24328"/><path d="M135.059 60.645a39 39 0 0 1 .707 2.011l.207.627q.337 1.028.671 2.057l.468 1.427q.491 1.497.979 2.995.626 1.92 1.255 3.838.6 1.829 1.198 3.659l.231.705.646 1.98.193.591c.483 1.486.826 2.788.879 4.353l.043.874c-.298 1.86-1.305 3.132-2.773 4.272a93 93 0 0 1-1.354.951l-1.502 1.072-.78.552c-1.252.895-2.478 1.824-3.705 2.752a993 993 0 0 1-9.866 7.303 447 447 0 0 0-7.364 5.515 172 172 0 0 1-5.532 4.091c-1.741 1.231-3.441 2.517-5.145 3.8a544 544 0 0 1-5.125 3.809 554 554 0 0 0-5.054 3.754 613 613 0 0 1-5.072 3.772l-.705.519q-1.774 1.305-3.549 2.607l-1.404 1.031-.689.506a191 191 0 0 0-3.493 2.631l-.696.537a264 264 0 0 0-1.31 1.022l-.588.456-.516.404c-.435.284-.435.284-1.021.284.184-1.651.593-3.141 1.108-4.717l.253-.788q.416-1.295.836-2.588l.594-1.845q.627-1.949 1.256-3.897a2704 2704 0 0 0 1.865-5.803l.306-.954.614-1.917 1.57-4.896 5-15.585.311-.97 3.719-11.591c2.299-7.164 4.591-14.332 6.884-21.499q6.803-.078 13.606-.145 3.159-.03 6.318-.067 2.752-.032 5.505-.057 1.458-.013 2.916-.031a881 881 0 0 1 3.252-.032l.981-.015.891-.005.777-.008c.618.067.618.067 1.204.653m-119.825-.586 34.863.293c1.318 3.296 1.318 3.296 1.822 4.859l.345 1.066.364 1.134.39 1.206 1.039 3.224q.434 1.351.87 2.701a7340 7340 0 0 1 6.626 20.654q1.648 5.155 3.302 10.309l.309.963q1.814 5.656 3.633 11.311l.357 1.11 2.015 6.265.904 2.816q.591 1.843 1.192 3.682l.57 1.76.268.813.242.75.213.652c.149.603.149.603.149 1.775a13 13 0 0 1-2.308-1.396l-.663-.491-.71-.53-1.508-1.119-.779-.579a746 746 0 0 0-2.912-2.147 711 711 0 0 1-6.339-4.713 563 563 0 0 0-4.501-3.342l-.708-.521q-1.751-1.288-3.505-2.573a492 492 0 0 1-8.152-6.118 146 146 0 0 0-4.717-3.461c-1.582-1.119-3.116-2.298-4.654-3.476a174 174 0 0 0-5.624-4.164 182 182 0 0 1-4.392-3.234 681 681 0 0 0-5.822-4.339l-.683-.505a209 209 0 0 0-3.616-2.613l-.763-.545a117 117 0 0 0-1.444-1.015c-1.474-1.061-2.628-2.081-3.29-3.802-.357-2.705.347-5.048 1.22-7.583q.192-.574.381-1.149a460 460 0 0 1 1.012-3.002q.509-1.503 1.008-3.008.745-2.232 1.5-4.461c.84-2.484 1.667-4.971 2.496-7.457" fill="#FB6D25"/><path d="M134.473 60.059c.762.762.971 1.596 1.293 2.597l.207.627q.337 1.028.671 2.057l.468 1.427q.491 1.497.979 2.995.626 1.92 1.255 3.838.6 1.829 1.198 3.659l.231.705.646 1.98.193.591c.483 1.486.826 2.788.879 4.353l.043.874c-.298 1.86-1.305 3.132-2.773 4.272a93 93 0 0 1-1.354.951l-1.502 1.072-.78.552c-1.252.895-2.478 1.824-3.705 2.752a993 993 0 0 1-9.866 7.303 447 447 0 0 0-7.364 5.515 172 172 0 0 1-5.532 4.091c-1.741 1.231-3.441 2.517-5.145 3.8a544 544 0 0 1-5.125 3.809 554 554 0 0 0-5.054 3.754 613 613 0 0 1-5.072 3.772l-.705.519q-1.774 1.305-3.549 2.607l-1.404 1.031-.689.506a191 191 0 0 0-3.493 2.631l-.696.537a264 264 0 0 0-1.31 1.022l-.588.456-.516.404c-.435.284-.435.284-1.021.284.391-.838.834-1.54 1.406-2.265l.496-.632.533-.674 1.118-1.426.573-.731a366 366 0 0 0 2.538-3.299l.944-1.237.453-.594c1.117-1.462 2.241-2.919 3.363-4.376l1.465-1.904.732-.952.366-.476 12.817-16.663.366-.476.735-.956q.894-1.162 1.787-2.326a979 979 0 0 1 4.235-5.471 922 922 0 0 0 5.481-7.123c1.117-1.462 2.241-2.919 3.363-4.376l1.465-1.904.732-.952.366-.476 7.325-9.522.729-.949 1.875-2.435a398 398 0 0 0 3.914-5.149m-119.236.001c.732.713 1.4 1.427 2.017 2.242l.464.61.486.645 1.024 1.349.509.672q.995 1.31 2.001 2.611l.708.92.702.912 1.465 1.904 3.299 4.288q.894 1.162 1.787 2.326a979 979 0 0 0 4.235 5.471 922 922 0 0 1 5.481 7.123c1.117 1.462 2.241 2.919 3.363 4.376l1.465 1.904.732.952 21.973 28.564.366.476.732.952q.92 1.196 1.842 2.391a494 494 0 0 1 4.822 6.362c-1.084 0-1.325-.263-2.167-.922l-.768-.595-.819-.643-1.689-1.306-.83-.642a104 104 0 0 0-3.305-2.399 182 182 0 0 1-4.393-3.235 660 660 0 0 0-6.516-4.85 2260 2260 0 0 0-3.442-2.526 493 493 0 0 1-8.156-6.121 146 146 0 0 0-4.717-3.461c-1.582-1.119-3.116-2.298-4.654-3.476a174 174 0 0 0-5.624-4.164 182 182 0 0 1-4.392-3.234 681 681 0 0 0-5.822-4.339l-.683-.505a209 209 0 0 0-3.616-2.613l-.763-.545a117 117 0 0 0-1.444-1.015c-1.474-1.058-2.628-2.078-3.29-3.799-.357-2.705.347-5.048 1.22-7.583q.192-.574.381-1.149a460 460 0 0 1 1.012-3.002q.509-1.503 1.008-3.008a1457 1457 0 0 1 1.901-5.649q.707-2.097 1.405-4.197l.219-.657z" fill="#FBA225"/></svg>