<svg xmlns="http://www.w3.org/2000/svg" width="50" height="50" viewBox="0 0 50 50"><path d="m25.005 6.815.095-.004c.564-.005 1.117.322 1.619.556l.203.094q.26.12.519.242l.292.136c1.038.483 2.069.981 3.078 1.521l.36.191q.747.396 1.476.825a25 25 0 0 0 .717.407c1.703.934 3.335 2.026 4.928 3.134l.097.068q.707.489 1.402.996l.164.119c.539.388.921.808 1.044 1.479.068.431.103.867.144 1.302l.014.145q.071.741.131 1.484l.007.094c.131 1.701.176 3.399.173 5.105v.776a65 65 0 0 1-.094 3.808l-.005.087a55 55 0 0 1-.07 1.035l-.01.138a69 69 0 0 1-.188 2.062l-.013.122c-.083.795-.221 1.451-.867 1.989q-.248.193-.504.376l-.278.202a56 56 0 0 1-3.906 2.626l-.382.236a72 72 0 0 1-2.776 1.626l-.137.077c-.774.434-1.557.847-2.348 1.248l-.307.156c-.962.488-1.929.958-2.916 1.394l-.147.065-.4.177-.115.051a2.4 2.4 0 0 1-.992.223l-.104.003c-.569.003-1.093-.296-1.599-.527l-.11-.05a68 68 0 0 1-2.141-1.018l-.319-.157c-1.598-.79-1.598-.79-2.334-1.203q-.198-.11-.398-.218a53 53 0 0 1-1.93-1.107l-.399-.234a43 43 0 0 1-1.307-.802l-.332-.208a53 53 0 0 1-1.554-1.021l-.107-.072q-1.057-.715-2.087-1.465l-.161-.116c-.646-.466-1.027-.916-1.159-1.721-.054-.362-.085-.727-.119-1.091l-.013-.141q-.07-.727-.129-1.456l-.008-.094a67 67 0 0 1-.176-5.243v-.48c.001-1.505.015-3.005.128-4.506l.029-.402a85 85 0 0 1 .149-1.771l.011-.115q.03-.326.063-.653l.019-.194c.068-.7.239-1.322.799-1.787q.3-.228.61-.442.172-.122.342-.247 1.02-.743 2.073-1.437l.117-.077a77 77 0 0 1 6.813-4.009q.231-.12.461-.242a50 50 0 0 1 3.362-1.605 14 14 0 0 0 .398-.181c.374-.178.688-.277 1.103-.28" fill="#26B859"/><path d="M20.5 14.792c.262.163.48.388.692.61.111.109.227.21.345.313q.216.192.425.393l.186.175.094.089.434.408.076.071q.168.159.346.305c.149.126.192.185.211.382-.004.172-.057.259-.182.38-.249.124-.555.042-.833.042v5.083h5.417l-.004-1.25-.002-.783-.003-1.244-.002-.906-.001-.48-.001-.452-.001-.245.001-.147v-.128a.63.63 0 0 1 .14-.324c.153-.102.269-.096.446-.096l.099-.001.324-.002.225-.001.472-.001q.302 0 .604-.004l.465-.002.223-.002h.312l.093-.002c.166.002.232.021.361.13l.08.105.042.042q.006.118.005.236v2.507l-.001 1.365-.001 2.214-.001 2.151v.799l-.003 5.52.157-.006.205-.005.103-.004c.172-.003.261 0 .411.093.128.136.139.233.135.421-.026.197-.188.302-.33.424q-.266.235-.523.48a66 66 0 0 1-.705.658 32 32 0 0 0-.372.348c-.768.728-.768.728-1.016.796-.349-.092-.605-.406-.85-.657a6 6 0 0 0-.344-.312c-.102-.091-.197-.188-.293-.285a5 5 0 0 0-.231-.21c-.216-.188-.423-.386-.631-.584a8 8 0 0 0-.401-.361c-.156-.129-.184-.198-.206-.398.018-.173.061-.236.182-.357.249-.124.555-.042.833-.042v-5.124h-5.415l.004 1.249.002.783.003 1.243q.002.452.002.905l.001.479.001.451.001.244c-.002.462-.002.462-.141.646-.142.113-.314.096-.488.096l-.098.001-.319.002-.222.001-.465.001-.596.004-.458.002-.22.002h-.307l-.091.002a.47.47 0 0 1-.358-.125c-.127-.163-.133-.28-.133-.48v-2.491l.001-1.356.001-2.2.001-2.138v-.794l.002-5.484-.157.006-.205.005-.103.004c-.172.003-.261 0-.411-.093-.128-.136-.139-.233-.135-.421.026-.197.189-.303.33-.425q.263-.232.517-.474l.187-.177.094-.089.718-.671.074-.069c.898-.834.898-.834 1.176-.764" fill="#FDFEFE"/></svg>