<svg xmlns="http://www.w3.org/2000/svg" width="150" height="150" viewBox="0 0 150 150"><path d="m43.951 6.114.775.003.817-.001q1.365 0 2.73.003h1.948q2.654 0 5.308.004l5.54.002q4.652.001 9.305.005l9.586.006h.596l2.962.001q12.295.005 24.589.015l.293 18.164c-.97.485-2.048.322-3.113.311l-.712-.004-1.742-.014.002.547q.029 6.579.043 13.159.007 3.181.021 6.364.013 2.773.016 5.546.001 1.468.01 2.937.008 1.638.007 3.277l.009.986-.004.9.002.783c-.131.796-.35 1.055-.987 1.536-.611.1-.611.1-1.304.086l-.678-.007-.856-.024-2.727-.054v6.445c-.97.485-2.048.322-3.113.311l-.712-.004-1.742-.014.021 1.069.016 1.385.015.705c.005.608-.021 1.215-.051 1.822l-.586.586v.293h-5.566v3.809l1.123-.031q.729-.013 1.459-.024l.74-.023.713-.008.655-.014c.762.13 1.012.357 1.463.979.1.557.1.557.086 1.175l-.007.606-.024.764-.057 2.434h5.273l.293.879h.293v5.273h5.273c.365.731.329 1.218.328 2.036l.001.929-.003 1.023v1.074q0 1.46-.004 2.92l-.002 3.05q-.001 2.889-.006 5.777-.005 3.288-.006 6.576-.005 6.765-.015 13.53h5.859v18.457H42.188c-.394-.789-.33-1.4-.331-2.284l-.003-1.078.002-1.17-.001-1.195.002-2.506q.002-1.608-.001-3.216v-2.469l-.001-1.764.003-1.078.001-.953c.036-.744.036-.744.329-1.33h5.273V89.648l.879-.293v-.293h5.273c-.023-1.696-.023-1.696-.053-3.392l-.004-.642-.009-.655c.066-.584.066-.584.652-1.463.551-.1.551-.1 1.211-.086l.715.009.747.022.754.012q.923.017 1.846.043l-.031-1.058-.024-1.377-.023-.697-.008-.672-.014-.618c.133-.744.374-.993.979-1.436.557-.1.557-.1 1.175-.086l.672.009.697.022.708.012q.863.017 1.727.043v-3.809l-1.058.031-1.377.024-.697.022-.672.008-.618.014c-.747-.134-.995-.367-1.436-.979-.1-.611-.1-.611-.086-1.304l.009-.752.022-.782.012-.792q.017-.968.043-1.936h-5.273v-6.738l-3.997.026-.753.002-.772.005c-.63-.033-.63-.033-1.216-.326V24.609h-5.273c-.317-1.269-.291-2.321-.246-3.616-.049-.807-.22-1.264-.633-1.95h.586q.012-1.657.018-3.314l.007-.952.003-.913.005-.841c-.003-.759-.003-.759-.326-1.597h.586l-.074-1.079-.09-1.392-.05-.713a60 60 0 0 1-.079-1.796c.546-.546 1.329-.329 2.056-.331m4.389 5.897v6.152h.293v-6.152zm.586 0v.293h52.734v-.293zm0 .586v4.98h52.734c.226-1.132.333-2.016.33-3.149l.002-.856c.037-.671.037-.671-.332-.975a43 43 0 0 0-2.037-.035l-.653-.001q-1.092 0-2.183.003h-1.559q-2.123 0-4.246.004l-4.431.002q-4.199.001-8.398.006-4.779.005-9.558.006-9.834.005-19.668.015m0 5.273v.293h52.734v-.293zm-6.152 6.152v.293h4.688v-.293zm11.426 0v35.742h.293V24.023zm.586 0v.293h41.016v-.293zm48.047 0v.293h4.688v-.293zm-48.047.586v34.57h4.688l.586.586v-5.566h5.273l.293-.586h.293v-6.152h6.152v6.738h5.273v-.586l.586.586v-6.738h6.152v7.031h-5.859v5.273l5.859-.293v6.152h5.273v-.586l.586.586.293-5.859 5.566-.293V24.609zm11.426 29.883v5.273h.293v-5.273zm.586 0v.293h4.688v-.293zm4.98 0v5.273h.293v-5.273zm-4.98.586v4.395h4.688v-4.395zm-12.012 4.395v.293h4.688v-.293zm41.602.586v.293h5.566v-.293zm-36.035.879v4.688h.293v-4.688zm5.273 0v4.102h.293v-4.102zm6.445 0v4.688h5.273v-4.395zm5.566 0v4.688h.293v-4.688zm-16.699.293v3.809h4.395v-3.809zm0 4.102v.293h4.395v-.293zm-1.172 1.465v5.566h.293v-5.566zm6.445 0v4.688h.293v-4.688zm.586 0v.293h4.688v-.293zm4.98 0v4.688h.293v-4.688zm6.445 0v4.98l5.273-.293v-4.688zm5.566 0v4.98h.293v-4.98zm7.031 0v.293h4.98v-.293zm-24.023.586v4.102h4.688v-4.102zm-5.566 5.273v.293h4.102v-.293zm10.84 0v5.859h-5.859v6.152h-5.273v.586l-.586-.586-.293 6.445-5.273.293v33.984h4.688l.293-4.688 5.566-.293.293-.586h.293v-5.859h5.859v-6.152h6.445v6.152h5.859v6.445h6.152v5.566l.586-.293v.293h4.98V90.82h-5.566l-.293-6.152-5.859-.293-.293-5.273c-1.6-.085-1.6-.085-3.199-.166l-.606-.034-.618-.032c-.558-.061-.558-.061-1.437-.354v-5.859zm12.012 0v4.98h.293v-4.98zm-18.457.586v3.809h.293v-3.809zM53.907 83.79v5.859h.293V83.79zm.293 7.031v35.156h.293V90.82zm.586 0v.293h4.98v-.293zm17.578 23.73v5.859h.293v-5.859zm.586 0v.293h4.395v-.293zm4.688 0v5.273h.293v-5.273zm-4.688.586v4.688h4.395v-4.688zm0 4.98v.293h4.395v-.293zm-6.738.586v5.273h.293v-5.273zm.586 0v4.688h4.688c.229-1.147.325-2.021.311-3.168l-.02-1.52zm11.426 0v5.273h.293v-5.273zm.586 0v4.688h4.98c.339-1.695.42-3.009 0-4.688zm-24.023 4.98v.293h4.688v-.293zm12.012 0v.293h4.98v-.293zm12.012 0v.293h4.98v-.293zm-30.469 6.152v6.445h.293v-6.445zm.586 0v5.859h52.148v-5.859zm52.441 0v6.445h.293v-6.445zm-52.441 6.152v.293h52.148v-.293z" fill="#191312"/><path d="M71.777 83.496h6.445q.085 1.895.165 3.79l.05 1.093.043 1.039.042.962c-.006.733-.006.733-.299 1.026a20 20 0 0 1-1.31.029l-.798-.003-.839-.008-.843-.004q-1.034-.005-2.069-.014c-.385-.77-.355-1.385-.386-2.245l-.037-.996-.035-1.044-.038-1.051q-.047-1.288-.09-2.575m.879 7.324v.293h4.98v-.293zM42.188 5.566h65.625v.293H42.188zm66.21 120.411h.293v17.871h-.293zm-67.089.293h.293v17.285h-.293zM108.398 6.445h.293V23.73h-.293zM48.34 60.352h5.566v6.152h-.293v-5.859H48.34zm35.742 24.609h5.566v5.859h-.293v-5.566h-5.273zM72.363 72.949h5.273v5.273h-.293l-.293-4.688-4.688-.293zm-.879 10.84h.293v7.031h-.293zm12.891-36.035h.293v6.445h-.293zM72.07 107.227h5.859v.293H72.07zm.293-24.317h5.859v.293h-5.859zm30.176 42.481h5.566v.293h-5.566zM78.223 46.875h5.566v.293h-5.566zm-12.012 0h5.566v.293h-5.566zm12.305 7.91h5.273v.293h-5.273z" fill="#191312"/></svg>