<svg xmlns="http://www.w3.org/2000/svg" width="150" height="134.473" viewBox="0 0 150 134.473"><path d="M21.826 8.496h106.348c-.084 1.598-.084 1.598-.137 2.171l-.018.204-.06.665-.044.489-.12 1.338-.117 1.307-.242 2.705-.245 2.74-.016.175-.079.884-.572 6.398-.568 6.354-.018.2-.234 2.617-.274 3.068-.6 6.711-2.228 24.965-1.568 17.591-1.283 14.393-.013.15-.424 4.772-.117 1.324-.017.187-.082.928-.176 1.993-.12 1.351-.069.782-.075.851-.022.252-.021.23-.018.199a6 6 0 0 1-.095.55 860 860 0 0 1-5.637 1.575l-2.261.625-.233.064q-2.352.65-4.703 1.304a4988 4988 0 0 1-7.158 1.984 4651 4651 0 0 0-6.518 1.81 5023 5023 0 0 1-7.627 2.114l-.851.235-.212.059-5.328 1.475-1.735.481-.261.072a12 12 0 0 0-.498.151c-.502.124-.902.07-1.394-.068l-.157-.043q-.258-.071-.516-.145l-.371-.103-1.008-.282-1.073-.299-1.8-.502-2.565-.714-.204-.057-.815-.226-1.438-.4a2518 2518 0 0 0-5.655-1.565 2928 2928 0 0 1-6.689-1.852 2839 2839 0 0 0-6.472-1.791 3063 3063 0 0 1-6.836-1.893 2717 2717 0 0 0-6.993-1.935 61 61 0 0 1-.294-2.771l-.043-.481-.117-1.319-.115-1.288-.237-2.666-.333-3.744-.561-6.304-.557-6.264-.018-.197-.589-6.621-.516-5.805-2.198-24.692-1.628-18.273-1.159-13.009-.013-.148-.425-4.769-.327-3.669-.196-2.19-.126-1.417-.071-.791-.075-.837-.022-.242-.019-.223-.017-.19c-.014-.236-.012-.472-.012-.709" fill="#E34D25"/><path d="M41.602 30.688h66.65c0 .905 0 .905-.038 1.228l-.025.228-.028.247a112 112 0 0 0-.266 2.834 506 506 0 0 1-.481 5.35l-.111 1.189-.084.906-.024.252-.02.211q-.046.444-.096.886H56.25c.268 3.206.268 3.206.561 6.408l.163 1.719q.152 1.637.292 3.275l.024.279.067.775.02.231.018.212.016.183c.011.18.011.36.011.54h48.413c0 .742 0 .742-.032 1.078l-.022.227-.024.239-.024.251-.051.521-.077.798-.049.508-.023.24-.022.225-.019.197c-.023.184-.023.184-.06.369-.035.179-.053.35-.065.532l-.014.208-.015.225-.034.488-.018.26c-.1 1.462-.216 2.921-.362 4.379a228 228 0 0 0-.366 4.069 334 334 0 0 1-.398 4.504 662 662 0 0 0-.494 5.457l-.147 1.688a536 536 0 0 1-.248 2.761 634 634 0 0 0-.287 3.218l-.169 1.943a416 416 0 0 1-.35 3.876q-.12 1.266-.219 2.535a11 11 0 0 1-1.2.391l-.172.046-.541.144-.71.19-.174.047a72 72 0 0 0-1.306.365q-.412.118-.826.232-.544.15-1.088.303-1.764.495-3.533.973c-1.254.327-1.254.327-2.489.715-.333.114-.674.196-1.016.279-1.079.266-2.148.574-3.218.874a347 347 0 0 1-1.8.499 167 167 0 0 0-2.01.565q-.753.215-1.511.414a70 70 0 0 0-1.826.513q-1.022.3-2.051.572l-.275.073q-.261.069-.524.136c-.243.062-.243.062-.464.142-.668.217-1.199.054-1.846-.14l-.332-.094-.663-.191a64 64 0 0 0-1.06-.298 143 143 0 0 1-1.079-.304l-.194-.055q-.905-.257-1.808-.519a124 124 0 0 0-2.971-.818 193 193 0 0 1-4.411-1.228q-.82-.234-1.644-.457a64 64 0 0 1-1.817-.522 46 46 0 0 0-1.984-.545c-.818-.211-1.63-.444-2.442-.677q-1.037-.296-2.076-.581l-2.318-.642-.18-.05-1.006-.278a454 454 0 0 1-.264-2.832l-.074-.818-.136-1.509-.114-1.268-.019-.208q-.11-1.23-.245-2.459a68 68 0 0 1-.23-2.597c-.117-1.618-.117-1.618-.269-3.233a212 212 0 0 1-.286-2.973l-.051-.557-.072-.789-.022-.238-.02-.227-.018-.195c-.018-.347-.012-.696-.012-1.043h13.33a75 75 0 0 1 .345 3.363c.093 1.243.198 2.484.324 3.724a82 82 0 0 1 .284 3.605l.218.027c.307.044.602.12.902.201l.173.046.552.147.756.201.186.049a61 61 0 0 0 1.511.382q.45.111.891.252c.631.197 1.271.36 1.911.526l.721.188.176.046a48 48 0 0 1 1.293.36q.408.114.818.212l1.204.307.171.044c.82.21 1.637.428 2.447.673.618.181 1.105.186 1.735.025l.162-.04a50 50 0 0 0 1.661-.45c1.584-.449 3.176-.87 4.767-1.293q.972-.259 1.943-.521l1.917-.515.59-.158.555-.149.181-.048q.456-.121.91-.252l.181-.052q.17-.048.339-.098c.271-.077.51-.129.793-.11l.004-.125.023-.58.007-.196a10 10 0 0 1 .11-1.113c.076-.523.115-1.043.145-1.571a95 95 0 0 1 .273-3.289q.067-.693.132-1.387l.015-.155a221 221 0 0 0 .252-2.882q.13-1.608.274-3.214l.037-.411.051-.568.014-.161c.053-.571.129-1.136.2-1.706H45.19l-.439-5.127c-.126-1.309-.126-1.309-.259-2.618l-.142-1.382-.015-.147a96 96 0 0 1-.243-2.884 132 132 0 0 0-.244-2.951l-.029-.304-.062-.652a1608 1608 0 0 1-1.231-13.635c-.232-2.709-.232-2.709-.502-5.414l-.049-.458-.096-.878c-.135-1.255-.202-2.495-.278-3.76" fill="#FEFEFE"/><path d="M75 17.432h43.433c-.085 1.521-.085 1.521-.134 2.113l-.017.207-.055.656-.019.231a179 179 0 0 1-.311 3.331q-.124 1.207-.224 2.417-.151 1.85-.316 3.699l-.014.157q-.276 3.104-.559 6.207-.251 2.748-.493 5.496l-.014.156-.118 1.341q-.15 1.714-.304 3.428l-.107 1.205-.163 1.826-.014.157a701 701 0 0 1-.33 3.616l-.014.152-.113 1.194q-.196 2.065-.365 4.133c-.1 1.233-.216 2.464-.336 3.696q-.16 1.635-.294 3.273-.104 1.263-.222 2.525a297 297 0 0 0-.271 3.118q-.18 2.186-.388 4.371l-.114 1.207-.014.15a565 565 0 0 0-.279 3.055l-.022.25-.25 2.836-.135 1.537a866 866 0 0 1-.367 4.074l-.167 1.794a357 357 0 0 0-.339 3.853 212 212 0 0 1-.192 2.2 578 578 0 0 0-.31 3.461l-.014.161-.071.817-.014.164a240 240 0 0 1-.383 4.07 55 55 0 0 0-.174 1.987l-.014.207q-.034.496-.064.991l-.023.352-.008.163c-.014.199-.028.36-.134.532-.199.123-.399.176-.624.237l-.147.041-.468.127-.302.083-.618.169-.977.269-.497.138-.797.221q-1.532.423-3.061.859c-.949.273-1.901.536-2.853.797l-1.294.356-.26.072-2.996.831-1.334.37c-.675.187-1.347.387-2.018.589a29 29 0 0 1-1.504.414q-.64.157-1.268.353c-.604.185-1.211.352-1.822.513a204 204 0 0 0-2.518.682l-.169.047q-1.159.321-2.311.663-.616.181-1.239.332-.422.106-.84.226l-.344.096-.174.049-.474.132a140 140 0 0 0-1.511.425l-.268.077-.52.15c-.643.185-1.287.346-1.937.509l-.073-13.77q.685-.23 1.378-.439l.18-.055a20 20 0 0 1 1.001-.273c.423-.104.841-.224 1.259-.349a84 84 0 0 1 2.13-.595q1.162-.312 2.32-.641l1.143-.32 1.381-.387c2.331-.654 2.331-.654 3.494-.956a50 50 0 0 0 1.625-.451c.908-.268 1.82-.521 2.733-.774l.219-.061a150 150 0 0 1 2.63-.706 24 24 0 0 0 1.239-.356c1.185-.364 2.388-.675 3.586-.991l.27-.071.24-.063a8 8 0 0 0 .413-.129l.01-.121.103-1.288.038-.476a172 172 0 0 1 .277-3.106 438 438 0 0 0 .282-3.012l.042-.465q.21-2.305.406-4.612a697 697 0 0 1 .367-4.133 2357 2357 0 0 0 .583-6.493l.093-1.052.018-.208.249-2.792.015-.164.057-.636q.201-2.223.393-4.447l.037-.429c.056-.646.108-1.292.141-1.94.023-.43.074-.847.145-1.271.092-.63.135-1.266.191-1.9l.057-.65.035-.401.016-.186.014-.16q.044-.428.092-.854H57.422c-.168-1.431-.168-1.431-.226-2.07l-.085-.935-.047-.511-.097-1.071-.122-1.338a796 796 0 0 1-.453-5.114l-.039-.453-.053-.623-.016-.18c-.037-.447-.035-.874-.035-1.326h50.83v-.659q.02-.29.046-.579l.015-.169.053-.566.038-.411.171-1.816.302-3.196a725 725 0 0 0 .328-3.52l.22-2.417h-66.65v-.073H75z" fill="#F16529"/><path d="M41.602 30.688h66.65c0 .905 0 .905-.038 1.228l-.025.228-.028.247a112 112 0 0 0-.266 2.834 506 506 0 0 1-.481 5.35l-.111 1.189-.084.906-.024.252-.02.211q-.046.444-.096.886H56.25c.268 3.206.268 3.206.561 6.408l.163 1.719q.152 1.637.292 3.275l.024.279.067.775.02.231.018.212.016.183c.011.18.011.36.011.54h48.413v.659h-.073v-.586H74.927v13.184H45.19l-.439-5.127c-.126-1.309-.126-1.309-.259-2.618l-.142-1.382-.015-.147a96 96 0 0 1-.243-2.884 132 132 0 0 0-.244-2.951l-.029-.304-.062-.652a1608 1608 0 0 1-1.231-13.635c-.232-2.709-.232-2.709-.502-5.414l-.049-.458-.096-.878c-.135-1.255-.202-2.495-.278-3.76m4.248 46.875h13.33a75 75 0 0 1 .345 3.363c.093 1.243.198 2.484.324 3.724a82 82 0 0 1 .284 3.607l.218.027c.307.044.602.12.902.201l.173.046.552.147.756.201.186.049a61 61 0 0 0 1.511.382q.45.111.891.252c.631.197 1.271.36 1.911.526l.721.188.176.046a48 48 0 0 1 1.293.36q.408.114.818.212.518.131 1.035.264l.34.087c.58.148 1.159.298 1.733.466l.246.072.442.134c.5.148.957.173 1.477.149l-.073.146h-.513L75 105.835l.659-.146c.224-.009.224-.009.366 0-.836.442-1.493.342-2.357.082l-.332-.094-.663-.191a64 64 0 0 0-1.06-.298 143 143 0 0 1-1.081-.305l-.194-.055q-.905-.257-1.808-.519a124 124 0 0 0-2.971-.818 193 193 0 0 1-4.411-1.228q-.82-.234-1.644-.457a64 64 0 0 1-1.817-.522 46 46 0 0 0-1.984-.545c-.818-.211-1.63-.444-2.442-.677q-1.037-.296-2.076-.581l-2.318-.642-.18-.05-1.006-.278a454 454 0 0 1-.264-2.832l-.074-.818-.136-1.509-.114-1.268-.019-.208q-.11-1.23-.245-2.459a68 68 0 0 1-.23-2.597c-.117-1.618-.117-1.618-.269-3.233a212 212 0 0 1-.286-2.973l-.051-.557-.072-.789-.022-.238-.02-.227-.018-.195c-.018-.347-.012-.696-.012-1.043" fill="#EBEAEA"/><path d="M74.927 30.762h33.252l-.073.732a12 12 0 0 0-.013.415c-.032 1.562-.168 3.112-.31 4.668l-.111 1.261-.093 1.054-.044.503c-.078.906-.174 1.8-.354 2.692-.122.63-.135 1.196-.175 1.858h-32.08z" fill="#FEFEFE"/><path d="M74.927 70.898h16.406a11 11 0 0 1-.068 1.408l-.029.285-.061.613-.016.158q-.077.79-.145 1.581l-.025.284-.051.583-.14 1.605-.015.169a571 571 0 0 1-.249 2.74l-.035.38-.138 1.478c-.15 1.55-.15 1.55-.251 3.103-.022.47-.074.936-.132 1.403l-.057.476-.025.206q-.052.444-.101.888l-.243.064c-2.026.53-2.026.53-4.051 1.063l-.307.081q-.72.188-1.437.393c-.778.224-1.562.427-2.345.634l-1.171.31a575 575 0 0 0-2.678.713c-1.512.407-1.512.407-2.051.549l-.157.043c-.437.097-.82.022-1.234-.116v-.073c.358-.014.536.009.879.146z" fill="#F16529"/><path d="M56.323 44.092H75v13.477H57.422a56 56 0 0 1-.229-2.033l-.021-.235-.068-.755-.048-.532-.125-1.39-.152-1.689-.119-1.314-.022-.244-.04-.448a89 89 0 0 0-.112-1.16c-.023-.255-.03-.509-.035-.765l-.008-.328-.011-.507-.012-.497-.003-.152a3 3 0 0 0-.056-.579c-.052-.278-.035-.566-.035-.849" fill="#E34D25"/><path d="M45.85 77.563h13.33a75 75 0 0 1 .345 3.363q.138 1.878.328 3.751c.107 1.047.184 2.088.206 3.14h-.073a12 12 0 0 1-.146-2.271h-.146l-.006-.14-.026-.624-.009-.22-.009-.21-.008-.194c.001-.149.001-.149-.088-.223a6 6 0 0 1-.021-.338l-.008-.208-.008-.218-.016-.425-.007-.192c-.005-.16-.005-.16-.087-.303a7 7 0 0 1-.021-.354l-.008-.214-.008-.224-.016-.436-.007-.196c-.01-.188-.01-.188-.051-.374a2.4 2.4 0 0 1-.043-.504l.001-.177.002-.181.001-.186.004-.451h-.146v-1.245H45.923l.146.513c.022.205.022.205.028.4l.008.214.006.219.014.437.005.194c-.003.148-.003.148.086.221q.009.171.007.344l-.001.21-.002.22-.001.221q-.001.272-.004.543h-.073l-.125-1.27-.043-.431-.061-.623-.019-.191a14 14 0 0 1-.045-1.366" fill="#FBE4DB"/><path d="m75 57.495 13.481-.004 4.496-.002 4.609-.001 2.846-.001h5.267c.209.008.209.008.282.081q.01.2.009.398l.001.219c-.01.189-.01.189-.083.336a5 5 0 0 0-.021.311l-.008.186-.008.194-.016.38-.007.17c-.013.15-.013.15-.086.37a6 6 0 0 0-.021.323l-.008.187-.015.391-.008.187-.007.171c-.015.132-.015.132-.088.206a6 6 0 0 0-.021.341l-.008.209-.008.219-.016.428-.007.193c-.013.148-.013.148-.086.221a20 20 0 0 0-.045.732c-.028.22-.028.22-.175.367l.027-.856.007-.241c.014-.395.041-.78.106-1.17.118-.709.169-1.426.231-2.142l.057-.648.035-.4q.058-.642.122-1.282H74.999z" fill="#E26B39"/><path d="M41.675 30.762h33.252v.073H41.748l.073.22a7 7 0 0 1 .021.334l.008.195.015.406.008.195.007.178c.009.17.009.17.087.376q.009.195.007.39l-.001.228-.002.238-.001.241-.004.588h-.073a31 31 0 0 1-.192-1.996l-.009-.149c-.026-.507-.019-1.008-.019-1.518" fill="#FDE4DE"/><path d="M45.776 77.417h13.403v.146H45.85l.366 3.882v.952l-.146-.073-.006-.124-.026-.558-.009-.196-.009-.188-.008-.173c-.011-.167-.011-.167-.088-.372a6 6 0 0 1-.021-.321l-.008-.186-.015-.388-.008-.186-.007-.17c-.006-.147-.006-.147-.087-.287z" fill="#CF5333"/><path d="M74.927 70.898h16.406c0 .423-.004.766-.073 1.172h-.073v-1.025H75z" fill="#EC865B"/><path d="M45.85 77.563h13.33v.073H45.923l.146.586c.022.213.022.213.028.407l.008.214.006.217.014.435.005.192c-.003.147-.003.147.086.22q.009.171.007.344l-.001.21-.002.22-.001.221q-.001.272-.004.543h-.073l-.125-1.27-.043-.431-.061-.623-.019-.191a14 14 0 0 1-.045-1.366" fill="#FEC2AF"/><path d="M59.253 78.809h.073q.186 1.915.343 3.833.096 1.17.215 2.337c.095.945.149 1.888.174 2.838h-.073a12 12 0 0 1-.146-2.271h-.146l-.006-.14-.026-.624-.009-.22-.009-.21-.008-.194c.001-.149.001-.149-.088-.223a6 6 0 0 1-.021-.338l-.008-.208-.008-.218-.016-.425-.007-.192c-.005-.16-.005-.16-.087-.303a7 7 0 0 1-.021-.354l-.008-.214-.008-.224-.016-.436-.007-.196c-.01-.188-.01-.188-.051-.372a2.6 2.6 0 0 1-.043-.538l.001-.197.002-.202.001-.207z" fill="#F8D0C3"/><path d="M105.762 58.301h.073l.005.792.002.227.001.218.001.201c-.009.173-.009.173-.082.393a6 6 0 0 0-.021.323l-.008.187-.015.391-.008.187-.007.171c-.015.132-.015.132-.088.206a6 6 0 0 0-.021.341l-.008.209-.008.219-.016.428-.007.193c-.013.148-.013.148-.086.221a20 20 0 0 0-.045.732c-.028.22-.028.22-.175.367l.027-.856.007-.241a9 9 0 0 1 .105-1.167c.12-.725.172-1.459.236-2.19l.04-.453z" fill="#E38458"/><path d="M42.7 42.48h.146l.006.133.026.595.009.21.009.2.008.185c0 .143 0 .143.088.216q.009.18.007.36l-.001.22-.002.231-.001.232q-.001.285-.004.569h.146l.006.133.026.595.009.21.009.2.008.185c0 .143 0 .143.088.216a7 7 0 0 1 .007.392l-.001.24-.002.252-.001.253v.619h-.073l-.201-2.197-.093-1.02-.09-.986-.034-.375c-.058-.624-.11-1.241-.095-1.868" fill="#FAD7CD"/><path d="M43.726 54.492h.073l.013.157.126 1.474.065.758.075.873.023.272c.045.524.045.524.106 1.047.025.203.04.394.039.599l-.001.175-.002.176-.001.183-.004.44h-.073l-.013-.206-.019-.266-.018-.265c.001-.207.001-.207-.096-.289a5 5 0 0 1-.021-.312l-.008-.194-.008-.204a9 9 0 0 0-.11-1.195c-.021-.264-.032-.528-.044-.792l-.008-.161-.007-.144c-.011-.155-.011-.155-.051-.326a3 3 0 0 1-.043-.577l.001-.217.002-.224.001-.228q.001-.278.004-.555" fill="#D46547"/><path d="M46.802 89.063h.073l.201 2.147.093.997.09.963.034.366.048.515.015.151c.031.339.036.672.033 1.012-.177-.266-.194-.496-.224-.806l-.018-.174a24 24 0 0 1-.098-1.516c.015-.277.015-.277-.098-.508a6 6 0 0 1-.023-.344l-.009-.21-.009-.22-.01-.221-.022-.543h-.073z" fill="#D16344"/><path d="M105.103 65.625h.073c.01.605-.006 1.208-.032 1.813l-.009.22-.009.205-.008.185c-.015.14-.015.14-.089.214q-.03.296-.05.592l-.027.367-.041.581-.041.559-.012.176c-.021.274-.039.423-.195.656-.015-.669.031-1.325.096-1.99l.03-.311.078-.811.08-.831q.077-.812.156-1.623" fill="#E07C50"/><path d="M44.678 65.186h.073l.204 2.199.098 1.054c.148 1.595.148 1.595.142 2.076l-.002.223-.003.16-.146-.073v-1.538h-.146l-.011-.27a61 61 0 0 0-.16-2.516 14 14 0 0 1-.048-1.316" fill="#D16345"/><path d="M44.019 57.129c.151.277.172.498.188.815.005.337.005.337.105.65q.014.163.021.327l.008.196.008.205.016.4.007.18c.009.171.009.171.087.377q.009.195.007.39l-.001.228-.002.238-.001.24-.004.588h-.073a58 58 0 0 1-.366-4.834" fill="#FADAD0"/><path d="M45.776 77.563h.073l.156 1.606.053.545.076.788.024.242c.052.552.065 1.097.056 1.652l-.146-.073-.006-.124-.026-.558-.009-.196-.009-.188-.008-.173c-.011-.167-.011-.167-.088-.372a6 6 0 0 1-.021-.321l-.008-.186-.015-.388-.008-.186-.007-.17c-.006-.147-.006-.147-.087-.287a7 7 0 0 1-.007-.367l.001-.219.002-.229.001-.231.004-.566" fill="#D16042"/><path d="M90.82 75.366h.073c.008.548-.014 1.087-.062 1.633l-.019.229-.04.475-.061.723-.039.464-.018.216a26 26 0 0 1-.127 1.167h-.073l-.005-.755-.002-.217-.001-.208-.001-.192c.009-.166.009-.166.082-.385q.014-.16.021-.321l.008-.186.015-.388.008-.186.007-.17c.015-.141.015-.141.088-.287a6 6 0 0 0 .021-.33l.008-.197.008-.206.016-.403.007-.181c.013-.148.013-.148.086-.295" fill="#DF7140"/><path d="M90.894 75.293h.073a34 34 0 0 1-.032 2.046l-.009.193c-.023.453-.023.453-.106.617a5 5 0 0 0-.018.293l-.007.178-.007.188a7.3 7.3 0 0 1-.188 1.465h-.073c.046-1.107.129-2.21.224-3.314l.041-.488.101-1.178" fill="#FCE1CC"/><path d="M103.564 82.764h.073l.005.797.002.229.001.219.001.202c-.008.164-.008.164-.082.31a7 7 0 0 0-.021.348l-.008.208-.015.436-.008.208-.007.191c-.014.148-.014.148-.087.221a17 17 0 0 0-.041.591l-.01.168-.022.413h-.146c.042-1.035.122-2.063.224-3.094l.041-.425z" fill="#E0784B"/><path d="M42.993 46.436h.073l.156 1.72.053.585.076.842.024.263c.038.428.065.848.056 1.278h-.073l-.029-.254-.039-.328-.019-.168c-.01-.271-.01-.271-.132-.496a6 6 0 0 1-.021-.336l-.008-.207-.008-.217-.016-.423-.007-.19c-.008-.177-.008-.177-.087-.385a7 7 0 0 1-.007-.39l.001-.228.002-.238.001-.24z" fill="#D16445"/><path d="m46.729 87.891.22.073.004.131c.027.778.061 1.553.147 2.327.064.576.086 1.137.069 1.717h-.073l-.156-1.532-.053-.521q-.039-.375-.076-.751l-.024-.234a10 10 0 0 1-.056-1.211" fill="#FAD2C6"/><path d="M56.616 48.779c.182.182.171.261.188.513.015.266.015.266.105.513q.015.172.021.346l.008.207.015.433.008.207.007.19c.005.159.005.159.087.302q.009.175.007.351l-.001.209-.002.219-.001.22-.004.54h-.073l-.156-1.674-.053-.569-.076-.818-.024-.258-.042-.451a6 6 0 0 1-.014-.478" fill="#D16041"/><path d="M43.286 49.219c.202.202.173.341.188.623.007.323.007.323.105.623q.014.156.021.312l.008.19.008.199c.015.371.031.739.075 1.107.035.291.042.577.039.87l-.002.27-.002.2h-.073l-.156-1.595-.053-.542-.076-.781-.024-.243c-.04-.413-.065-.818-.056-1.233" fill="#FBD8CC"/><path d="M56.47 47.607h.073l.125 1.278.043.434.061.627.019.194c.038.403.05.798.045 1.203h-.073l-.05-.451c-.01-.136-.01-.136-.096-.209a5 5 0 0 1-.021-.309l-.008-.189-.015-.397-.008-.189-.007-.174c0-.136 0-.136-.087-.208a6 6 0 0 1-.007-.36l.001-.22.002-.231.001-.232q.001-.285.004-.569" fill="#F9D5C9"/><path d="m59.546 81.152.146.073.006.14.026.624.009.22.009.21.008.194c-.001.149-.001.149.088.223q.009.171.007.344l-.001.21-.002.22-.001.221q-.001.272-.004.543h-.073c-.262-2.207-.262-2.207-.22-3.223" fill="#D26141"/><path d="M89.795 87.085h.073l-.073 1.172-1.048.286-.356.097-.513.139-.16.045c-.456.121-.456.121-.706.019.407-.183.764-.309 1.209-.341.316-.044.612-.15.914-.25a5 5 0 0 1 .587-.142l-.003-.168-.002-.221-.003-.219c.008-.197.008-.197.081-.417" fill="#DD7445"/><path d="M45.923 78.076c.185.185.167.255.174.511l.008.218.006.228.014.447.005.201c-.004.153-.004.153.086.227q.009.171.007.344l-.001.21-.002.22-.001.221q-.001.272-.004.543h-.073q-.048-.472-.094-.945l-.032-.32a17 17 0 0 1-.094-2.104" fill="#FAD8CC"/><path d="M72.144 105.249c.405-.014.715.018 1.099.146v.146h.586v.146h.513v.146l.513.073c-.288.11-.504.036-.795-.043l-.145-.039-.302-.082-.462-.124c-.755-.204-.755-.204-1.006-.371" fill="#F9D5CA"/><path d="M104.297 74.707h.073l.005.765.002.22.001.209.001.194c-.009.15-.009.15-.082.223a16 16 0 0 0-.037.563 7.5 7.5 0 0 1-.11 1.048h-.073c-.018-.709.039-1.401.11-2.106l.032-.327z" fill="#DF7648"/><path d="M104.59 71.191h.073l.005.865.002.248.001.238.001.22c-.009.187-.009.187-.082.407q-.029.368-.045.737c-.028.215-.028.215-.175.362.046-1.028.125-2.051.22-3.076" fill="#E17B4E"/><path d="M44.458 61.963h.073l.029.281.039.365.019.185.019.178.017.164c.02.161.02.161.095.366q.009.195.007.39l-.001.228-.002.238-.001.24-.004.588h-.073l-.094-1.024-.032-.347c-.058-.619-.109-1.229-.094-1.852" fill="#FAD5C9"/><path d="M42.114 36.621h.073q.048.484.094.969l.032.329.046.476.028.288c.021.291.024.576.02.868h-.146v-1.025h-.146z" fill="#D5694B"/><path d="M107.666 37.061h.073v1.611h-.146l.003.227.002.299.002.15a3 3 0 0 1-.08.789h-.073c-.016-.656.045-1.299.11-1.95l.032-.329q.038-.399.078-.797" fill="#DE7648"/><path d="M57.056 53.394h.073l.029.235.039.305.019.155c.034.284.034.284.132.55q.009.2.007.399l-.001.239-.002.25-.001.252-.002.617h-.073l-.094-.965-.032-.328c-.056-.571-.109-1.136-.094-1.71" fill="#D16142"/><path d="M47.681 97.998h.073v.366l.879.146v.146l1.025.146v.146l.146.073c-.483-.045-.927-.159-1.392-.298l-.214-.063-.518-.153z" fill="#F8CFC1"/><path d="M41.748 32.227c.161.312.229.551.227.903l-.001.228-.002.238-.001.241-.004.588h-.073c-.091-.735-.173-1.455-.146-2.197" fill="#F4C8BB"/><path d="M93.823 100.854c-.701.349-1.478.649-2.271.586.381-.207.802-.3 1.218-.417l.257-.074.245-.069.224-.063c.181-.036.181-.036.327.037" fill="#E27A4D"/><path d="M66.357 103.638c.384-.021.644.005 1.004.157.28.105.57.167.861.235.186.047.186.047.333.12v.146a49 49 0 0 1-2.197-.586z" fill="#F8D6CB"/><path d="M81.445 104.224v.146h-.293v.146l-.127.024q-.678.134-1.347.306a.94.94 0 0 1-.504-.037l.148-.038.667-.173.232-.06c1.217-.314 1.217-.314 1.224-.314" fill="#E17B4E"/><path d="M44.238 60.059h.146c.075.224.082.375.08.61l-.001.228-.002.238-.001.24-.004.588h-.073l-.073-.623-.021-.176a8 8 0 0 1-.051-1.105" fill="#F3C8BB"/><path d="M105.762 58.301h.073q.006.389.009.778l.004.222c.003.38-.005.696-.159 1.051h-.073l.032-.696.009-.197c.019-.39.052-.772.106-1.158" fill="#E37B4F"/><path d="M96.753 99.976v.146h-.366v.146c-.361.144-.643.16-1.025.146v.146h-.586c.213-.114.42-.191.653-.257l.205-.059.213-.06.215-.062c.526-.149.526-.149.692-.149" fill="#E17849"/><path d="M44.312 61.23h.073l.094.893c.04.388.059.768.052 1.158h-.073v-.366h-.146z" fill="#D25E3F"/><path d="M84.009 89.575h.513c-.258.143-.523.221-.806.302l-.27.078c-.243.06-.243.06-.536.06v-.146h.439l.073-.22.586.073z" fill="#E27545"/><path d="M41.528 30.688h.073c.168 1.153.168 1.153.146 1.685h-.073v-.366h-.146z" fill="#D36447"/><path d="m46.729 87.891.22.073v1.099h-.146z" fill="#F3C7BA"/><path d="M76.318 91.626h.586c-.266.15-.549.228-.842.307l-.147.042c-.254.069-.446.117-.695.017l.513-.073v-.146h.586z" fill="#E07445"/><path d="M66.797 103.784c.549.12 1.082.251 1.611.439-.276.1-.483.048-.764-.018l-.247-.056a2 2 0 0 1-.6-.292z" fill="#D46649"/><path d="M59.473 101.733q.158-.006.316-.009l.178-.005c.165.014.165.014.385.161a8 8 0 0 0 .38.119l.2.058.152.043c-.233.076-.376.069-.61 0l-.177-.051-.183-.055-.187-.054-.454-.134z" fill="#F8CDC0"/><path d="M82.91 90.015c-.267.151-.552.228-.847.307l-.149.042c-.244.066-.37.099-.615.017.537-.246 1.017-.391 1.611-.366" fill="#DF7446"/><path d="m68.701 104.297.426.027.239.015c.214.031.214.031.434.178.193.06.388.101.586.146-.238.078-.386.067-.626 0l-.187-.051-.194-.055-.197-.054q-.241-.066-.48-.134z" fill="#FAD2C8"/><path d="m63.428 102.832.467.027.263.015c.222.031.222.031.368.178.188.047.188.047.366.073v.146l-.568-.137-.162-.039c-.262-.064-.501-.126-.735-.264" fill="#F6CCBF"/><path d="M102.319 95.947h.073c.011.541-.021 1.073-.073 1.611h-.073c-.066-.574-.087-1.054.073-1.611" fill="#FDE2CF"/><path d="M65.845 89.722c.451-.007.451-.007.586 0l.073.073q.148.025.298.041l.288.032v.146l.146.073c-.482-.045-.928-.157-1.392-.293z" fill="#D46546"/><path d="M57.715 101.294c.5.09.981.212 1.465.366a.98.98 0 0 1-.609.014l-.173-.042q-.343-.09-.683-.191z" fill="#CF5F3F"/><path d="M58.301 101.367c.857.044.857.044 1.172.293-.284.11-.471.032-.751-.069l-.239-.084-.182-.067z" fill="#F8D0C2"/><path d="m86.357 102.754.215.005c-.406.212-.853.411-1.318.366.103-.148.185-.213.362-.248l.444-.045c.073-.073.073-.073.298-.078" fill="#FDE9D8"/><path d="M77.344 105.396v.146c-.376.154-.7.162-1.099.146.358-.187.692-.293 1.099-.293" fill="#E37C51"/><path d="M99.243 99.39c-.41.273-.839.313-1.318.293v-.073l.494-.151.278-.085c.229-.052.333-.069.546.016" fill="#E1774A"/><path d="M86.572 102.905c-.392.261-.852.317-1.318.293v-.073l.494-.151.278-.085c.229-.052.333-.069.546.016" fill="#E07849"/><path d="M65.625 89.722q.195.031.389.064l.219.036c.198.046.198.046.417.193-.38.016-.668-.03-1.025-.146z" fill="#F9D9CE"/><path d="M91.553 101.514c-.367.22-.61.241-1.025.22v-.073l.43-.114.242-.064c.207-.041.207-.041.353.032" fill="#E07749"/><path d="m70.386 104.736.806.073v.22l-.806-.22z" fill="#F8D3C8"/><path d="M53.32 99.976h.586l.073.22c-.494-.055-.494-.055-.659-.22" fill="#F7D3C8"/><path d="M81.812 90.454c-.226.151-.272.164-.526.156l-.28-.009c.294-.196.466-.256.806-.146" fill="#FCE0CE"/><path d="M60.498 88.257h.586v.146l.146.073c-.568-.055-.568-.055-.732-.22" fill="#D36545"/><path d="M87.817 88.843c-.226.151-.272.164-.526.156l-.279-.01c.293-.152.481-.247.806-.146" fill="#FDE4D3"/></svg>