<svg xmlns="http://www.w3.org/2000/svg" width="150" height="148.976" viewBox="0 0 150 148.976"><path d="M42.763.95c.788 0 1.572-.005 2.36-.005Q48.302.939 51.481.94c1.326 0 2.657 0 3.983-.005q6.97-.006 13.94-.005 6.465 0 12.937-.015Q87.916.909 93.491.91q3.324-.001 6.64-.01c2.084-.005 4.172-.005 6.256 0q1.137.001 2.273-.005c11.37-.041 21.742 1.695 30.235 9.763 7.608 7.976 9.215 17.503 9.195 28.096.005.85.005 1.7.01 2.549q.006 3.44.005 6.881-.001 2.889.005 5.77c.005 4.546.005 9.087.005 13.633-.005 4.664 0 9.333.01 13.997q.016 6.036.01 12.072c0 2.396 0 4.792.01 7.188q.007 3.388 0 6.768c-.005.824 0 1.643 0 2.462.051 10.623-1.756 20.186-9.41 28.157-8.498 8.017-18.461 9.287-29.637 9.297-.824 0-1.648.005-2.478.005l-6.691.015q-2.103-.001-4.198.005-6.579.009-13.157.01-7.564.008-15.128.031-5.86.015-11.729.015-3.494.001-6.988.01-3.295.014-6.584.005-1.204.001-2.401.01c-10.802.061-20.631-1.899-28.73-9.589-9.036-9.522-9.563-21.343-9.558-33.758q.001-1.12-.005-2.247c0-2.007-.005-4.014-.005-6.026v-3.783q-.009-6.618-.01-13.244-.001-6.13-.01-12.266c-.005-3.532-.01-7.07-.01-10.602 0-2.099 0-4.203-.005-6.302-.067-26.36-.067-26.36 7.29-36.502.225-.328.445-.65.676-.983C13.915 6.376 21.962 2.67 29.181 1.538 33.701.97 38.217.949 42.763.949" fill="#0282B2"/><path d="M53.754 3.072c1.193.169 2.391.343 3.584.512 1.869.097 3.66.087 5.503-.287 1.152-.225 1.152-.225 2.104.015 1.183.292 2.191.328 3.404.323.456-.005.911-.005 1.382-.005l1.485-.015c.512 0 1.024-.005 1.551-.005 2.181-.01 4.367-.02 6.548-.036 6.353-.036 12.645 0 18.978.522v2.048h8.191V4.096h8.191v2.048h2.048v2.048h-2.048q-.001.484.005.983c.01 3.374.015 6.742.02 10.116l.015 3.778c.005 1.807.005 3.614.01 5.422 0 .563.005 1.131.005 1.715v1.582c.005.461.005.922.005 1.398-.059 1.114-.059 1.114-.571 2.138q.361.316.737.64c.881.988 1.09 1.654 1.311 2.944l-1.536-.512v-2.048h-2.048v-1.024c-1.459-.323-2.621-.568-4.096-.512-1.5.978-1.5.978-2.708 2.529l-.732.829c-.522.594-1.039 1.198-1.551 1.802-1.398 1.633-2.846 3.22-4.29 4.812-.302.333-.604.666-.911 1.009-16.776 18.522-16.776 18.522-25.986 19.259-6.21.097-12.169-.64-17.063-4.643-.64-1.408-.64-1.408-1.024-2.56-.758-.256-.758-.256-1.536-.512q-1.028-1.276-2.048-2.56a167 167 0 0 0-3.072-2.56c-1.633-1.454-2.294-2.585-3.072-4.608-.532-.957-.532-.957-1.536-1.536-1.372-.282-2.693-.399-4.096-.512l1.536-2.048c2.14.701 3.348 1.643 4.894 3.266.573.589.573.589 1.157 1.193.369.389.737.773 1.116 1.172l1.167 1.106c.882.945.882.945.882 1.968.758.256.758.256 1.536.512 2.094 1.807 3.507 3.881 5.002 6.2.558.932.558.932 1.142 1.48 2.652.23 2.652.23 5.119-.512.819-1.638 1.019-3.374.512-5.119-1.137-1.07-1.137-1.07-2.56-2.048-3-2.355-5.811-4.648-8.253-7.587-2.053-2.381-4.357-4.542-6.594-6.748l-2.56-2.56-1.024-1.024c-2.027.118-3.031 1.316-4.398 2.713-.445.445-.886.896-1.346 1.357-.456.476-.916.947-1.392 1.433-.456.466-.916.927-1.387 1.408q-1.282 1.304-2.565 2.616-1.281 1.304-2.585 2.585c-1.044 1.07-1.638 1.874-2.196 3.246a47.6 47.6 0 0 0 6.133 6.266c1.622 1.414 3.112 2.95 4.617 4.486l1.28 1.28 3.998 3.998c.722.722 1.449 1.433 2.176 2.145 1.29 1.321 2.468 2.698 3.64 4.121.66.809.66.809 1.705 1.254-.768 1.802-1.807 2.954-3.2 4.326l-1.362 1.346c-.241.241-.481.476-.727.717q-1.13 1.114-2.253 2.227a1933 1933 0 0 1-4.776 4.725 1916 1916 0 0 0-5.544 5.488q-1.107 1.097-2.222 2.186-.666.666-1.357 1.346c-.394.394-.794.783-1.198 1.188-1.019 1.009-1.019 1.009-1.423 2.56l1.536.512c.891 1.285 1.515 2.509 2.078 3.968.369 1.234.369 1.234 1.505 1.664v3.584h1.536l.512-1.024 1.024 1.024-.512 1.536c.466-.031.927-.061 1.408-.097 1.838.108 2.452.328 3.712 1.633l.512 2.048h8.191l.512-2.048c.584-.031.584-.031 1.177-.056.507-.036 1.019-.067 1.541-.102l1.531-.092c1.551-.292 1.889-.671 2.918-1.797h1.536v-1.024h2.048v-2.048h1.024v1.024H73.72v34.812H55.29v1.024c-6.082.256-6.082.256-12.287.512 7.935.491 15.85.64 23.795.717l3.21.031c3.369.036 6.732.067 10.101.097 3.85.031 7.705.072 11.555.118q4.508.055 9.015.087 2.672.024 5.345.056c10.346.358 10.346.358 20.427-1.618l1.024-1.024c1.316-.558 2.647-1.044 3.988-1.536 1.213-.404 1.213-.404 1.643-1.536h-1.024l-.512 1.024v-2.048c.538.031 1.075.061 1.633.097 2.094-.102 2.949-.251 4.51-1.633.701-1.833.701-1.833 1.024-3.584l2.048.512v-1.024h1.024c-2.606 5.565-7.899 9.026-13.372 11.462-6.374 2.273-12.932 2.514-19.628 2.498-.824.005-1.648.005-2.473.01q-3.333.006-6.666.005c-1.863 0-3.727.005-5.59.005q-6.605.006-13.203.005-6.78-.006-13.561.01-5.853.016-11.698.01c-2.324 0-4.643 0-6.962.01q-3.279.008-6.558 0c-.794-.005-1.587 0-2.381 0-10.633.056-20.565-1.807-28.526-9.435-3.205-3.466-4.208-6.456-4.08-11.155l.056-1.106H6.143v-3.072H5.119q-.023-1.137-.031-2.273l-.02-1.275c.051-1.058.051-1.058.563-1.57a36 36 0 0 0 .061-2.462c.005-.671.005-.671.005-1.357a13.8 13.8 0 0 0-.578-3.348H3.584c-.589-15.425-.573-30.845-.548-46.275q.009-5.007.01-10.014c.005-6.491.015-12.988.026-19.48h1.024c-.077-.916-.077-.916-.159-1.853-.092-1.044-.092-1.044.159-2.242.415-.461.834-.916 1.265-1.392 1.71-1.915 1.695-3.742 1.71-6.225.015-.399.026-.799.041-1.213.031-.983.046-1.961.056-2.944l2.048.512V18.43h3.072v2.048h4.096V18.43h-3.072v-2.048h-1.024v-1.024h-1.024l.512-4.608 3.584-1.024V8.702h1.024V7.166c1.741-1.07 3.097-1.116 5.119-1.024v1.024h1.024V8.19h1.024v2.048h1.024V8.19h10.239V6.142h-2.048V3.584c.619.005 1.234.005 1.874.01 2.283.005 4.567.015 6.845.015l2.969.015c1.423.005 2.841.005 4.259.01.445 0 .891.005 1.352.005 1.06 0 2.119-.026 3.179-.056z" fill="#0182B2"/><path d="M41.562 34.356c1.387.681 2.027 1.802 2.98 3.015a60 60 0 0 0 1.792 1.567c2.98 2.549 5.693 5.37 8.447 8.16 2.032 2.063 4.085 4.09 6.507 5.708 1.183.829 2.078 1.541 2.457 2.969.092 1.715-.148 2.908-1.029 4.377-1.807 1.085-3.323 1.183-5.375.768-1.485-1.044-2.002-1.945-2.785-3.584-.901-1.73-1.823-2.422-3.358-3.584q-1.043-1.269-2.048-2.56c-.845-.865-1.7-1.715-2.56-2.56-.333-.348-.666-.696-1.003-1.055a192 192 0 0 1-2.089-2.186c-1.055-.896-1.674-1.265-3.051-1.367l-1.024 1.024c.538.031 1.075.067 1.628.097 2.309.491 3.067 1.147 4.515 2.974.169.681.338 1.367.512 2.048 1.413 1.587 2.995 2.939 4.608 4.321 1.746 1.515 3.225 3.036 4.608 4.894v1.024l.927.451c1.121.573 1.121.573 2.657 1.597 6.85 2.268 14.816 3.133 21.502 0 9.317-5.959 17.002-15.63 24.179-23.923.256-.287.507-.578.768-.875.686-.778 1.362-1.567 2.038-2.35 1.172-1.009 1.172-1.009 2.253-.988 1.654.845 2.887 2.176 4.188 3.476.307.302.609.599.922.911q.961.951 1.915 1.91c.978.973 1.966 1.94 2.949 2.903q.936.929 1.863 1.858c.445.43.445.43.896.87 1.218 1.239 2.002 2.073 2.309 3.809-.379 1.705-1.423 2.16-2.811 3.184a50 50 0 0 0-1.444 1.695c-1.469 1.782-3.118 3.241-4.889 4.715-.896.717-.896.717-1.346 1.782h-1.024c-.174.445-.174.445-.353.896-.84 1.444-1.92 2.191-3.23 3.2l-.512 1.024h-1.024v1.024c-1.218 1.346-1.218 1.346-2.56 2.56h-1.024l-.512 1.536c-.84.809-.84.809-1.889 1.664-1.766 1.485-3.23 3.036-4.654 4.848-.205.215-.415.43-.625.655h-1.024c.072 2.493 1.346 3.594 3.051 5.212 1.029.922 2.073 1.823 3.123 2.724 1.648 1.418 3.051 2.918 4.408 4.618.742.896.742.896 2.217 1.782v1.024c.471.138.947.276 1.439.415 2.422.906 2.422.906 3.169 2.145.384 3.456.384 3.456-.768 5.375-1.802 1.08-3.333 1.254-5.375.768-1.152-1.085-1.152-1.085-2.048-2.56-1.602-2.616-3.507-4.669-5.688-6.824a101 101 0 0 0-1.049-1.049q-1.092-1.09-2.191-2.181-1.683-1.674-3.358-3.348-1.068-1.066-2.135-2.125L89.52 83.8l-.942-.932c-.276-.276-.548-.548-.829-.824-.712-.701-.712-.701-1.735-1.157.287-1.91 1.044-2.749 2.432-4.065q.514-.49 1.044-1.003c.374-.353.747-.712 1.131-1.075 1.756-1.746 3.497-3.507 5.242-5.268q2.113-2.136 4.234-4.265l2.237-2.258q1.614-1.628 3.235-3.256c.333-.343.666-.681 1.009-1.029.312-.307.619-.619.937-.937.271-.276.543-.548.824-.834.712-.584.712-.584 1.735-.584v-1.024c.747-.717.747-.717 1.725-1.505 1.259-1.014 1.961-1.725 2.882-3.102h1.024c-1.295-2.58-3.297-4.956-5.631-6.655-1.485.097-2.007.471-3.067 1.526a186 186 0 0 1-2.344 2.866c-.225.271-.445.543-.676.819-17.442 20.964-17.442 20.964-28.623 22.177-2.462.154-4.874.133-7.336 0-.589-.031-1.177-.056-1.787-.087-9.998-.655-9.998-.655-13.305-4.428q-.352-.422-.712-.86a990 990 0 0 0-4.715-4.679q-1.18-1.16-2.36-2.329a144 144 0 0 0-1.224-1.193 246 246 0 0 0-1.152-1.147l-1.055-1.039c-.758-.875-.758-.875-.758-1.899a126 126 0 0 1-1.188-.128c-1.372-.384-1.372-.384-2.304-1.213-.819-1.643-.712-2.995-.604-4.802l-2.048 2.56q1.1 1.121 2.206 2.242c.41.415.819.829 1.239 1.259 1.162 1.172 1.162 1.172 2.698 2.13v1.024c.758.256.758.256 1.536.512 1.372 1.249 1.372 1.249 2.56 2.56v1.024l.927.404c1.188.655 1.782 1.265 2.621 2.314a55 55 0 0 0 4.131 4.449c.338.466.676.932 1.024 1.408 2.447 1.838 5.201 1.618 8.191 1.664-2.437 2.928-5.043 5.621-7.741 8.304q-.658.651-1.331 1.326L48.7 84.953c-.947.947-1.894 1.889-2.841 2.836a9051 9051 0 0 1-6.947 6.922c1.981-.916 3.507-1.782 5.012-3.363.333-.343.666-.686 1.009-1.034.333-.353.671-.706 1.019-1.075q1.015-1.06 2.038-2.114l.901-.947c.773-.681.773-.681 1.797-.681l.379-.845c2.698-5.043 7.71-10.951 12.932-13.49 3.681-1.009 7.561-.696 11.334-.512 5.749.512 5.749.512 10.92-1.582 1.771-1.669 3.067-3.543 4.367-5.585h1.024l.404-.911c.65-1.198 1.336-1.976 2.309-2.923.328-.333.66-.66 1.003-.998.348-.338.691-.676 1.049-1.024l1.029-1.014q.999-.984 1.997-1.961c.799-.783 1.582-1.582 2.365-2.386 1.106-1.07 1.106-1.07 2.258-1.582q.437-.252.896-.512.29-1.269.512-2.56c.543-.927.543-.927 1.536-1.536 3.476-.384 3.476-.384 5.375.799 1.08 1.756 1.085 2.805.768 4.833-1.131 1.423-2.15 2.334-3.737 3.21-1.73 1.106-3.061 2.432-4.49 3.896l-.799.799c-1.541 1.561-2.923 3.179-4.285 4.894q-1.269 1.043-2.56 2.048c-.865.845-1.72 1.695-2.56 2.56-.573.553-.573.553-1.152 1.121-1.741 1.782-3.369 3.65-5.002 5.529l-1.014 1.029h-1.024v1.024c-.502-.092-.998-.184-1.51-.276-6.466-1.065-14.104-1.874-19.92 1.684-8.017 5.939-16.229 14.391-21.061 23.166-1.608.804-2.836.691-4.608.512-1.505-1.055-1.505-1.055-2.56-2.56-.164-1.951-.164-1.951 0-3.584-.845.63-.845.63-1.536 1.536.123 1.392.435 1.971 1.403 2.995.358.302.722.599 1.09.911.538.451.538.451 1.085.916 1.085.881 1.085.881 2.565 1.833 2.493-2.073 4.72-4.218 6.824-6.691a51 51 0 0 1 3.927-4.06h1.024c.251-.758.251-.758.512-1.536a69 69 0 0 1 1.73-1.695c1.044-1.09 1.93-2.273 2.852-3.466 3.696-4.495 6.947-8.386 12.968-8.98a56 56 0 0 1 4.428-.067l1.09.01c5.58.123 5.58.123 7.705 1.679.763.891 1.372 1.797 1.991 2.79a48 48 0 0 0 2.237 1.951c1.07.875 1.07.875 1.858 1.633v1.024q.437.176.896.353c1.454.85 2.14 1.91 3.2 3.23a88 88 0 0 0 2.048 1.792c1.572 1.341 2.805 2.729 4.096 4.352a68 68 0 0 0 1.756 1.505c1.213 1.003 2.247 2.007 3.235 3.23 1.09 1.48 1.09 1.48 2.688 2.432v1.024h1.536c.113-.287.23-.568.348-.865 1.244-2.186 2.944-3.814 5.283-4.766-1.06-1.91-2.212-3.348-3.778-4.863-.614-.599-.614-.599-1.239-1.213-.374-.358-.747-.717-1.126-1.09-2.56-2.56-2.56-2.56-3.348-3.399-1.971-2.063-3.993-3.63-6.425-5.119-.978-.696-.978-.696-2.002-2.232-.225-1.761-.225-1.761 0-3.584 1.392-1.7 2.396-2.012 4.541-2.493 1.096.067 1.096.067 2.114.445.691.87.691.87 1.392 2.068 1.771 2.662 3.85 4.817 6.138 7.044.363.353.727.706 1.096 1.07a1183 1183 0 0 0 4.572 4.408c1.126 1.08 2.242 2.171 3.358 3.256.522.497.522.497 1.06.998 2.299 2.263 2.299 2.263 2.503 3.952-.988 1.869-2.345 3.189-3.855 4.648-.317.317-.635.63-.962.957a455 455 0 0 1-3.051 2.985 1188 1188 0 0 1-7.131 7.009c-2.329-.773-3.609-2.442-5.089-4.352-1.234-1.495-2.626-2.611-4.126-3.84a40 40 0 0 1-3.747-4.029c-1.009-1.244-2.104-2.263-3.328-3.297-1.945-1.654-3.573-3.476-5.242-5.406-1.162-1.275-2.422-2.345-3.758-3.435-.85-.753-1.546-1.541-2.263-2.422-1.464-1.802-1.782-1.838-4.116-2.16-3.942-.307-7.423-.471-10.623 2.104-1.531 1.413-2.944 2.908-4.352 4.439a335 335 0 0 1-1.884 1.93 302 302 0 0 0-4.853 5.089c-1.643 1.746-3.323 3.466-4.997 5.191a916 916 0 0 0-9.712 10.188q-.976-.708-1.945-1.423-.544-.391-1.096-.799c-1.331-1.07-2.36-2.273-3.435-3.589-2.002-2.442-4.428-4.469-6.794-6.543l-1.065-.957c-.312-.251-.625-.502-.942-.763-.594-.773-.594-.773-.512-1.7.578-1.51 1.444-2.314 2.59-3.451.461-.461.922-.916 1.392-1.387l1.515-1.485c.517-.512 1.029-1.024 1.546-1.536q2.027-2.012 4.07-4.024c2.176-2.145 4.341-4.295 6.512-6.451.758-.747 1.52-1.5 2.283-2.247.686-.686.686-.686 1.392-1.377.404-.404.814-.804 1.229-1.218.962-.916.962-.916 1.449-2.007l-.932-.404c-1.183-.655-1.782-1.265-2.621-2.314-2.022-2.447-4.249-4.556-6.625-6.655-1.976-1.761-3.722-3.599-5.427-5.621-1.003-1.126-2.14-2.007-3.338-2.923-2.478-2.304-2.478-2.304-3.072-4.096l-1.536-.512c-.512-.896-.512-.896-.512-2.048 1.183-1.408 1.183-1.408 2.56-2.56h1.024c.118-.287.241-.573.369-.87 1.392-2.509 3.696-4.433 5.708-6.456.466-.486.932-.968 1.413-1.464.451-.456.901-.911 1.367-1.377.41-.42.824-.84 1.249-1.27 1.157-.85 1.157-.85 2.273-.794" fill="#F0FAFB"/><path d="M109.609 43.558c1.495.722 2.493 1.792 3.66 2.964l1.382 1.372c1.049 1.254 1.049 1.254 1.049 2.79-1.152 1.244-1.152 1.244-2.56 2.56-.369.389-.742.778-1.121 1.183-.927.865-.927.865-1.951.865v1.024c-.66.645-.66.645-1.628 1.433-3.256 2.77-6.21 5.836-9.22 8.867-.599.604-1.203 1.208-1.802 1.812-1.106 1.106-2.206 2.217-3.307 3.323-3.619 3.64-3.619 3.64-5.027 4.997-.297.287-.594.578-.901.875-.302.292-.609.584-.922.886-.86.865-.86.865-1.254 2.381.302.133.604.271.916.415 1.147.614 1.904 1.249 2.826 2.16.317.317.64.63.968.957.343.338.681.681 1.029 1.029.358.353.712.706 1.075 1.07.753.742 1.5 1.495 2.247 2.242a996 996 0 0 0 3.42 3.399c.727.727 1.459 1.454 2.186 2.186.338.333.676.666 1.029 1.009 1.92 1.94 3.384 3.819 4.659 6.241.584.881.584.881 1.638 1.106 1.505.051 2.765-.154 4.116-.824.829-1.664.788-3.302.512-5.119-.788-1.244-1.382-1.48-2.754-1.986-2.667-1.142-4.469-3.747-6.363-5.887-1.567-1.741-3.138-3.358-4.93-4.863-1.474-1.244-2.585-2.35-3.358-4.157l.512-1.024h1.024c.251-.763.251-.763.512-1.536h1.024c.148-.328.297-.655.445-.993.578-1.055.578-1.055 1.602-1.567v1.024h3.072v.512c-1.034.23-2.068.466-3.102.696-1.101.276-1.101.276-2.017 1.352-.302 1.725-.302 1.725 0 3.584 1.551 1.986 3.578 3.323 5.596 4.802 1.684 1.316 3.282 2.759 4.643 4.413v1.024c.282.113.563.23.855.353 1.536.865 2.631 1.956 3.881 3.195.456.451.911.896 1.382 1.362 1.049 1.234 1.049 1.234 1.049 2.77-1.234 1.372-2.524 2.529-3.968 3.676-1.193.829-1.193.829-1.664 1.956-1.536 0-1.536 0-2.657-.993-1.561-1.654-3.051-3.379-4.556-5.078-1.572-1.761-3.174-3.363-5.012-4.843-1.254-1.019-2.278-2.125-3.328-3.358-1.526-1.797-3.174-3.292-4.966-4.812-1.234-1.111-2.283-2.319-3.328-3.609a157 157 0 0 1-.727-.855l-.86-1.044c-2.37-2.007-5.805-1.746-8.805-1.838-.363-.01-.727-.026-1.106-.036-4.874-.072-8.304.66-11.949 3.998-2.555 2.514-4.802 5.288-6.973 8.135-1.387 1.725-2.754 3.333-4.48 4.735-1.659 1.403-3.087 2.903-4.51 4.541-1.807 2.053-3.558 3.589-5.857 5.058q-1.028-.861-2.048-1.73c-.379-.323-.763-.64-1.152-.973l-.896-.881v-1.024l-2.048-1.024c.205-1.48.404-1.961 1.567-2.944.328-.215.655-.425.993-.64-.041.63-.087 1.265-.128 1.92.005 1.561.072 2.084.927 3.456 1.715 1.055 2.857 1.019 4.833.768 1.152-.773 1.618-1.664 2.36-2.841C50.605 91.707 60 79.308 69.45 76.891c5.667-.962 11.478-.241 17.068.932v-1.024a63 63 0 0 1 2.56-2.56c.44-.466.886-.932 1.341-1.408 1.218-1.152 1.218-1.152 2.754-1.664.358-.676.696-1.362 1.024-2.048.768-.896.768-.896 1.536-1.536h1.024c.159-.43.159-.43.317-.865.783-1.316 1.725-2.053 2.908-2.995.957-.824 1.746-1.71 2.565-2.667 5.739-6.696 5.739-6.696 9.568-8.319.614-1.234.563-2.022.543-3.394l-.015-1.27-.015-.968c-1.92-.64-3.625-.747-5.631-.512-1.039.563-1.039.563-1.536 1.536l-.195.988c-.481 1.587-1.572 2.125-2.877 3.108q-1.291 1.269-2.56 2.56-.921.915-1.843 1.838-.483.49-.988.988c-4.848 4.853-4.848 4.853-6.077 6.041-1.372 1.367-1.372 1.367-2.601 2.969-3.415 4.188-3.415 4.188-5.903 4.797-2.35.184-4.684-.072-7.019-.302-5.104-.445-10.259-.712-14.498 2.519-3.215 2.78-5.964 6.02-8.549 9.384-1.157 1.454-2.386 2.724-3.717 4.019a188 188 0 0 0-1.71 1.782c-.614.63-1.229 1.265-1.843 1.894-.456.486-.456.486-.922.978-1.807 1.843-3.169 2.954-5.765 3.538 2.432-2.928 5.038-5.621 7.741-8.304l1.326-1.326 4.177-4.162 2.846-2.836q3.47-3.465 6.947-6.922l-1.295-.082c-.834-.056-.834-.056-1.689-.118-.829-.051-.829-.051-1.679-.108-1.48-.205-1.48-.205-2.887-1.172-.287-.399-.568-.799-.865-1.208-.323-.42-.64-.84-.973-1.27l-.85-1.162c-1.715-1.797-3.522-3.394-5.452-4.951q-.338-.337-.691-.681v-1.024l-.865-.323c-1.311-.778-2.048-1.715-2.98-2.898-.875-1.009-1.828-1.838-2.841-2.703-1.556-1.321-2.857-2.657-4.065-4.316l3.072-2.56c-.041.63-.087 1.265-.128 1.92-.005 1.643.036 2.048 1.055 3.42 1.121.886 1.121.886 2.657 1.316.717.727.717.727 1.505 1.695 2.34 2.77 4.92 5.283 7.5 7.833 3.169 3.128 3.169 3.128 4.311 4.556 3.589 2.985 9.169 2.77 13.659 3.031l1.802.108c8.744.287 14.334-1.776 20.621-7.592 5.273-4.966 10.147-10.423 14.739-16.024.425-.517.85-1.029 1.29-1.556.369-.456.732-.911 1.116-1.382 1.034-.906 1.034-.906 2.109-.865" fill="#3F8298"/><path d="M140.785 133.618h1.024c-2.606 5.565-7.899 9.026-13.372 11.462-6.374 2.273-12.932 2.514-19.628 2.498-.824.005-1.648.005-2.473.01q-3.333.006-6.666.005c-1.863 0-3.727.005-5.59.005q-6.605.006-13.203.005-6.78-.006-13.561.01-5.853.016-11.698.01c-2.324 0-4.643 0-6.962.01q-3.279.008-6.558 0c-.794-.005-1.587 0-2.381 0-10.116.051-19.51-1.597-27.43-8.386a48 48 0 0 1-3.584-4.096c1.536 0 1.536 0 2.913 1.218 1.183 1.344 1.183 1.344 1.183 2.368h3.072c.026.302.046.609.072.922.666 1.705 1.792 1.997 3.415 2.759.543.261 1.085.522 1.643.788 1.208.517 2.294.906 3.573 1.162v.512c5.662.834 11.176 1.172 16.894 1.162.834.005 1.674.005 2.509.01 2.242.005 4.49.005 6.732.005 1.884 0 3.768.005 5.652.005q6.674.006 13.346.005 6.853-.006 13.705.01 5.92.016 11.831.01c2.345 0 4.695 0 7.039.01q3.31.008 6.619 0c.804-.005 1.608 0 2.411 0 5.171.026 10.137-.276 15.138-1.73l1.024-1.024c1.316-.558 2.647-1.044 3.988-1.536 1.213-.404 1.213-.404 1.643-1.536h-1.024l-.512 1.024v-2.048c.538.031 1.075.061 1.633.097 2.094-.102 2.949-.251 4.51-1.633.701-1.833.701-1.833 1.024-3.584 1.014.256 1.014.256 2.048.512z" fill="#0F6C90"/><path d="M40.444 43.515c2.14.701 3.348 1.643 4.894 3.266.384.394.763.788 1.157 1.193.553.579.553.579 1.116 1.173.384.363.768.732 1.167 1.106.881.942.881.942.881 1.965l1.536.512c1.741 1.505 2.846 2.995 4.034 4.961 1.034 1.628 1.7 2.483 3.584 3.005.527.077 1.055.148 1.597.225v.512c-1.377.415-1.377.415-3.072.512-1.608-1.285-2.416-2.135-3.072-4.096l-1.536-.512q-1.028-1.276-2.048-2.56a167 167 0 0 0-3.072-2.56c-1.633-1.454-2.294-2.585-3.072-4.608-.532-.957-.532-.957-1.536-1.536-1.372-.282-2.693-.399-4.096-.512z" fill="#5488A1"/><path d="M90.102 96.246c2.524 1.648 4.367 3.363 6.297 5.672a19.5 19.5 0 0 0 2.503 2.36c1.403 1.152 2.381 2.314 3.486 3.742a41 41 0 0 0 4.224 3.901c1.408 1.219 1.408 1.219 1.92 2.755h-1.024v-1.024c-.568-.118-1.142-.23-1.73-.353-.609-.22-1.224-.44-1.853-.671-.573-1.28-.573-1.28-1.024-2.56l-1.28-.512-1.28-.512q-.523-1.276-1.024-2.56-1.276-.775-2.56-1.536l-.993-1.536c-1.203-1.756-2.212-2.222-4.126-3.072l-.512-1.024H89.59z" fill="#1C81A0"/><path d="M53.242 66.553h2.56v1.024c1.556.896 2.667 1.152 4.459 1.147.712.005.712.005 1.439.005q.76-.001 1.541-.01h1.597q1.666-.001 3.333-.01c1.705-.01 3.404-.01 5.109-.01q1.62-.009 3.241-.01.76.001 1.541-.005c.476 0 .952-.005 1.439-.005l1.265-.01c1.126-.067 2.114-.266 3.195-.578l-1.024 1.536c-1.137.205-1.137.205-2.565.225-.804.01-.804.01-1.623.026q-.866.006-1.756.005l-1.802.015q-1.896.015-3.783.015c-1.93 0-3.855.031-5.785.056q-1.836.009-3.671.01c-.578.01-1.152.02-1.746.036-3.932-.036-3.932-.036-5.35-1.096-.717-.85-.717-.85-1.613-2.365" fill="#C1EAF4"/><path d="M85.495 57.338c.256.507.256.507.512 1.024-.481 1.085-.481 1.085-1.024 2.048h-1.024v1.536h-1.536v1.536H58.874v-.512c.937.015.937.015 1.894.036 2.334.036 4.674.036 7.014.026q1.506 0 3.02.031c6.01.348 6.01.348 11.406-1.782 1.254-1.254 2.309-2.468 3.287-3.942" fill="#A4DFEE"/><path d="M83.447 70.648v1.536c-9.374-.256-9.374-.256-18.942-.512l-.512 2.048c-.799.896-.799.896-1.536 1.536l-1.024-.512-1.024 2.56-2.048-.512c1.782-2.457 3.722-5.063 6.737-5.959 2.974-.466 5.969-.358 8.974-.282q1.367.006 2.734.005c2.217 0 4.428.036 6.64.092" fill="#C4EAF6"/><path d="m93.686 60.41.512 2.048-1.536.512c-.138.578-.276 1.162-.415 1.761-.2.599-.404 1.203-.609 1.823-1.597.737-1.597.737-3.072 1.024l-.512 2.56-1.536-.512-.512 1.024-2.048-.512a681 681 0 0 1 3.266-3.328l.932-.962c.297-.302.594-.599.901-.911.276-.276.548-.558.829-.845.728-.611.728-.611 1.752-.611.22-.476.22-.476.451-.962.573-1.086.573-1.086 1.597-2.109" fill="#D8F4F6"/><path d="M52.73 45.051c1.715.307 2.795.881 4.096 2.048l.512 1.536c.916.834.916.834 2.017 1.597.363.266.727.532 1.101.809.957.686.957.686 2.002 1.177v1.024h1.536c.594 2.181.389 3.932 0 6.143l-1.024-.512c.082-.998.169-2.002.251-3-.384-1.679-1.433-2.166-2.811-3.143-6.113-4.766-6.113-4.766-7.679-7.679" fill="#2E87A7"/><path d="M79.863 85.495v.512c-4.305.256-4.305.256-8.703.512l-.512 1.536h-1.024v2.56l-3.584.512c0-1.828.307-2.278 1.439-3.681 3.261-3.251 8.14-2.258 12.384-1.951" fill="#3190B0"/><path d="M44.539 57.85c1.945.261 2.78.619 4.096 2.048.538.256.538.256 1.085.512.962.512.962.512 1.474 2.048l2.56.512-.512 3.584a93 93 0 0 1-8.703-8.191z" fill="#E2F6F8"/><path d="m99.829 74.744.512 1.024h3.072v.512c-1.034.235-2.068.466-3.097.701-1.106.271-1.106.271-2.022 1.346-.23 1.71-.369 2.995.573 4.5.63.747 1.305 1.454 1.986 2.155-1.536 0-1.536 0-2.452-.732q-.46-.474-.937-.962c-.317-.317-.63-.63-.952-.957-.778-.932-.778-.932-1.29-2.468l.512-1.024h1.024l.512-1.536h1.024l.481-.993c.542-1.054.542-1.054 1.054-1.566" fill="#4D8898"/><path d="M67.577 78.84c2.294-.01 4.592-.02 6.886-.026l2.345-.015c1.121-.005 2.242-.005 3.369-.01 1.014-.005 1.014-.005 2.048-.005 1.382.046 2.478.148 3.783.568v1.536c.491.22.491.22.993.451 1.054.572 1.054.572 1.566 1.596l-2.048.512c-.338-.584-.681-1.162-1.029-1.761-1.229-1.439-1.904-1.797-3.783-2.166a98 98 0 0 0-6.389-.138c-.747-.005-1.5-.015-2.247-.026-1.833-.02-3.66-.02-5.493-.005z" fill="#5598AD"/><path d="M18.43 5.631v1.024l-2.048.512v1.536h-1.024v1.024l-1.73.573c-.998.389-.998.389-1.853.962-.66 1.556-.66 1.556-1.024 3.072l-1.536.512c-.855.768-.855.768-1.536 1.536 0-2.785 2.258-4.705 4.096-6.655 4.899-4.096 4.899-4.096 6.655-4.096" fill="#157897"/><path d="M100.341 85.495c2.212 1.787 4.157 3.63 5.959 5.831.697.824 1.465 1.592 2.232 2.36l-4.608-1.024v-2.56l-1.536-.512v-1.024c-.328-.051-.655-.108-.993-.159a118 118 0 0 0-1.055-.353l-.512-1.536z" fill="#D3F2F4"/><path d="M55.29 71.16h6.655a95 95 0 0 1-6.655 7.167c-.317-.962-.317-.962-.512-2.048l1.024-1.024h1.536l.512-2.56h1.536v-1.024H55.29z" fill="#CEF3FB"/><path d="m31.741 92.15.512 1.024a49 49 0 0 1-1.536 3.072h-1.536v2.048l1.536.512-4.096-.512v1.536h-1.024c.21-2.278 1.792-3.502 3.358-4.991.266-.261.532-.517.809-.788q.984-.954 1.976-1.899" fill="#D2F4F8"/><path d="M109.013 45.109c.517.148 1.034.302 1.567.456v.512c-.558.051-1.116.102-1.695.159-1.817.205-1.817.205-2.846 1.024-.64.834-.64.834-.768 1.853-.481 1.587-1.577 2.145-2.882 3.108a56 56 0 0 0-1.536 1.536c-.333-.922-.333-.922-.512-2.048.788-1.357 1.961-2.391 3.072-3.491.292-.312.578-.625.881-.947 1.679-1.689 2.237-2.232 4.72-2.16" fill="#6198A8"/><path d="M41.547 34.38c1.249.573 1.485 1.229 1.966 2.478l-1.408.451c-1.316.456-2.488.942-3.712 1.597l-1.536-1.024c.548-.614 1.106-1.218 1.664-1.823.312-.338.619-.676.937-1.024.983-.737.983-.737 2.089-.655" fill="#DCF6F7"/><path d="m62.457 83.959.512 1.024c-.962 2.166-2.442 3.44-4.239 4.899-.86.712-1.638 1.469-2.416 2.268l-1.024-1.024z" fill="#C8EBF0"/><path d="M36.86 47.099c.512 1.024.512 1.024.415 2.498-.056 1.633-.056 1.633 1.024 2.749 1.162.957 1.162.957 2.657 1.92h-1.024l-.512 1.024-5.119-5.119z" fill="#508A9B"/><path d="M46.587 61.945c2.698 2.104 5.616 4.577 7.167 7.679-.993-.159-.993-.159-2.048-.512l-.512-1.536-2.56-.512-.512-2.56h-1.024z" fill="#CBEBF2"/><path d="m53.754 92.662 1.024.512c-.379.358-.758.717-1.152 1.085-1.454 1.433-1.454 1.433-2.529 3.169-.307.456-.609.911-.927 1.377h-1.024l-.512 1.536-1.536-1.024q1.245-1.284 2.498-2.56c.461-.476.922-.952 1.403-1.439 1.219-1.12 1.219-1.12 2.243-1.12z" fill="#C3EAF0"/><path d="m85.495 57.338.512 1.024c-.481 1.085-.481 1.085-1.024 2.048h-1.024v1.536h-1.536v1.536h-2.048c.758-1.766 1.761-2.892 3.133-4.224l1.126-1.096.86-.824" fill="#CAEFF4"/><path d="M55.29 48.635c2.616 1.106 4.72 3.077 6.655 5.119l-3.584-.512v-1.024l-1.536-.512v-1.024h-1.024z" fill="#C8ECF6"/><path d="M145.904 123.891c.363.794.363.794.512 2.048a37 37 0 0 1-1.695 3.681c-.164.328-.333.655-.502.993-1.244 2.422-1.244 2.422-2.411 3.005.256-1.341.65-2.324 1.28-3.553.696-1.423 1.049-2.57 1.28-4.126h1.024z" fill="#197597"/><path d="M116.212 90.102c2.319 1.884 4.295 3.794 6.143 6.143-.507.256-.507.256-1.024.512v-1.024h-2.048v-2.048l-2.56-.512z" fill="#C7F0F6"/><path d="M45.051 37.884c2.119 1.73 3.998 3.415 5.631 5.631-1.52-.256-1.52-.256-3.072-.512l-1.024-3.072H45.05z" fill="#C0ECF3"/><path d="m103.925 38.908.512 2.048-1.536.512-.512 1.536h-1.024v1.024h-1.024v1.024l-2.048-.512z" fill="#C5EDF5"/><path d="M32.765 106.485c.568.235.568.235 1.152.481 1.336.573 1.336.573 2.529.701.927.353.927.353 1.5 1.536.148.456.297.911.451 1.377a78 78 0 0 0 1.024 2.048c-1.597-.696-2.524-1.428-3.614-2.785-.968-1.183-1.945-2.294-3.041-3.358" fill="#CBEFF4"/><path d="M40.444 43.515c2.708.717 3.978 2.483 5.631 4.608-1.265-.589-2.073-1.049-3.072-2.048-1.362-.292-2.708-.379-4.096-.512z" fill="#6C98A8"/><path d="M44.539 57.85c1.848.154 2.432.363 3.681 1.792.456.635.456.635.927 1.28l1.024.512-.512 2.048q-1.284-1.26-2.56-2.529c-.476-.466-.952-.937-1.439-1.418-1.121-1.173-1.121-1.173-1.121-1.685" fill="#BCE6EE"/><path d="M93.686 99.317h3.584l.512 4.096c-.589-.486-1.172-.978-1.761-1.474-.328-.271-.65-.543-.988-.824-.835-.774-.835-.774-1.347-1.798" fill="#C5E9F0"/><path d="m49.659 74.744.512 3.072c-3.389 1.024-3.389 1.024-5.119 1.024q1.005-1.028 2.017-2.048L48.2 75.64c.947-.896.947-.896 1.459-.896" fill="#CCF1F7"/><path d="m47.611 108.02.512 1.536-2.048 2.048c-.379.43-.379.43-.768.865-.916.799-1.643.927-2.816 1.183 1.643-1.951 3.282-3.865 5.119-5.631" fill="#348FAE"/><path d="M38.396 62.969c.578.476 1.152.957 1.73 1.439q.476.4.968.809c.886.824.886.824 1.909 2.36h-2.048l-.512-1.024-1.536-.512z" fill="#3593AD"/><path d="m110.068 55.29 1.024.512c-.507.758-.507.758-1.024 1.536-.195.85-.374 1.7-.512 2.56-1.52-.256-1.52-.256-3.072-.512a86 86 0 0 1 2.56-3.072h1.024z" fill="#CDE9F2"/><path d="m38.908 54.778 2.048 1.024v1.024l1.536.512c.609 1.055.609 1.055 1.024 2.048-1.52-.573-2.729-1.137-4.096-2.048-.353-1.341-.353-1.341-.512-2.56" fill="#CCEFF4"/><path d="M97.27 78.84h.512c.128.635.256 1.265.384 1.92.471 1.925 1.106 2.959 2.688 4.224-1.536 0-1.536 0-2.468-.783-.317-.333-.63-.666-.957-1.009l-.962-1.009a121 121 0 0 1-.732-.783l1.536-.512z" fill="#70A0A9"/><path d="m112.116 102.901.512 1.536-.512 1.024c-1.357.302-2.708.379-4.096.512l-.512-2.048c.507.256.507.256 1.024.512v1.024h1.536c.22-.491.22-.491.451-.993.573-1.055.573-1.055 1.597-1.567" fill="#CDEDF1"/><path d="M92.662 50.171c0 1.638-.174 2.222-1.024 3.584-.993.927-.993.927-2.048 1.536l-1.536-.512z" fill="#C1E9F2"/><path d="M97.782 103.413h3.072l.512 3.584q-.9-.753-1.792-1.505c-.333-.276-.666-.558-1.009-.845-.256-.241-.517-.476-.783-.722z" fill="#C3EAF1"/><path d="m46.587 99.829.512 2.048-1.536.512v1.536h-2.56c.502-.589 1.003-1.172 1.505-1.761.276-.328.558-.65.845-.988.399-.461.804-.916 1.234-1.346" fill="#D1F0F4"/><path d="m57.85 77.304.512 1.024c-.481 1.341-.481 1.341-1.024 2.56h-2.56z" fill="#D3EFF1"/><path d="M89.078 76.28c.415.865.415.865.512 2.048-1.183 1.408-1.183 1.408-2.56 2.56h-1.024c.241-2.176 1.52-3.174 3.072-4.608" fill="#BFE6F0"/><path d="m86.519 63.993 1.536.512-3.584 3.584-.512-2.048c.491-.077.491-.077.993-.159.348-.118.696-.235 1.055-.353z" fill="#D3F4F9"/><path d="M116.212 107.509c.512 2.048.512 2.048 0 3.072-1.567.317-1.567.317-3.072.512z" fill="#388AAD"/><path d="M65.017 90.614v1.536c.507.763.507.763 1.024 1.536-.927.317-.927.317-2.048.512l-1.536-1.024z" fill="#298CAC"/><path d="M111.604 103.413c-.671 1.024-.671 1.024-1.536 2.048h-1.536l-1.024-2.048c2.944-.573 2.944-.573 4.096 0" fill="#3B7B8F"/><path d="M36.86 97.27c1.055.865 1.055.865 2.048 2.048-.128 1.408-.128 1.408-.512 2.56-.768-.573-.768-.573-1.536-1.536-.097-1.633-.097-1.633 0-3.072" fill="#D2EDF2"/><path d="m87.031 83.447 3.584 3.072c-1.602.532-2.043.476-3.584 0z" fill="#CAE7EE"/><path d="M40.956 54.266c1.52.256 1.52.256 3.072.512l.512 3.072q-.9-.753-1.792-1.505c-.333-.276-.666-.558-1.009-.845-.256-.241-.517-.476-.783-.722z" fill="#C0EAEE"/><path d="m113.14 87.031 3.072 2.56c-.927.317-.927.317-2.048.512l-1.536-1.024z" fill="#CDF2F9"/><path d="M81.399 87.031c1.474.317 1.474.317 3.072 1.024.706 1.597.706 1.597 1.024 3.072-.589-.486-1.172-.978-1.761-1.474-.328-.271-.65-.543-.988-.824-.835-.774-.835-.774-1.347-1.798" fill="#AFE2EC"/><path d="M105.973 79.352c1.357 1.321 2.529 2.519 3.584 4.096l-2.56-.512-.512-1.536-1.024-.512z" fill="#C5EAF2"/><path d="m93.686 60.41.512 2.048-1.536.512c-.507.758-.507.758-1.024 1.536l-1.536-.512 1.536-.512c.558-.988.558-.988 1.024-2.048z" fill="#C0EAEF"/><path d="M113.14 49.147c.573.896.573.896 1.024 2.048-.538 1.776-1.556 2.575-3.072 3.584l-.512-1.024c.328-.287.655-.568.993-.865 1.157-1.295 1.377-2.043 1.567-3.742" fill="#749DAC"/><path d="m34.812 59.386 2.56 2.56-.512 1.024-2.048-.512z" fill="#2A8CB1"/><path d="M36.86 51.195c.389.317.783.635 1.183.962 1.377 1.116 1.377 1.116 2.913 2.109h-1.024l-.512 1.024-3.072-3.584z" fill="#759CAC"/><path d="m36.348 36.86 1.536.512c-1.776 1.52-1.776 1.52-3.584 3.072.491-1.966.635-2.355 2.048-3.584" fill="#207D9C"/><path d="M40.444 34.3c.962.128.962.128 2.048.512.64 1.055.64 1.055 1.024 2.048H41.98v-1.536l-2.56.512z" fill="#B3EBF1"/><path d="M102.901 69.625h2.56c-.507.256-.507.256-1.024.512l-.512 1.536-1.536.512z" fill="#C2F3F3"/><path d="m100.341 53.754.512 2.048h-1.024v1.024l-2.048-.512z" fill="#BFEEF0"/></svg>