<svg xmlns="http://www.w3.org/2000/svg" width="150" height="149.525" viewBox="0 0 150 149.525"><path d="m18.295 12.513 9.264-.005a8815 8815 0 0 1 22.491.023l15.542.038.542.001 2.851.007q4.812.015 9.625.015c3.475-.001 6.95.007 10.425.015l2.769.007 4.957.012.296.001 4.457.011.296.001 4.947.012 2.751.007 3.074.007.246.001q3.543.008 7.086.007 2.864-.003 5.727.016l.989.007 1.837.013 2.107.014 4.301.03c.081.26.079.472.055.743l-.023.264-.027.29-.027.308-.06.671-.097 1.093-.142 1.594-.227 2.56-.019.219-.178 2.018q-.298 3.371-.586 6.742l-.019.217-.222 2.604-.356 4.166-.019.217a2593 2593 0 0 1-.542 6.247l-.248 2.815q-.426 4.818-.839 9.636l-.021.251-.348 4.069c-.635 7.421-.635 7.421-.893 10.334l-.251 2.826c-.407 4.575-.798 9.151-1.189 13.727-.685 8.012-.685 8.012-.942 10.917l-.014.163-.236 2.652-.195 2.194-.014.162q-.299 3.396-.589 6.794l-.023.273-.466 5.447-.238 2.794-.021.251c-.303 3.549-.616 7.098-.931 10.646l-.018.207-.036.403q-.05.559-.09 1.119l-.019.253-.034.485-.017.221-.013.195c-.047.203-.116.277-.277.405-.145.063-.145.063-.311.11l-.191.056-.209.058-.221.064q-.363.105-.728.207l-.514.148-1.081.31-1.592.458-.515.149-.257.074-1.302.375a3331 3331 0 0 0-7.249 2.097l-3.165.92-1.546.45-.154.045a923 923 0 0 1-4.86 1.397 306 306 0 0 0-3.471 1.009c-1.655.493-3.315.969-4.975 1.445l-1.664.478-.205.059a954 954 0 0 0-3.62 1.047l-.257.075-1.024.298-3.077.895-.626.182-1.727.501-.752.219-.461.134-.575.167c-1.185.341-1.185.341-1.729.111-.351-.141-.719-.229-1.083-.329l-.537-.149-.274-.076q-.582-.161-1.164-.325l-1.864-.52c-1.47-.409-2.94-.82-4.406-1.242-1.451-.417-2.907-.82-4.361-1.224-2.643-.735-5.286-1.472-7.925-2.221l-.571-.162-.281-.08q-1.813-.513-3.627-1.021l-.559-.157-.282-.079-2.032-.571-1.668-.47c-2.014-.568-2.014-.568-4.033-1.115a39 39 0 0 1-1.417-.409c-1.263-.39-2.536-.739-3.811-1.087l-.911-.25-1.054-.289a378 378 0 0 1-3.84-1.072l-.661-.188-.428-.122-.196-.055c-1.212-.347-1.212-.347-1.343-.479a20 20 0 0 1-.063-.679l-.018-.218-.058-.73-.042-.52-.089-1.123-.143-1.784-.024-.304-.125-1.552q-.25-3.096-.505-6.191l-.065-.788a896 896 0 0 0-.387-4.612l-.024-.276-.024-.279c-.232-2.67-.448-5.342-.66-8.014l-.17-2.131-.016-.198-.143-1.79a5554 5554 0 0 0-.662-8.222q-.302-3.734-.624-7.466c-.266-3.071-.512-6.144-.76-9.217l-.051-.629-.302-3.755-.575-7.124-.095-1.169a1141 1141 0 0 0-.517-6.2q-.353-4.113-.68-8.227l-.261-3.253-.063-.786a6541 6541 0 0 0-.73-9.002l-.414-5.068-.183-2.243q-.155-1.905-.319-3.809c-.207-2.402-.399-4.805-.593-7.208l-.074-.924-.162-2.016-.061-.758-.018-.227-.016-.207-.014-.179a6 6 0 0 1-.01-.392" fill="#E9CA31"/><path d="M77.059 23.918c16.722 0 16.722 0 22.532.037l4.75.028c2.386.014 4.772.016 7.159.015q4.18-.002 8.362.035.855.008 1.711.014l3.48.03a69 69 0 0 1-.165 2.362l-.024.274-.051.574-.134 1.505-.027.3q-.11 1.239-.208 2.479l-.055.689q-.138 1.723-.304 3.442a153 153 0 0 0-.136 1.503l-.063.728-.097 1.115a871 871 0 0 0-.364 4.253 590 590 0 0 1-.322 3.733l-.152 1.719-.095 1.083-.063.716q-.273 3.083-.535 6.165a694 694 0 0 1-.294 3.354 830 830 0 0 0-.322 3.688l-.02.236-.198 2.359-.059.721-.014.174a209 209 0 0 1-.238 2.658 127 127 0 0 0-.196 2.274q-.083 1.033-.18 2.065a191 191 0 0 0-.222 2.589 221 221 0 0 1-.271 3.142l-.062.669-.016.169a147 147 0 0 0-.206 2.497 76 76 0 0 1-.149 1.703q-.096 1-.184 2.002l-.016.176a250 250 0 0 0-.206 2.486 91 91 0 0 1-.154 1.718 96 96 0 0 0-.139 1.62q-.068.885-.153 1.767c-.074.752-.136 1.504-.198 2.257q-.114 1.401-.248 2.802-.104 1.068-.188 2.138-.108 1.367-.233 2.732l-.105 1.169q-.115 1.291-.227 2.583l-.02.23a676 676 0 0 0-.271 3.216 206 206 0 0 1-.238 2.663q-.108 1.134-.196 2.268c-.064.821-.137 1.642-.211 2.462q-.072.786-.133 1.573l-.02.264-.035.478a14 14 0 0 1-.057.583l-.032.271c-.217.349-.581.381-.963.476l-.255.069-.535.142q-.538.142-1.073.297l-.73.205-.227.063-.45.122q-.584.154-1.156.349c-.458.15-.922.279-1.385.413l-.331.096a137 137 0 0 1-1.896.534c-.41.113-.816.239-1.222.369-.571.18-1.148.337-1.725.497a65 65 0 0 0-1.982.588c-.383.119-.763.223-1.157.3-.196.049-.374.124-.561.2a16 16 0 0 1-.424.123l-.246.068-.26.071-.54.15-.266.074q-.612.172-1.221.355a314 314 0 0 1-3.259.946l-.247.07-.994.282c-1.139.322-1.139.322-2.27.668-1 .317-2.014.59-3.024.873-.943.265-1.885.531-2.819.828a35 35 0 0 1-1.223.351 71 71 0 0 0-1.97.574 53 53 0 0 1-1.713.5 63 63 0 0 0-1.212.346l-.336.099-.505.149-.474.14-.279.083c-.241.059-.241.059-.558.059z" fill="#FEDE23"/><path d="M81.415 36.985h35.164c-.166 1.324-.166 1.324-.328 1.984-.1.435-.166.877-.236 1.318l-.041.254c-.069.437-.127.871-.159 1.312-.03.221-.086.431-.142.647-.09.382-.149.77-.213 1.157l-.047.279-.097.583-.148.886-.094.568-.045.265c-.074.45-.136.897-.173 1.351-.029.249-.108.481-.178.721a12 12 0 0 0-.079.673 6.3 6.3 0 0 1-.238 1.228l-.158.792-19.324.079v22.967l19.324.079-.079 1.901q-.024.805-.044 1.611l-.013.513-.007.298c-.015.271-.015.271-.053.49a8 8 0 0 0-.076.825l-.009.167-.027.549-.02.39-.052 1.044-.032.648a400 400 0 0 0-.261 6.097 119 119 0 0 1-.078 1.894l-.009.181c-.017.324-.05.64-.093.962-.037.346-.042.695-.052 1.043l-.017.522-.009.276a106 106 0 0 1-.212 4.294c-.132 1.8-.201 3.603-.268 5.406l-.034.895-.007.176a71 71 0 0 1-.157 2.652 39 39 0 0 0-.099 2.131l-.015.641-.006.274c-.014.233-.014.233-.053.385-.062.258-.057.519-.062.783l-.004.181-.013.572-.017.751-.003.172c-.009.35-.049.686-.098 1.032a22 22 0 0 0-.025.643l-.005.179-.015.559-.01.382-.024.93h-.158l.006.298c.016 1.279-.067 2.546-.164 3.821l-.257.049-.332.065-.17.032c-.278.035-.278.035-.508.171q-.218.05-.438.092l-.269.052-.566.108-.269.052-.249.048c-.185.025-.185.025-.269.123q-.296.061-.594.114l-.348.064-.17.031c-.536.094-.536.094-1.05.265a4 4 0 0 1-.771.187c-.712.127-1.416.286-2.121.45l-.635.146-.404.093-.191.044c-.287.047-.287.047-.527.191q-.269.053-.539.101a29 29 0 0 0-1.514.316l-.202.047-.822.195-.61.144-.187.045c-.298.07-.573.121-.879.103v.158l-.292.049-.377.065-.193.032c-.308.028-.308.028-.565.171q-.277.056-.554.104c-.631.113-1.252.256-1.875.406-.594.142-1.189.276-1.784.412l-.823.188-.427.097-.622.142-.194.044c-.29.046-.29.046-.533.191q-.316.058-.634.109c-.543.089-.543.089-1.069.247-.336.126-.677.18-1.03.238-.416.069-.8.151-1.196.298-.305.095-.62.141-.935.196-.515.093-1.017.226-1.521.368l-.182.05-.16.046c-.161.031-.161.031-.557.031v-14.572c1.267-.475 1.267-.475 1.901-.634a7 7 0 0 0 .371-.148c.294-.121.586-.222.891-.312.441-.132.871-.284 1.302-.446a28 28 0 0 1 2.238-.759c.22-.064.423-.136.633-.226a9 9 0 0 1 .899-.313 31 31 0 0 0 1.64-.563c.703-.255 1.403-.496 2.13-.676.315-.079.549-.193.825-.359.213-.068.423-.13.639-.188.504-.14.976-.308 1.451-.531.238-.084.432-.086.682-.073v-.158l.235-.073c1.431-.44 1.431-.44 2.832-.965.235-.094.474-.174.715-.251q.185-.06.369-.125l.189-.066.17-.06c.163-.043.163-.043.479-.043l.005-.132a69 69 0 0 1 .144-2.65c.088-1.174.153-2.349.218-3.525q.08-1.473.171-2.944l.015-.247.061-.968q.125-2.004.206-4.009l.009-.206.015-.377a4 4 0 0 1 .065-.654c.065-.327.079-.658.101-.99l.016-.227.048-.716.033-.487.081-1.191-1.294.194-.44.066q-.317.047-.633.096l-.197.029a5.6 5.6 0 0 0-1 .249 7 7 0 0 1-.427.062l-.243.029-.256.028-.264.031a98 98 0 0 1-1.252.136l-.211.021q-.195.02-.391.038c-.284.005-.284.005-.521.13q-.426.053-.853.092c-.31.032-.612.072-.917.138-.67.14-1.353.206-2.032.29l-.841.104-.195.024c-.324.035-.324.035-.627.144q-.23.032-.46.057l-.278.031-.583.063-.278.031-.256.027c-.203.018-.203.018-.363.109-.231.022-.462.035-.694.049-.261.024-.261.024-.524.107-.316.09-.62.131-.945.166-.396.031-.396.031-.767.153q-.434.03-.869.048c-.303-.014-.303-.014-.557.11-.266.026-.532.041-.799.057-.222-.003-.222-.003-.309.101l-1.505.079zm-22.175 0h12.672c.049 6.635.049 6.635.061 8.864l.001.231c.022 4.064.026 8.128.027 12.193v66.901a36 36 0 0 1-.089 2.493l-.302-.036-.17-.021a5 5 0 0 1-.608-.128l-.237-.062-.242-.064-.244-.064c-.606-.16-.606-.16-.832-.255a4 4 0 0 0-.697-.186c-.735-.153-1.459-.341-2.186-.528l-.451-.116q-2.296-.592-4.591-1.194l-.907-.237a2642 2642 0 0 1-5.601-1.471 431 431 0 0 0-3.805-.984c-2.032-.516-4.06-1.048-6.088-1.578l-2.196-.572-1.269-.33-.865-.225-.952-.248-.287-.074-.259-.068-.227-.059c-.168-.054-.168-.054-.248-.133a13 13 0 0 0-.431-.079c-.424-.071-.424-.071-.599-.158V96.622l3.01.475 1.625.255 1.921.302 1.45.228 1.429.225.539.085.745.118.222.034.204.033.177.028c.162.037.162.037.479.196v9.82l.713.079 9.108 1.742z" fill="#FEFEFE"/><path d="M81.415 36.985h35.164l-.079.317v-.238l-34.847.079-.079 52.666.238-.079c.224-.024.449-.04.673-.057.197-.011.197-.011.356-.101a15 15 0 0 1 .604-.005l.169.001.415.004v.079l-.222.015-.287.02-.287.019c-.224-.001-.224-.001-.312.104l-1.505.079z" fill="#FBF5B6"/><path d="M114.361 49.736h.079c.017.538-.035.868-.158 1.426H94.958v22.809h19.245v.158l-8.427.004-2.81.002-2.881.001-1.779.001h-2.684l-.227.001c-.507-.001-.507-.001-.595-.089a6 6 0 0 1-.01-.368l-.001-.243.001-.27V51.961l-.001-.27.001-.243v-.211c.009-.155.009-.155.089-.234a22 22 0 0 1 .743-.01h.239l.8.001h.571l1.233.001 1.783.001 2.892.002 2.81.002h1.043l7.209.004z" fill="#F8E368"/><path d="M114.203 50.211h.079l-.079.792-19.324.079v22.967l19.324.079-.079 1.901q-.024.805-.044 1.611l-.013.513-.007.298c-.014.255-.05.495-.094.746a11 11 0 0 0-.025.393l-.01.212-.01.217-.01.222-.024.54h-.079v-3.01h.158l-.003-.182-.007-.843-.004-.286c-.003-.548.026-1.076.094-1.618l.023-.186.056-.448h-.302l-8.125.004-2.81.002-2.881.001-1.779.001h-2.684l-.227.001c-.507-.001-.507-.001-.595-.089a6 6 0 0 1-.01-.371l-.001-.244.001-.272V51.888l-.001-.272.001-.244v-.213c.008-.156.008-.156.087-.235a22 22 0 0 1 .743-.01h.239l.8.001h.571l1.233.001 1.783.001 2.892.002 2.81.002h1.043l7.209.004z" fill="#FEFEDE"/><path d="M81.336 37.064h.079v52.825c.869.042.869.042 1.584-.238.266-.026.532-.041.799-.057.222.003.222.003.309-.101q.238-.004.475 0c-.242.21-.404.269-.723.287-.283.013-.283.013-.544.109-.226.025-.452.04-.678.057-.188.002-.188.002-.272.101q-.237.011-.475.01l-.262.001c-.213-.01-.213-.01-.292-.09a5 5 0 0 1-.01-.349l-.001-.23.001-.257v-5.393l.001-3.577.001-3.543V75.28l.002-7.921.002-7.696v-.239l.001-7.232v-.225z" fill="#F6DC44"/><path d="m113.127 36.82.978-.001 1.091-.001.385-.001h.793c.205.01.205.01.284.089a5 5 0 0 1-.03.351 44 44 0 0 0-.106 1.079c-.023.154-.023.154-.102.233a17 17 0 0 0-.069.53c-.05.407-.116.803-.208 1.203-.095.419-.154.831-.198 1.257-.052.503-.142.97-.317 1.445-.091-.291-.046-.479.034-.772.08-.319.113-.645.154-.971a58 58 0 0 1 .297-2l.041-.25.039-.231.034-.205c.035-.164.035-.164.114-.323.022-.216.035-.431.049-.648.03-.223.03-.223.189-.619H81.415v-.079l11.319-.034.243-.001 3.362-.01c12.568-.038 12.568-.038 16.787-.041" fill="#F1DA5B"/><path d="m37.54 96.542.391-.005.22-.003c.181.008.181.008.26.087.184.022.367.035.552.049l.161.03.079.158c-.586.041-.96-.094-1.584-.238v22.175h-.158l-.004-9.632-.002-3.211-.001-3.293-.001-2.033v-3.069l-.001-.259.001-.234v-.203c.007-.161.007-.161.087-.319" fill="#E1C952"/><path d="m82.286 112.777.158.079c-.333.248-.44.317-.871.317v14.414l.95-.317h.475v.079q-.284.08-.569.158l-.162.046a3 3 0 0 1-.853.113v-14.572z" fill="#FBF4BA"/><path d="M114.203 74.208h.079a36 36 0 0 1-.045 2.322 61 61 0 0 0-.054 1.541l-.005.206-.023 1.033-.009.383-.003.18c-.01.414-.01.414-.098.591a19 19 0 0 0-.022.668l-.004.201-.013.636-.017.837-.003.195c-.01.455-.01.455-.098.631a14 14 0 0 0-.04.537l-.01.169-.03.557-.01.193c-.068 1.27-.1 2.54-.121 3.812l-.004.215-.006.401c-.008.444-.008.444-.096.533a16 16 0 0 0-.045.599l-.01.171-.024.418h-.079c-.021-1.336.039-2.67.096-4.005l.024-.569a743 743 0 0 1 .246-5.421l.015-.308.043-.854.012-.252c.02-.375.054-.735.118-1.106q.015-.285.019-.571l.008-.336.004-.176a41 41 0 0 1 .207-3.431" fill="#F7E161"/><path d="M103.194 86.8h.079a109 109 0 0 1-.158 4.039l-.01.166c-.058.959-.058.959-.111 1.368-.075.627-.067 1.265-.081 1.896l-.013.529-.003.165c-.01.38-.01.38-.098.468a7 7 0 0 0-.03.39l-.014.252-.014.275-.015.282-.047.898-.047.892-.029.556c-.019.364-.04.726-.083 1.088-.054.449-.072.9-.094 1.351l-.03.582-.045.906c-.106 2.162-.106 2.162-.268 3.218h-.079c.033-.929.078-1.855.148-2.782.088-1.174.153-2.349.218-3.525q.08-1.473.171-2.944l.015-.247.061-.968q.125-2.004.206-4.009l.009-.206.015-.377a4 4 0 0 1 .065-.654c.065-.327.079-.658.101-.99l.016-.227.048-.716.033-.487.081-1.191" fill="#FEFCD2"/><path d="m37.619 96.621.634.079-.475.238v21.859h-.158z" fill="#FEFEC4"/><path d="M112.381 110.243h.079q.007 1.205-.029 2.411l-.015.496-.01.323-.009.287c-.014.253-.044.5-.077.75-.034.307-.037.614-.043.923l-.005.21-.015.658-.01.449-.024 1.095h-.158l.001.142c.015 1.987.015 1.987-.08 2.709-.079.079-.079.079-.361.084l-.273-.004v-.079h.475l.006-.19c.042-1.31.088-2.619.152-3.928h.158l-.001-.238-.003-.882-.002-.38-.002-.549-.001-.17c0-.35.038-.682.088-1.028q.016-.325.022-.649l.004-.182.017-.763.013-.56.003-.174c.007-.264.018-.509.098-.761" fill="#F7E15D"/><path d="M108.897 36.827q1.5-.003 3.001-.004l1.393-.002 1.343-.002.514-.001.717-.001.217-.001c.488.001.488.001.577.089a5 5 0 0 1-.03.351 44 44 0 0 0-.106 1.079c-.024.155-.024.155-.103.234a17 17 0 0 0-.069.53c-.05.407-.116.803-.208 1.203-.095.419-.154.831-.198 1.257-.052.503-.142.97-.317 1.445-.091-.291-.046-.479.034-.772.08-.319.113-.645.154-.971a58 58 0 0 1 .297-2l.041-.25.039-.231.034-.205c.035-.164.035-.164.114-.323q.024-.21.04-.421c.022-.293.061-.556.119-.846l-7.603-.079z" fill="#F9DD38"/><path d="M113.886 81.732h.079l.005.861.002.248.001.237.001.219c-.009.177-.009.177-.088.336a14 14 0 0 0-.04.537l-.01.169-.03.557-.01.193c-.068 1.27-.1 2.54-.121 3.812l-.004.215-.006.401c-.008.444-.008.444-.096.533a16 16 0 0 0-.045.599l-.01.171-.024.418h-.079c-.023-1.345.037-2.688.093-4.032l.039-.986.031-.771.014-.364c.025-.657.072-1.3.184-1.949.048-.291.068-.578.085-.873l.018-.306z" fill="#F7E056"/><path d="M113.094 96.146h.079l.004 1.248.002.425.002.609.001.193q0 .228-.009.456l-.079.079q-.025.291-.038.583l-.01.185-.03.608-.021.421q-.028.554-.054 1.109l-.056 1.131-.109 2.22h-.079a74 74 0 0 1 .064-3.519l.01-.266c.071-1.829.187-3.655.321-5.481" fill="#F6DF57"/><path d="M103.194 86.8c-.078 2.402-.078 2.402-.158 3.405h-.079c-.016-2.324-.016-2.324.079-3.247l-.158.079c-.205.025-.411.04-.617.057-.173.004-.173.004-.255.101q-.245.019-.49.03a7 7 0 0 0-1.178.173c-.532.124-1.034.138-1.579.114v-.079l.16-.009.221-.016.214-.014c.236-.035.443-.086.671-.152.53-.149 1.065-.225 1.609-.3l.297-.043c.425-.059.833-.109 1.263-.101" fill="#F7DF55"/><path d="M115.47 43.163h.079l.005.589.002.17q0 .215-.007.429l-.079.079a12 12 0 0 0-.04.475c-.031.466-.031.466-.119.554q-.024.198-.04.396c-.031.387-.031.387-.119.475a19 19 0 0 0-.106.611l-.062.377-.096.598-.094.575-.028.182c-.024.144-.056.287-.088.43l-.158.079q.014-.201.03-.401l.017-.226c.033-.245.033-.245.109-.506.095-.34.139-.671.181-1.021.109-.853.248-1.701.391-2.549l.033-.197q.094-.56.19-1.119" fill="#F8E05D"/><path d="M102.165 101.056h.158c.021.859-.037 1.709-.097 2.566l-.049.712-.032.457-.014.212c-.027.377-.066.748-.124 1.122l-.554.079.158-.158h.317l-.001-.231-.003-.847-.002-.367-.002-.527-.001-.167q0-.198.009-.395l.079-.079q.026-.263.042-.527l.01-.16.032-.506.022-.342q.027-.42.052-.841" fill="#F7E05F"/><path d="M81.336 87.988h.079v1.901l.747-.074.236-.023.185-.019.19-.019c.148-.009.148-.009.226-.103.266-.026.532-.041.799-.057.222.003.222.003.309-.101q.238-.005.475 0c-.242.21-.404.269-.723.287-.283.013-.283.013-.544.109-.226.025-.452.04-.678.057-.188.002-.188.002-.272.101q-.237.011-.475.01l-.262.001c-.213-.01-.213-.01-.292-.09a9 9 0 0 1-.008-.441l.001-.27.002-.284.001-.285z" fill="#F7DE4F"/><path d="M116.42 37.381h.079l.005.549.003.309c-.008.251-.008.251-.087.33a17 17 0 0 0-.069.53c-.05.407-.116.803-.208 1.203-.095.419-.154.831-.198 1.257-.052.503-.142.97-.317 1.445-.091-.291-.046-.479.034-.772.08-.319.113-.645.154-.971a58 58 0 0 1 .297-2l.041-.25.039-.231.034-.205c.035-.164.035-.164.114-.323q.026-.223.045-.445l.02-.241z" fill="#F7E266"/><path d="M99.868 87.276c-.247.165-.354.188-.641.22l-.245.029-.262.028-.267.031q-.632.072-1.265.136l-.21.021-.39.038c-.284.005-.284.005-.521.13q-.338.028-.678.045l-.194.01q-.237.013-.475.024c.258-.151.47-.184.767-.203.275.004.275.004.5-.114q.195-.024.391-.04c.29-.02.29-.02.559-.119q.284-.045.569-.079l.17-.021a18 18 0 0 1 2.191-.138" fill="#FCF4B3"/><path d="M112.619 105.491h.079q.023.655.043 1.311l.015.446.02.64.008.202q.005.244-.006.489l-.158.158c-.029.161-.029.161-.033.345l-.009.204-.007.213-.009.215q-.011.263-.02.527h-.079c-.02-1.594.017-3.163.158-4.752" fill="#F7DE4A"/><path d="m98.759 87.513-.079.158c-.196.03-.196.03-.436.045-.282-.006-.282-.006-.515.114q-.432.03-.865.048c-.305-.014-.305-.014-.561.11-.659.156-1.306.178-1.98.158a1.5 1.5 0 0 1 .657-.206l.191-.019.197-.018c.422-.002.422-.002.777-.153q.229-.035.459-.06l.285-.032.3-.032.296-.033c.427-.047.843-.087 1.273-.081" fill="#F7DE4E"/><path d="M99.314 123.627c-.658.234-1.355.475-2.059.475v.158l-.648.119-.185.034c-.307.055-.596.099-.909.084l.079-.158c.202-.05.202-.05.455-.089l.251-.04a4.4 4.4 0 0 1 .64-.028v-.158l1.01-.243.29-.071.278-.066.256-.062a.94.94 0 0 1 .542.045" fill="#F6E15E"/><path d="M99.472 106.996v.158l-.272.059c-.321.08-.608.202-.908.34-.384.175-.693.254-1.117.234v.158l-.455.124-.256.07c-.227.042-.343.043-.556-.035.39-.162.68-.27 1.109-.238v-.158l.244-.075.33-.103.173-.054a41 41 0 0 0 1.283-.425c.187-.055.187-.055.424-.055" fill="#FEFDD7"/><path d="M103.194 86.8c-.078 2.402-.078 2.402-.158 3.405h-.079c-.016-2.324-.016-2.324.079-3.247h-.792v-.079c.322-.061.623-.083.95-.079" fill="#F6E270"/><path d="M89.968 88.701v.158l-.205.032-.265.042-.265.042c-.208.02-.208.02-.295.122q-.407.027-.816.041c-.3.014-.576.043-.867.12a2.2 2.2 0 0 1-.693.087l-.183-.004-.134-.006v-.079l.22-.032.285-.042.284-.042c.233-.029.233-.029.399-.122a13 13 0 0 1 .445-.035 4.5 4.5 0 0 0 .841-.124 4.7 4.7 0 0 1 1.247-.158" fill="#F8E15B"/><path d="m87.86 88.929.299.004.226.006v.079l-.188.012-.252.018-.248.017c-.266.026-.266.026-.53.11a5.5 5.5 0 0 1-.945.166c-.396.031-.396.031-.767.153a8 8 0 0 1-.445.005l-.241-.002-.186-.004v-.079c.511-.207 1.036-.215 1.58-.254.586-.046 1.109-.242 1.697-.231" fill="#FBF3B1"/><path d="M54.013 109.293c1.066.13 2.115.347 3.168.554v.079a4.6 4.6 0 0 1-1.332-.118c-.267-.063-.534-.09-.807-.12v-.158h-.95z" fill="#FBF4B9"/><path d="M94.245 88.147c-.198.198-.286.185-.559.203-.259-.002-.259-.002-.47.114a7 7 0 0 1-.378.04l-.237.02-.25.02-.482.04-.238.019q-.514.045-1.027.099c.198-.198.293-.191.568-.22l.252-.029.269-.028.542-.061.265-.03c.381-.044.76-.101 1.14-.16a4 4 0 0 1 .608-.026" fill="#F6DF59"/><path d="M81.494 87.988h.079v1.822l.238-.079c.224-.024.449-.04.673-.057.197-.011.197-.011.356-.101a15 15 0 0 1 .604-.005l.169.001.415.004v.079l-.222.015-.287.02-.287.019c-.224-.001-.224-.001-.312.104q-.168.018-.337.025l-.185.009-.236.01-.747.035z" fill="#FFFEDE"/><path d="M112.936 96.542h.079a44 44 0 0 1-.079 3.168h-.079l-.043-1.239-.015-.422-.02-.606-.008-.191c-.008-.309-.012-.448.164-.711" fill="#FEFEDF"/><path d="M107.154 121.727v.158c-.315.143-.609.192-.95.238l-.079.079c-.554.111-1.099.181-1.663.158v-.079c.527-.115 1.053-.23 1.584-.322.375-.066.731-.233 1.109-.233" fill="#F7E15E"/><path d="M113.886 81.732h.079l.005.861.002.248.001.237.001.219c-.009.177-.009.177-.088.336q-.018.207-.025.414l-.01.247-.01.259-.01.261-.024.64h-.079c-.019-1.252.01-2.478.158-3.722" fill="#F8DD3E"/><path d="M94.324 88.068v.079c-.977.161-1.94.28-2.93.317l.079-.158c.21-.03.21-.03.47-.045.331-.011.331-.011.638-.114.58-.067 1.159-.089 1.742-.079" fill="#FDFAC7"/><path d="M112.302 109.134h.079a37 37 0 0 1-.079 2.851h-.079l-.045-.985-.013-.28c-.022-.513-.023-.999.058-1.507z" fill="#FEFEE1"/><path d="M71.911 37.064c.185.277.173.382.163.708-.013.323-.013.323.036.64.051.21.033.392.014.607l-.019.234-.035.187-.158.079z" fill="#EBD15B"/><path d="M39.044 119.113c.824.016 1.527.207 2.297.475v.158c-.777-.14-1.535-.349-2.297-.554z" fill="#FCF5BF"/><path d="M49.974 121.964c.786.032 1.437.115 2.138.475-.28.097-.463.06-.746-.017l-.246-.066-.255-.071-.259-.07q-.316-.085-.632-.173z" fill="#FCF5C3"/><path d="m45.143 120.697 1.109.079v.158h.554v.158l.158.079c-.626-.051-1.219-.227-1.822-.396z" fill="#FCF7C6"/><path d="M82.445 112.856c-.333.248-.44.317-.871.317v1.426h-.079v-1.505c.772-.327.772-.327.95-.238" fill="#FFFFDE"/><path d="m102.482 122.914-.475.079v.158c-1.08.182-1.08.182-1.584.158.258-.148.489-.196.782-.238.27-.041.503-.085.762-.173.212-.069.309-.064.515.015" fill="#F6E15F"/><path d="m39.361 96.938.768.095q.528.066 1.054.142v.079c-1.46.022-1.46.022-1.822-.158z" fill="#FBF6C0"/><path d="M87.038 111.272c-.506.361-.881.5-1.505.475.216-.216.468-.278.752-.371l.166-.057c.409-.136.409-.136.587-.047" fill="#FDF8C3"/><path d="M115.787 40.787h.079c-.062 1.338-.062 1.338-.238 1.901h-.079v-.95h.158l-.003-.188-.002-.243-.003-.242c.008-.199.008-.199.088-.278" fill="#FEFCD5"/><path d="m95.671 108.184.158.079c-.176.176-.285.21-.52.282-.236.061-.236.061-.431.193a9 9 0 0 1-.44.045l-.243.02-.188.015a1.7 1.7 0 0 1 .553-.258l.181-.051.188-.052c.403-.082.403-.082.742-.272" fill="#FDF8BD"/><path d="M47.518 121.331c.62-.05 1.157.133 1.742.317v.158a39 39 0 0 1-1.742-.396z" fill="#FBF4BC"/><path d="m97.65 107.629-.475.158v.158l-.455.124-.256.07c-.227.042-.343.043-.556-.035.39-.162.68-.27 1.109-.238v-.158c.455-.168.455-.168.634-.079" fill="#FDF7BE"/><path d="M92.582 109.372c-.079.158-.079.158-.238.238-.835.278-.835.278-1.267.158l.663-.243.191-.071.183-.066.168-.062c.141-.033.141-.033.3.046" fill="#FDF6BF"/><path d="M64.308 125.686h.792v.158l.634.079v.158a11 11 0 0 1-1.426-.317z" fill="#FCF5C3"/><path d="M71.911 39.599c.238.238.238.238.249.478l-.026.275-.023.275c-.041.239-.041.239-.2.476z" fill="#EBD058"/><path d="M66.447 126.241q.265.011.53.025l.298.014c.286.041.444.112.677.278-.324.133-.611.019-.931-.074l-.167-.047-.407-.117z" fill="#FCF6C3"/><path d="M94.245 108.738a2.7 2.7 0 0 1-.881.376l-.248.063c-.217.036-.217.036-.455-.043l.475-.079v-.158l.376-.124.212-.07a.8.8 0 0 1 .521.035" fill="#F7E05C"/><path d="M54.013 109.293q.267.03.535.064l.301.036c.266.056.393.114.59.295h-.396v-.158h-.95z" fill="#FCF7CA"/><path d="M114.836 46.727c.17.511.004 1.085-.158 1.584h-.079v-.95h.158l-.005-.272c.005-.283.005-.283.084-.362" fill="#FEFBD0"/><path d="M88.305 126.162c-.273.182-.471.196-.792.238l-.079.079q-.18.009-.361.005l-.198-.002-.154-.004c.269-.151.537-.222.837-.292l.272-.065c.238-.039.238-.039.475.041" fill="#F8E36B"/><path d="M54.567 123.152h.634v.158h.713v.158l.158.079c-.521-.049-1.003-.17-1.505-.317z" fill="#FCF6C3"/><path d="m85.533 111.748-.95.317-.254.095c-.221.064-.221.064-.459-.015 1.159-.564 1.159-.564 1.663-.396" fill="#F7DF54"/><path d="m51.558 108.817.758.116q.374.059.747.122v.079a10 10 0 0 1-1.426-.079z" fill="#FBF6C2"/><path d="m43.559 120.301 1.426.158v.158l.158.079c-.543-.052-1.057-.177-1.584-.317z" fill="#FDF7C2"/><path d="m83.638 112.218.233.005c-.478.318-.86.439-1.426.475.079-.158.079-.158.257-.223l.218-.059c.264-.072.455-.193.718-.198" fill="#F6DE4F"/><path d="m42.054 119.905 1.109.079v.158l.317.158a23 23 0 0 1-1.426-.317z" fill="#FCF5BD"/><path d="m96.151 87.664.198.003.198.002.153.003v.079l-.272.035c-.267.014-.267.014-.361.124q-.338.028-.678.045l-.194.01q-.237.013-.475.024c.258-.151.47-.184.767-.203.254-.016.437-.111.664-.122" fill="#FDFBCD"/><path d="M71.911 87.434c.273.409.243.711.158 1.188h-.158zm0-44.984c.164.247.187.352.213.639l.021.211c.004.179.004.179-.075.338h-.158z" fill="#EBD158"/><path d="M89.176 125.845v.079c-.461.192-.933.207-1.426.238v-.158c.481-.097.934-.18 1.426-.158" fill="#FDFCD7"/><path d="m95.512 124.498-.153.074c-.158.071-.158.071-.243.163a8 8 0 0 1-.44.005l-.243-.002-.188-.002c.407-.271.793-.246 1.267-.238" fill="#F8E263"/><path d="M69.377 126.954h.554v.158l.634.079v.158l-.549-.109-.309-.061-.251-.067z" fill="#FDF7C4"/><path d="M52.112 122.518c.491-.03.827.013 1.267.238-.298.109-.511.047-.812-.035l-.259-.069-.196-.054z" fill="#FCF7C6"/><path d="M58.131 110.084c.745.076.745.076 1.109.158v.079h-1.109z" fill="#FBF6C9"/><path d="M102.006 106.204c-.273.182-.486.222-.807.287l-.305.063-.234.046c.119-.239.291-.248.54-.332l.254-.088c.229-.054.336-.059.553.023" fill="#FDF9C4"/><path d="m109.213 121.331-.396.079v.158h-.95v-.079l.287-.03c.222-.027.394-.066.609-.139.213-.069.213-.069.45.011" fill="#F7E15E"/><path d="m84.35 89.488.233.005c-.211.212-.32.238-.625.261q-.173-.002-.345-.008l-.179-.003-.435-.012v-.079l.222-.015.287-.02.287-.019c.27-.029.28-.104.555-.109" fill="#F8E467"/><path d="m92.943 124.889.272.005a2.5 2.5 0 0 1-.673.252l-.181.043a1.04 1.04 0 0 1-.493-.058c.144-.144.374-.117.569-.136.251-.039.19-.101.505-.106" fill="#FEFDD4"/><path d="M89.335 110.48c-.079.158-.079.158-.252.247-.244.076-.444.081-.698.069.079-.158.079-.158.237-.229l.193-.063.193-.065c.168-.038.168-.038.327.041" fill="#FEF8C2"/><path d="m83.444 89.567.169.001.415.004v.079l-.222.015-.287.02-.287.019c-.224-.001-.224-.001-.312.104q-.237.004-.475 0c.354-.236.584-.248 1-.243" fill="#FCF6C0"/><path d="M61.853 125.053h.792v.158l.317.079c-.288.096-.401.05-.688-.035l-.239-.069-.182-.054z" fill="#FCF6C3"/><path d="M59.715 124.498c.449-.023.712 0 1.109.238-.288.096-.401.05-.688-.035l-.239-.069-.182-.054z" fill="#FBF4BC"/><path d="m56.072 123.548 1.03.079.079.238-.376-.069-.212-.039c-.204-.051-.204-.051-.521-.209" fill="#FCF6BF"/><path d="M37.777 118.796q.25.01.5.025l.281.014c.256.042.335.074.486.278l-.169-.034a42 42 0 0 0-.687-.129l-.234-.042-.177-.033z" fill="#FDF6C8"/><path d="M71.911 102.006h.158l.045.346.025.195c.01.172.01.172-.069.331h-.158z" fill="#EAD055"/><path d="m37.619 96.621.634.079-.475.238c-.037.15-.037.15-.049.322l-.031.311h-.079z" fill="#FEF8B5"/><path d="M111.035 120.776v.079c-.418.165-.823.204-1.267.238.34-.34.811-.335 1.267-.317" fill="#FEFBCF"/><path d="M71.911 74.762h.158c.109.302.054.56 0 .871h-.158z" fill="#EBD157"/><path d="M32.313 12.513h.554l-.158.317-.396-.079z" fill="#C9AF31"/><path d="M88.068 110.639h.396c-.211.274-.463.327-.792.396-.193-.03-.193-.03-.317-.079.267-.119.412-.158.713-.158z" fill="#F5DF58"/><path d="M88.147 110.956c-.366.176-.615.268-1.03.238.33-.22.639-.388 1.03-.238" fill="#FDF9C5"/><path d="M82.445 112.856c-.419.322-.419.322-.703.297l-.169-.059c.577-.385.577-.385.871-.238" fill="#FDF6BC"/><path d="m99.551 106.837-.079.158c-.181.05-.181.05-.401.089l-.221.04-.17.029v-.158c.303-.113.547-.177.871-.158" fill="#F7DD50"/><path d="M71.911 98.997c.129.114.129.114.238.317a4 4 0 0 1-.158.713 2.2 2.2 0 0 1-.084-.693l.002-.192z" fill="#EAD15B"/><path d="M102.482 122.756h.871v.079l-.292.035a8 8 0 0 0-.738.124l.158-.079z" fill="#F9DD40"/><path d="M71.911 117.212c.182.273.201.47.238.792l-.238.079z" fill="#E9CF55"/><path d="M95.908 108.105c-.271.249-.51.282-.871.317v-.158c.303-.113.547-.177.871-.158" fill="#F5DE4C"/></svg>