<svg xmlns="http://www.w3.org/2000/svg" width="150" height="150" viewBox="0 0 150 150"><path d="M89.282-.22c1.151.265 1.24.475 1.85 1.447 3.224 5.977 4.545 12.675 2.618 19.281-2.433 7.048-8.103 12.764-13.886 17.276a79 79 0 0 0-2.667 2.206 161 161 0 0 1-3.516 2.912c-5.488 4.27-5.488 4.27-8.118 10.414-.369 8.216 3.373 17.242 6.86 24.488 1.03 2.181 1.03 2.181.819 3.349-.586.586-.586.586-1.506.602-1.489-.266-2.37-1.287-3.401-2.323l-.621-.605a187 187 0 0 1-1.23-1.214 86 86 0 0 0-1.473-1.425c-5.8-5.583-10.871-13.139-11.457-21.358-.127-7.495 4.207-13.022 9.142-18.207l.516-.563c3.34-3.533 7.699-6.219 11.631-9.036 6.706-4.818 11.263-9.138 12.916-17.589.135-.957.156-1.852.141-2.818l-.011-1.056-.034-2.195-.01-1.052-.015-.961c.088-1.1.412-1.289 1.452-1.573" fill="#DB380D"/><path d="M43.652 125.098c.11.879.11.879 0 1.758-.837.558-1.255.711-2.21.902l-.801.167-.853.176c-3.014.649-5.965 1.472-8.734 2.856 11.984 5.417 29.047 4.554 41.895 4.395l1-.011c13.879-.2 30.904-.604 43.848-6.213.562-.222.562-.222 1.148-.222l-.165-1.117c-.13-.883-.128-1.228.165-2.106.769-.238.769-.238 1.758-.293 1.339.866 2.096 1.692 2.637 3.223.205 1.264.119 2.106-.458 3.259-7.681 9.059-27.098 9.39-38.059 10.302-6.263.485-12.503.594-18.782.578q-1.936-.004-3.872.002c-5.076.011-10.137-.044-15.204-.35l-.607-.037a150 150 0 0 1-11.495-1.156l-.73-.102c-4.875-.706-10.908-1.808-14.15-5.807-.917-1.39-.867-3.04-.647-4.638.8-1.872 2.702-2.664 4.479-3.415 4.383-1.587 15.857-4.805 19.837-2.152m8.9-44.256q1.098-.025 2.196-.037l.693-.012c.563-.001 1.126.03 1.688.067.586.586.586.586.696 1.3-.11.751-.11.751-.613 1.212-.712.445-1.287.637-2.103.827l-.843.204-.891.211c-4.603.966-4.603.966-8.551 3.278q1.254.214 2.508.421l.693.12c16.895 2.76 37.556 1.748 54.16-2.127.933-.171 1.752-.245 2.697-.172.586.586.586.586.609 1.557-.374 1.279-.697 1.53-1.799 2.182l-.641.344-.671.374c-11.469 6.191-25.153 7.329-37.927 7.555l-.736.015a106 106 0 0 1-4.244-.015l-.795-.016c-20.262-.459-20.262-.459-26.158-5.844-.979-1.08-1.413-1.811-1.557-3.277.115-1.4.395-2.349 1.264-3.461 5.123-4.339 13.968-4.54 20.326-4.706" fill="#72A1F9"/><path d="M103.711 31.055c.293.293.293.293.428 1.083-.19 1.364-.972 1.885-2.002 2.689l-.57.466a134 134 0 0 1-1.665 1.328l-.78.625q-.693.554-1.387 1.105c-6.678 5.254-6.678 5.254-11.602 12.04l-.313.625c-.821 1.886-.852 3.734-.181 5.674.74 1.703 1.795 3.215 2.815 4.759 1.014 1.536 1.952 3.057 2.66 4.763l.28.663c1.259 3.478.887 7.371-.647 10.675-1.927 3.762-5.039 7.592-8.716 9.755-.824.146-.824.146-1.465 0-.586-.879-.586-.879-.522-1.683.25-1.043.585-2.018.961-3.023.883-2.363 1.781-5.236.736-7.694a23 23 0 0 0-1.468-1.956q-.727-.922-1.446-1.849l-.383-.493c-3.195-4.165-4.769-8.574-5.202-13.771l-.074-.793c-.169-3.377 1.185-6.324 3.297-8.875l.674-.829c5.134-5.952 18.492-15.867 26.572-15.284" fill="#DA380D"/><path d="M55.664 114.258c.183.824.183.824.293 1.758l-.586.879 3.625.568 1.027.162c3.66.569 7.247.834 10.949.863l.725.006c4.604.021 9.013-.564 13.535-1.39a166 166 0 0 1 2.952-.502l.765-.13c2.178-.202 3.879 1.15 5.644 2.273q.5.308 1 .613c2.812 1.741 2.812 1.741 3.431 2.518.026.878.026.878-.293 1.758-.804.505-.804.505-1.886.897l-.593.217c-13.705 4.885-32.917 6.648-46.447.35-1.594-.87-2.987-2.164-3.809-3.809-.15-1.509-.182-2.814.439-4.211 2.384-2.503 5.837-3.551 9.229-2.82" fill="#72A0F9"/><path d="M128.906 133.594c.617.925.683 1.253.485 2.32-1.267 4.02-4.832 6.641-8.395 8.52-7.989 3.819-17.631 4.635-26.367 5.273l-.921.076c-4.201.303-8.412.271-12.622.271q-1.336 0-2.671.006c-5.754.026-11.449-.114-17.185-.646l-.75-.069c-1.407-.134-2.81-.291-4.213-.461l-.613-.074a197 197 0 0 1-9.128-1.318l-1.059-.175c-1.7-.299-3.198-.645-4.746-1.418-.055-.842-.055-.842 0-1.758 1.083-.722 1.535-.635 2.822-.581l1.267.045.693.028c7.983.314 15.974.27 23.962.27q2.122 0 4.244.006c28.015.779 28.015.779 53.191-9.935.715-.502 1.151-.514 2.005-.379" fill="#72A1F8"/><path d="M52.148 98.73c.128.788.128.788 0 1.758-.618.6-1.306 1.036-2.051 1.465 1.088.725 2.123.848 3.388 1.044l.676.111a53 53 0 0 0 7.946.672l.827.009c9.114.076 17.851-.562 26.772-2.442 4.436-.935 4.436-.935 6.076.077q.601.422 1.19.858l.598.421c1.33.95 2.569 1.98 3.797 3.058-.22 1.392-.22 1.392-.879 2.051-.857.221-1.703.41-2.57.582l-.797.163q-1.3.263-2.602.518l-.899.178c-36.883 7.28-36.883 7.28-49.876-1.295-1.002-.714-1.589-1.387-2.142-2.49-.158-1.472-.042-2.349.879-3.516 2.21-2.107 6.725-4.786 9.668-3.223" fill="#72A1F9"/><path d="M117.856 78.763c2.979-.113 5.735.578 8.121 2.389l.722.513c.859.763 1.402 1.588 1.951 2.582l.307.553c1.743 3.246 2.3 6.835 1.505 10.46-1.889 5.634-6.656 8.822-11.699 11.418-3.653 1.817-8.86 4.314-13.001 4.064-.549-.348-.549-.348-.879-.879.069-.87.154-1.325.777-1.952l.629-.43.699-.492.752-.514c2.291-1.626 4.393-3.323 6.398-5.29a98 98 0 0 1 1.225-1.172c2.345-2.257 5.136-5.19 5.341-8.608-.183-1.659-.725-3.031-2.051-4.102-3.031-1.934-6.411-2.642-9.964-2.839-.584-.089-.584-.089-1.462-.675-.055-.916-.055-.916 0-1.758 3.376-1.855 6.783-3.005 10.629-3.268" fill="#72A1F8"/></svg>