<?xml version="1.0" encoding="UTF-8"?>
<svg version="1.1" xmlns="http://www.w3.org/2000/svg" width="512" height="512">
<path d="M0 0 C168.96 0 337.92 0 512 0 C512 168.96 512 337.92 512 512 C343.04 512 174.08 512 0 512 C0 343.04 0 174.08 0 0 Z " fill="#272727" transform="translate(0,0)"/>
<path d="M0 0 C1.52167786 -0.00945648 1.52167786 -0.00945648 3.07409668 -0.019104 C4.72254578 -0.01303131 4.72254578 -0.01303131 6.40429688 -0.00683594 C7.52872192 -0.00874939 8.65314697 -0.01066284 9.81164551 -0.01263428 C12.1923037 -0.01399711 14.57296931 -0.01029388 16.95361328 -0.00195312 C20.60791641 0.00874477 24.26172788 -0.00184538 27.91601562 -0.01464844 C30.22461047 -0.01332686 32.533205 -0.01076451 34.84179688 -0.00683594 C35.94076294 -0.0108844 37.039729 -0.01493286 38.17199707 -0.019104 C39.18644897 -0.01279968 40.20090088 -0.00649536 41.24609375 0 C42.58939758 0.00238678 42.58939758 0.00238678 43.95983887 0.00482178 C46.12304688 0.25878906 46.12304688 0.25878906 48.12304688 2.25878906 C48.37193584 4.17315006 48.37193584 4.17315006 48.37028503 6.55470276 C48.37447952 7.45632141 48.37867401 8.35794006 48.38299561 9.28688049 C48.3773761 10.27864792 48.37175659 11.27041534 48.3659668 12.29223633 C48.36786514 13.33455414 48.36976349 14.37687195 48.37171936 15.45077515 C48.37543543 18.9089908 48.36471175 22.3669982 48.35351562 25.82519531 C48.35232427 28.21890742 48.35187057 30.61262 48.35212708 33.0063324 C48.35056081 38.0276074 48.34225971 43.04881125 48.32885742 48.07006836 C48.31185825 54.52242479 48.30804325 60.974703 48.3088026 67.4270792 C48.30853134 72.37083184 48.30305728 77.31456722 48.29580116 82.25831413 C48.29260806 84.63828335 48.2906456 87.01825454 48.28990746 89.39822578 C48.28775119 92.71709691 48.27902274 96.03588326 48.26831055 99.35473633 C48.26876373 100.34852798 48.26921692 101.34231964 48.26968384 102.3662262 C48.26541885 103.26502502 48.26115387 104.16382385 48.25675964 105.08985901 C48.2550838 105.87539437 48.25340796 106.66092974 48.25168133 107.4702692 C48.12304688 109.25878906 48.12304688 109.25878906 47.12304688 110.25878906 C45.70858695 110.35645302 44.28928741 110.38510583 42.87145996 110.38577271 C41.95438766 110.38859253 41.03731537 110.39141235 40.092453 110.39431763 C39.07838882 110.3922934 38.06432465 110.39026917 37.01953125 110.38818359 C35.95785233 110.38993591 34.8961734 110.39168823 33.80232239 110.39349365 C30.27379752 110.39791455 26.7453223 110.39497334 23.21679688 110.39160156 C20.77681468 110.39227453 18.33683255 110.3932445 15.89685059 110.39450073 C10.77546553 110.39597803 5.65409788 110.39382213 0.53271484 110.38916016 C-6.04858027 110.38346286 -12.62983462 110.38674169 -19.21112823 110.39273262 C-24.25181386 110.39633738 -29.29248974 110.39520004 -34.33317566 110.39260483 C-36.76059473 110.39193532 -39.18801468 110.3927648 -41.61543274 110.39508438 C-45.00145835 110.39760951 -48.38741691 110.39377228 -51.7734375 110.38818359 C-52.78750168 110.39020782 -53.80156586 110.39223206 -54.84635925 110.39431763 C-56.2219677 110.39008789 -56.2219677 110.39008789 -57.62536621 110.38577271 C-58.42694908 110.38539568 -59.22853195 110.38501865 -60.05440521 110.3846302 C-61.87695312 110.25878906 -61.87695312 110.25878906 -62.87695312 109.25878906 C-62.97665196 107.8846913 -63.00769887 106.50552957 -63.01066589 105.12782288 C-63.01493088 104.2374382 -63.01919586 103.34705353 -63.02359009 102.4296875 C-63.0231369 101.44524658 -63.02268372 100.46080566 -63.0222168 99.4465332 C-63.02557541 98.41572128 -63.02893402 97.38490936 -63.03239441 96.32286072 C-63.04193643 92.89654351 -63.04384913 89.470275 -63.04492188 86.04394531 C-63.04813213 83.67361938 -63.05149602 81.30329365 -63.05500793 78.93296814 C-63.06100731 73.9570164 -63.062847 68.98108205 -63.06225586 64.00512695 C-63.06215418 57.61446923 -63.07580916 51.22392246 -63.09302807 44.83329105 C-63.10412113 39.93582136 -63.1061759 35.03837872 -63.10564613 30.14089775 C-63.10683022 27.78407852 -63.11127579 25.42725868 -63.1189785 23.07045174 C-63.12872441 19.78036753 -63.1259218 16.49052719 -63.11987305 13.20043945 C-63.12549255 12.21802277 -63.13111206 11.23560608 -63.13690186 10.22341919 C-63.13270737 9.33021469 -63.12851288 8.43701019 -63.12419128 7.51673889 C-63.12473605 6.73820085 -63.12528082 5.9596628 -63.12584209 5.15753269 C-62.87695312 3.25878906 -62.87695312 3.25878906 -60.87695312 1.25878906 C-55.75217204 1.34115162 -52.598342 4.55993042 -48.87695312 7.69628906 C-47.53538289 8.7989203 -46.19291986 9.9004661 -44.84960938 11.00097656 C-44.18074707 11.55237305 -43.51188477 12.10376953 -42.82275391 12.671875 C-40.03161929 14.94820812 -37.17993477 17.139797 -34.31445312 19.32128906 C-29.56152744 22.95831045 -24.83388569 26.62491837 -20.12695312 30.32128906 C-19.51779053 30.79896729 -18.90862793 31.27664551 -18.28100586 31.76879883 C-14.00125221 35.13448998 -14.00125221 35.13448998 -12.87695312 36.25878906 C-11.21078197 36.29942738 -9.54307218 36.30151006 -7.87695312 36.25878906 C-7.85713379 35.23930176 -7.83731445 34.21981445 -7.81689453 33.16943359 C-7.74092505 29.39346258 -7.65219503 25.61788133 -7.55957031 21.84228516 C-7.5212446 20.20694666 -7.48639806 18.57152283 -7.45507812 16.93603516 C-7.40950471 14.58757996 -7.35149946 12.23971412 -7.29101562 9.89160156 C-7.27946442 9.15821564 -7.26791321 8.42482971 -7.25601196 7.66921997 C-7.07920779 1.61352011 -6.06626485 0.01077853 0 0 Z " fill="#5FF19B" transform="translate(288.876953125,199.7412109375)"/>
<path d="M0 0 C0.84968857 -0.00426498 1.69937714 -0.00852997 2.57481384 -0.01292419 C3.50890579 -0.01247101 4.44299774 -0.01201782 5.40539551 -0.0115509 C6.3875856 -0.01490952 7.3697757 -0.01826813 8.38172913 -0.02172852 C11.64028169 -0.03125612 14.89878299 -0.03318243 18.15734863 -0.03425598 C20.4141441 -0.03746691 22.67093935 -0.04083085 24.92773438 -0.04434204 C29.66231774 -0.05033757 34.39688283 -0.05218147 39.13146973 -0.05158997 C45.21158318 -0.05148823 51.29158015 -0.06515052 57.37166595 -0.08236217 C62.03322899 -0.09345494 66.69476361 -0.09551003 71.3563385 -0.09498024 C73.59872337 -0.09616409 75.84110889 -0.10060836 78.08348083 -0.10831261 C81.21300535 -0.11805921 84.34227353 -0.11525581 87.47180176 -0.10920715 C88.40589371 -0.11482666 89.33998566 -0.12044617 90.30238342 -0.12623596 C91.15207199 -0.12204147 92.00176056 -0.11784698 92.87719727 -0.11352539 C93.98774853 -0.11434254 93.98774853 -0.11434254 95.12073517 -0.1151762 C96.93859863 0.13371277 96.93859863 0.13371277 98.93859863 2.13371277 C98.57763037 5.33683986 97.24288049 7.39797292 95.34094238 9.94230652 C94.52097778 11.04783875 94.52097778 11.04783875 93.68444824 12.17570496 C93.08769287 12.96622253 92.4909375 13.75674011 91.87609863 14.57121277 C91.26065186 15.39653503 90.64520508 16.2218573 90.0111084 17.07218933 C84.51261788 24.4255674 78.94652248 31.72898597 73.35827637 39.014328 C72.10953191 40.64376597 70.86504913 42.27648212 69.62561035 43.91300964 C68.55233501 45.32581898 67.4666734 46.72936646 66.36486816 48.12004089 C63.65603277 51.64561535 62.421228 53.69369337 62.93859863 58.13371277 C64.02772596 60.19889283 64.02772596 60.19889283 65.64953613 62.06730652 C66.22977539 62.79127625 66.81001465 63.51524597 67.40783691 64.26115417 C68.03673828 65.02347351 68.66563965 65.78579285 69.31359863 66.57121277 C70.61266446 68.19055143 71.90952459 69.81166189 73.20422363 71.43449402 C73.84424316 72.23322937 74.4842627 73.03196472 75.14367676 73.85490417 C77.97490626 77.44939495 80.60657213 81.17107416 83.2244873 84.92204285 C85.49063148 88.15208433 87.82693191 91.30414589 90.25500488 94.41496277 C90.81494141 95.1379657 91.37487793 95.86096863 91.95178223 96.60588074 C93.04706092 98.01418747 94.15251176 99.41465637 95.26916504 100.80607605 C95.76207031 101.44271179 96.25497559 102.07934753 96.76281738 102.73527527 C97.20714111 103.29553406 97.65146484 103.85579285 98.10925293 104.43302917 C98.93859863 106.13371277 98.93859863 106.13371277 98.63708496 108.28361511 C97.93859863 110.13371277 97.93859863 110.13371277 96.93859863 111.13371277 C93.81364129 111.23439881 90.71074196 111.26985428 87.58532715 111.2631073 C86.11226105 111.26573578 86.11226105 111.26573578 84.60943604 111.26841736 C81.34544129 111.27283824 78.08150023 111.26989683 74.81750488 111.26652527 C72.55928029 111.26719829 70.30105577 111.26816831 68.04283142 111.26942444 C63.30226962 111.27090178 58.56172662 111.26874591 53.82116699 111.26408386 C47.73321058 111.25838981 41.64529827 111.26166331 35.55734348 111.26765633 C30.89149135 111.27126374 26.22564973 111.27012246 21.55979729 111.26752853 C19.31462537 111.2668596 17.06945251 111.26768653 14.82428169 111.27000809 C11.68991682 111.2725372 8.55562412 111.26869016 5.42126465 111.2631073 C4.01777016 111.26614365 4.01777016 111.26614365 2.58592224 111.26924133 C1.73478851 111.26642151 0.88365479 111.26360168 0.00672913 111.26069641 C-0.7349372 111.26031939 -1.47660353 111.25994236 -2.24074459 111.25955391 C-4.06140137 111.13371277 -4.06140137 111.13371277 -6.06140137 110.13371277 C-6.06140137 74.16371277 -6.06140137 38.19371277 -6.06140137 1.13371277 C-3.78358465 -0.00519559 -2.52997739 0.00572668 0 0 Z " fill="#5FF19B" transform="translate(357.0614013671875,199.8662872314453)"/>
<path d="M0 0 C0.89553589 0.00142502 1.79107178 0.00285004 2.71374512 0.00431824 C3.72819702 0.00124161 4.74264893 -0.00183502 5.7878418 -0.00500488 C6.88680786 0.00218063 7.98577393 0.00936615 9.11804199 0.01676941 C10.80467957 0.01745674 10.80467957 0.01745674 12.52539062 0.01815796 C14.90605726 0.02118304 17.28672188 0.02907692 19.6673584 0.04142761 C23.32156346 0.05966217 26.97551499 0.06193749 30.62976074 0.06169128 C32.93835669 0.06660715 35.24695092 0.07243577 37.55554199 0.07926941 C38.65450806 0.08038223 39.75347412 0.08149506 40.88574219 0.0826416 C42.40742004 0.09221138 42.40742004 0.09221138 43.95983887 0.10197449 C44.85537476 0.10578629 45.75091064 0.10959808 46.67358398 0.11352539 C48.83679199 0.24723816 48.83679199 0.24723816 50.83679199 1.24723816 C51.16679199 19.06723816 51.49679199 36.88723816 51.83679199 55.24723816 C60.96166635 55.16811075 60.96166635 55.16811075 70.08630371 55.06706238 C71.21826172 55.06206726 72.35021973 55.05707214 73.51647949 55.05192566 C74.67905273 55.04145203 75.84162598 55.03097839 77.03942871 55.02018738 C79.83679199 55.24723816 79.83679199 55.24723816 81.83679199 57.24723816 C82.08403015 59.45513916 82.08403015 59.45513916 82.07971191 62.2318573 C82.08432686 63.78840782 82.08432686 63.78840782 82.08903503 65.37640381 C82.07825676 67.06236916 82.07825676 67.06236916 82.06726074 68.78239441 C82.06680252 69.93138718 82.0663443 71.08037994 82.06587219 72.26419067 C82.06284725 74.6961317 82.05495378 77.12807075 82.04260254 79.5599823 C82.02435126 83.29760036 82.02209276 87.03497083 82.02233887 90.77262878 C82.01742371 93.13005282 82.0115954 95.48747516 82.00476074 97.84489441 C82.00364792 98.97089554 82.0025351 100.09689667 82.00138855 101.25701904 C81.9950087 102.29156723 81.98862885 103.32611542 81.98205566 104.39201355 C81.97824387 105.30753494 81.97443207 106.22305634 81.97050476 107.1663208 C81.83679199 109.24723816 81.83679199 109.24723816 80.83679199 110.24723816 C78.22528911 110.34765273 75.64020835 110.38340873 73.02819824 110.37663269 C71.80143875 110.37926117 71.80143875 110.37926117 70.54989624 110.38194275 C67.83300689 110.38636201 65.11618206 110.38342302 62.39929199 110.38005066 C60.51981595 110.38072368 58.64034 110.38169368 56.76086426 110.38294983 C52.81643853 110.3844269 48.87203541 110.38227194 44.9276123 110.37760925 C39.85966696 110.37191196 34.79177457 110.37519091 29.72383118 110.38118172 C25.84122312 110.38478708 21.95862771 110.38364886 18.07601929 110.38105392 C16.20681756 110.38038459 14.33761471 110.38121332 12.46841431 110.38353348 C9.86070695 110.38605959 7.25308658 110.38222 4.64538574 110.37663269 C3.86509003 110.37865692 3.08479431 110.38068115 2.28085327 110.38276672 C-3.04894547 110.36150069 -3.04894547 110.36150069 -4.16320801 109.24723816 C-4.26294811 107.86046236 -4.29395462 106.46866288 -4.29692078 105.07830811 C-4.30118576 104.17950928 -4.30545074 103.28071045 -4.30984497 102.35467529 C-4.30939178 101.36088364 -4.3089386 100.36709198 -4.30847168 99.34318542 C-4.31183029 98.30261993 -4.3151889 97.26205444 -4.31864929 96.18995667 C-4.32819142 92.73117396 -4.33010402 89.27243948 -4.33117676 85.81364441 C-4.33438701 83.42089823 -4.3377509 81.02815225 -4.34126282 78.63540649 C-4.34726222 73.61237635 -4.34910188 68.58936343 -4.34851074 63.56632996 C-4.34840906 57.1151385 -4.36206408 50.66405696 -4.37928295 44.21289158 C-4.39037588 39.2690988 -4.39243079 34.32533281 -4.39190102 29.38152885 C-4.39308512 27.00238097 -4.39753079 24.62323247 -4.40523338 22.24409676 C-4.41497904 18.92288028 -4.41217678 15.6019054 -4.40612793 12.28068542 C-4.41174744 11.288918 -4.41736694 10.29715057 -4.42315674 9.27532959 C-4.41896225 8.37371094 -4.41476776 7.47209229 -4.41044617 6.54315186 C-4.41099093 5.75723947 -4.4115357 4.97132708 -4.41209698 4.16159916 C-4.02933825 1.217562 -2.89512109 0.33089024 0 0 Z " fill="#5FF19B" transform="translate(60.1632080078125,199.7527618408203)"/>
<path d="M0 0 C1.07451416 -0.00630432 2.14902832 -0.01260864 3.25610352 -0.019104 C5.00298462 -0.01303131 5.00298462 -0.01303131 6.78515625 -0.00683594 C7.97616943 -0.00874939 9.16718262 -0.01066284 10.39428711 -0.01263428 C12.91618053 -0.01399724 15.43808094 -0.0102931 17.95996094 -0.00195312 C21.83153974 0.00874453 25.70265447 -0.00184499 29.57421875 -0.01464844 C32.01953228 -0.01332686 34.46484552 -0.01076451 36.91015625 -0.00683594 C38.07474365 -0.0108844 39.23933105 -0.01493286 40.43920898 -0.019104 C42.05098022 -0.00964752 42.05098022 -0.00964752 43.6953125 0 C45.11855835 0.00238678 45.11855835 0.00238678 46.57055664 0.00482178 C48.84765625 0.25878906 48.84765625 0.25878906 50.84765625 2.25878906 C51.09654522 4.17315006 51.09654522 4.17315006 51.09489441 6.55470276 C51.0990889 7.45632141 51.10328339 8.35794006 51.10760498 9.28688049 C51.10198547 10.27864792 51.09636597 11.27041534 51.09057617 12.29223633 C51.09247452 13.33455414 51.09437286 14.37687195 51.09632874 15.45077515 C51.1000448 18.9089908 51.08932112 22.3669982 51.078125 25.82519531 C51.07693365 28.21890742 51.07647994 30.61262 51.07673645 33.0063324 C51.07517019 38.0276074 51.06686908 43.04881125 51.0534668 48.07006836 C51.03646762 54.52242479 51.03265263 60.974703 51.03341198 67.4270792 C51.03314071 72.37083184 51.02766666 77.31456722 51.02041054 82.25831413 C51.01721743 84.63828335 51.01525497 87.01825454 51.01451683 89.39822578 C51.01236056 92.71709691 51.00363212 96.03588326 50.99291992 99.35473633 C50.99337311 100.34852798 50.99382629 101.34231964 50.99429321 102.3662262 C50.99002823 103.26502502 50.98576324 104.16382385 50.98136902 105.08985901 C50.97969317 105.87539437 50.97801733 106.66092974 50.9762907 107.4702692 C50.84765625 109.25878906 50.84765625 109.25878906 49.84765625 110.25878906 C48.1038309 110.35766698 46.35600082 110.38677938 44.609375 110.38818359 C43.49151611 110.39133575 42.37365723 110.39448792 41.22192383 110.3977356 C40.00529053 110.39571136 38.78865723 110.39368713 37.53515625 110.39160156 C36.29596436 110.39255829 35.05677246 110.39351501 33.7800293 110.39450073 C31.15377344 110.3951828 28.52760992 110.39382444 25.90136719 110.38916016 C22.52836911 110.38346287 19.1554506 110.38674208 15.78245544 110.39273262 C12.57501948 110.39720676 9.36759325 110.39407788 6.16015625 110.39160156 C4.94352295 110.39362579 3.72688965 110.39565002 2.47338867 110.3977356 C0.79660034 110.39300735 0.79660034 110.39300735 -0.9140625 110.38818359 C-1.90365967 110.387388 -2.89325684 110.38659241 -3.9128418 110.38577271 C-6.15234375 110.25878906 -6.15234375 110.25878906 -7.15234375 109.25878906 C-7.25208385 107.87201326 -7.28309037 106.48021379 -7.28605652 105.08985901 C-7.2903215 104.19106018 -7.29458649 103.29226135 -7.29898071 102.3662262 C-7.29852753 101.37243454 -7.29807434 100.37864288 -7.29760742 99.35473633 C-7.30096603 98.31417084 -7.30432465 97.27360535 -7.30778503 96.20150757 C-7.31732716 92.74272486 -7.31923976 89.28399039 -7.3203125 85.82519531 C-7.32352275 83.43244913 -7.32688664 81.03970315 -7.33039856 78.6469574 C-7.33639796 73.62392725 -7.33823762 68.60091434 -7.33764648 63.57788086 C-7.3375448 57.1266894 -7.35119983 50.67560786 -7.36841869 44.22444248 C-7.37951163 39.2806497 -7.38156653 34.33688372 -7.38103676 29.39307976 C-7.38222086 27.01393187 -7.38666653 24.63478337 -7.39436913 22.25564766 C-7.40411478 18.93443118 -7.40131252 15.6134563 -7.39526367 12.29223633 C-7.40088318 11.3004689 -7.40650269 10.30870148 -7.41229248 9.28688049 C-7.40809799 8.38526184 -7.4039035 7.48364319 -7.39958191 6.55470276 C-7.40012668 5.76879037 -7.40067144 4.98287798 -7.40123272 4.17315006 C-6.81952802 -0.30110522 -3.73889179 0.00627011 0 0 Z " fill="#5EF09A" transform="translate(162.15234375,199.7412109375)"/>
<path d="M0 0 C6.27 0 12.54 0 19 0 C19 2.31 19 4.62 19 7 C15.04 7 11.08 7 7 7 C7 8.32 7 9.64 7 11 C10.3 11 13.6 11 17 11 C17 12.98 17 14.96 17 17 C13.7 17 10.4 17 7 17 C7 18.32 7 19.64 7 21 C11.29 21 15.58 21 20 21 C20 22.98 20 24.96 20 27 C13.4 27 6.8 27 0 27 C0 18.09 0 9.18 0 0 Z " fill="#282C29" transform="translate(392,272)"/>
<path d="M0 0 C3.125 1.5 3.125 1.5 5 3 C3.82421875 5.015625 3.82421875 5.015625 2 7 C-0.48046875 7.171875 -0.48046875 7.171875 -3.1875 6.75 C-4.08855469 6.62109375 -4.98960937 6.4921875 -5.91796875 6.359375 C-6.60503906 6.24078125 -7.29210937 6.1221875 -8 6 C-8 6.99 -8 7.98 -8 9 C-7.31292969 9.17015625 -6.62585938 9.3403125 -5.91796875 9.515625 C-5.01691406 9.75796875 -4.11585938 10.0003125 -3.1875 10.25 C-1.84751953 10.59804688 -1.84751953 10.59804688 -0.48046875 10.953125 C2.43690553 12.18439478 3.44322746 13.2705936 5 16 C5.50476386 20.03811091 5.69368631 22.09103174 3.1875 25.375 C-1.11170564 28.56869562 -5.83660841 28.67615842 -11 28 C-13.35972884 26.90167093 -14.96640459 25.66859111 -17 24 C-15.35 22.35 -13.7 20.7 -12 19 C-11.4225 19.33 -10.845 19.66 -10.25 20 C-7.80116138 21.27075898 -7.80116138 21.27075898 -4 21 C-3.67 20.01 -3.34 19.02 -3 18 C-3.61488281 17.81824219 -4.22976563 17.63648438 -4.86328125 17.44921875 C-5.67152344 17.19785156 -6.47976563 16.94648438 -7.3125 16.6875 C-8.11300781 16.44386719 -8.91351563 16.20023437 -9.73828125 15.94921875 C-12.17254245 14.92758581 -13.4140145 14.10130571 -15 12 C-15.86877828 5.15837104 -15.86877828 5.15837104 -13.125 1.5 C-8.70800282 -0.62015865 -4.81803767 -0.68716275 0 0 Z " fill="#282C29" transform="translate(383,272)"/>
</svg>
