<svg xmlns="http://www.w3.org/2000/svg" width="300" height="120.152" viewBox="0 0 300 120.152"><path d="M63.878 7.224c.331.167.665.331 1.008.502 5.624 3.091 8.19 7.977 10.019 13.947 2.023 7.875-.673 16.384-4.563 23.194-.194.354-.384.707-.582 1.072-1.43 2.532-3.24 4.707-5.122 6.913-.221.27-.437.54-.665.821-3.27 3.954-7.612 6.684-11.882 9.445.262 1.202.262 1.202 1.262 1.673 6.81 3.106 13.84 6.122 21.019 8.262 1.688.517 2.924 1.202 4.335 2.232-.011-.494-.027-.989-.042-1.498a98 98 0 0 1 .612-12.833c.498-4.548.681-9.042.665-13.616v-.897c-.008-2.711-.053-5.354-.475-8.038-.19-2.27-.099-4.095 1.141-6.084 1.068-.905 2.202-1.605 3.422-2.281q.609-.341 1.236-.688c4.3-1.365 9.395-1.24 13.532.608 2.004 1.122 2.719 2.483 3.365 4.597 1.095 4.726 1.373 9.456 1.361 14.297v1.631q.001 1.694-.004 3.388c-.004 1.422 0 2.844.004 4.266.038 15.103.038 15.103-1.601 22.236l-.179.867c-.551 2.525-1.179 4.954-3.35 6.57-3.646 2.179-8.76 2.433-12.844 1.544-2.616-.856-4.456-2.498-5.719-4.947-.27-.624-.51-1.259-.745-1.897-.163.221-.323.441-.49.665-4.221 5.551-4.221 5.551-7.529 6.376-9.774 1.251-21.599-5.699-30.002-10.083-.304-.156-.608-.316-.92-.479-3.015-1.567-6.023-3.141-8.966-4.844.122.365.243.73.373 1.103.49 1.73.529 3.407.532 5.194.011.471.011.471.027.951.011 2.084-.304 3.27-1.692 4.92-3.209 2.662-7.331 3.468-11.407 3.422-2.738-.266-4.734-1.152-6.559-3.278-6.985-13.471-3.471-38.274-3.532-53.11-.008-1.285-.019-2.574-.03-3.859a661 661 0 0 1-.027-6.141q0-1.142-.015-2.289a176 176 0 0 1 0-3.163c-.008-.304-.011-.612-.019-.928.041-2.412.942-3.826 2.577-5.56 3.376-3.106 7.589-4.669 12.167-4.563 2.551.205 4.924.456 6.844 2.281 1.255 1.882 1.814 3.894 2.281 6.084l.631-.627c7.556-7.187 20.503-12.491 30.548-7.358m-4.943 1.901v1.521c.262.103.521.202.791.304.513.202.513.202 1.038.411.342.129.681.262 1.03.399.944.407.944.407 2.084 1.168h1.141c-.053-.734-.053-.734-.38-1.521-.806-.586-.806-.586-1.806-1.023-.327-.156-.654-.316-.992-.479-.97-.388-1.875-.612-2.905-.779m-13.38 1.331q-.371.137-.753.274-.918.336-1.837.677v1.141c1.487-.262 2.875-.677 4.3-1.163.407-.137.814-.278 1.232-.418.308-.106.616-.209.932-.319V9.508c-1.422 0-2.563.464-3.875.951m-19.699-.193v1.521l1.521.76.38 6.844h1.141q.062-1.544.095-3.087c.011-.293.027-.582.038-.878.034-2.03-.293-3.175-1.654-4.779-.806-.361-.806-.361-1.521-.38m-11.243 2.376c-1.548 1.741-1.986 2.901-2.065 5.228h1.141c.593-1.669.593-1.669.76-3.422h.76c.643-.483.643-.483 1.141-1.141v-1.141c-1.118-.118-1.118-.118-1.738.475m19.989 4.848q-.669.64-1.331 1.285l-.749.719c-.665.605-.665.605-.582 1.418h-.76l-.38 2.281h.76c1.384-1.323 1.384-1.323 1.901-3.042h.76v-.76h.76l.76-1.521zm8.7 3.065c-.848.703-.848.703-.715 1.878 1.312-.232 2.084-.745 3.137-1.544 1.757-1.202 2.741-1.468 4.848-1.118 1.247.787 1.844 1.433 2.662 2.662l1.521-.76c-1.456-2.114-2.814-2.886-5.323-3.422-2.217 0-4.312 1.103-6.129 2.304m26.66-.403c-.095 2.498.259 4.779.76 7.224l1.141-.38c.08-2.437.061-4.536-.76-6.844zm-23.954 4.183c-5.361 5.654-8.665 13.057-11.715 20.129q-.214.49-.43.996c-1.684 3.76-1.684 3.76-2.304 7.772 6.243-1.422 12.072-6.118 15.787-11.274 2.757-4.38 4.779-9.791 3.753-14.992-.433-2.281-.433-2.281-1.669-4.152-1.529 0-2.308.548-3.422 1.521m-33.46 2.662v7.224l1.521-.38v-6.465zm23.954 2.281c-1.498 1.84-2.578 3.878-3.422 6.084l1.901.38q.682-1.294 1.354-2.589c.129-.247.262-.49.395-.741.335-.65.627-1.319.913-1.992l-.38-1.141zm17.871 1.901q-.387 1.174-.76 2.354l-.426 1.323c-.3 1.129-.403 2.008-.335 3.167l1.141.38c1.027-2.49 1.726-4.517 1.521-7.224zm31.939 1.901.38.76q1.487-.05 2.97-.118.42-.016.852-.027c1.627-.068 1.627-.068 3.027-.821l.376-.555c-.673-.673-1.608-.46-2.517-.475-2.011.011-3.335.281-5.087 1.236m10.646 2.662c-.494 1.483-.236 2.738-.023 4.255l.114.863q.141 1.053.289 2.106l1.141.38.76-.38c-.156-2.502-.331-4.844-1.141-7.224zm-27.757.38a287 287 0 0 0-1.331 2.354l-.749 1.323c-.555 1.209-.719 1.863-.582 3.167h1.141c1.281-2.304 2.133-4.198 2.281-6.844zm14.068 4.563c-.825.825-.468 2.639-.475 3.779l-.023.962c-.004.308-.004.612-.008.924l-.011.852.137.707c.567.376.567.376 1.141.76.825-.669.825-.669.848-1.475l-.011-.856c-.004-.308-.008-.612-.008-.928l-.023-.97-.008-.981q-.016-1.198-.038-2.395c-.741-.224-.741-.224-1.521-.38m-70.722 2.662c-.418 1.616-.354 3.027-.213 4.681a245 245 0 0 0 .213 2.543h.76v-6.844zm16.73.76q-.478 1.174-.951 2.354c-.175.437-.354.871-.536 1.323-.38 1.16-.506 1.962-.414 3.167.745-.004.745-.004 1.521-.38.525-1.087.525-1.087.856-2.399.129-.437.255-.875.388-1.327.335-1.255.335-1.255.278-2.738zm17.186 2.738c-.376.384-.753.768-1.122 1.16-.194.19-.384.384-.586.582-1.179 1.156-1.179 1.156-1.411 2.745 1.548-.209 2.365-1.011 3.494-2.046l1.015-.909c.89-.806.89-.806 1.194-1.989-1.236-.624-1.475-.418-2.586.456m12.966 4.262q-.57.582-1.137 1.175l-.589.605q-.717.74-1.43 1.487l.38 1.141h.76v-.76l.673-.3c.909-.494 1.54-1.038 2.274-1.768q.348-.335.707-.688c.646-.673.646-.673.529-1.806-1.228-.125-1.228-.125-2.167.916m39.812.604c-.376.19-.376.19-.76.38v7.224h1.521c.46-.369.46-.369.388-1.053q-.027-.42-.053-.863l-.057-.932q-.03-.483-.065-.977a489 489 0 0 0-.213-3.399zm-67.943 4.35-.806.278c-.662.228-1.316.464-1.973.696v1.521c2.399-.418 4.586-.981 6.844-1.901v-1.141c-1.548-.517-2.589.019-4.065.548m51.593.972q-.109 1.58-.213 3.16c-.023.3-.042.597-.065.905l-.057.875q-.027.393-.053.802c-.027.81-.027.81.388 1.863h1.141c.445-2.426.875-4.753.76-7.224zm-69.582 2.662c-.418 1.616-.354 3.027-.213 4.681a245 245 0 0 0 .213 2.543l1.141-.38-.38-6.464zm32.365 1.285q-.354.177-.719.365-.994.503-1.989 1.011-.76.384-1.521.76v.76c1.49.445 2.388.437 3.753-.247q.766-.426 1.525-.871l.791-.445q.964-.543 1.916-1.099l-.38-1.521c-1.251 0-2.281.722-3.376 1.285M26.996 66.92v5.703l1.521.38c.707-.707.532-1.711.616-2.658.145-.763.145-.763.905-1.904-.118-.817-.118-.817-.38-1.521-1.361-.38-1.361-.38-2.662 0m23.954.38-.38 1.521c.935.51 1.867 1.015 2.806 1.521l.802.441c1.35.798 1.35.798 2.856 1.08l.38-1.521c-3.087-2.046-3.087-2.046-6.464-3.042m47.148.76c-.376.19-.376.19-.76.38-.179.7-.179.7-.24 1.536-.034.304-.065.612-.099.932q-.044.482-.087.977l-.103.985q-.119 1.207-.232 2.414l1.901.38c.502-2.445.856-4.726.76-7.224zm-60.836 4.564-.38 1.521c1.966 1.323 3.84 2.281 6.084 3.042l.76-1.141c-1.262-1.042-2.597-1.681-4.087-2.354-.445-.202-.89-.403-1.35-.608zm44.867.76v7.224l1.901-.38v-6.464zm-16.35.76v1.141c2.137 1.167 4.065 1.859 6.464 2.281l.38-1.141a639 639 0 0 0-3.422-1.521c-.354-.156-.707-.312-1.068-.475-.928-.369-.928-.369-2.354-.285m-52.091 1.901q.05 1.59.118 3.186c.011.3.019.601.027.913.038.791.133 1.578.236 2.365.567.376.567.376 1.141.76.46-.369.46-.369.388-1.053l-.053-.863-.057-.932q-.03-.482-.065-.977a489 489 0 0 0-.213-3.399zm38.403 3.802-.38 1.521q1.387.587 2.779 1.163c.262.114.525.224.795.342 1.601.696 1.601.696 3.27.395-.179-.757-.179-.757-.76-1.521a26 26 0 0 0-2.897-1.046l-.817-.255a172 172 0 0 0-1.99-.598m-24.335 2.281c-.213.221-.422.441-.643.665-1.16 1.129-2.456 1.711-3.92 2.376l.38 1.141c1.897-.183 3.099-.669 4.563-1.901.544-1.183.544-1.183.76-2.281zm43.418 1.498c-1.422.916-2.217.916-3.875.783l-.38 1.141c.73.886.73.886 1.996.905 2.004-.202 3.141-.985 4.422-2.521q.21-.33.426-.665c-1.213-.559-1.46-.422-2.589.357m21.316.951c-.266.057-.529.11-.802.167q-.98.21-1.954.426v1.141c2.7.118 4.821.171 7.224-1.141v-.76c-1.529-.593-2.928-.175-4.468.167M193.916 7.224c1.224.863 2.365 1.684 3.042 3.042.289 3.582-.133 7.095-.57 10.646-.578 4.707-.703 9.331-.57 14.068h.76v-.76c.49-.494.49-.494 1.213-1.095a83 83 0 0 0 3.601-3.232c6.875-6.479 6.875-6.479 11.521-6.426 3.806.346 6.605 2.266 9.331 4.787.867 1.555.924 2.715.57 4.445-1.597 3.236-4 5.734-6.559 8.221l-1.011 1.011c-5.917 5.841-5.917 5.841-8.78 7.118v.76c-.376.19-.376.19-.76.38.198 1.567 1.008 2.278 2.114 3.35.316.308.631.616.954.935a56 56 0 0 0 2.407 2.137c2.346 2.042 4.513 4.27 6.707 6.471q1.151 1.152 2.308 2.304c2.346 2.346 4.681 4.681 6.802 7.236l.97 1.133c.274.331.551.662.837 1.004l.848 1.015c1.456 1.954 2.217 3.51 1.909 5.973-1.555 3.179-4.551 5.422-7.833 6.563-.3.091-.601.186-.913.281q-.382.127-.768.259c-3.171.943-6.475.844-9.54-.395-2.338-1.331-4.179-3.27-6.042-5.186-.331-.335-.658-.669-.996-1.015-2.517-2.665-4.684-5.586-6.837-8.544a95 95 0 0 0-2.053-2.608l-.011 1.323a529 529 0 0 1-.068 4.886q-.017 1.055-.023 2.11c-.008 1.015-.027 2.03-.046 3.042v.947c-.053 2.023-.407 3.202-1.753 4.802-2.913 2.057-6.125 2.426-9.624 2.399-.316 0-.627-.004-.951-.004-3.772-.068-7.308-.589-10.122-3.3-2.095-2.266-1.802-5.011-1.844-7.916l-.023-1.141q-.034-1.802-.061-3.608-.039-2.356-.084-4.707l-.023-1.186a160 160 0 0 0-.281-6.722c-.304-5.053-.255-10.122-.255-15.183q.002-1.755-.008-3.506c-.129-29.464-.129-29.464 4.768-34.768 4.264-3.924 12.831-4.201 17.747-1.346m-6.084 1.901v1.521l.639.236c.414.156.414.156.837.312q.404.149.825.308c.742.285.742.285 1.502.665.122 1.665-.152 2.707-.859 4.205-.506 1.327-.65 2.745-.662 4.16l.38.76h1.901c.205-1.209.399-2.422.593-3.635.057-.342.118-.681.175-1.034.312-1.966.525-3.658-.008-5.597-.593-.62-.593-.62-1.403-.905l-.825-.346a14 14 0 0 0-3.095-.65m-9.703 2.342c-.711.886-.935 1.669-1.228 2.768q-.15.534-.304 1.091c-.171 1.011-.125 1.586.209 2.544h1.141l.548-2.137c.099-.399.202-.795.308-1.205a47 47 0 0 0 .665-3.502c-.779-.076-.779-.076-1.338.441m-3.225 15.529v6.844l1.521.38c.452-.369.452-.369.422-1.053l-.004-.863c-.004-.304-.004-.612-.004-.932l-.011-.977c0-.487 0-.487-.004-.985q-.007-1.207-.019-2.414zm33.817 1.068q-.382.298-.776.601c-.24.202-.475.403-.722.612-.228.183-.452.365-.688.551l-.452.589c.087.821.087.821.38 1.521.194-.148.388-.293.586-.445 1.24-.939 2.464-1.856 3.787-2.669.316-.228.627-.452.951-.688v-1.141c-1.635 0-1.856.11-3.065 1.068m-18.229 2.355v7.224l1.521-.38v-6.464zm26.601 1.753c-.251.27-.506.536-.768.814-.255.266-.513.529-.776.802-1 1.114-1 1.114-1.863 2.335l.38 1.141c1.597-.186 2.266-1.042 3.304-2.209l.905-1.008c.673-.886.966-1.403 1.114-2.487-1.487-.156-1.487-.156-2.297.612m-21.349 6.992c-.213.183-.426.361-.643.551q-.786.669-1.567 1.35l.38 1.521c1.631-.183 2.574-1.224 3.707-2.304.194-.179.384-.361.586-.544q.708-.667 1.411-1.335l-.38-1.141c-1.601 0-2.346.901-3.494 1.901m8.582 5.703c-.236.183-.468.361-.707.551-.574.449-1.144.897-1.719 1.35l.38 1.521c1.517-.521 2.616-1.198 3.802-2.281v-.76l1.521-.76v-1.521c-1.331 0-2.27 1.103-3.278 1.901m-29.421-1.52v6.844l1.141.38.76-.38v-6.844zm28.137 10.646c-.141 1.54-.141 1.54.76 2.662h.76v.76c.548.616.548.616 1.259 1.213.236.209.468.418.711.635.228.141.456.285.692.433l1.141-.38c-.532-1.814-1.578-3.027-3.042-4.183h-.76v-.76zm-11.787 2.662v4.563c1.259.43 2.506.84 3.802 1.141l.38-1.141c-.49-.859-.49-.859-1.213-1.711l-.703-.89c-.81-.947-.81-.947-2.266-1.962m-15.97 2.662c-.452.369-.452.369-.422 1.053l.004.863q.005.454.004.932l.011.977c0 .327.004.65.004.985q.006 1.207.019 2.414h1.901v-6.844zm39.163 6.084c.167 1.844.932 2.65 2.236 3.92.502.506.502.506 1.015 1.019.878.886.878.886 2.072.764.224-.837.224-.837 0-1.901-1.144-1.441-2.608-2.844-4.183-3.802zm-13.688 3.422c-.376.567-.376.567-.76 1.141.597.821 1.202 1.635 1.806 2.449.255.346.255.346.51.703.935 1.243 1.471 1.909 3.008 2.171-.186-1.779-1-2.928-2.068-4.3-.156-.209-.308-.418-.468-.635a33 33 0 0 0-1.266-1.529zm-9.125 1.141c-.772.772-.452 2.316-.452 3.376l-.011.844c-.008 1.46.015 2.141.844 3.384l1.141-.38q.028-1.485.046-2.97l.023-.852c.011-1.468.004-2.152-.829-3.403zm-15.589 5.703c-.452.369-.452.369-.422 1.053 0 .281.004.567.004.863.004.304.004.612.004.932l.011.977c0 .327.004.65.004.985q.007 1.207.019 2.414h1.901v-7.224zm49.43 1.521-.38 1.141c.376.567.376.567.76 1.141-.118.928-.118.928-.38 1.901q-.107.434-.213.878-.084.319-.167.643c1.54.175 1.54.175 2.399-.833.722-.996.722-.996.643-2.019-.464-1.156-1.049-1.947-1.901-2.852zm-14.829 4.563c.84 1.894 2.255 3.323 4.19 4.118.624.179 1.259.316 1.894.445v-1.521c-.814-.662-.814-.662-1.856-1.186-1.897-1.046-1.897-1.046-2.707-1.856zm-24.099 3.612c-.399.034-.802.072-1.221.106l-.916.084-.38 1.521q1.272.029 2.544.046c.471.011.943.019 1.43.03 1.278-.072 2.11-.281 3.251-.837v-1.141a46 46 0 0 0-4.707.19"/><path d="M237.619 25.333c.399-.008.795-.019 1.205-.027 2.38-.011 4.567.049 6.422 1.692 1.696 2.369 1.894 5.312 2.236 8.125.665 4.985 1.692 9.84 2.837 14.734a155 155 0 0 1 1.148 5.574l.243.844q.375.182.76.38l.137-1.008c.24-1.262.605-2.262 1.129-3.43l.544-1.221q.277-.62.567-1.259l.551-1.236c1.407-3.148 1.407-3.148 2.137-4.696 1.441-3.076 2.502-6.243 3.567-9.464.745-2.224 1.513-4.228 2.776-6.205h.76v-.76c3.376-2.456 7.81-2.304 11.787-1.901 3.388.749 5.658 2.468 7.605 5.323 3.49 10.468-6.844 28.259-10.939 37.354-.411.916-.81 1.84-1.205 2.764-3.741 8.688-8.133 17.141-12.951 25.281q-.245.416-.502.848c-4.586 7.696-9.605 15.312-17.369 20.065l-.757.464c-2.129.821-5.118.608-7.274-.084-3.019-1.365-5.924-3.335-7.179-6.464-.635-2.293-.243-3.992.76-6.084a49 49 0 0 1 1.916-2.764c3.35-4.665 5.928-9.856 8.563-14.943.213-.403.422-.806.635-1.221q.62-1.187 1.228-2.384.569-1.09 1.202-2.144c1.027-1.719 1.027-1.719 1.213-3.654-.278-.909-.631-1.707-1.068-2.548q-.2-.41-.407-.829c-.456-.89-.939-1.764-1.422-2.643-4.555-8.513-8.395-17.289-11.099-26.567-.095-.323-.19-.646-.285-.981-.966-3.373-1.373-6.631-1.426-10.144a82 82 0 0 1-.019-1.015c.019-2.091.319-3.331 1.73-4.97.722-.612.722-.612 1.452-1.049q.354-.217.719-.445c2.665-1.255 5.163-1.308 8.072-1.312m32.722 3.947.38 1.141c2.259.122 4.517.247 6.844.38v-1.521c-2.354-.787-4.989-1.49-7.224 0m-40.684 1.901c-.593.996-.593.996-.76 1.901.376.122.753.247 1.141.38a55 55 0 0 0 1.612-1.392c1.129-.863 2.369-1.213 3.711-1.65v-1.141c-2.373-.247-3.89.327-5.703 1.901m12.928.38c-.593 1.529-.175 2.924.167 4.464l.171.806c.137.65.281 1.3.422 1.954h1.521c-.156-2.574-.597-4.821-1.521-7.224zm22.053 4.563c-.376.707-.745 1.422-1.118 2.137-.308.597-.308.597-.627 1.202-.521 1.194-.764 2.217-.916 3.506h1.521c1.555-3.103 1.555-3.103 2.281-6.464zm15.209 1.141c-1.049 2.335-2.057 4.605-1.901 7.224.376.122.753.247 1.141.38q.478-1.486.951-2.973c.091-.281.183-.559.278-.848.369-1.175.673-2.167.673-3.403zm-49.049 4.943c-.582 1.494-.152 2.551.335 4.038.141.437.278.871.422 1.323.346 1.061.346 1.061.764 1.863l1.141-.38c-.236-2.194-.612-4.445-1.521-6.464zm14.829 5.323c-.635 1.555-.091 2.932.357 4.464q.112.397.224.806c.183.65.373 1.3.559 1.954h1.521c-.236-2.502-.817-4.817-1.521-7.224zm12.548 3.802q-.668 1.278-1.331 2.563c-.125.243-.255.483-.384.734-.669 1.312-.947 2.042-.947 3.548h1.521q.564-1.082 1.118-2.163c.209-.403.414-.802.627-1.217.479-1.057.749-1.947.916-3.084zm16.73 1.521c-.376.707-.745 1.422-1.118 2.137-.308.597-.308.597-.627 1.202-.521 1.194-.764 2.217-.916 3.506h1.521q.587-1.498 1.163-2.996c.114-.285.224-.567.342-.859.281-.734.532-1.483.776-2.228l-.38-.76zm-38.403 4.563c-.323.62-.323.62-.38 1.521.403.962.814 1.84 1.308 2.753.194.373.194.373.392.749q.476.91.962 1.821l1.141-.38c-.236-1.612-.798-2.863-1.544-4.304-.209-.407-.418-.81-.631-1.232-.24-.46-.24-.46-.487-.928zm12.928 6.084c-.213 2.452.521 4.24 1.521 6.464h.76l1.141-3.422-1.141-.38-.357-1.141c-.133-.38-.266-.757-.403-1.141-.772-.369-.772-.369-1.521-.38m19.011 4.563q-.668 1.288-1.331 2.589l-.384.738c-.567 1.118-.947 1.867-.947 3.137.376.122.753.247 1.141.38.449-.928.89-1.856 1.331-2.783q.192-.392.384-.795c.749-1.563.749-1.563.947-3.266zm-25.095 4.183c-.525 1.156-.525 1.156.114 2.304.236.441.475.878.719 1.331.232.437.464.878.707 1.331.715 1.076 1.065 1.468 2.262 1.878-.118-2.654-1.327-4.593-2.662-6.844zm17.871 10.646a26 26 0 0 0-1.589 2.399l-.426.684c-.65 1.08-1.027 1.719-1.027 3 .376.122.753.247 1.141.38.441-.646.875-1.3 1.308-1.951.243-.361.487-.722.734-1.095.643-1.175.863-2.099 1-3.418zm-19.772 3.802q-.763 1.288-1.521 2.589l-.437.738c-.867 1.471-.867 1.471-1.084 3.137h1.521c1.004-2.011 2.008-4.019 3.042-6.084-.502-.129-1.004-.251-1.521-.38m11.787 9.886q-.844 1.196-1.688 2.399l-.483.684c-.696.992-1.243 1.84-1.631 3h1.521c.844-.886.844-.886 1.593-2.023.395-.563.395-.563.802-1.137.692-1.004.692-1.004 1.027-2.163zm-19.772 4.183a52 52 0 0 0-1.901 2.707l-.517.768c-.962 1.449-1.753 2.791-2.144 4.51.475.905.475.905 1.141 1.521.856-.719.856-.719 1-1.856.49-1.958 1.787-3.475 2.962-5.08.7-.981.7-.981.502-1.951-.137-.308-.137-.308-.281-.62zm9.886 8.745c-.198.183-.395.365-.597.555-2.635 2.384-2.635 2.384-4.346 2.867v1.521c1.844-.171 3.224-1.046 4.563-2.281v-.76h.76l.38-1.521c-.251-.129-.502-.251-.76-.38m-89.043-81.263c1 .787 1.878 1.608 2.73 2.555l.567.589c2.783 3.011 3.806 6.464 3.741 10.521-.202 1.722-.783 2.89-2.027 4.099-3.426 2.19-6.654 2.582-10.646 2.281-1.589-.445-2.433-1.186-3.373-2.567-.502-1.449-.654-2.753-.81-4.278-.43-.513-.43-.513-1.567-.475-2.236.144-3.821.779-5.373 2.403-1.27 1.589-1.73 3.342-2.186 5.297q-.096.337-.198.681c-1.437 6.608-.403 15.053 2.73 21.053.593.814 1.175 1.312 2.03 1.84 1.894.042 2.966-.726 4.297-1.966 1.608-1.726 2.722-3.722 3.837-5.791l.494-.916c.327-.605.65-1.217.966-1.825 1.004-1.886 1.913-3.152 3.715-4.331 4.011-1.023 8.468-.202 12.167 1.521 1.487 1.293 2.574 2.346 2.829 4.35-.114 3.73-2.468 7.099-4.411 10.137a30 30 0 0 0-1.433 2.506c-1.183 1.897-2.673 3.445-4.209 5.061-.327.357-.654.715-.992 1.08-3.989 4.205-8.886 7.221-14.806 7.487q-1.286.012-2.57-.011l-1.361-.011c-7.365-.167-13.122-2.741-18.407-7.875-3.612-3.817-6.331-8.179-7.871-13.217l-.449-1.43c-2.183-7.696-1.939-16.548.829-24.046.129-.365.129-.365.259-.741 2.525-7.11 7.985-13.125 14.745-16.445 8.616-3.719 19.099-3.16 26.753 2.464m-20.464-.106c.947.475 1.57.418 2.627.407l1.144-.011q1.18-.013 2.361-.03c2.304-.015 4.513.091 6.795.395-.186-.563-.186-.563-.38-1.141-2.43-.844-4.787-.886-7.342-.878-.376-.008-.753-.011-1.137-.019h-1.091c-.487-.004-.487-.004-.985-.004-1.019.171-1.35.494-1.992 1.281m-11.24 4.848c-.194.171-.384.338-.586.513-1.023.928-1.726 1.593-1.863 3.004.376.19.376.19.76.38 1.707-1.468 3.376-2.947 4.943-4.563l-.38-1.141c-1.255 0-1.989 1-2.875 1.806m31.772.095c-.338.627-.338.627-.38 1.521.35.658.7 1.316 1.095 1.947.646 1.08 1.091 2.213 1.567 3.376l1.141-.38c-.376-2.441-1.034-4.548-2.662-6.464zm-17.871 4.848-.996.589c-.916.658-1.49 1.19-2.046 2.167l.38 1.141c1.251-.224 1.905-.616 2.829-1.471 1.027-.92 2.038-1.665 3.255-2.331l-.38-1.141c-1.357 0-1.886.354-3.042 1.046m11.787 1.236c-.502 1.696-.411 3.232 0 4.943.856 1.141 1.312 1.452 2.662 1.901l.38-1.141-.38-.76h-.76c-.076-.437-.076-.437-.152-.886l-.202-1.156c-.068-.38-.133-.76-.202-1.152-.156-.977-.156-.977-.586-1.749zm-32.7 5.323c-1.354 2.034-1.643 4.422-1.521 6.844h1.521q.291-1.283.57-2.567l.323-1.441c.297-1.342.297-1.342.247-2.837zm14.449 6.084c-.384 1.582-.418 3.061-.403 4.684l.011 1.445.011 1.095h1.521v-7.224zm-15.97 9.886c-.16 2.441.437 4.521 1.141 6.844h1.521c-.395-2.323-.817-4.589-1.521-6.844zm38.783 1.521c-.338 1.384-.338 1.384-.38 2.662h1.141l.665-1.114c.856-1.167.856-1.167 2.281-1.498.411-.015.817-.03 1.236-.049v-1.521c-2.802-.194-2.802-.194-4.943 1.521m9.886 3.042c-2.217 3.183-2.217 3.183-3.042 6.844.722-.004.722-.004 1.521-.38.776-1.095.776-1.095 1.426-2.422.236-.445.468-.886.707-1.342.608-1.137.608-1.137.529-2.319zm-31.559 1.141c.217 2.551 1.148 4.574 2.281 6.844l1.521-.38a36 36 0 0 0-2.662-6.464zm14.521 6.966c-.901.814-1.677 1.449-2.734 2.065l-.76.475v1.141c1.992-.16 2.897-.741 4.327-2.114.331-.316.665-.627 1.008-.951l.749-.738-.38-1.141c-1.091 0-1.418.529-2.209 1.262m-25.167 2.16c-.376.19-.376.19-.76.38.43 1.129.848 2.03 1.521 3.042h.76l.38 1.141h.76v.76h.76v.76h1.141l.38-1.141a115 115 0 0 1-.692-.696 4253 4253 0 0 1-4.251-4.247m33.46 3.422a29 29 0 0 0-2.54 1.806l-.7.529c-.593.46-1.148.962-1.703 1.468v1.141c1.205-.24 2.099-.658 3.137-1.304q.404-.249.814-.498c.205-.16.407-.316.612-.479v-.76l1.141-.38.38-1.141zm-20.532 5.703v1.521c1.376.46 2.635.422 4.065.407.266-.004.532-.004.81-.008q.988-.006 1.97-.019v-1.141q-1.069-.193-2.137-.38c-.399-.068-.795-.141-1.205-.213-1.183-.16-2.308-.194-3.502-.167M93.726 10.361q.466.33.951.665c.331.213.658.422.996.643 1.928 1.875 2.844 4.388 2.901 7.057-.011 1.825-.51 3.183-1.236 4.848h-.76l-.293.696c-.871 1.536-2.259 2.156-3.89 2.726-3.027.403-5.856.35-8.365-1.521-1.943-1.635-3.335-3.551-3.757-6.084-.175-2.224.544-4.289 1.677-6.194 2.844-3.297 7.772-4.266 11.776-2.837m-3.992 2.948v1.521c.354.148.707.297 1.068.452 1.312.745 1.703 1.259 2.354 2.589l.38.76h1.521c-.247-1.555-.947-2.939-1.901-4.183-1.247-.791-1.947-1.141-3.422-1.141m-6.084 5.323c-.3.665-.3.665-.38 1.521.7 1.559 1.635 2.475 3.042 3.422 1.209.479 1.209.479 2.281.76l.38-1.521c-1.445-.837-1.445-.837-3.042-1.141l-.335-.878c-.411-1.08-.411-1.08-1.186-2.163z"/></svg>