<?xml version="1.0" encoding="UTF-8"?>
<!-- Generator: https://ezgif.com/webp-to-svg -->
<svg version="1.1" xmlns="http://www.w3.org/2000/svg" width="150" height="150">
<path d="M0 0 C0.67 0.52 1.35 1.04 2.04 1.57 C6.08 4.51 9.8 5.28 14.66 5.95 C27.85 7.88 37.75 16.43 46.98 25.63 C47.67 26.32 48.37 27 49.09 27.71 C57.95 37 63.21 48.64 68.19 60.33 C69.09 62.44 70.02 64.54 70.98 66.63 C71.27 67.28 71.57 67.94 71.88 68.61 C74.24 73.29 76.59 74.9 81.35 76.88 C87.04 79.43 91.85 82.5 96.73 86.38 C97.32 86.85 97.92 87.33 98.53 87.81 C101.16 89.95 103.09 91.8 104.98 94.63 C104.98 95.62 104.98 96.61 104.98 97.63 C99.42 99.89 93.9 100.23 87.98 100.63 C90.41 103.21 92.66 105.43 95.66 107.32 C100.85 110.62 107.75 116.05 109.77 121.95 C109.84 122.5 109.91 123.06 109.98 123.63 C106.77 123.03 104.92 122.01 102.41 119.95 C99.22 117.45 96.01 115.5 92.41 113.63 C86.61 110.55 80.34 107.12 77.98 100.63 C78.47 98.65 78.47 98.65 78.98 96.63 C84.26 95.31 89.54 93.99 94.98 92.63 C84.27 85.34 84.27 85.34 72.28 80.68 C67.56 78.53 65.41 73.85 63.39 69.28 C62.93 68.26 62.48 67.25 62.01 66.2 C61.31 64.62 61.31 64.62 60.6 63.01 C51.4 42.24 40.97 24.44 19.57 14.52 C16.59 13.5 13.8 13.16 10.66 12.82 C5.46 12.08 2.12 10.93 -2.1 7.88 C-5.45 5.71 -9.22 4.72 -13.02 3.63 C-11.42 7.97 -9.6 11.28 -6.77 14.95 C-2.85 20.32 -0.7 26.07 1.49 32.3 C3.1 36.8 4.88 39.92 7.98 43.63 C8.38 47.3 8.26 49.87 6.97 53.33 C5.76 57.35 5.65 60.9 5.66 65.07 C5.65 65.8 5.63 66.52 5.62 67.27 C5.61 72.44 6.67 76.01 8.98 80.63 C9.31 80.63 9.64 80.63 9.98 80.63 C10.06 79.99 10.15 79.35 10.24 78.69 C11.26 72.4 12.78 68.46 16.98 63.63 C17.64 63.63 18.3 63.63 18.98 63.63 C19.24 64.34 19.51 65.04 19.79 65.77 C24.18 76.83 29.74 90.81 39.98 97.63 C39.98 98.29 39.98 98.95 39.98 99.63 C35.42 98.76 32.78 96.1 29.48 93.01 C28.91 92.5 28.34 91.99 27.75 91.46 C23.87 87.87 21.4 84.34 18.98 79.63 C18.75 80.27 18.52 80.91 18.28 81.57 C15.62 88.3 15.62 88.3 12.54 89.88 C9 89.54 7.7 89.01 4.98 86.63 C-0.42 77.88 -1.81 69.83 -1.02 59.63 C-0.43 57.39 0.19 55.16 0.85 52.95 C2.04 48.58 2.04 48.58 1.02 44.34 C-0.04 42.91 -1.15 41.51 -2.28 40.13 C-4.44 37.04 -5.37 33.84 -6.4 30.26 C-8.3 23.88 -11.05 19.14 -15.25 13.9 C-18.01 10.36 -19.08 8.62 -18.84 4.07 C-17.74 -0.55 -17.74 -0.55 -15.02 -2.37 C-9.85 -4.07 -4.5 -3.04 0 0 Z " fill="#186F93" transform="translate(40.0234375,4.3671875)"/>
<path d="M0 0 C3.23 3.46 5.02 6.94 6.75 11.31 C7.18 12.38 7.61 13.45 8.05 14.55 C8.36 15.36 8.68 16.17 9 17 C9.5 15.86 9.99 14.71 10.5 13.54 C11.19 12.04 11.87 10.55 12.56 9.06 C12.89 8.31 13.21 7.55 13.54 6.78 C14.55 4.63 15.49 2.83 17 1 C20.59 -0.13 20.59 -0.13 24 0 C24.99 0.66 25.98 1.32 27 2 C27.34 4.34 27.34 4.34 27.29 7.23 C27.28 8.77 27.28 8.77 27.26 10.35 C27.24 11.43 27.21 12.51 27.19 13.62 C27.17 15.26 27.17 15.26 27.15 16.92 C27.11 19.62 27.06 22.31 27 25 C25.02 25 23.04 25 21 25 C20.67 20.38 20.34 15.76 20 11 C17.69 15.62 15.38 20.24 13 25 C6 25 6 25 4.31 23.56 C2.37 19.77 0.67 15.92 -1 12 C-1.33 16.29 -1.66 20.58 -2 25 C-3.98 25 -5.96 25 -8 25 C-8.09 21.21 -8.14 17.42 -8.19 13.62 C-8.21 12.54 -8.24 11.46 -8.26 10.35 C-8.27 9.32 -8.28 8.29 -8.29 7.23 C-8.32 5.8 -8.32 5.8 -8.34 4.34 C-8.23 3.57 -8.12 2.8 -8 2 C-4.76 -0.16 -3.76 -0.64 0 0 Z " fill="#08658B" transform="translate(8,119)"/>
<path d="M0 0 C0.81 -0.01 1.61 -0.02 2.45 -0.04 C5.76 -0.02 8.43 0.16 11.55 1.34 C13.97 4.73 13.42 8.33 13.25 12.38 C13.23 13.19 13.21 14.01 13.2 14.86 C13.16 16.38 13.12 17.91 13.06 19.43 C12.9 23.63 12.9 23.63 15 27.38 C8.95 27.57 8.95 27.57 7 27.38 C6.34 26.72 5.68 26.06 5 25.38 C2.01 24.98 2.01 24.98 -1.38 24.88 C-8.73 24.54 -8.73 24.54 -12 22.38 C-13.64 19.1 -13.27 15.53 -13.31 11.94 C-13.34 11.16 -13.37 10.38 -13.4 9.58 C-13.46 4.01 -13.46 4.01 -11.54 1.36 C-7.7 -0.13 -4.09 -0.06 0 0 Z M-6 5.38 C-6 10 -6 14.62 -6 19.38 C-4.68 19.05 -3.36 18.72 -2 18.38 C-2.66 17.38 -3.32 16.4 -4 15.38 C0.28 15.87 3.1 16.42 7 18.38 C7 14.09 7 9.79 7 5.38 C2.71 5.38 -1.58 5.38 -6 5.38 Z " fill="#E2920C" transform="translate(103,119.625)"/>
<path d="M0 0 C1.98 0 3.96 0 6 0 C6 4.29 6 8.58 6 13 C9.96 13 13.92 13 18 13 C18 8.71 18 4.42 18 0 C20.31 0 22.62 0 25 0 C25.09 3.44 25.14 6.87 25.19 10.31 C25.21 11.29 25.24 12.27 25.26 13.27 C25.27 14.21 25.28 15.15 25.29 16.11 C25.31 16.98 25.32 17.84 25.34 18.73 C25 21 25 21 23.8 22.79 C21.38 24.42 19.79 24.34 16.89 24.29 C15.91 24.28 14.93 24.27 13.92 24.26 C12.89 24.24 11.87 24.21 10.81 24.19 C9.78 24.17 8.74 24.16 7.67 24.15 C5.12 24.11 2.56 24.06 0 24 C0 22.68 0 21.36 0 20 C5.94 20 11.88 20 18 20 C18 19.34 18 18.68 18 18 C17.12 18.03 16.24 18.07 15.33 18.11 C14.17 18.13 13.01 18.16 11.81 18.19 C10.09 18.24 10.09 18.24 8.33 18.29 C4.57 17.96 2.76 17.6 0 15 C-0.38 12.21 -0.48 10.07 -0.31 7.31 C-0.28 6.26 -0.28 6.26 -0.24 5.19 C-0.19 3.46 -0.1 1.73 0 0 Z " fill="#09658B" transform="translate(38,126)"/>
<path d="M0 0 C1.41 0.01 1.41 0.01 2.84 0.03 C3.82 0.05 4.79 0.08 5.8 0.11 C6.79 0.12 7.78 0.13 8.79 0.15 C11.23 0.18 13.67 0.23 16.11 0.29 C16.11 1.61 16.11 2.93 16.11 4.29 C7.7 4.79 7.7 4.79 -0.89 5.29 C-0.89 6.61 -0.89 7.93 -0.89 9.29 C-0.23 9.26 0.42 9.22 1.09 9.19 C6.6 9.02 10.31 9.26 15.11 12.29 C15.25 13.73 15.35 15.17 15.43 16.61 C15.48 17.41 15.54 18.21 15.6 19.03 C15.11 21.29 15.11 21.29 13.18 23.07 C8.97 24.75 5.28 24.62 0.8 24.48 C-0.45 24.46 -0.45 24.46 -1.73 24.44 C-3.78 24.4 -5.84 24.35 -7.89 24.29 C-7.89 22.64 -7.89 20.99 -7.89 19.29 C-2.61 18.96 2.67 18.63 8.11 18.29 C8.11 17.3 8.11 16.31 8.11 15.29 C7.38 15.26 6.64 15.22 5.88 15.18 C-4.93 14.45 -4.93 14.45 -7.89 11.29 C-8.47 8.53 -8.55 6.04 -7.89 3.29 C-5.51 0.19 -3.82 -0.07 0 0 Z " fill="#E0930F" transform="translate(72.88671875,119.70703125)"/>
<path d="M0 0 C1.98 0 3.96 0 6 0 C6 6.27 6 12.54 6 19 C11.61 19 17.22 19 23 19 C23 20.65 23 22.3 23 24 C20.1 24.08 17.21 24.14 14.31 24.19 C13.5 24.21 12.68 24.24 11.84 24.26 C8.31 24.31 5.35 24.1 1.94 23.16 C-1.38 19.47 -0.52 15.06 -0.31 10.31 C-0.29 9.32 -0.27 8.34 -0.24 7.32 C-0.19 4.88 -0.1 2.44 0 0 Z " fill="#DE920C" transform="translate(118,120)"/>
<path d="M0 0 C3.16 1.07 6.07 2.42 9 4 C8.67 4.66 8.34 5.32 8 6 C5.44 5.91 2.88 5.81 0.31 5.69 C-0.77 5.65 -0.77 5.65 -1.87 5.62 C-6.37 5.39 -9.26 4.75 -13 2 C-8.72 -0.85 -5.03 -0.62 0 0 Z " fill="#046286" transform="translate(56,11)"/>
<path d="M0 0 C1.65 0.33 3.3 0.66 5 1 C4.67 2.32 4.34 3.64 4 5 C4.99 5 5.98 5 7 5 C8.46 7.65 9 8.89 9 12 C8.01 12 7.02 12 6 12 C5.67 10.02 5.34 8.04 5 6 C4.34 6 3.68 6 3 6 C2.67 7.98 2.34 9.96 2 12 C0.68 11.67 -0.64 11.34 -2 11 C-2 8.69 -2 6.38 -2 4 C-1.01 4 -0.02 4 1 4 C0.67 2.68 0.34 1.36 0 0 Z " fill="#046487" transform="translate(54,74)"/>
<path d="M0 0 C0.33 0 0.66 0 1 0 C1.33 2.31 1.66 4.62 2 7 C2.99 7.33 3.98 7.66 5 8 C5.33 6.02 5.66 4.04 6 2 C6.66 2 7.32 2 8 2 C6.7 10.96 6.7 10.96 4.19 14.69 C2 16 2 16 -0.75 15.75 C-1.49 15.5 -2.23 15.25 -3 15 C-3 14.67 -3 14.34 -3 14 C-1.02 14 0.96 14 3 14 C3.33 12.68 3.66 11.36 4 10 C2.02 10.33 0.04 10.66 -2 11 C-2.66 9.35 -3.32 7.7 -4 6 C-3.01 6.33 -2.02 6.66 -1 7 C-0.67 4.69 -0.34 2.38 0 0 Z " fill="#2E7FA1" transform="translate(51,78)"/>
<path d="M0 0 C1.88 0.69 1.88 0.69 2.88 1.69 C3 4.69 3 4.69 2.88 7.69 C1.88 8.69 1.88 8.69 -0.56 8.88 C-3.12 8.69 -3.12 8.69 -5.12 6.69 C-5.44 4.19 -5.44 4.19 -5.12 1.69 C-2.12 -0.31 -2.12 -0.31 0 0 Z " fill="#E09815" transform="translate(147.125,135.3125)"/>
<path d="M0 0 C6.66 1.03 11.52 3.09 17 7 C13.89 7.85 11.22 8 8 8 C7.01 8.5 7.01 8.5 6 9 C3.5 8 3.5 8 1 7 C-1.33 6.62 -3.66 6.28 -6 6 C-6 5.67 -6 5.34 -6 5 C-1.38 5 3.24 5 8 5 C5.54 2.54 3.29 2 0 1 C0 0.67 0 0.34 0 0 Z " fill="#3180A1" transform="translate(56,11)"/>
<path d="M0 0 C4.45 -0.36 4.45 -0.36 6.81 1.19 C8.37 3.56 8.23 5.22 8 8 C6.02 8.99 6.02 8.99 4 10 C2.28 6.7 0.71 3.67 0 0 Z " fill="#1A7094" transform="translate(47,23)"/>
<path d="M0 0 C2.5 2.31 2.5 2.31 5 5 C5 5.99 5 6.98 5 8 C3.35 8.33 1.7 8.66 0 9 C0 8.34 0 7.68 0 7 C0.99 7 1.98 7 3 7 C-0.06 5.22 -2.22 4.77 -5.75 4.88 C-6.95 4.9 -6.95 4.9 -8.17 4.93 C-9.08 4.96 -9.08 4.96 -10 5 C-10 4.67 -10 4.34 -10 4 C-9.26 3.86 -8.51 3.71 -7.75 3.56 C-6.39 3.28 -6.39 3.28 -5 3 C-4.26 2.86 -3.51 2.71 -2.75 2.56 C-2.17 2.38 -1.59 2.19 -1 2 C-0.67 1.34 -0.34 0.68 0 0 Z " fill="#2F7EA2" transform="translate(140,94)"/>
<path d="M0 0 C2.19 -0.38 2.19 -0.38 5 0 C7.62 2.88 7.62 2.88 10 6 C10.99 6.66 11.98 7.32 13 8 C13 8.66 13 9.32 13 10 C9.12 9.43 7.1 7.61 4.25 5 C3.45 4.28 2.65 3.56 1.83 2.81 C1.22 2.21 0.62 1.62 0 1 C0 0.67 0 0.34 0 0 Z " fill="#418AA3" transform="translate(67,94)"/>
<path d="M0 0 C2.17 0.51 4 1 6 2 C6.33 1.34 6.66 0.68 7 0 C12 5.75 12 5.75 12 8 C8.59 7.39 6.48 6.1 3.75 4 C3.04 3.46 2.34 2.93 1.61 2.38 C1.08 1.92 0.55 1.47 0 1 C0 0.67 0 0.34 0 0 Z " fill="#408BAC" transform="translate(138,120)"/>
<path d="M0 0 C3 1 3 1 5 4 C5.12 7.19 5.12 7.19 5 10 C4.01 10 3.02 10 2 10 C0.68 6.38 0 3.9 0 0 Z " fill="#026488" transform="translate(34,28)"/>
<path d="M0 0 C3.39 2.26 3.85 3.21 5 7 C5.12 9.81 5.12 9.81 5 12 C4.01 11.67 3.02 11.34 2 11 C1.27 9.26 1.27 9.26 0.81 7.12 C0.65 6.43 0.5 5.73 0.33 5.01 C0 3 0 3 0 0 Z " fill="#035F81" transform="translate(93,41)"/>
<path d="M0 0 C5.21 0.96 9.6 1.88 14 5 C13.34 5.66 12.68 6.32 12 7 C9.69 6.34 7.38 5.68 5 5 C5 4.01 5 3.02 5 2 C3.35 2 1.7 2 0 2 C0 1.34 0 0.68 0 0 Z " fill="#3082A4" transform="translate(29,1)"/>
<path d="M0 0 C3.88 1.75 3.88 1.75 5 4 C3.06 3.69 3.06 3.69 1 3 C0.67 2.01 0.34 1.02 0 0 Z M-5 3 C-3.02 3 -1.04 3 1 3 C1.33 4.98 1.66 6.96 2 9 C0.83 8.19 -0.34 7.38 -1.5 6.56 C-2.15 6.11 -2.8 5.66 -3.47 5.19 C-3.97 4.8 -4.48 4.41 -5 4 C-5 3.67 -5 3.34 -5 3 Z " fill="#2B769D" transform="translate(78,23)"/>
<path d="M0 0 C0.99 0.33 1.98 0.66 3 1 C3 1.66 3 2.32 3 3 C4.32 2.01 5.64 1.02 7 0 C7 1.65 7 3.3 7 5 C5.02 5.99 5.02 5.99 3 7 C2.01 4.69 1.02 2.38 0 0 Z " fill="#3A7DA3" transform="translate(48,26)"/>
<path d="M0 0 C-0.33 1.32 -0.66 2.64 -1 4 C-3.31 4 -5.62 4 -8 4 C-7.67 3.01 -7.34 2.02 -7 1 C-2.25 0 -2.25 0 0 0 Z " fill="#055F90" transform="translate(55,88)"/>
<path d="M0 0 C1.32 0 2.64 0 4 0 C4 1.32 4 2.64 4 4 C0.37 4 -3.26 4 -7 4 C-7 3.67 -7 3.34 -7 3 C-3.53 2.5 -3.53 2.5 0 2 C0 1.34 0 0.68 0 0 Z " fill="#EEA72E" transform="translate(106,121)"/>
<path d="M0 0 C0.33 0.66 0.66 1.32 1 2 C1.99 2 2.98 2 4 2 C4 2.99 4 3.98 4 5 C1.83 4.49 0 4 -2 3 C-2 2.34 -2 1.68 -2 1 C-1.34 0.67 -0.68 0.34 0 0 Z " fill="#025E89" transform="translate(119,81)"/>
<path d="M0 0 C0.99 0.33 1.98 0.66 3 1 C3.12 1.97 3.25 2.94 3.38 3.94 C3.68 5.45 3.68 5.45 4 7 C4.66 7.33 5.32 7.66 6 8 C5.34 8.66 4.68 9.32 4 10 C3.33 8.71 2.66 7.42 2 6.12 C1.63 5.41 1.26 4.69 0.88 3.95 C0 2 0 2 0 0 Z " fill="#2B7FA4" transform="translate(97,58)"/>
</svg>
