<svg xmlns="http://www.w3.org/2000/svg" width="150" height="150" viewBox="0 0 150 150"><path d="m75.161-.082 1.148-.004c3.033-.013 5.959.124 8.958.606.583.091 1.167.157 1.754.222.838.102 1.643.27 2.462.472.46.105.916.177 1.384.242 3.071.453 6.106 1.494 9.035 2.499l.723.229c.512.17.973.395 1.451.645.495.237 1.011.409 1.528.591.587.215 1.15.473 1.718.732l.696.302c.346.153.657.305.98.503.352.206.682.342 1.062.485.685.265 1.283.61 1.905.997.437.261.893.45 1.364.641q.588.287 1.172.586v.293l.403.128c.377.13.712.27 1.062.458v.293l.357.092c.55.212.966.478 1.448.812q.561.38 1.135.742c1.181.749 2.347 1.522 3.414 2.429.363.32.363.32.723.518.443.272.821.583 1.218.919l.465.393.236.2q.538.45 1.084.891c.876.716 1.717 1.434 2.518 2.234l.348.266c.335.279.589.548.87.879a9.6 9.6 0 0 0 1.126 1.126c.735.624 1.341 1.337 1.932 2.097.253.332.253.332.595.558l.254.201v.439l.241.089c.487.289.811.699 1.169 1.129l.217.253c.398.473.634.882.863 1.459l.439.146a15 15 0 0 1 .439.732 46 46 0 0 0 .604.806 59 59 0 0 1 3.166 4.669 29 29 0 0 0 .631.976c.527.798.975 1.64 1.422 2.485.449.848.449.848.907 1.69a50 50 0 0 1 1.665 3.355l.187.41a33 33 0 0 1 .941 2.31c.476 1.276.954 2.551 1.474 3.809.345.862.609 1.746.87 2.637l.104.353c.424 1.436.833 2.864 1.12 4.334.091.452.091.452.238.933.162.581.27 1.156.369 1.75.109.645.222 1.288.356 1.928 1.739 8.719 1.589 18.633-.302 27.304a23 23 0 0 0-.265 1.465c-.498 3.109-1.49 6.126-2.499 9.1l-.302.925c-.261.78-.554 1.539-.87 2.298l-.126.306c-.541 1.316-1.093 2.614-1.745 3.88q-.214.428-.4.867a26 26 0 0 1-1.777 3.398 13 13 0 0 0-.503.942c-.235.482-.501.929-.79 1.38a38 38 0 0 0-.53.871c-.575.971-1.155 1.923-1.819 2.837-.234.323-.234.323-.451.721l-.209.325h-.293l-.116.326c-.181.415-.386.707-.672 1.057-.311.387-.606.769-.87 1.19l-.246.357h-.293l-.088.298c-.283.602-.696 1.042-1.139 1.534l-.507.572-.243.272c-.194.223-.376.456-.556.69l-.25.296h-.293l-.101.238c-.366.662-.841 1.17-1.419 1.648-.379.314-.699.64-1.016 1.016-.644.756-1.412 1.657-2.324 2.079-.288.123-.288.123-.396.409-.24.471-.631.754-1.034 1.082l-.256.211-.523.43a55 55 0 0 0-.719.604l-.425.358-.38.322c-.329.236-.541.31-.929.393l-.128.266c-.192.374-.419.512-.772.728-.456.299-.869.654-1.289 1-.301.202-.301.202-.74.202v.293a20 20 0 0 1-1.062.742l-.303.204c-.474.313-.856.551-1.419.666-1.001-1.24-1.001-1.24-1.328-1.84a8 8 0 0 0-.705-1.053c-.618-.804-1.162-1.709-1.483-2.673h-.293a15 15 0 0 1-.604-.934l-.165-.268c-.402-.664-.402-.664-.402-.996h-.293a20 20 0 0 1-.659-1.034l-.398-.65-.205-.335a48 48 0 0 0-.934-1.432l-.182-.271-.366-.543-.567-.85a98 98 0 0 0-1.893-2.773 13 13 0 0 1-.432-.675 17 17 0 0 0-.736-1.104c-.34-.478-.651-.962-.952-1.465a53 53 0 0 0-.513-.732c-.34-.478-.651-.962-.952-1.465a53 53 0 0 0-.513-.732 21 21 0 0 1-.952-1.465l-.299-.478-.156-.249-.322-.51c-.395-.636-.395-.636-.395-.962h-.293a15 15 0 0 1-.604-.934l-.165-.268c-.402-.663-.402-.663-.402-.995h-.293a15 15 0 0 1-.604-.934l-.165-.268c-.403-.663-.403-.663-.403-.996h-.293a15 15 0 0 1-.604-.934l-.165-.268c-.403-.662-.403-.662-.403-.995h-.293a15 15 0 0 1-.604-.934l-.165-.268c-.403-.663-.403-.663-.403-.995h-.293c-.2-.29-.2-.29-.421-.677-.558-.96-1.18-1.864-1.822-2.77a15 15 0 0 1-.466-.727c-.228-.38-.476-.738-.733-1.099-.34-.478-.651-.962-.952-1.465a53 53 0 0 0-.513-.732 17 17 0 0 1-.733-1.1 16 16 0 0 0-.723-1.079 13 13 0 0 1-.824-1.282c-.284-.495-.605-.927-.952-1.378a9 9 0 0 1-.641-1.053 9 9 0 0 0-.595-.847 10 10 0 0 1-.854-1.316c-.36-.619-.773-1.206-1.173-1.8a250 250 0 0 1-2.231-3.357l-.243-.373a2.8 2.8 0 0 1-.334-.918h-.293c-.232-.322-.232-.322-.494-.751l-.278-.449-.252-.411c-.439-.672-.9-1.328-1.365-1.983a15 15 0 0 1-.466-.727c-.228-.38-.476-.738-.733-1.099-.34-.478-.651-.962-.952-1.465a86 86 0 0 0-.705-1.062l-.198-.297q-.402-.602-.806-1.203a91 91 0 0 1-1.112-1.701 57 57 0 0 0-1.63-2.434 50 50 0 0 1-1.289-1.945 45 45 0 0 0-1.354-2.033 44 44 0 0 1-1.3-1.968l-.192-.303c-.316-.506-.589-.99-.787-1.556h-.293a15 15 0 0 1-.604-.934l-.165-.268c-.405-.662-.405-.662-.405-.995h-.293a15 15 0 0 1-.604-.934l-.165-.268c-.403-.662-.403-.662-.403-.995h-.293a22 22 0 0 1-.687-1.08 37 37 0 0 0-1.588-2.419 12 12 0 0 1-.431-.669 17 17 0 0 0-.736-1.105c-.34-.478-.651-.962-.952-1.465a53 53 0 0 0-.513-.732c-.34-.478-.651-.962-.952-1.465a53 53 0 0 0-.513-.732 15 15 0 0 1-.741-1.121c-.21-.372-.21-.372-.587-.719-.356-.358-.356-.358-.503-.688l-.146-.256c-.346-.089-.346-.089-.732-.146l-.321-.21c-1.411-.784-3.419-.721-4.944-.348-1.11.353-1.938.822-2.499 1.877-.192.556-.167 1.124-.165 1.706l-.001.345v1.152l-.001.832-.001 2.291-.001 2.468-.002 4.838-.001 3.931-.002 9.325v2.724q0 4.725-.003 9.45-.004 5.306-.003 10.613l-.002 5.621q-.002 2.393-.001 4.785.001 1.221-.001 2.442-.002 1.117 0 2.235l-.001.81q-.001.549.001 1.098l-.002.319c.008 1.183.398 2.047 1.211 2.888 1.556 1.142 3.442 1.23 5.297.957a5.84 5.84 0 0 0 2.466-1.25l.146-.293h.293l.059-.258c.083-.312.193-.596.313-.896.307-.919.276-1.833.272-2.794l.003-.618q.004-.844.002-1.69 0-.912.004-1.825.005-1.58.006-3.159.002-2.284.008-4.568.009-3.706.014-7.412.004-3.599.012-7.199l.001-.448.005-2.227q.02-9.234.033-18.468c.22.201.22.201.439.439v.293h.293a17 17 0 0 1 .613.934l.357.567.178.284c.442.692.925 1.357 1.406 2.023a15 15 0 0 1 .719 1.063c.298.495.617.975.938 1.456l.195.293a73 73 0 0 0 1.398 2.016c.192.287.34.578.494.886l.238.229c.204.209.204.209.204.648h.293c.189.246.189.246.385.568l.198.319c.15.285.15.285.15.578h.293l.146.732.439.146c.199.246.199.246.403.568l.23.358.247.393.531.842.244.391c.247.384.247.384.547.746.281.353.501.708.729 1.096a189 189 0 0 0 .931 1.37c.24.389.24.389.24.682h.293c.189.246.189.246.385.568l.198.319c.15.285.15.285.15.578h.293l.146.732h.293c.237.295.237.295.503.687l.265.386a21 21 0 0 1 .466.741c.294.489.609.962.926 1.436l.196.293c.582.869 1.18 1.727 1.786 2.58.272.392.472.725.545 1.201h.293c.189.246.189.246.385.568l.198.319c.15.286.15.286.15.579h.293a17 17 0 0 1 .613.934l.356.566.178.284c.305.477.632.937.961 1.397.281.4.551.806.821 1.213 1.321 2.008 1.321 2.008 2.716 3.964.507.681.507.681.507 1.163h.293c.217.301.217.301.467.714.5.809 1.033 1.587 1.584 2.362l.513.732q.393.563.79 1.124l.272.386.245.346c.238.35.453.71.671 1.073q.344.529.696 1.053l.195.293a59 59 0 0 0 1.398 2.002c.216.337.357.672.494 1.047h.293l.146.732h.293c.189.246.189.246.385.568l.198.319c.149.286.149.286.149.579h.293a17 17 0 0 1 .613.934l.357.567.178.284c.442.692.925 1.357 1.406 2.023.253.351.502.7.724 1.072.365.605.77 1.181 1.168 1.764.242.387.242.387.242.68h.293c.189.246.189.246.385.568l.198.319c.149.285.149.285.149.578h.293l.146.732.439.146c.22.277.22.277.439.623l.22.341q.215.347.423.699c.297.49.613.965.932 1.441l.196.293c.582.869 1.18 1.727 1.786 2.58.272.392.472.725.545 1.201h.293c.189.246.189.246.385.568l.198.319c.15.286.15.286.15.579h.293l.146.732.439.146c.199.246.199.246.403.568l.23.358.247.393.531.842.244.391c.247.384.247.384.547.746.281.353.5.708.729 1.096q.18.272.363.542l.196.289.406.595c.5.74.5.74.5 1.065-1.648.833-3.292 1.655-5.013 2.33a119 119 0 0 0-1.189.477c-1.492.603-2.994 1.158-4.537 1.616q-.603.18-1.202.37c-1.385.431-2.755.853-4.182 1.124-.443.085-.443.085-.921.232-.584.163-1.163.271-1.761.369-.637.106-1.268.218-1.897.366-.78.177-1.566.272-2.36.366l-.423.052-.878.104q-.559.066-1.117.137a39 39 0 0 1-4.724.269l-.745.003q-.776.002-1.553.002-.78 0-1.561.006c-3.109.024-6.103-.08-9.177-.582-.53-.083-1.059-.14-1.592-.192-4.989-.615-9.987-2.089-14.693-3.831a55 55 0 0 0-.817-.293l-.429-.151-.383-.133c-.394-.162-.735-.371-1.1-.59-.31-.122-.31-.122-.623-.21-.99-.315-1.917-.757-2.842-1.226a129 129 0 0 0-1.076-.537 71 71 0 0 1-2.932-1.543l-.315-.171c-2.547-1.389-5.278-2.891-7.494-4.773-.37-.328-.37-.328-.73-.529-1.395-.845-2.632-1.975-3.861-3.041a48 48 0 0 0-1.324-1.099 47 47 0 0 1-1.685-1.437l-.409-.366c-.295-.302-.295-.302-.295-.595l-.284-.119c-.302-.174-.302-.174-.448-.614l-.293-.146c-.293-.146-.293-.146-.439-.586l-.293-.146c-.293-.146-.293-.146-.439-.586a52 52 0 0 0-.586-.293c-.284-.277-.284-.277-.586-.623l-.348-.397-.385-.445-.211-.243c-4.038-4.656-4.038-4.656-4.038-5.324h-.293a17 17 0 0 1-.586-.879l-.342-.515-.179-.269a90 90 0 0 0-1.512-2.219 15 15 0 0 1-.894-1.417c-.181-.324-.376-.638-.571-.954-.42-.695-.778-1.412-1.134-2.141a8 8 0 0 0-.532-.899c-.249-.364-.392-.698-.549-1.108l-.211-.348c-.269-.453-.466-.925-.668-1.41l-.293-.677-.137-.317c-.152-.332-.152-.332-.367-.654-.348-.614-.543-1.272-.765-1.94a11 11 0 0 0-.636-1.535c-.318-.616-.524-1.248-.732-1.907l-.252-.74c-.46-1.355-.894-2.698-1.213-4.094q-.145-.591-.293-1.181l-.076-.306a45 45 0 0 0-.446-1.653c-.221-.794-.358-1.598-.495-2.409a19 19 0 0 0-.311-1.546c-.164-.711-.235-1.433-.308-2.158a44 44 0 0 0-.232-1.915c-.38-2.731-.396-5.438-.385-8.189q.003-.981-.001-1.962c-.009-2.748.04-5.44.44-8.164.083-.577.155-1.155.227-1.734.145-1.141.329-2.256.61-3.373.104-.438.178-.874.247-1.318.112-.712.282-1.391.481-2.083.103-.379.18-.754.252-1.14.11-.582.269-1.125.472-1.681.129-.398.225-.801.325-1.207.138-.528.311-1.044.485-1.561l.117-.348a82 82 0 0 1 1.113-3.058q.215-.566.426-1.135l.313-.834.148-.398c.235-.629.48-1.202.847-1.77a68 68 0 0 0 .302-.712c.243-.553.521-1.089.793-1.628a61 61 0 0 0 .397-.8 49 49 0 0 1 3.436-5.931c.224-.342.421-.696.62-1.053.522-.873 1.142-1.681 1.777-2.474l.195-.332c.792-1.299 1.829-2.464 2.825-3.611a45 45 0 0 0 1.265-1.523 49.4 49.4 0 0 1 6.408-6.546l.502-.437c1.528-1.334 3.075-2.629 4.708-3.833.359-.26.359-.26.65-.564h.439v-.293c.29-.232.29-.232.677-.494l.407-.277.381-.254.458-.311.42-.275.303-.198.319-.205.295-.19c.255-.139.255-.139.548-.139v-.293l.339-.156a13 13 0 0 0 1.291-.769c.711-.46 1.44-.843 2.205-1.206.425-.209.425-.209.837-.497a13 13 0 0 1 1.555-.861l.624-.307.315-.155a75 75 0 0 0 .864-.435c.855-.436 1.708-.845 2.605-1.188.382-.152.75-.323 1.122-.497.767-.353 1.548-.637 2.345-.915a59 59 0 0 0 1.43-.528c2.306-.88 4.678-1.502 7.072-2.092q.824-.204 1.641-.439c.936-.26 1.889-.423 2.844-.593a46 46 0 0 0 .958-.192c4.161-.826 8.317-.967 12.546-.971m21.224 42.416c-.463.716-.603 1.37-.608 2.212l-.004.46-.002.505-.004.537-.007 1.477-.007 1.266c-.023 4.005-.034 8.011-.043 12.016l-.005 1.958a1669 1669 0 0 1-.029 6.293q-.019 3.233-.023 6.466a439 439 0 0 1-.016 3.628 290 290 0 0 0-.01 3.092q.003.787-.007 1.575c-.031 2.389.043 4.001 1.644 5.829a20 20 0 0 1 .513.87c.183.34.183.34.366.595h.293l.146.732h.293l.101.302c.201.449.445.796.737 1.189.231.327.42.675.613 1.025.24.397.523.755.811 1.118.245.343.448.702.654 1.069.276.476.585.929.893 1.385l.189.281a238 238 0 0 0 .84 1.244 38 38 0 0 1 1.142 1.903c.147.251.306.495.466.738h.293l.293.732h.146a19073 19073 0 0 0 .041-25.947q.005-4.324.016-8.649.01-4.436.012-8.873.001-2.738.01-5.476.006-1.877.004-3.754-.002-1.083.004-2.167.005-.992.001-1.984l.003-.717c.039-1.755.039-1.755-.824-3.223-1.312-1.144-3.202-1.256-4.872-1.212-1.564.116-2.898.397-4.063 1.505"/></svg>