<svg xmlns="http://www.w3.org/2000/svg" width="150" height="169.07" viewBox="0 0 150 169.07"><path d="M79.553.671q.219.08.442.149c1.098.389 2.103 1.005 3.09 1.615.45.275.909.515 1.382.748.401.204.771.447 1.142.702.292.189.595.341.908.49v.165l.182.027c.245.059.405.143.618.277l.218.135.22.139.413.248.631.38c.282.171.56.339.855.487.446.223.866.493 1.292.753.361.219.722.424 1.102.609.277.15.544.307.805.485.222.145.442.272.676.397q.568.308 1.12.645c.354.214.708.424 1.073.619.42.225.826.469 1.233.716.387.234.78.452 1.179.665.237.132.459.285.684.435a17 17 0 0 0 .66.33v.165l.184.028c.236.056.382.131.585.261q.565.349 1.145.671c.698.39 1.385.788 2.059 1.218a10 10 0 0 0 .979.547q.208.122.413.248a11 11 0 0 0 .908.495c.547.305 1.082.629 1.617.956.416.253.834.484 1.273.695v.165l.211.061c.318.117.592.277.878.455l.329.201.162.099c.347.208.705.396 1.061.587a51 51 0 0 1 1.632.936 39 39 0 0 0 1.089.621c.271.152.536.314.802.474a28 28 0 0 0 .608.353 68 68 0 0 1 1.571.923c.431.26.872.5 1.316.738v.165l.182.027c.245.059.405.143.618.277l.218.135.22.14.413.248.631.38c.282.171.56.339.855.487.441.22.856.485 1.275.744.359.22.719.42 1.098.603.439.215.84.465 1.247.732.431.282.877.529 1.333.77l.445.24.628.338v.165l.227.072c.212.073.401.152.599.258v.165l.182.027c.245.059.405.143.618.277l.218.135.22.138.402.243.206.124c.544.324 1.089.645 1.646.944.429.232.846.48 1.263.733q.37.225.745.44a28 28 0 0 1 .696.411c.216.13.429.253.655.366.446.223.866.493 1.292.753.282.17.56.338.854.486.441.221.857.487 1.278.744q.511.312 1.039.598c.46.248.909.512 1.358.778a76 76 0 0 0 1.149.666 29 29 0 0 1 1.937 1.185 8 8 0 0 0 .378.235c1.027.629 1.899 1.54 2.686 2.44l.135.153c.205.239.365.485.526.755l.279.433c.378.594.711 1.177.963 1.836q.077.2.162.397c.245.568.396 1.155.533 1.758q.051.222.107.443c.177.745.222 1.457.218 2.219l.001.386v1.054l.001 1.149q.002 1.006.001 2.012l.002 2.992.003 5.656.002 5.628v.316a15781 15781 0 0 1 .002 11.659q0 5.334.005 10.669l.003 2.687v.167q.004 4.474.003 8.947v1.572q0 2.492.004 4.982.003 2.506.001 5.011-.002 1.487.002 2.974.002.995-.001 1.991-.002.566.001 1.131c.009 1.865-.005 3.744-.806 5.474a10 10 0 0 0-.098.325c-.384 1.182-1.095 2.436-1.883 3.39h-.165l-.057.181c-.131.28-.299.43-.521.645l-.203.206-.204.206-.203.206c-.793.763-1.91 1.794-3.021 2.023v.165l-.149.07c-.474.229-.913.488-1.353.775a16 16 0 0 1-.94.531c-.211.112-.211.112-.442.275-.241.157-.48.281-.738.408a10 10 0 0 0-.974.543c-.269.172-.543.335-.816.499l-.157.094a39 39 0 0 1-.76.445 27 27 0 0 0-.667.394c-.357.215-.72.414-1.088.611a16 16 0 0 0-.572.335l-.166.102-.323.201c-.279.172-.515.291-.843.329v.165l-.17.091c-.389.21-.774.423-1.151.652-1.224.741-1.224.741-1.651.826v.165l-.149.07c-.474.229-.914.489-1.355.776-.295.186-.599.35-.906.514-.413.225-.817.465-1.223.704l-.521.304-.249.145-.52.299a39 39 0 0 0-.694.409c-.831.5-.831.5-1.223.691-.452.23-.881.5-1.311.769l-.216.134-.195.123c-.203.105-.38.148-.605.182v.165l-.17.091a34 34 0 0 0-1.764 1.024c-.451.276-.91.518-1.388.744a4 4 0 0 0-.641.453c-.153.084-.153.084-.299.15a7 7 0 0 0-.795.459c-.399.259-.81.472-1.238.68a7 7 0 0 0-.697.405q-1.05.67-2.15 1.256c-.201.108-.201.108-.43.269-.241.157-.48.281-.738.408a10 10 0 0 0-1.393.826 9 9 0 0 1-1.019.537c-.242.12-.242.12-.435.289-.225.177-.445.29-.702.413-.298.148-.582.319-.867.489l-.186.11q-.486.288-.97.581c-.336.203-.679.389-1.024.575a23 23 0 0 0-.626.363l-.191.114-.377.228-.175.105-.157.095c-.143.068-.143.068-.39.068v.165l-.32.165-.18.093c-.161.072-.161.072-.326.072v.165l-.17.091c-.389.21-.774.423-1.151.652a18 18 0 0 1-.841.48q-.558.303-1.099.635c-.502.304-1.01.59-1.527.867-.427.231-.836.472-1.238.743-.349.211-.708.395-1.073.578-.817.437-.817.437-1.573.965-.161.108-.161.108-.491.108v.165l-.17.091q-.683.368-1.349.77-.747.45-1.505.878a32 32 0 0 0-.671.397 20 20 0 0 1-.862.49c-.428.231-.843.479-1.258.731-.387.234-.781.452-1.18.666-.201.108-.201.108-.43.269-.241.157-.48.281-.738.408-.496.244-.952.52-1.409.831-2.898 1.893-6.964 2.249-10.3 1.579a7.4 7.4 0 0 1-1.324-.431 4.5 4.5 0 0 0-.578-.183c-.833-.24-1.615-.713-2.353-1.16a22 22 0 0 0-1.073-.615 16 16 0 0 1-1.222-.745 8 8 0 0 0-.904-.508q-.202-.11-.402-.222l-.195-.109-.145-.083v-.165l-.212-.062c-.578-.21-1.087-.572-1.609-.894q-.589-.361-1.182-.716l-.211-.127a41 41 0 0 0-.9-.528 8 8 0 0 1-.607-.388c-.367-.249-.753-.44-1.152-.634-.404-.203-.775-.45-1.15-.702-.488-.322-1.007-.596-1.517-.882l-.183-.103-.441-.247v-.165l-.196-.052c-.407-.154-.756-.38-1.125-.609l-.377-.227-.205-.123c-.745-.444-1.491-.884-2.245-1.311q-.684-.392-1.353-.809a80 80 0 0 0-.912-.553l-.159-.096a27 27 0 0 0-.677-.396c-.605-.344-1.193-.77-1.583-1.355-.045-.35-.048-.513.165-.8.518-.399 1.064-.579 1.687-.764a30 30 0 0 0 2.352-.815q.362-.14.728-.268a14 14 0 0 0 1.919-.886c.387-.209.778-.406 1.172-.6a20 20 0 0 0 1.402-.765c1.354-.799 1.354-.799 2.298-.716.247.073.445.19.66.33l.222.139.472.302c.259.166.524.316.792.467l.627.377a19 19 0 0 0 .493.284c.225.131.436.267.65.413.281.19.563.344.869.49.255.134.487.3.725.462.271.176.554.313.847.451v.165l.179.025c.267.066.439.173.667.326.397.261.799.498 1.218.722v.165l.182.028c.243.058.402.14.612.272l.217.135.909.579q.661.42 1.345.803c.219.127.422.259.629.402.368.25.755.442 1.157.63.241.128.434.28.644.453q.204.12.411.237.293.166.58.341l.214.128.351.213c.603.361 1.201.657 1.912.567.485-.157.916-.425 1.349-.69a35 35 0 0 1 1.675-.966 24 24 0 0 0 1.071-.619 18 18 0 0 1 .569-.325c.406-.223.801-.462 1.197-.702 1.495-.902 1.495-.902 2.244-1.305.807-.436 1.592-.912 2.377-1.386q.696-.423 1.414-.808.281-.157.556-.326l.167-.102.324-.202c.279-.172.515-.291.843-.329V150l.32-.165.18-.093c.159-.072.159-.072.324-.072v-.165l.137-.064c.615-.297 1.193-.646 1.776-1a35 35 0 0 1 1.57-.901 39 39 0 0 0 1.197-.681l.175-.103a31 31 0 0 0 .853-.521c.264-.166.532-.309.814-.444.343-.169.67-.346.99-.554.325-.209.659-.404.991-.602l.216-.139c.197-.11.197-.11.445-.11v-.165l.17-.091q.794-.429 1.564-.9c.434-.264.866-.516 1.321-.743q.518-.303 1.027-.62c.45-.276.909-.517 1.386-.743.233-.117.233-.117.433-.288.224-.178.446-.29.703-.413q.236-.135.469-.273a37 37 0 0 1 1.208-.677c.295-.163.58-.34.866-.519a1.7 1.7 0 0 1 .511-.182v-.165l.137-.064c.615-.297 1.193-.646 1.776-1a36 36 0 0 1 1.627-.932c.232-.125.451-.251.671-.397.215-.143.428-.265.655-.387q.568-.308 1.12-.645a28 28 0 0 1 1.29-.735q.433-.243.856-.503c1.426-.862 1.426-.862 1.857-.949v-.165l.137-.064c.618-.298 1.199-.648 1.784-1.004.79-.482 1.583-.96 2.398-1.398.37-.199.73-.412 1.089-.629.502-.304 1.01-.59 1.527-.867.9-.479.9-.479 1.746-1.042.18-.134.357-.197.566-.279a20 20 0 0 0 .578-.33l.209-.123c.407-.236.407-.236.786-.512.16-.11.16-.11.49-.11v-.165l.32-.165.18-.093c.161-.072.161-.072.326-.072v-.165l.17-.091a31 31 0 0 0 1.354-.776q.333-.195.674-.377c.264-.142.521-.288.774-.449.244-.156.493-.297.748-.433.432-.232.85-.483 1.269-.737q.58-.348 1.177-.664a5 5 0 0 0 .479-.302c.206-.134.206-.134.454-.134v-.165l.154-.11c.332-.259.411-.649.507-1.046.044-.412.044-.821.041-1.235l.001-.371q.001-.509-.001-1.018-.001-.554.001-1.108v-9.987q-.002-2.256-.001-4.513v-1.517q0-5.698-.003-11.396-.003-5.064-.001-10.127l.001-2.594v-.322l-.001-9.973v-4.51q.001-2.564-.002-5.127v-2.871q.001-.958-.001-1.916V50.85q.001-.497-.001-.994v-.357c.004-.767-.024-1.406-.463-2.052a4 4 0 0 0-.849-.618l-.163-.096a5 5 0 0 0-.869-.42v-.165l-.201-.057c-.68-.251-1.292-.671-1.914-1.039a36 36 0 0 0-1.23-.691c-.422-.232-.831-.486-1.242-.737a15 15 0 0 0-1.274-.696v-.165l-.201-.057c-.646-.238-1.222-.631-1.809-.986a27 27 0 0 0-1.137-.642 25 25 0 0 1-.856-.503 25 25 0 0 0-1.857-1.032v-.165l-.191-.052c-.678-.253-1.288-.647-1.889-1.045a6 6 0 0 0-.538-.293c-.402-.197-.781-.43-1.164-.663a28 28 0 0 0-2.079-1.166v-.165l-.191-.052c-.684-.255-1.298-.654-1.906-1.054a8 8 0 0 0-.71-.381 33 33 0 0 1-.47-.273 30 30 0 0 0-1.006-.568 11 11 0 0 1-.918-.562 17 17 0 0 0-.66-.33v-.165l-.185-.029a1.6 1.6 0 0 1-.568-.25c-.418-.26-.843-.508-1.269-.753a62 62 0 0 1-1.264-.743 8 8 0 0 0-.593-.33 9 9 0 0 1-.635-.356 29 29 0 0 0-1.347-.759v-.165l-.183-.028a1.8 1.8 0 0 1-.607-.272 39 39 0 0 0-.96-.578l-.253-.147-.526-.301a34 34 0 0 1-.697-.413 10 10 0 0 0-.655-.366c-.446-.223-.866-.493-1.292-.753-.282-.17-.56-.338-.854-.486-.444-.222-.863-.491-1.287-.75l-.21-.127-.186-.114a10 10 0 0 0-.532-.28 14 14 0 0 1-.979-.545q-.944-.56-1.899-1.098a26 26 0 0 1-1.121-.67 14 14 0 0 0-.563-.329 28 28 0 0 1-.758-.457 9 9 0 0 0-.538-.284 16 16 0 0 1-1.039-.577l-.185-.109a71 71 0 0 1-1.181-.714 4.4 4.4 0 0 0-.584-.261V19.4l-.201-.057c-.646-.238-1.222-.631-1.809-.986a27 27 0 0 0-1.137-.642 25 25 0 0 1-.856-.503 25 25 0 0 0-1.857-1.032v-.165l-.197-.054c-.398-.148-.748-.356-1.114-.57l-.465-.269-.232-.135a75 75 0 0 0-.938-.53 39 39 0 0 1-1.205-.703 28 28 0 0 0-1.71-.959v-.165l-.201-.057c-.468-.173-.882-.423-1.303-.689l-.141-.089-.401-.258a2.64 2.64 0 0 0-1.668-.311c-.567.17-1.069.516-1.569.826-.434.265-.866.516-1.321.743q-.207.123-.413.248a11 11 0 0 1-.908.495c-.813.445-.813.445-1.581.96-.179.134-.357.196-.565.279-.399.219-.788.456-1.178.691a81 81 0 0 1-.96.563 46 46 0 0 0-.531.315l-.267.16-.243.147c-.21.105-.21.105-.458.105v.165l-.143.076a64 64 0 0 0-2.787 1.6c-.336.203-.68.39-1.026.575a16 16 0 0 0-.572.335l-.166.102-.323.201c-.281.174-.517.293-.844.331v.165l-.17.091c-.389.21-.774.423-1.151.652-.432.263-.876.503-1.321.743-.485.263-.96.54-1.434.82-1.548.914-1.548.914-1.786.914v.165l-.17.091c-.389.21-.774.423-1.151.652-.432.263-.876.503-1.321.743q-.685.374-1.352.779c-1.439.868-1.439.868-1.868.954v.165l-.131.061c-.877.423-1.706.937-2.536 1.445-.371.225-.757.414-1.15.599a4 4 0 0 0-.641.453 17 17 0 0 1-.495.248l-.582.331c-.16.083-.16.083-.325.083v.165l-.131.061c-.877.423-1.706.937-2.536 1.445-.371.225-.757.414-1.15.599-.233.117-.233.117-.433.288-.224.178-.446.29-.703.413a33 33 0 0 0-.47.274 30 30 0 0 1-1.006.568c-.319.172-.619.358-.918.562-.349.211-.708.395-1.073.578l-.421.24a32 32 0 0 1-.513.286c-.717.385-.717.385-1.381.851-.162.109-.162.109-.493.109v.165l-.17.091c-.457.247-.906.501-1.35.77a50 50 0 0 1-2.113 1.202c-.903.471-.903.471-1.737 1.047-.161.11-.161.11-.491.11v.165l-.17.091a35 35 0 0 0-1.564.9l-.433.263-.192.117c-.227.131-.461.246-.695.363a41 41 0 0 0-.64.356l-.176.099a37 37 0 0 0-.97.566c-.766.465-.766.465-1.021.465v.165l-.164.088c-.586.317-1.161.647-1.735.985-.489.288-.979.574-1.479.844-.299.161-.587.329-.869.519-1.212.783-1.212.783-1.615.783v.165l-.495.33-.165.248h-.165l-.036.227c-.046.268-.046.268-.09.419-.05.23-.049.445-.05.681l-.001.314v.346l-.001.369v1.019l-.001 1.106-.001 2.196-.001 2.63-.002 6.357-.001 3.006-.002 12.881v.325l-.003 10.447-.003 12.554-.002 4.805q-.002 2.414-.001 4.828.001 1.435-.001 2.87v4.002l-.001.357c-.007 1.055-.007 1.055.279 2.062.164.101.164.101.33.165l.083.165a8 8 0 0 0 .413.232l.249.132.246.134c.334.181.665.36.98.573.297.196.606.362.919.53q.374.206.742.424c.462.272.931.53 1.403.784v.165l.227.072c.212.073.401.152.599.258v.165l.183.028c.242.058.397.139.607.272a39 39 0 0 0 .96.578l.253.147.526.302a34 34 0 0 1 .697.413c.216.13.429.253.655.366.446.223.866.493 1.292.753.282.17.56.338.854.486.446.223.866.493 1.292.753.282.17.56.338.854.486.441.221.857.487 1.278.744.717.434 1.451.83 2.2 1.206l.161.081c2.749 1.37 5.82 2.02 8.827 1.147.339-.12.665-.259.991-.413l.223-.105c1.832-.929 3.168-2.567 3.851-4.497.309-1.068.396-2.095.395-3.2v-1.38l.001-1.101.001-1.93.001-2.87.002-4.532.004-7.192.002-2.767v-.31l.005-7.317.005-10.712.009-12.485.002-4.779q0-2.4.003-4.8.002-1.427.001-2.854l.002-1.904q.002-.543 0-1.086-.001-.494.001-.988v-.356c-.004-.802.026-1.403.61-2.003.504-.413.933-.473 1.571-.469l.27-.003a78 78 0 0 1 .878-.002l.613-.002h1.284q.82 0 1.641-.006a154 154 0 0 1 1.266-.002q.302 0 .605-.003.424-.003.847.002l.25-.004c.54.01.878.149 1.32.458.623.651.66 1.295.653 2.166l.002.374q.001.515-.001 1.029-.001.56.001 1.12.002.981 0 1.963-.002 1.46 0 2.92.002 2.608 0 5.216-.002 2.284-.001 4.569v1.536q0 5.775-.003 11.549-.003 5.123-.001 10.247l.001 2.62v.326a12186 12186 0 0 1-.001 10.108v4.56q.001 2.597-.002 5.194-.002 1.45 0 2.901.001.973-.002 1.945v1.104c.004 1.465-.038 2.91-.196 4.368l-.021.19a20.6 20.6 0 0 1-1.147 4.846l-.103.289c-.365.994-.863 1.928-1.383 2.848l-.128.232-.122.179h-.165l-.026.191c-.065.254-.122.29-.304.469a33 33 0 0 0-.476.651 7 7 0 0 1-.267.34h-.165l-.057.134c-.426.771-1.21 1.297-1.88 1.841a20 20 0 0 0-.478.404 4.3 4.3 0 0 1-.648.42 7 7 0 0 0-.513.333c-.53.357-1.09.632-1.691.846-.317.117-.627.251-.939.382l-.234.098-.208.088c-.387.146-.793.229-1.195.325l-.245.059a55 55 0 0 1-.829.188l-.185.042-.615.134-.188.043c-1.347.28-2.774.21-4.141.21q-.454 0-.908.003c-2.9.007-2.9.007-4.23-.372a7 7 0 0 0-.692-.142 4.2 4.2 0 0 1-.923-.268 3 3 0 0 0-.509-.133c-.44-.095-.849-.25-1.267-.415l-.219-.085q-.646-.251-1.29-.511l-.575-.225a21 21 0 0 1-1.185-.529 30 30 0 0 0-.995-.447 20 20 0 0 1-1.891-.938l-.349-.193-.358-.199-.17-.094a5 5 0 0 1-.617-.387c-.202-.15-.415-.251-.642-.36a8 8 0 0 1-1.001-.582l-.454-.248a8 8 0 0 1-.697-.413 7 7 0 0 0-.748-.413 8 8 0 0 1-.991-.578 25 25 0 0 0-1.238-.66v-.165l-.191-.052c-.429-.16-.814-.384-1.212-.609l-.323-.18-.342-.191-.159-.089a32 32 0 0 1-.885-.517 46 46 0 0 0-1.468-.838 48 48 0 0 1-1.675-.964c-.248-.149-.5-.288-.753-.427a36 36 0 0 1-.6-.34l-.337-.186a6 6 0 0 1-.969-.642l-.425-.242a6.5 6.5 0 0 1-.73-.501v-.165l-.16-.026-.172-.057-.083-.248-.175-.057c-.304-.139-.454-.334-.663-.59-.155-.188-.155-.188-.354-.381-.606-.607-1.092-1.294-1.532-2.027l-.15-.245c-.607-1.015-1.005-2.04-1.3-3.181l-.052-.198a37 37 0 0 1-.149-.585l-.084-.306c-.123-.561-.104-1.129-.102-1.699l-.001-.386-.001-1.062-.001-1.155-.002-2.292-.002-2.745q-.004-3.318-.004-6.636l-.002-3.14-.005-13.631q-.001-5.454-.007-10.907a11619 11619 0 0 1-.007-12.972v-.315q0-2.507-.004-5.014-.004-2.522-.002-5.044.001-1.497-.002-2.994-.002-1.002 0-2.004.002-.57-.001-1.139c-.01-1.856.016-3.676.805-5.398q.06-.178.114-.358c.135-.416.329-.79.536-1.174l.105-.2c.512-.96.512-.96.73-1.24h.165l.063-.181c.472-1.072 1.71-2.139 2.662-2.791l.222-.181c.194-.152.389-.275.604-.397l.149-.089c.409-.241.409-.241.594-.241v-.165l.137-.064c.618-.298 1.199-.648 1.784-1.004.79-.482 1.583-.96 2.398-1.398.429-.232.846-.48 1.263-.733q.37-.225.745-.44a28 28 0 0 0 .696-.411c.295-.178.594-.336.903-.49a45 45 0 0 0 .622-.388c.208-.11.384-.156.616-.19v-.165l.32-.165.18-.093c.16-.073.16-.073.325-.073v-.165l.17-.091c.389-.21.774-.423 1.151-.652q.415-.251.841-.48c.428-.231.843-.48 1.259-.732.384-.232.773-.449 1.168-.66.235-.13.46-.272.686-.416.285-.174.58-.328.874-.486.218-.117.218-.117.45-.281.241-.157.48-.281.738-.408a10 10 0 0 0 1.393-.826c.247-.156.492-.284.753-.413.347-.17.676-.349 1-.559.263-.169.533-.325.802-.484.191-.115.191-.115.367-.252.179-.134.357-.197.565-.279.285-.155.556-.315.826-.495.217-.144.436-.275.663-.402q.278-.16.549-.33c.382-.231.775-.43 1.177-.622.256-.133.497-.281.74-.436.281-.177.567-.343.853-.511l.185-.109 1.78-1.039a75 75 0 0 0 1.157-.684c.365-.22.738-.423 1.114-.625.213-.115.213-.115.445-.278.241-.157.48-.281.738-.408a10 10 0 0 0 1.393-.826 9 9 0 0 1 1.019-.537c.242-.12.242-.12.435-.289.225-.177.445-.29.702-.414.298-.148.582-.319.867-.489l.185-.11q.5-.296.996-.597c.278-.168.561-.314.851-.459.366-.214.728-.436 1.09-.656l.267-.159.247-.149c.214-.106.214-.106.461-.106v-.165l.32-.165.18-.093c.161-.072.161-.072.326-.072v-.165l.222-.115a42 42 0 0 0 1.93-1.08 34 34 0 0 1 1.088-.62c.13-.074.254-.158.377-.243.325-.21.665-.371 1.014-.537.243-.131.44-.284.652-.459a33 33 0 0 1 .495-.248q.207-.122.413-.248c.297-.18.597-.34.908-.495q.53-.309 1.048-.635l.216-.134.195-.123c.203-.105.38-.148.605-.182V7.76l.17-.091c.38-.205.757-.412 1.125-.636.362-.22.729-.428 1.099-.635.361-.202.72-.404 1.073-.619.41-.249.829-.483 1.248-.717a35 35 0 0 0 1.087-.636 42 42 0 0 1 1.088-.615c.22-.122.43-.241.631-.392.198-.148.407-.247.63-.354a10 10 0 0 0 1.403-.831c.33-.209.675-.374 1.025-.546.259-.132.492-.288.731-.45A28 28 0 0 1 69.51.99l.264-.115c3.018-1.227 6.72-1.348 9.778-.204" fill="#549D43"/><path d="m88.67 50.84.236-.001.766-.002.269-.001q.706-.002 1.413-.002l1.151-.003c2.174-.01 4.317.012 6.477.271l.436.047q.489.055.978.118l.313.038c.633.08 1.254.188 1.878.32.253.051.504.089.76.122 1.372.203 2.734.587 4.055 1.006l.162.051c2.082.666 4.128 1.538 5.948 2.757q.347.23.701.448c.342.217.647.438.949.707l.142.122c1.905 1.644 1.905 1.644 2.62 2.604.12.161.12.161.247.281.211.214.377.459.552.703l.114.155c.18.251.31.456.371.758h.165c1.627 2.909 1.627 2.909 2.022 4.384.042.169.042.169.13.373.087.22.141.444.196.674.048.189.106.373.165.559.138.451.227.91.315 1.373a13 13 0 0 0 .14.631c.126.563.184 1.138.249 1.711q.035.301.073.602c.098.834.159 1.583-.318 2.324-.413.427-.852.748-1.462.776q-.232.003-.464.003l-.257.002q-.42.003-.839.003l-.586.002-1.227.002q-.784 0-1.568.008-.604.004-1.21.003-.289 0-.578.003c-1.934.018-1.934.018-2.625-.555v-.248l-.248-.083c-.191-.285-.247-.625-.325-.955l-.087-.358-.043-.176a29 29 0 0 0-.288-1.071l-.068-.251c-.519-1.81-1.54-3.853-3-5.071-.151-.127-.151-.127-.347-.329-1.975-1.928-4.878-2.684-7.516-3.146l-.431-.079c-.767-.14-1.539-.196-2.315-.253l-.216-.016a64 64 0 0 0-3.525-.185l-.29-.005a55 55 0 0 0-4.764.149 75 75 0 0 1-.819.052c-.94.062-1.86.205-2.786.377l-.172.032c-.567.106-1.126.216-1.669.416-.207.073-.419.118-.632.169a7.7 7.7 0 0 0-1.594.632c-.153.077-.153.077-.351.154a4.6 4.6 0 0 0-.643.336l-.215.129c-.189.114-.189.114-.347.284h-.248v.165c-.139.116-.139.116-.33.253-.439.331-.906.734-1.156 1.233h-.165l-.026.186c-.056.228-.056.228-.17.38-.904 1.211-.99 3.182-.814 4.636q.047.29.103.578l.046.249c.183.812.628 1.392 1.275 1.897v.165l.138.068q.315.161.626.335c2.497 1.361 5.375 1.904 8.156 2.372.346.058.688.12 1.03.2.407.093.817.149 1.231.204.436.058.868.12 1.298.209.353.073.701.12 1.06.157a23 23 0 0 1 1.45.206c.683.119 1.367.206 2.055.289.424.051.846.106 1.268.175s.844.113 1.269.155c.588.058 1.167.142 1.748.244.419.073.837.128 1.26.174a17 17 0 0 1 1.495.234c.434.085.869.147 1.307.205 1.177.16 2.34.4 3.503.635l.3.06.82.167.244.05a9 9 0 0 1 1.113.301q.25.055.5.103c1.172.245 2.322.607 3.462.97l.242.076c.675.218 1.332.478 1.987.749l.289.119c1.064.446 2.089.969 3.095 1.532v.165l.201.052c.39.151.925.384 1.12.774.167.094.167.094.33.165v.165l.136.057c.253.141.454.325.664.521l.132.122c.403.378.773.78 1.133 1.199l.129.147c.15.175.284.348.402.546.122.203.256.387.398.576.376.531.626 1.11.887 1.703l.101.215c.176.378.307.756.418 1.158.054.194.054.194.135.372.467 1.245.591 2.633.666 3.951l.017.27a26 26 0 0 1-.099 4.188l-.02.213c-.064.668-.156 1.312-.334 1.961a7 7 0 0 0-.125.602c-.194 1.001-.588 1.995-1.006 2.92l-.081.18c-.363.801-.736 1.573-1.24 2.297l-.15.221c-.209.305-.42.602-.66.884-.18.199-.18.199-.263.387-.121.235-.307.389-.495.573q-.112.136-.222.273l-.192.221h-.165l-.06.145c-.125.221-.268.347-.461.51a10 10 0 0 0-.588.538c-.614.611-1.309 1.133-2.028 1.614l-.243.165-.253.165-.197.131c-.48.314-.967.581-1.482.831-.253.128-.48.283-.715.441a12 12 0 0 1-.578.248l-.495.206-.26.108c-.495.206-.495.206-.984.426-.311.144-.618.27-.947.365a32 32 0 0 0-.927.288c-1.354.442-2.704.847-4.105 1.111a19 19 0 0 0-.648.137c-.38.085-.762.149-1.147.207l-.189.029-.399.061-.444.072c-.787.13-1.577.204-2.371.276l-.699.065-.458.042-.204.019a40 40 0 0 1-3.442.155l-.412.002-1.309.002h-.225c-2.067.001-4.123-.012-6.18-.234q-.488-.05-.975-.091c-2.862-.252-6.069-.582-8.755-1.637a4.3 4.3 0 0 0-.699-.203 7.6 7.6 0 0 1-1.147-.358l-.207-.077a34 34 0 0 1-1.368-.549 19 19 0 0 0-.607-.241c-1.014-.405-1.971-.948-2.91-1.501l-.169-.099q-.259-.151-.517-.304l-.163-.095c-.379-.226-.379-.226-.471-.41a29 29 0 0 0-.413-.248 23 23 0 0 1-.506-.382l-.141-.109c-1.209-.941-1.209-.941-1.747-1.49l-.205-.201a13 13 0 0 1-.641-.712l-.119-.14c-1.046-1.25-2.046-2.633-2.668-4.147l-.15-.325c-.21-.47-.385-.953-.563-1.436a15 15 0 0 0-.203-.519 5 5 0 0 1-.199-.687 8 8 0 0 0-.206-.737 6.5 6.5 0 0 1-.206-.935l-.059-.349-.031-.184a17 17 0 0 0-.075-.401c-.122-.619-.176-1.233-.217-1.862l-.021-.318c-.161-2.603-.161-2.603.377-3.417a2.22 2.22 0 0 1 1.584-.646l.217-.001h.236l.25-.001.82-.002.571-.001 1.197-.002q.766 0 1.531-.005l1.179-.002.564-.002.791-.001.234-.002c.682.004 1.349.147 1.872.61.29.495.389.99.449 1.553.174 1.381.546 2.679 1.037 3.978l.087.242c.52 1.388 1.503 2.695 2.637 3.638l.176.154c.871.736 1.906 1.317 2.961 1.745l.244.102c1.033.414 2.091.715 3.185.916q.301.06.598.137c.403.103.809.155 1.221.207l.222.029.466.061q.272.036.544.075c.767.109 1.53.17 2.303.211l.374.021.918.048.434.024c5.382.3 11.202.283 16.322-1.584l.242-.087c.719-.272 1.383-.655 2.023-1.078.127-.077.127-.077.292-.077v-.165l.165-.098c.287-.174.516-.383.762-.61.146-.117.146-.117.311-.117l.072-.201c.094-.212.094-.212.259-.295.094-.167.094-.167.165-.33h.165l.062-.175c.103-.237.103-.237.258-.459 1.079-1.681 1.258-4.137.96-6.071a4.2 4.2 0 0 0-.95-1.88v-.165h-.165l-.274-.278a5.7 5.7 0 0 0-1.624-1.125l-.165-.165a6 6 0 0 0-.346-.144 46 46 0 0 1-.926-.369 18 18 0 0 0-1.866-.644l-.267-.076a53 53 0 0 0-4.659-1.043 33 33 0 0 1-.601-.12c-.424-.086-.85-.147-1.279-.205-.902-.125-.902-.125-1.341-.212-.438-.084-.879-.128-1.321-.175a34 34 0 0 1-1.449-.192 31 31 0 0 0-2.007-.225 45 45 0 0 1-1.938-.22 39 39 0 0 0-1.664-.174 29 29 0 0 1-1.972-.236 25 25 0 0 0-1.17-.15 38 38 0 0 1-2.415-.342l-.388-.066q-1.172-.199-2.342-.419l-.252-.048a18 18 0 0 1-1.398-.336c-.246-.067-.494-.12-.744-.169a22 22 0 0 1-1.403-.346l-.191-.053a9 9 0 0 1-.919-.314l-.492-.119c-.26-.072-.499-.186-.746-.294l-.33-.108c-.831-.272-1.636-.623-2.435-.975l-.185-.081a10.7 10.7 0 0 1-1.589-.899l-.289-.165a11 11 0 0 1-1.277-.865q-.245-.181-.498-.353l-.248-.186v-.165l-.134-.057c-.456-.252-.782-.61-1.116-1.002q-.24-.28-.489-.551a9 9 0 0 1-1.068-1.445l-.136-.228a15 15 0 0 1-1.68-4.062l-.058-.22c-.732-2.881-.711-6.486.058-9.357l.06-.234c.316-1.207.779-2.347 1.307-3.475l.091-.195c.179-.376.377-.729.603-1.079.09-.137.09-.137.168-.299h.165l.064-.179c.107-.248.235-.451.39-.672l.152-.221.137-.167h.165l.057-.181c.13-.279.299-.433.521-.645l.165-.206c1.358-1.697 3.468-3.13 5.417-4.07q.325-.165.643-.34a13 13 0 0 1 1.618-.749l.916-.374c.305-.119.616-.212.931-.304a24 24 0 0 0 .655-.207c.758-.248 1.504-.486 2.289-.634.253-.048.253-.048.523-.131.327-.092.652-.152.987-.208.369-.062.736-.127 1.103-.204.414-.083.828-.14 1.247-.189l.223-.026.463-.054.702-.083.454-.053.208-.025c.784-.091 1.561-.163 2.351-.164" fill="#549D43"/></svg>