<svg xmlns="http://www.w3.org/2000/svg" width="150" height="150" viewBox="0 0 150 150"><path d="M66.468 18.86c6.175 4.039 9.707 14.624 13.062 20.92a457 457 0 0 0 4.845 8.853h1.172c.671-.851.671-.851 1.293-1.969l.75-1.249q.768-1.308 1.533-2.619c1.709-2.844 3.339-4.944 6.385-6.468 2.953-.223 4.693-.1 7.031 1.758 3.105 3.097 5.056 6.686 7.068 10.547q1.01 1.901 2.023 3.802l1.031 1.938c1.526 2.836 3.114 5.636 4.709 8.433a1245 1245 0 0 1 8.569 15.345 2210 2210 0 0 0 8.862 15.967c2.754 4.91 5.505 9.82 8.244 14.739q.847 1.521 1.697 3.041c5.804 10.431 5.804 10.431 5.257 14.667-1.334 2.619-2.613 4.054-5.273 5.273-1.882.256-3.748.24-5.645.227l-1.733.009c-1.918.008-3.836.004-5.754 0l-4.123.012q-5.603.015-11.204.007-5.266-.002-10.531.006-11.066.01-22.13-.002-10.122-.007-20.242.016-10.395.022-20.789.016-5.836-.004-11.671.01-5.486.013-10.972-.005-2.014-.003-4.029.006c-1.832.008-3.664.001-5.496-.009l-1.614.018c-3.297-.041-5.084-.511-7.621-2.657-1.439-2.129-1.628-4.216-1.574-6.745.943-4.786 3.844-8.999 6.261-13.177q.834-1.468 1.666-2.939 1.736-3.056 3.492-6.102a957 957 0 0 0 5.901-10.441l3.128-5.597a6345 6345 0 0 1 17.807-31.659l2.832-5.004.939-1.658a1327 1327 0 0 0 5.085-9.072l1.102-1.98a1373 1373 0 0 0 2.084-3.763c8.501-15.283 8.501-15.283 16.572-12.495m-4.358 10.437-.739 1.346c-4.745 8.629-9.516 17.239-14.374 25.804a2152 2152 0 0 0-5.944 10.57l-1.031 1.843-3.107 5.554a5021 5021 0 0 1-12.941 23.028 3227 3227 0 0 0-8.347 14.862l-.98 1.752-.916 1.641a246 246 0 0 1-2.247 3.889c-1.031 1.55-1.031 1.55-.936 2.875h33.984l4.688-9.375a430 430 0 0 1 3.882-7.031l1.058-1.879a981 981 0 0 1 8.384-14.503c2.869-4.898 5.648-9.844 8.396-14.811 1.481-2.664 2.971-5.307 4.597-7.887l.766-1.219a256 256 0 0 1 1.992-3.067c.996-2.16.783-2.981.222-5.266-.816-1.824-.816-1.824-1.881-3.669l-.577-1.038a526 526 0 0 0-1.864-3.313l-1.277-2.284a1351 1351 0 0 0-3.776-6.689l-1.065-1.882a1052 1052 0 0 0-2.707-4.746l-.806-1.409a128 128 0 0 0-1.868-3.096zm35.156 18.164c-1.191 1.724-2.228 3.545-3.296 5.347l-.939 1.52-.879 1.488-.816 1.358c-.69 1.901-.457 2.995.07 4.937.766 1.682.766 1.682 1.778 3.356l1.13 1.952 1.23 2.089q.638 1.097 1.273 2.195 1.322 2.279 2.65 4.556c2.024 3.473 4.011 6.969 6.001 10.461a15900 15900 0 0 0 7.175 12.552q3.45 6.025 6.889 12.056l.911 1.597q1.14 2.002 2.275 4.007l.639 1.119c.826 1.464 1.502 2.811 2.035 4.41h14.063a54.5 54.5 0 0 0-3.049-6.418l-.558-1.01q-.905-1.635-1.813-3.266l-1.272-2.296a4160 4160 0 0 0-11.054-19.793 12169 12169 0 0 1-5.068-9.039 2042 2042 0 0 1-6.402-11.486c-4.914-8.89-4.914-8.89-9.968-17.701l-.729-1.256a97 97 0 0 0-1.688-2.736zM84.374 69.727l-.677 1.229c-4.331 7.857-8.711 15.674-13.258 23.409-2.868 4.89-5.648 9.826-8.401 14.782a379 379 0 0 1-6.199 10.731c-.855 1.315-.855 1.315-.762 2.582h59.766c-.85-2.126-1.685-3.95-2.793-5.926l-.981-1.754-1.06-1.879-1.106-1.967a955 955 0 0 0-8.552-14.811c-2.885-4.923-5.677-9.895-8.43-14.893-2.172-3.919-4.388-7.832-6.962-11.505z" fill="#02C48D"/><path d="M84.375 51.563c1.758.586 1.758.586 2.747 2.271.769 1.83.769 1.83.769 3.588h1.172l.586 2.344h1.172l.677 1.229c4.334 7.862 8.717 15.685 13.267 23.425 2.788 4.753 5.482 9.554 8.16 14.369 2.831 5.076 5.745 10.1 8.692 15.11l.981 1.671.865 1.466c1.638 2.869 2.344 4.989 1.928 8.355-1.004 2.747-2.249 4.254-4.688 5.859-1.751.563-3.35.662-5.182.668l-1.728.011-1.883.002-1.993.009q-3.266.012-6.531.016l-4.536.01q-4.148.009-8.297.011-6.1.004-12.199.029c-3.527.015-7.054.019-10.58.021q-2.248.002-4.495.014c-2.096.01-4.191.009-6.287.005l-1.876.016c-3.186-.018-5.508-.152-8.241-1.983-1.727-1.864-2.543-3.543-2.82-6.042.238-4.89 3.337-9.178 5.749-13.294l1.888-3.255q1.538-2.645 3.088-5.283a622 622 0 0 0 7.328-12.849c3.411-6.129 6.92-12.196 10.469-18.246a538 538 0 0 0 4.472-7.791 108 108 0 0 1 4.832-7.746c.887-1.304 1.7-2.646 2.493-4.01m0 18.164-.677 1.229c-4.331 7.857-8.711 15.674-13.258 23.409-2.868 4.89-5.648 9.826-8.401 14.782a379 379 0 0 1-6.199 10.731c-.855 1.315-.855 1.315-.762 2.582h59.766c-.85-2.126-1.685-3.95-2.793-5.926l-.981-1.754-1.06-1.879-1.106-1.967a955 955 0 0 0-8.552-14.811c-2.885-4.923-5.677-9.895-8.43-14.893-2.172-3.919-4.388-7.832-6.962-11.505z" fill="#2F495E"/><path d="M99.609 36.328c5.077 2.105 7.605 7.712 9.998 12.305q1.01 1.901 2.023 3.802l1.031 1.938c1.526 2.836 3.114 5.636 4.709 8.433a1245 1245 0 0 1 8.569 15.345 2210 2210 0 0 0 8.862 15.967c2.754 4.91 5.505 9.82 8.244 14.739q.847 1.521 1.697 3.041c5.804 10.431 5.804 10.431 5.257 14.667-1.333 2.617-2.604 4.072-5.273 5.273-2.02.238-4.022.204-6.054.172l-1.761-.008c-1.851-.01-3.701-.032-5.552-.054q-1.886-.013-3.771-.023-4.614-.03-9.23-.086l1.078-.531c1.709-.865 2.842-1.597 4.195-2.985l1.758-5.859h14.063l-1.485-2.648a4927 4927 0 0 1-11.149-19.983 1792 1792 0 0 0-8.166-14.579 2015 2015 0 0 1-9.264-16.554 4875 4875 0 0 0-11.536-20.653c-1.959 2.88-3.855 5.746-5.493 8.826l-.892 1.668-.647 1.225h-1.172l-.586-2.344H87.89l-.472-1.112-.627-1.451-.618-1.441c-.582-1.349-.582-1.349-1.799-2.44 8.244-15.261 8.244-15.261 15.234-14.648" fill="#128776"/><path d="m136.523 141.797 2.051.293c2.461.312 4.846.337 7.324.293l.586 3.516-2.338-.009q-4.29-.015-8.58-.023l-3.715-.012q-2.668-.011-5.337-.013l-1.682-.009h-1.563l-1.376-.004c-1.31.026-1.31.026-2.948.656l-1.758-1.172v-2.344c2.474-.471 4.802-.655 7.32-.643l2.129.006 2.197.015 2.238.008q2.726.011 5.452.029z" fill="#706E6E"/><path d="m122.319 142.325 1.178.003q1.862.006 3.725.018 1.262.005 2.525.008 3.096.01 6.191.029c-1.172 1.172-1.172 1.172-2.673 1.465l-1.429.293-.586 1.172h-7.031l.586-1.758c-1.978.695-3.309 1.334-4.688 2.93l-2.93-1.172v-2.344c1.712-.856 3.222-.651 5.132-.643" fill="#8A8888"/><path d="m121.948 142.346 1.945.016 1.498.021v2.93l-1.172-.586.586-1.172c-1.978.695-3.309 1.334-4.688 2.93l-2.93-1.172v-2.344c1.62-.81 2.957-.642 4.761-.622" fill="#7D7B7B"/><path d="M141.797 142.383h4.102l.586 3.516h-6.445v-1.758l3.516.586h-1.758z" fill="#4F4E4D"/><path d="m123.047 143.555 1.758.586-.586 1.172h12.305v.586H121.29l.586-1.758z" fill="#282727"/><path d="M139.453 142.383h2.344l.586 1.758 2.344-.586-1.172 1.758c-1.538.11-1.538.11-2.93 0l-.586-1.172-.586 1.758c-.586-1.758-.586-1.758 0-3.516" fill="#AAA7A7"/><path d="M130.664 142.383h5.273c-1.172 1.172-1.172 1.172-2.673 1.465l-1.428.293-.586 1.172h-1.172z" fill="#B3B1B0"/><path d="M124.219 146.484h12.305v.586h-12.305z" fill="#121212"/><path d="m121.289 142.383-.586 1.758-1.172-.586-1.172 2.344-1.172-.586v-2.344c1.443-.721 2.508-.628 4.102-.586" fill="#B5B3B4"/><path d="m133.594 142.969 1.758 1.172v1.172h-4.102l.586-1.758z" fill="#83817F"/><path d="M140.039 146.484h5.859v.586h-5.859z" fill="#0F0F0F"/><path d="m122.461 146.484 1.172.586Z" fill="#0D0D0D"/></svg>