<?xml version="1.0" encoding="UTF-8"?>
<svg version="1.1" xmlns="http://www.w3.org/2000/svg" width="128" height="128">
<path d="M0 0 C42.24 0 84.48 0 128 0 C128 42.24 128 84.48 128 128 C85.76 128 43.52 128 0 128 C0 85.76 0 43.52 0 0 Z " fill="#1D3766" transform="translate(0,0)"/>
<path d="M0 0 C1.77250024 -0.05882853 3.5471521 -0.06862413 5.3203125 -0.03515625 C6.23345215 -0.0182373 7.1465918 -0.00131836 8.08740234 0.01611328 C14.77730396 0.38459905 14.77730396 0.38459905 17.47924805 2.47875977 C19.50859104 4.77278613 20.30502314 7.05698221 21.4453125 9.90234375 C22.50352973 11.89390538 23.61957771 13.84681936 24.73925781 15.80444336 C26.0558985 18.1116053 27.33727617 20.43576385 28.61328125 22.765625 C31.64056622 28.27240051 34.7260093 33.74551098 37.8203125 39.21484375 C38.36075195 40.17173096 38.90119141 41.12861816 39.45800781 42.11450195 C42.26471443 47.0769822 45.0895713 52.02814763 47.94140625 56.96484375 C48.77696045 58.41443481 48.77696045 58.41443481 49.62939453 59.89331055 C50.69560245 61.74071159 51.76545409 63.58601564 52.83935547 65.42895508 C53.3138916 66.25161865 53.78842773 67.07428223 54.27734375 67.921875 C54.69733643 68.64479736 55.1173291 69.36771973 55.55004883 70.11254883 C56.4453125 71.90234375 56.4453125 71.90234375 56.4453125 73.90234375 C49.1853125 73.90234375 41.9253125 73.90234375 34.4453125 73.90234375 C28.14308967 62.41323993 21.89017534 50.90663305 15.83691406 39.28417969 C13.21174991 34.27328707 10.44445821 29.39271366 7.40625 24.6171875 C6.4453125 22.90234375 6.4453125 22.90234375 6.4453125 20.90234375 C5.7853125 20.90234375 5.1253125 20.90234375 4.4453125 20.90234375 C4.03804932 21.98733154 4.03804932 21.98733154 3.62255859 23.09423828 C2.46968356 25.84421104 1.1421854 28.27701772 -0.390625 30.83203125 C-1.23705566 32.25684814 -1.23705566 32.25684814 -2.10058594 33.71044922 C-2.70418945 34.72252441 -3.30779297 35.73459961 -3.9296875 36.77734375 C-9.55150014 46.28408937 -14.8215837 55.91763594 -19.82177734 65.76513672 C-20.28535645 66.67408691 -20.74893555 67.58303711 -21.2265625 68.51953125 C-21.6297168 69.31987793 -22.03287109 70.12022461 -22.44824219 70.94482422 C-23.5546875 72.90234375 -23.5546875 72.90234375 -25.5546875 74.90234375 C-27.61767578 75.12939453 -27.61767578 75.12939453 -30.125 75.09765625 C-31.02089844 75.09121094 -31.91679687 75.08476563 -32.83984375 75.078125 C-34.24556641 75.05298828 -34.24556641 75.05298828 -35.6796875 75.02734375 C-37.09701172 75.01380859 -37.09701172 75.01380859 -38.54296875 75 C-40.88046042 74.97638897 -43.21744873 74.94345891 -45.5546875 74.90234375 C-44.97186832 70.16693792 -42.8842293 66.47612938 -40.5546875 62.40234375 C-39.91285522 61.26273193 -39.91285522 61.26273193 -39.25805664 60.10009766 C-34.19499046 51.16630038 -28.96636308 42.32620872 -23.75512695 33.47827148 C-19.17419852 25.69656572 -14.67337981 17.87846874 -10.31640625 9.96875 C-9.73503906 8.95683594 -9.15367188 7.94492187 -8.5546875 6.90234375 C-8.02230469 5.79632813 -7.48992188 4.6903125 -6.94140625 3.55078125 C-4.29799423 0.61750244 -3.73632482 0.43705992 0 0 Z " fill="#ED4D4E" transform="translate(58.5546875,25.09765625)"/>
<path d="M0 0 C0.66 0 1.32 0 2 0 C4.33333333 4.66666667 6.66666667 9.33333333 9 14 C9.44859375 14.71800781 9.8971875 15.43601562 10.359375 16.17578125 C11 18 11 18 10.3046875 20.05859375 C9.83289062 20.84363281 9.36109375 21.62867187 8.875 22.4375 C8.30910156 23.40816406 7.74320313 24.37882812 7.16015625 25.37890625 C6.82387207 25.94109863 6.48758789 26.50329102 6.14111328 27.08251953 C3.81807143 30.98606483 1.57144238 34.93414342 -0.6875 38.875 C-1.19990234 39.76477539 -1.71230469 40.65455078 -2.24023438 41.57128906 C-6.5413146 49.08352275 -10.58530448 56.71461375 -14.5222168 64.42333984 C-15.16477417 65.6736499 -15.16477417 65.6736499 -15.8203125 66.94921875 C-16.19430176 67.68487061 -16.56829102 68.42052246 -16.95361328 69.1784668 C-18 71 -18 71 -20 73 C-22.06298828 73.22705078 -22.06298828 73.22705078 -24.5703125 73.1953125 C-25.46621094 73.18886719 -26.36210937 73.18242188 -27.28515625 73.17578125 C-28.69087891 73.15064453 -28.69087891 73.15064453 -30.125 73.125 C-31.54232422 73.11146484 -31.54232422 73.11146484 -32.98828125 73.09765625 C-35.32577292 73.07404522 -37.66276123 73.04111516 -40 73 C-39.41718082 68.26459417 -37.3295418 64.57378563 -35 60.5 C-34.35816772 59.36038818 -34.35816772 59.36038818 -33.70336914 58.19775391 C-28.6407817 49.26480137 -23.41167812 40.42621899 -18.20263672 31.578125 C-13.60031849 23.75727384 -9.06813523 15.90320836 -4.6640625 7.96875 C-4.11492188 6.9890625 -3.56578125 6.009375 -3 5 C-2.47148438 4.0409375 -1.94296875 3.081875 -1.3984375 2.09375 C-0.93695313 1.4028125 -0.47546875 0.711875 0 0 Z " fill="#EB3D41" transform="translate(53,27)"/>
</svg>
