<svg xmlns="http://www.w3.org/2000/svg" width="150" height="151.505" viewBox="0 0 150 151.505"><path d="M114.553 38.321q2.991-.015 5.982-.021l2.778-.01q1.343-.007 2.686-.008l1.02-.004c4.818-.03 8.716 1.045 12.305 4.423l.245.219c7.16 6.65 8.83 20.934 9.198 30.165.028.981.034 1.961.034 2.943v.409c-.01 8.786-2.219 18.051-6.467 25.799l-.132.246c-.931 1.738-2.076 3.248-3.427 4.681l-.242.264c-2.405 2.536-5.935 3.63-9.336 3.841-.755.019-1.51.018-2.265.016h-.683l-1.867-.001h-2.017l-3.491-.001-5.048-.002-8.191-.003-7.955-.003h-.495l-2.461-.001q-10.204 0-20.408-.005v4.38h35.858c0 20.378 0 20.378-4.978 25.38-.664.635-1.395 1.183-2.139 1.719l-.239.174c-2.405 1.729-5.062 2.927-7.836 3.932l-.339.126c-4.932 1.819-10.315 2.829-15.537 3.296l-.424.039c-1.472.122-2.942.125-4.418.123h-.405c-2.004-.003-3.985-.048-5.976-.299l-.441-.053c-8.126-1.005-16.803-3.107-23.236-8.432l-.236-.194c-3.16-2.651-5.283-6.5-5.649-10.62a39 39 0 0 1-.019-1.522l-.001-.456-.002-1.509-.002-1.084q-.003-1.472-.003-2.943l-.002-1.841q-.003-2.553-.004-5.107v-1.655q-.001-2.66-.006-5.319-.005-2.737-.005-5.474 0-1.534-.003-3.068-.003-1.307-.002-2.615.001-.665-.002-1.331c-.021-5.905 1.608-10.69 5.713-15.029 4.238-4.077 9.342-5.037 15.009-5.023l1.137-.002 2.433-.001q1.764 0 3.527-.003 2.868-.006 5.735-.008h.345l5.201-.003h.345q2.858-.002 5.717-.008 1.757-.004 3.514-.002 1.205.001 2.41-.002.693-.002 1.386 0c6.592.015 12.299-2.043 17.049-6.707 1.713-1.707 3.054-3.661 4.162-5.802l.132-.254c.957-1.862 1.562-3.828 1.963-5.879l.066-.336c.405-2.234.33-4.523.345-6.784l.009-1.106.019-2.598.022-2.962q.023-3.042.044-6.085m-24.225 88.002-.428.308c-1.291 1.235-2.047 2.89-2.2 4.667a7.44 7.44 0 0 0 2.045 5.285c1.342 1.207 3.011 1.94 4.825 1.92 1.775-.132 3.396-.777 4.653-2.053 1.299-1.563 2.043-3.307 1.881-5.369-.278-2.138-1.258-3.746-2.944-5.088-2.416-1.667-5.562-1.4-7.832.33" fill="#FEDE57"/><path d="m73.582-.044 1.089.002c3.545.005 7.067.06 10.594.453l.35.038c4.633.506 9.242 1.029 13.473 3.109l.272.131c1.942.946 3.644 2.208 5.202 3.702l.365.339c3.08 2.945 5.102 7.085 5.259 11.373q.008.59.006 1.18l.001.455.002 1.501.002 1.079q.003 1.464.003 2.929l.002 1.833.004 5.084v1.648q.001 2.647.006 5.294.005 2.724.005 5.449 0 1.527.003 3.054.003 1.301.002 2.602-.001.662.002 1.324c.009 2.472-.073 4.933-.829 7.309l-.105.339c-1.526 4.702-5.024 8.48-9.377 10.714-2.345 1.143-4.885 1.662-7.481 1.66l-.479.001-1.309.001-1.415.002-2.452.004q-1.942.002-3.883.007l-1.331.003-.336.001-3.784.008-.349.001-5.589.008q-2.876.004-5.752.012-1.77.005-3.54.005-1.216.001-2.433.005-.699.003-1.398.002c-6.889-.007-12.856 1.893-17.835 6.79-4.402 4.441-6.463 10.195-6.495 16.388l-.004.51-.009 1.369-.01 1.437-.019 2.713-.022 3.092-.044 6.354q-2.59.01-5.179.014l-2.406.006q-1.163.004-2.327.005l-.882.003c-2.153.011-4.3-.021-6.391-.602l-.326-.089c-4.705-1.342-8.341-4.644-10.697-8.867l-.398-.736-.136-.249c-2.861-5.278-3.929-11.706-4.725-17.6q-.064-.469-.134-.937c-.749-4.996-.682-10.438.068-15.43l.082-.578c.593-4.134 1.367-8.306 2.655-12.287l.088-.279c.807-2.497 2.097-4.93 3.744-6.974l.192-.241c3.828-4.743 9.234-7.452 15.273-8.108a41 41 0 0 1 2.194-.033l.645-.001 1.756.002 1.9.001q1.644 0 3.287.002 2.376.003 4.753.003 3.856.001 7.712.005l10.273.007q9.606.005 19.213.014v-4.516H38.321c0-22.61 0-22.61 3.832-26.688C49.78-.038 63.772-.065 73.582-.044M49.108 13.249c-1.239 1.498-1.865 3.285-1.724 5.227.264 1.947 1.149 3.58 2.658 4.84 1.518 1.049 3.281 1.559 5.107 1.25 1.801-.406 3.239-1.244 4.371-2.735 1.072-1.696 1.494-3.504 1.085-5.468-.452-1.791-1.434-3.204-2.952-4.277-2.847-1.666-6.261-1.263-8.544 1.163" fill="#3D79AA"/><path d="m43.248 6.159.274.137-2.19 2.19c0-.633.394-.93.821-1.369a29 29 0 0 1 1.095-.958" fill="#5091BE"/><path d="m10.265 43.248.274.137-.255.225-.335.297-.332.293a16 16 0 0 0-.721.691c0-.411 0-.411.299-.72l.385-.333.385-.335z" fill="#528BBA"/></svg>