<svg xmlns="http://www.w3.org/2000/svg" width="150" height="133.5" viewBox="0 0 150 133.5"><path d="M44.785-.088c.415.003.831-.003 1.246-.008C54.537-.129 62.718 5.611 69 10.875l.195.163c.814.68 1.615 1.37 2.4 2.084a40 40 0 0 0 .741.652c.344.296.674.605 1 .92l.253.242a56 56 0 0 1 .501.487l.236.226.211.205c.238.194.238.194.713.147.273-.216.273-.216.531-.508.344-.359.685-.708 1.063-1.031.379-.325.746-.659 1.111-1a37 37 0 0 1 2.074-1.805 36 36 0 0 0 .894-.754c1.047-.904 2.152-1.727 3.265-2.547q.435-.322.868-.646C89.614 4.328 96.208.065 102.13-.024l.371-.006q.847-.01 1.693-.013.442-.003.884-.01c2.317-.037 4.425.145 6.523 1.202l.295.144c4.151 2.097 6.634 6.024 8.061 10.319 3.027 9.596 1.009 20.341-1.207 29.888l.281.082c7.905 2.304 15.933 5.279 22.469 10.418l.377.296a42 42 0 0 1 2.498 2.204l.277.261c3.129 3.036 5.303 7.111 5.406 11.503.012 1.595-.066 3.089-.559 4.611l-.079.252c-.841 2.612-2.308 4.854-4.17 6.853-.235.253-.458.513-.681.778-2.893 3.302-7.142 5.757-11.055 7.615a78 78 0 0 0-.907.444c-4.442 2.184-9.128 3.748-13.857 5.183l.091.39c2.338 10.005 4.491 21.849-1.091 34.36-.649.997-1.437 1.885-2.25 2.75l-.204.228c-1.978 2.127-5.291 3.701-8.194 3.81q-.343.006-.686.008l-.378.003-.789.004a77 77 0 0 0-1.176.014c-6.341.051-12.482-3.302-17.575-6.817l-.25-.172a75 75 0 0 1-5.498-4.203l-.191-.158a65 65 0 0 1-2.597-2.281 37 37 0 0 0-.837-.748c-.68-.589-1.338-1.203-2-1.813-.41.182-.702.408-1.031.711l-.331.302a124 124 0 0 0-.866.814c-.831.785-1.658 1.558-2.553 2.271a32 32 0 0 0-.954.807c-6.38 5.556-15.05 11.404-23.803 11.296a64 64 0 0 0-1.157 0c-1.875-.001-3.637-.214-5.375-.965l-.261-.111c-1.704-.754-3.117-1.8-4.418-3.123l-.335-.335c-4.587-4.808-5.549-12.325-5.439-18.677.173-6.243 1.225-12.298 2.648-18.365l-.401-.123c-6.611-2.04-13.236-4.378-19.099-8.127l-.252-.159c-1.753-1.115-3.416-2.361-4.927-3.788a20 20 0 0 0-.845-.748C2.784 76.489.499 72.515 0 68.625c-.319-4.885 1.085-9.009 4.301-12.703q.588-.66 1.199-1.297l.288-.304c.691-.71 1.435-1.334 2.212-1.946l.37-.296c5.487-4.32 12.062-7.074 18.638-9.267l.277-.092a103 103 0 0 1 3.966-1.22l-.089-.389c-1.296-5.66-2.432-11.41-2.537-17.236l-.008-.313c-.147-6.445.694-13.788 5.133-18.812l.216-.266c.595-.722 1.295-1.289 2.034-1.859l.283-.226c.652-.492 1.354-.867 2.084-1.227l.268-.137c1.979-.94 3.984-1.14 6.149-1.124M38.875 9c-2.722 3.071-3.508 7.713-3.525 11.69l-.003.409c-.014 2.865-.016 5.687.403 8.526l.075.528a95 95 0 0 0 1.925 9.722 52 52 0 0 0 3.309-.593c4.202-.871 8.439-1.485 12.698-2l.346-.042a42 42 0 0 1 1.734-.174l.346-.029q.324-.026.647-.046c.475-.039.732-.071 1.128-.353.268-.318.459-.652.666-1.013.251-.362.513-.715.773-1.07l.422-.589a99 99 0 0 1 2.054-2.716l.179-.23a174 174 0 0 1 2.637-3.294l.489-.601a88 88 0 0 1 3.063-3.591c.383-.423.757-.853 1.132-1.284l.492-.563.222-.254.163-.183c-.208-.542-.609-.892-1.016-1.289l-.223-.22a27 27 0 0 0-1.393-1.283c-.287-.246-.566-.5-.845-.755-.533-.48-1.079-.94-1.637-1.391a87 87 0 0 1-.839-.688 58 58 0 0 0-7.922-5.499l-.258-.151C51.111 7.042 43.616 4.099 38.875 9m56.617.122a44 44 0 0 1-.742.379c-3.006 1.526-5.756 3.512-8.375 5.624l-.356.287A121 121 0 0 0 85 16.25l-.193.16a65 65 0 0 0-2.593 2.279 33 33 0 0 1-.862.765c-.562.487-1.081 1.016-1.601 1.547.2.483.528.823.883 1.195.456.487.894.98 1.313 1.5a27 27 0 0 0 1.178 1.367 41 41 0 0 1 1.75 2.063l.374.457a105 105 0 0 1 2.459 3.123 118 118 0 0 0 1.089 1.407c.701.895 1.381 1.8 2.036 2.729.717 1.063.717 1.063 1.541 2.035q.529.068 1.059.118l.691.07.373.038c5.586.571 11.138 1.421 16.625 2.62.383.083.734.154 1.127.154 1.018-4.12 1.818-8.275 2.25-12.5l.039-.362c.124-1.331.114-2.669.116-4.005q.002-.638.009-1.274c.022-4.436-.617-9.691-3.825-13.06-1.393-1.384-3.363-2.248-5.338-2.301l-.275-.015c-3.384-.101-6.789 1.201-9.732 2.762M74.699 26.143a22 22 0 0 0-1.517 1.737 26 26 0 0 1-.994 1.12 33 33 0 0 0-1.5 1.739 76 76 0 0 1-.714.87 93 93 0 0 0-2.808 3.55q-.225.291-.461.573c-.229.245-.229.245-.204.518l.271-.011a204 204 0 0 1 16.729.011c-.669-1.384-1.841-2.587-2.811-3.77q-.248-.302-.494-.606a140 140 0 0 0-2.013-2.41l-.367-.432a101 101 0 0 0-2.08-2.391l-.175-.196a11 11 0 0 0-.435-.444c-.256-.026-.256-.026-.426.143M66.003 42.83a50 50 0 0 1-2.293.052c-1.489-.052-1.489-.052-2.76.589-.3.383-.493.798-.687 1.242-.255.536-.602 1.015-.933 1.507l-.418.645-.208.322a178 178 0 0 0-4.954 8.188l-.186.325a207 207 0 0 0-3.314 6.051l-.215.405a191 191 0 0 0-1.285 2.469l-.151.293a54 54 0 0 0-.388.777l-.209.422c-.241.729.051 1.295.375 1.948l.158.31.164.328.529 1.048.364.723c.758 1.5 1.528 2.992 2.354 4.456q.304.54.603 1.083a171 171 0 0 0 2.951 5.112l.213.354A185 185 0 0 0 59 86.75l.14.217q.454.7.912 1.397l.299.457.42.638.244.371c.284.356.528.506.977.589l.259.018.304.023.336.021.365.024q.623.039 1.244.072l.445.025c6.82.361 13.728.347 20.548-.017l.434-.022q.586-.032 1.171-.07l.334-.019c.572-.043.984-.102 1.444-.475.223-.262.223-.262.41-.569l.223-.346.235-.374.249-.39.511-.804q.342-.541.689-1.08a182 182 0 0 0 5.184-8.563l.222-.39A210 210 0 0 0 100 71.25l.143-.273q.454-.867.899-1.739l.292-.566a72 72 0 0 0 .405-.793l.125-.236c.257-.518.296-.839.137-1.394-.105-.29-.105-.29-.242-.564l-.15-.314-.163-.333-.171-.353a89 89 0 0 0-1.584-3.079l-.537-1.012A157 157 0 0 0 96 54.874l-.378-.652c-.989-1.705-1.993-3.399-3.06-5.057q-.409-.64-.811-1.282a33 33 0 0 0-.449-.686 10.2 10.2 0 0 1-1.022-1.901c-.383-.858-.79-1.713-1.655-2.171-1.648-.536-3.548-.401-5.258-.381a33 33 0 0 1-1.91-.035 103 103 0 0 0-3.332-.084l-.343-.004c-3.931-.045-7.854.025-11.781.208M97.125 44a80 80 0 0 0 1.758 2.906c2.023 3.219 3.873 6.543 5.665 9.895.35.655.704 1.306 1.077 1.948.406-.333.545-.729.737-1.21l.103-.256q.167-.419.332-.839l.116-.292c2.276-4.844 2.276-4.844 3.462-9.902-6.57-1.579-6.57-1.579-13.25-2.25m-45.484.129-.308.042c-2.285.316-4.559.669-6.825 1.095l-.331.062c-1.522.286-3.038.598-4.552.922.301 1.192.688 2.353 1.086 3.516l.105.307c.586 1.71 1.215 3.4 1.872 5.084l.128.33c.433 1.111.864 2.214 1.434 3.264.348-.307.529-.636.737-1.049l.21-.413.225-.445A101 101 0 0 1 48 52.125l.246-.425a220 220 0 0 1 3.443-5.745A127 127 0 0 0 52.875 44c-.415 0-.824.073-1.234.129m-19.619 4.078-.44.136-.473.149-.244.076C23.576 50.86 16.114 53.774 10.5 59.125l-.323.299A12.95 12.95 0 0 0 7 64.125l-.136.34c-.65 1.942-.281 4.115.589 5.91 3.815 7.482 13.6 11.199 21.023 13.742l.297.102a95 95 0 0 0 3.157 1.023l.271.085c.521.157.521.157 1.048.048a11 11 0 0 0 .358-.998l.102-.314.216-.676a187 187 0 0 1 .589-1.808l.122-.372c.64-1.927 1.371-3.819 2.114-5.707l.115-.292c.722-1.834 1.446-3.667 2.272-5.458l.125-.272a86 86 0 0 1 .597-1.269l.211-.45.188-.391c.224-.705-.044-1.255-.337-1.903l-.209-.467-.112-.248c-2.433-5.401-4.757-11.038-6.35-16.75-.478 0-.776.066-1.228.206M116.75 48l-.112.355c-1.751 5.541-3.844 10.93-6.175 16.252l-.174.401a20 20 0 0 1-.324.693l-.143.293-.125.245c-.183.668.152 1.296.427 1.895l.358.795q.325.722.645 1.445l.13.293a103 103 0 0 1 1.742 4.208l.097.246c.775 1.978 1.52 3.963 2.196 5.977l.138.408a266 266 0 0 1 .664 2.004l.242.73.11.343.104.312.089.273c.103.253.103.253.484.332a11 11 0 0 0 .871-.245l.264-.083.858-.274.598-.191c7.851-2.518 18.681-6.328 22.784-14.194.967-1.992 1.262-4.186.534-6.308-2.163-5.804-8.654-9.427-13.967-11.908-3.047-1.386-6.183-2.521-9.362-3.563l-.276-.091-.782-.254-.451-.146a9 9 0 0 0-1.444-.244m-72.5 26.626c-.611 1.268-1.131 2.561-1.633 3.875l-.121.316a189 189 0 0 0-1.777 4.84l-.103.292c-.37 1.049-.721 2.097-.991 3.177 1.575.46 3.169.763 4.781 1.055l.405.074c1.775.324 3.551.625 5.338.879l.275.039c.778.11 1.539.217 2.327.203-.214-.639-.583-1.173-.945-1.734l-.411-.646-.204-.321a80 80 0 0 1-1.314-2.174l-.19-.323a194 194 0 0 1-3.796-6.704l-.121-.226-.577-1.082-.208-.391-.182-.344a6.5 6.5 0 0 0-.55-.805m61.375 0-.135.264a129 129 0 0 1-3.028 5.617l-.669 1.169c-1.321 2.309-2.667 4.605-4.143 6.819-.298.406-.298.406-.4.881 1.461-.068 2.886-.281 4.328-.516l.361-.058c2.218-.356 4.424-.764 6.625-1.214a43 43 0 0 1 .832-.159l.345-.063.293-.051.213-.064c.167-.335.064-.511-.048-.853l-.086-.252-.088-.266-.294-.872-.102-.303a158 158 0 0 0-3.156-8.533l-.173-.434-.16-.392-.139-.342c-.107-.275-.107-.275-.379-.38M37.75 93.625c-.799 3.145-1.456 6.301-1.906 9.516l-.057.407q-.088.663-.162 1.327l-.033.292c-.194 1.761-.26 3.507-.257 5.278q0 .62-.006 1.24c-.014 4.625.662 9.856 4.045 13.315a8.7 8.7 0 0 0 2.75 1.625l.315.121c4.165 1.315 8.972-.802 12.617-2.652 2.501-1.301 4.83-2.891 7.069-4.594l.452-.339a50 50 0 0 0 2.41-1.956q.523-.444 1.06-.869c.742-.603 1.433-1.257 2.127-1.913.478-.451.965-.89 1.456-1.327a14 14 0 0 0 .62-.596c-.16-.469-.332-.744-.695-1.078a12 12 0 0 1-1.094-1.203 26 26 0 0 0-1.273-1.469 33 33 0 0 1-1.5-1.739 76 76 0 0 0-.714-.87 90 90 0 0 1-2.562-3.225 107 107 0 0 0-1.085-1.402 60 60 0 0 1-1.733-2.296l-.286-.393a6.4 6.4 0 0 1-.535-.901c-.319-.604-.656-1.152-1.311-1.417-.867-.22-1.759-.261-2.648-.32q-.431-.038-.861-.079-.873-.082-1.746-.157a61 61 0 0 1-3.518-.436l-.318-.046a123 123 0 0 1-8.282-1.486l-.327-.07-.614-.135c-.474-.103-.908-.181-1.397-.153m72.746.22-.691.142-.367.076a148 148 0 0 1-10.641 1.786l-.749.099c-1.164.155-2.323.308-3.496.371-1.464.01-1.464.01-2.722.634-.289.355-.488.744-.688 1.154-.274.512-.637.963-.987 1.425l-.45.609c-.654.877-1.327 1.74-2.003 2.6l-.58.741a114 114 0 0 1-2.988 3.664 65 65 0 0 0-1.073 1.3 37 37 0 0 1-1.615 1.83 32 32 0 0 0-1.698 1.975c.39.887 1.247 1.509 1.968 2.128q.414.364.817.741a37 37 0 0 0 1.988 1.719q.459.376.906.766c1.007.87 2.073 1.655 3.152 2.434a109 109 0 0 1 .808.591c3.732 2.723 7.961 5.065 12.485 6.121l.366.092c2.321.494 4.994.353 7.057-.874 2.89-1.928 4.183-5.049 4.86-8.344l.057-.278c.398-2.096.462-4.188.458-6.316v-.43c-.005-2.603-.167-5.151-.546-7.726l-.04-.276c-.661-4.546-.661-4.546-1.835-8.974-.607-.034-1.164.095-1.754.22M66.5 97.25c.269.484.525.94.883 1.364l.213.255.224.264.708.848c.316.384.621.775.925 1.168a48 48 0 0 0 1.63 1.972 44 44 0 0 1 1.097 1.317 32 32 0 0 0 1.631 1.83c.375.397.73.799 1.065 1.232.44-.184.688-.424 1-.781l.298-.34.327-.379.174-.202q.47-.545.937-1.093.383-.449.769-.895a57 57 0 0 0 1.958-2.377 70 70 0 0 1 1.443-1.778c1.08-1.114 1.08-1.114 1.719-2.406l-.277.006q-1.791.035-3.583.065l-.293.005c-3.091.05-6.178.05-9.269-.005l-.276-.005q-1.652-.029-3.303-.065" fill="#60D9F9"/><path d="m83.625 56.375.299.244c2.413 2.052 4.093 5.102 4.451 8.256.256 4.032-.547 7.671-3.25 10.75l-.257.326c-1.947 2.397-5.256 3.797-8.243 4.174a22 22 0 0 1-1.594.039l-.431-.002c-3.166-.045-5.885-1.192-8.35-3.162l-.248-.19c-.689-.55-1.216-1.241-1.752-1.935l-.231-.292c-2.172-2.899-2.712-6.531-2.358-10.063.494-3.357 2.433-6.444 5.09-8.513 5.122-3.604 11.97-3.764 16.875.367" fill="#60D9F9"/></svg>