<svg xmlns="http://www.w3.org/2000/svg" width="150" height="150" viewBox="0 0 150 150"><path d="M74.854 1.964h.268c6.491.009 12.967.856 36.06 9.462l.48.28c3.014 1.768 5.95 3.681 8.676 5.872l.142.114q.943.758 1.864 1.543.183.156.367.31a36 36 0 0 1 1.473 1.317 33 33 0 0 0 .742.68c.38.341.743.697 1.104 1.058l.195.195.405.405.616.616.396.396.184.184c.312.313.613.631.9.966.174.202.357.395.54.589.332.357.646.724.951 1.105.154.187.313.365.477.543.292.32.56.654.825.996a36 36 0 0 0 .663.828 39 39 0 0 1 1.478 1.93l.366.503a67 67 0 0 1 1.694 2.445l.126.189a64 64 0 0 1 1.778 2.791l.122.204a79 79 0 0 1 1.856 3.311l.109.204c2.997 5.618 5.197 11.616 8.222 28.223l.013.175q.044.604.078 1.207l.011.178c.084 1.455.081 2.911.081 4.368v.199c.001 2.088-.033 4.162-.238 6.242l-.019.2c-.572 5.886-1.825 11.701-6.133 23.091l-.102.226a69 69 0 0 1-2.828 5.633l-.127.225a72 72 0 0 1-5.601 8.467l-.335.439a62 62 0 0 1-1.371 1.721l-.294.362q-.468.577-.969 1.124c-.173.195-.336.395-.499.598-.242.3-.497.574-.773.842a6 6 0 0 0-.376.412c-.226.263-.467.507-.714.751-.242.239-.479.478-.7.737a13 13 0 0 1-1.49 1.469c-.193.173-.374.356-.556.54-.268.271-.541.531-.831.779q-.239.21-.47.426a22 22 0 0 1-1.159 1.002q-.36.297-.712.604c-.459.396-.93.773-1.41 1.144l-.464.363c-.618.485-1.241.959-1.885 1.409l-.436.31c-5.771 4.109-12.048 7.366-18.744 9.674l-.154.053c-5.888 2.024-12.07 3.203-18.273 3.669l-.494.04a64 64 0 0 1-10.284-.013l-.531-.042c-6.799-.539-13.481-1.978-26.287-7.11l-.552-.271a40 40 0 0 1-.85-.427l-.228-.118a55 55 0 0 1-3.652-2.073 54 54 0 0 0-1.062-.637 56.6 56.6 0 0 1-6.81-4.726 36 36 0 0 0-.645-.509 35 35 0 0 1-1.604-1.341l-.391-.334a42 42 0 0 1-1.798-1.626l-.399-.371c-.6-.551-1.181-1.12-1.758-1.696l-.115-.115a20 20 0 0 1-1.132-1.199 7 7 0 0 0-.364-.38 11 11 0 0 1-.627-.679q-.246-.279-.499-.552c-.3-.329-.584-.666-.863-1.012a31 31 0 0 0-.463-.554 41 41 0 0 1-1.209-1.492l-.356-.454a59 59 0 0 1-1.732-2.325l-.121-.17a74 74 0 0 1-5.079-8.253l-.109-.204a71 71 0 0 1-3.919-8.731l-.094-.253a78 78 0 0 1-.64-1.797l-.051-.148a74 74 0 0 1-2.366-8.715l-.032-.154c-.731-3.478-1.132-6.995-1.359-10.539l-.016-.248c-.43-6.869.352-13.984 7.34-35.787l.116-.238a51 51 0 0 1 1.669-3.143q.182-.318.36-.639c.471-.845.961-1.672 1.486-2.484l.3-.468a71 71 0 0 1 2.441-3.575l.117-.162a75 75 0 0 1 2.558-3.295l.281-.346a48 48 0 0 1 1.994-2.301 29 29 0 0 0 .413-.466c.811-.928 1.68-1.803 2.552-2.673q.263-.262.524-.525l.34-.339.155-.156a17 17 0 0 1 .894-.828c.216-.188.423-.385.631-.581a19 19 0 0 1 1.139-.986c.201-.165.391-.339.582-.516.333-.307.679-.589 1.037-.866a35 35 0 0 0 .82-.655 50 50 0 0 1 2.046-1.581l.469-.349c5.196-3.849 10.99-6.916 24.024-11.354l.171-.044a75.4 75.4 0 0 1 13.132-2.135l.177-.013a69 69 0 0 1 5.124-.165" fill="#FEFEFE"/><path d="M74.854 1.964h.268c6.491.009 12.967.856 36.06 9.462l.48.28c3.014 1.768 5.95 3.681 8.676 5.872l.142.114q.943.758 1.864 1.543.183.156.367.31a36 36 0 0 1 1.473 1.317 33 33 0 0 0 .742.68c.38.341.743.697 1.104 1.058l.195.195.405.405.616.616.396.396.184.184c.312.313.613.631.9.966.174.202.357.395.54.589.332.357.646.724.951 1.105.154.187.313.365.477.543.292.32.56.654.825.996a36 36 0 0 0 .663.828 39 39 0 0 1 1.478 1.93l.366.503a67 67 0 0 1 1.694 2.445l.126.189a64 64 0 0 1 1.778 2.791l.122.204a79 79 0 0 1 1.856 3.311l.109.204c2.997 5.618 5.197 11.616 8.222 28.223l.013.175q.044.604.078 1.207l.011.178c.084 1.455.081 2.911.081 4.368v.199c.001 2.088-.033 4.162-.238 6.242l-.019.2c-.572 5.886-1.825 11.701-6.133 23.091l-.102.226a69 69 0 0 1-2.828 5.633l-.127.225a72 72 0 0 1-5.601 8.467l-.335.439a62 62 0 0 1-1.371 1.721l-.294.362q-.468.577-.969 1.124c-.173.195-.336.395-.499.598-.242.3-.497.574-.773.842a6 6 0 0 0-.376.412c-.226.263-.467.507-.714.751-.242.239-.479.478-.7.737a13 13 0 0 1-1.49 1.469c-.193.173-.374.356-.556.54-.268.271-.541.531-.831.779q-.239.21-.47.426a22 22 0 0 1-1.159 1.002q-.36.297-.712.604c-.459.396-.93.773-1.41 1.144l-.464.363c-.618.485-1.241.959-1.885 1.409l-.436.31c-5.771 4.109-12.048 7.366-18.744 9.674l-.154.053c-5.888 2.024-12.07 3.203-18.273 3.669l-.494.04a64 64 0 0 1-10.284-.013l-.531-.042c-6.799-.539-13.481-1.978-26.287-7.11l-.552-.271a40 40 0 0 1-.85-.427l-.228-.118a55 55 0 0 1-3.652-2.073 54 54 0 0 0-1.062-.637 56.6 56.6 0 0 1-6.81-4.726 36 36 0 0 0-.645-.509 35 35 0 0 1-1.604-1.341l-.391-.334a42 42 0 0 1-1.798-1.626l-.399-.371c-.6-.551-1.181-1.12-1.758-1.696l-.115-.115a20 20 0 0 1-1.132-1.199 7 7 0 0 0-.364-.38 11 11 0 0 1-.627-.679q-.246-.279-.499-.552c-.3-.329-.584-.666-.863-1.012a31 31 0 0 0-.463-.554 41 41 0 0 1-1.209-1.492l-.356-.454a59 59 0 0 1-1.732-2.325l-.121-.17a74 74 0 0 1-5.079-8.253l-.109-.204a71 71 0 0 1-3.919-8.731l-.094-.253a78 78 0 0 1-.64-1.797l-.051-.148a74 74 0 0 1-2.366-8.715l-.032-.154c-.731-3.478-1.132-6.995-1.359-10.539l-.016-.248c-.43-6.869.352-13.984 7.34-35.787l.116-.238a51 51 0 0 1 1.669-3.143q.182-.318.36-.639c.471-.845.961-1.672 1.486-2.484l.3-.468a71 71 0 0 1 2.441-3.575l.117-.162a75 75 0 0 1 2.558-3.295l.281-.346a48 48 0 0 1 1.994-2.301 29 29 0 0 0 .413-.466c.811-.928 1.68-1.803 2.552-2.673q.263-.262.524-.525l.34-.339.155-.156a17 17 0 0 1 .894-.828c.216-.188.423-.385.631-.581a19 19 0 0 1 1.139-.986c.201-.165.391-.339.582-.516.333-.307.679-.589 1.037-.866a35 35 0 0 0 .82-.655 50 50 0 0 1 2.046-1.581l.469-.349c5.196-3.849 10.99-6.916 24.024-11.354l.171-.044a75.4 75.4 0 0 1 13.132-2.135l.177-.013a69 69 0 0 1 5.124-.165M66.65 12.817l-.181.025q-.643.09-1.283.195l-.212.034a51 51 0 0 0-3.445.694l-.198.045c-1.257.29-2.497.625-3.718 1.044q-.33.108-.664.198c-.939.26-1.845.622-2.754.969a115 115 0 0 1-1.125.421c-3.002 1.112-5.929 2.422-8.703 4.023a55 55 0 0 1-.585.33 46 46 0 0 0-4.02 2.545l-.432.3a54 54 0 0 0-3.538 2.698l-.336.274a45 45 0 0 0-2.398 2.09 67 67 0 0 1-.566.52 48 48 0 0 0-1.645 1.591l-.451.451-.292.293-.133.133c-.271.272-.528.554-.779.845q-.249.283-.508.557c-.318.344-.618.7-.912 1.066-.155.188-.315.367-.48.546-.366.403-.699.829-1.032 1.26l-.359.458a56 56 0 0 0-1.617 2.164l-.336.469c-3.814 5.325-6.778 11.343-8.86 18.074l-.052.174c-.733 2.476-1.328 4.973-1.703 7.527a18 18 0 0 1-.189 1.062c-.209 1.07-.281 2.172-.372 3.257l-.014.161a54 54 0 0 0-.174 4.6l-.003.822c-.002.986.035 1.957.127 2.939q.051.56.069 1.123l.006.173.013.35c.139 3.667.673 7.269 1.485 10.843l.049.214c.227.99.526 1.957.832 2.925q.109.35.216.701a55.8 55.8 0 0 0 5.947 13.007q.177.285.348.574c1.052 1.764 2.256 3.447 3.522 5.064l.201.258a62 62 0 0 0 1.916 2.335 55 55 0 0 1 .437.513 39 39 0 0 0 2.429 2.607 5 5 0 0 1 .336.38c.141.167.269.292.434.432.422.365.808.766 1.2 1.164a18 18 0 0 0 1.104 1.028l.353.32c.315.284.639.553.969.82a26 26 0 0 1 .575.489c.514.447 1.045.865 1.589 1.275q.327.246.647.5a33 33 0 0 0 2.031 1.482q.458.31.907.631a30 30 0 0 0 2.045 1.329l.63.38a75 75 0 0 0 4.684 2.588l.172.089c2.013 1.035 4.098 1.896 6.218 2.685l.161.06c.922.343 1.848.681 2.8.933a34 34 0 0 1 1.192.344c5.046 1.554 10.377 2.202 15.645 2.206h.267a37 37 0 0 0 3.553-.15l.322-.031.16-.015c.402-.037.803-.058 1.206-.073l.186-.007.378-.014a49 49 0 0 0 3.798-.305l.24-.027a35 35 0 0 0 2.933-.46q.396-.078.792-.149a45 45 0 0 0 4.508-1.057l.333-.097q.456-.133.912-.27l.263-.078a50 50 0 0 0 .908-.287l.215-.07a53 53 0 0 0 6.302-2.534l.678-.319a48 48 0 0 0 4.524-2.423l.208-.125a63 63 0 0 0 3.527-2.292l.16-.112c.691-.483 1.365-.99 2.037-1.5l.131-.1a57 57 0 0 0 2.453-1.991l.253-.215a46 46 0 0 0 1.546-1.363l.436-.4a53 53 0 0 0 1.854-1.79q.249-.25.499-.498l.322-.323.148-.148a16 16 0 0 0 .811-.877c.188-.216.386-.423.582-.632a19 19 0 0 0 .976-1.125q.294-.358.599-.706c.396-.459.774-.931 1.145-1.411l.357-.455a42 42 0 0 0 1.535-2.075q.201-.29.406-.578c1.027-1.459 1.957-2.968 2.865-4.504l.117-.197a60 60 0 0 0 1.861-3.465l.067-.133c1.624-3.238 3.078-6.693 3.998-10.201q.086-.317.179-.635a57 57 0 0 0 1.749-8.359l.021-.155q.079-.621.14-1.245l.028-.278c.164-1.673.227-3.333.221-5.014q-.002-.468.001-.936c.009-2.659-.042-5.496-.613-8.105-.116-.546-.163-1.104-.226-1.658a51 51 0 0 0-1.461-7.74l-.051-.188c-1.288-4.679-3.184-9.255-5.664-13.433l-.148-.249a55 55 0 0 0-1.976-3.12l-.12-.175a66 66 0 0 0-4.095-5.341l-.316-.374a42 42 0 0 0-1.565-1.737l-.37-.399a56 56 0 0 0-1.544-1.606l-.185-.186c-.312-.312-.63-.612-.965-.899-.245-.214-.478-.439-.714-.664-.396-.374-.797-.73-1.222-1.069-.185-.15-.36-.308-.535-.469-.32-.292-.654-.56-.996-.825a35 35 0 0 1-.832-.667 34 34 0 0 0-1.903-1.439 38 38 0 0 1-.474-.345c-1.86-1.369-3.836-2.588-5.843-3.727l-.157-.089a76 76 0 0 0-2.9-1.546l-.641-.331c-1.811-.93-3.699-1.71-5.603-2.428l-.219-.083a76 76 0 0 0-3.109-1.071l-.186-.061a49 49 0 0 0-2.423-.724l-.59-.166a49 49 0 0 0-5.811-1.235q-.293-.047-.585-.099c-.632-.106-1.269-.182-1.905-.26l-.198-.025c-2.278-.282-4.522-.393-6.816-.396l-.752-.003c-2.42-.016-4.819.116-7.217.46" fill="#010101"/><path d="m71.191 78.579.193.001h8.907c8.652-.004 8.652-.004 12.58.083a9 9 0 0 1-.638.598l-.151.124-.159.129-.166.136a61 61 0 0 1-1.154.918c-.328.256-.646.524-.962.795a25 25 0 0 1-.866.7c-.403.313-.793.64-1.179.974a26 26 0 0 1-.889.733c-.333.266-.66.538-.989.809l-.884.725q-.427.35-.847.709a27 27 0 0 1-.993.806c-.421.326-.824.669-1.225 1.02q-.59.514-1.201 1.004a83 83 0 0 0-1.404 1.166 60 60 0 0 1-.954.789 55 55 0 0 0-.682.572 66 66 0 0 1-1.076.893 55 55 0 0 0-.682.572 66 66 0 0 1-1.076.893 55 55 0 0 0-.682.572 66 66 0 0 1-1.076.893 55 55 0 0 0-.682.572 65 65 0 0 1-1.077.893q-.337.278-.667.563-.5.426-1.021.829a17 17 0 0 0-.994.833c-.273.243-.558.471-.842.701a121 121 0 0 0-1.988 1.65c-.439.373-.887.736-1.334 1.099a68 68 0 0 0-1.091.907 38 38 0 0 1-.995.817q-.416.335-.827.676l-.482.398q-.474.391-.951.779l-.403.33-.203.166-.388.318a488 488 0 0 1-1.637 1.333l-.884.718-.749.609q-.698.57-1.401 1.131l-.456.37q-.753.62-1.529 1.21a34 34 0 0 0-1.249.991c-.46.383-.928.75-1.405 1.111q-.616.47-1.214.964c-.374.306-.754.601-1.138.894a65 65 0 0 0-.743.578l-.127.1a61 61 0 0 0-.675.538l-.141.113-.268.217c-.306.246-.306.246-.551.246l.229-.35.151-.23.337-.515.83-1.27a1351 1351 0 0 1 2.293-3.496l.679-1.033q1.183-1.805 2.382-3.602.858-1.286 1.706-2.577a427 427 0 0 1 1.785-2.696q.944-1.413 1.877-2.834a499 499 0 0 1 1.962-2.961q1.054-1.582 2.098-3.17c.734-1.116.734-1.116 1.103-1.667q.631-.947 1.255-1.898.97-1.477 1.95-2.947.85-1.276 1.687-2.561l.517-.789.09-.137.18-.275a423 423 0 0 0 1.266-1.941q.506-.779 1.021-1.552l.135-.203.125-.187.111-.166c.172-.248.304-.208.6-.209m33.91-46.428a3.2 3.2 0 0 1-.373.72l-.139.207-.151.223-.324.483-.084.125q-.409.611-.809 1.228a867 867 0 0 1-2.379 3.619l-1.438 2.183-.271.412q-.6.914-1.207 1.824-.614.922-1.221 1.848a639 639 0 0 1-2.272 3.432l-.121.181-.957 1.433a642 642 0 0 0-2.354 3.552A486 486 0 0 1 88.762 57q-.882 1.324-1.755 2.654a434 434 0 0 1-1.587 2.397q-.714 1.072-1.422 2.149l-.139.211a1078 1078 0 0 0-3.121 4.761 13 13 0 0 1-.288.422c-.142.212-.23.423-.32.661-.206.479-.438.866-.88 1.159-.889.318-1.979.184-2.904.158-.396-.01-.792-.01-1.188-.012q-1.135-.008-2.271-.032-1.25-.022-2.5-.031-2.09-.018-4.18-.053a846 846 0 0 0-5.744-.071l-1.16-.012-2.099-.021a12 12 0 0 1 .819-.755l.127-.107a44 44 0 0 1 .927-.754c.641-.51 1.269-1.036 1.901-1.556l.651-.536q.78-.638 1.547-1.29.428-.362.869-.708.396-.323.784-.656.475-.401.957-.792a54 54 0 0 0 .687-.577q.5-.424 1.014-.831.396-.323.784-.656a46 46 0 0 1 .76-.635 54 54 0 0 0 .879-.732q.533-.452 1.076-.893a55 55 0 0 0 .682-.572 65 65 0 0 1 1.077-.893q.337-.279.667-.563.498-.423 1.016-.824a16 16 0 0 0 1.041-.885c.22-.194.449-.374.681-.553a27 27 0 0 0 1.239-1.029q.493-.43 1-.839.341-.28.677-.567a65 65 0 0 1 1.075-.892 54 54 0 0 0 .687-.577 38 38 0 0 1 1.014-.831q.337-.274.666-.556.502-.427 1.019-.835.337-.274.666-.556a37 37 0 0 1 1.02-.836q.327-.266.647-.542a28 28 0 0 1 1.003-.815c.403-.313.792-.639 1.178-.973a27 27 0 0 1 .919-.758q.495-.396.983-.8l.403-.33.591-.484a486 486 0 0 1 1.635-1.331l.464-.377q.697-.568 1.399-1.129.307-.246.612-.496a85 85 0 0 1 1.394-1.114q.491-.385.973-.781a72 72 0 0 1 1.224-.977q.493-.388.978-.786a51 51 0 0 1 1.299-1.024 64 64 0 0 0 .743-.578l.388-.306.642-.505.255-.201.524-.411.133-.104.26-.204a49 49 0 0 0 .96-.775c.136-.1.136-.1.283-.1" fill="#010101"/></svg>