<svg xmlns="http://www.w3.org/2000/svg" width="150" height="180.494" viewBox="0 0 150 180.494"><path d="m92.628-.018.212-.001 1.116-.002.901-.004c2.033-.013 4.032.064 6.054.289l.252.028q.644.074 1.284.17l.187.027c7.575 1.117 14.865 3.767 31.766 16.066l.538.538.349.35.159.158c.374.376.724.768 1.069 1.17l.258.295a47 47 0 0 1 1.638 2.003l.426.541a40 40 0 0 1 1.82 2.5q.231.347.479.682c1.236 1.664 2.265 3.512 3.222 5.347l.137.262c2.938 5.627 4.702 11.848 5.327 18.158l.028.27c.439 4.424.183 8.927-.557 13.303l-.03.177c-1.042 6.244-3.155 12.612-6.79 17.844l-.176.255-.151.206c-.102.203-.102.203-.037.433.186.42.395.826.606 1.234 3.438 6.788 5.105 14.453 5.095 22.044v.262c-.015 7.456-1.629 14.805-4.864 21.528l-.108.226c-.599 1.258-1.289 2.458-2.008 3.651l-.123.204a42 42 0 0 1-2.698 3.938l-.112.145a46 46 0 0 1-2.418 2.892l-.375.418a37 37 0 0 1-1.583 1.66l-.434.435c-.489.489-.983.965-1.511 1.411l-.295.258a44 44 0 0 1-2.015 1.648l-.311.241c-1.693 1.321-3.525 2.465-5.34 3.61q-.603.381-1.205.766l-.485.308-.242.154-33.684 21.441-.242.154-.484.308-1.222.778-1.212.771-.459.292a72 72 0 0 1-4.356 2.588l-.23.125c-6.34 3.43-13.555 5.422-20.746 5.868l-.171.011a54 54 0 0 1-3.459.094h-.267a55.5 55.5 0 0 1-13.112-1.603l-.326-.079a54.3 54.3 0 0 1-10.514-3.798l-.19-.092a48 48 0 0 1-1.019-.51l-.446-.228c-2.316-1.176-4.504-2.524-6.629-4.018l-.193-.136a42 42 0 0 1-2.648-2.028q-.335-.275-.673-.547a28 28 0 0 1-1.129-.983 27 27 0 0 0-.529-.466 55 55 0 0 1-2.583-2.44l-.211-.209c-.369-.37-.723-.746-1.063-1.142q-.278-.317-.566-.626a26 26 0 0 1-1.028-1.202 58 58 0 0 0-.478-.585 52 52 0 0 1-2.119-2.769l-.175-.244a43 43 0 0 1-2.18-3.353 23 23 0 0 0-.311-.512c-4.07-6.536-6.3-14.258-7.069-25.974v-.912c-.006-2.559.165-5.062.596-7.588l.04-.241c.226-1.347.479-2.683.814-4.006l.076-.301c1.199-4.69 3.121-9.23 5.762-13.293l.162-.252.144-.221a1.5 1.5 0 0 0 .201-.651c-.049-.17-.049-.17-.147-.326l-.105-.187-.117-.203c-3.191-5.803-4.897-12.695-5.271-19.29l-.015-.233c-.521-8.381 1.097-16.732 6.314-27.651q.184-.317.365-.635c.781-1.358 1.664-2.65 2.589-3.914l.124-.17a32 32 0 0 1 1.743-2.187c.231-.265.452-.536.673-.81.261-.322.531-.62.83-.907.151-.151.29-.308.428-.472.387-.445.803-.86 1.221-1.276l.228-.229a25 25 0 0 1 1.364-1.264q.213-.192.424-.386c.463-.417.939-.813 1.427-1.201l.174-.138c2.182-1.73 4.518-3.211 6.863-4.708l1.38-.883.551-.353.275-.176 33.875-21.679.276-.176.549-.351 1.41-.904a75 75 0 0 1 2.943-1.83l.159-.092C75.083 2.938 82.628.656 92.628-.018" fill="#FE3F00"/><path d="M95.307 20.512q.456.001.913-.001c1.858-.001 3.682.115 5.506.476l.207.04c1.329.257 2.623.594 3.913 1.007l.215.068c2.86.922 5.696 2.259 8.157 3.986l.347.238a32 32 0 0 1 2.398 1.829 37 37 0 0 0 .452.369c.717.587 1.374 1.235 2.031 1.888l.137.135c.604.599 1.156 1.22 1.686 1.886l.23.27c2.399 2.797 4.36 6.127 5.587 9.601l.078.22c.509 1.449.91 2.906 1.211 4.412l.052.253c.352 1.838.471 3.684.46 5.552l-.001.311c-.01 2.504-.204 4.907-.919 7.318l-.103.351a103 103 0 0 1-1.219 3.88 3 3 0 0 1-.759-.388l-.177-.126-.188-.136-.403-.288-.207-.149a70 70 0 0 0-6.727-4.289l-.169-.096c-3.595-2.026-7.603-3.5-11.552-4.663l.004-.285q.007-.534.01-1.068l.005-.458c.041-2.756-.795-5.337-2.738-7.342-.783-.787-1.608-1.361-2.588-1.868a13 13 0 0 1-.392-.214c-1.289-.672-2.789-.791-4.217-.794l-.35-.002a9.2 9.2 0 0 0-3.247.619l-.237.092c-.824.333-1.552.785-2.291 1.274l-.475.31-.764.499a91 91 0 0 1-1.835 1.169c-1.004.624-2 1.26-2.995 1.899l-1.378.883-1.662 1.064a970 970 0 0 1-2.899 1.85 182 182 0 0 0-1.449.931 131 131 0 0 1-1.524.972q-1.546.977-3.085 1.966a435 435 0 0 1-3.289 2.095 133 133 0 0 0-1.522.977 122 122 0 0 1-1.402.894 133 133 0 0 0-1.553.991 362 362 0 0 1-4.04 2.583q-1.741 1.095-3.469 2.214a333 333 0 0 1-3.629 2.321c-4.501 2.638-4.501 2.638-7.447 6.786l-.087.21c-.858 2.316-.471 4.811.489 7.023a9.9 9.9 0 0 0 5.584 4.981c1.109.375 2.158.513 3.328.51h.19c.936-.003 1.77-.067 2.658-.385l.37-.116c1.369-.44 2.534-1.155 3.727-1.942q.646-.42 1.296-.834l.285-.182q1.271-.812 2.545-1.622l1.207-.769 1.445-.919q1.835-1.168 3.667-2.342l1.669-1.068q.52-.333 1.039-.668c2.363-1.523 4.787-2.836 7.427-3.816l.283-.105c2.02-.742 4.162-1.283 6.313-1.455.262-.016.262-.016.444-.068 1.108-.269 2.367-.155 3.498-.156h.304c1.516.001 2.994.049 4.493.287l.291.043c7.897 1.182 15.798 5.346 21.109 12.16.146.19.299.374.451.559 3.503 4.375 5.717 9.655 6.494 15.192l.033.235c.169 1.262.194 2.515.193 3.786v.268c-.006 2.789-.297 5.52-1.074 8.209l-.054.187c-1.113 3.765-3.055 7.385-5.642 10.337a29 29 0 0 0-.373.441 22 22 0 0 1-2.745 2.783l-.241.212c-1.304 1.138-2.737 2.076-4.201 2.993q-.5.316-.994.64a151 151 0 0 1-1.752 1.118 401 401 0 0 0-1.853 1.175l-.494.315-1.217.773-.485.308-2.908 1.851-.242.154-.484.308-1.714 1.091-.243.155a414 414 0 0 1-1.574.996 151 151 0 0 0-1.744 1.118q-.779.503-1.564.996a273 273 0 0 0-1.777 1.131 336 336 0 0 1-2.157 1.372q-1.157.732-2.313 1.468l-.722.459a874 874 0 0 0-2.581 1.647 347 347 0 0 1-2.141 1.361 610 610 0 0 0-3.659 2.329 711 711 0 0 1-4.083 2.597l-1.585 1.005-.245.156-1.233.787a85 85 0 0 1-3.21 1.976l-.181.105c-1.697.978-3.589 1.689-5.446 2.3l-.539.182c-5.3 1.775-11.893 1.898-17.269.286a26 26 0 0 0-.678-.184c-4.792-1.276-9.467-3.694-13.124-7.072a23 23 0 0 0-.542-.478 26 26 0 0 1-1.258-1.198l-.237-.237c-.457-.46-.888-.923-1.286-1.435a10 10 0 0 0-.493-.57c-1.301-1.453-2.396-3.143-3.365-4.831l-.105-.18c-2.375-4.08-3.945-9.092-3.967-13.84l-.002-.277c-.016-2.934.168-5.679.86-8.534l.121-.508a44 44 0 0 1 1.066-3.805c.273.053.45.139.672.304l.186.137.2.149.429.314.225.165a63 63 0 0 0 4.468 2.973l.579.354c.846.517 1.697.998 2.591 1.427q.339.165.674.336.452.227.905.45l.204.101a48.6 48.6 0 0 0 9.138 3.424l-.019.233c-.247 3.267.293 6.14 2.466 8.691 1.242 1.425 2.966 2.454 4.78 2.973l.239.069c.746.196 1.449.236 2.215.23q.292-.001.586.002c.752.001 1.438-.072 2.16-.301l.199-.06c1.662-.518 3.048-1.374 4.49-2.334a53 53 0 0 1 1.072-.685 311 311 0 0 0 3.834-2.451q.855-.554 1.717-1.095 1.022-.646 2.04-1.3a564 564 0 0 1 1.85-1.18 203 203 0 0 0 1.691-1.085q.76-.493 1.526-.975 1.404-.886 2.801-1.785l1.386-.887 1.662-1.064a1300 1300 0 0 1 4.081-2.602q1.097-.696 2.189-1.401c.81-.526 1.625-1.043 2.44-1.561a1374 1374 0 0 0 4.39-2.798q1.593-1.021 3.189-2.038l.239-.152 1.21-.768a282 282 0 0 0 1.443-.92l.221-.141c2.343-1.506 4.057-3.303 4.667-6.108.343-1.958.158-3.922-.657-5.737l-.075-.167c-1.089-2.365-3.16-4.055-5.568-4.973-2.771-.95-5.584-.595-8.201.592-.689.358-1.332.812-1.981 1.238q-.716.469-1.438.925l-.243.154-.738.469-.997.633-.245.155q-.833.532-1.664 1.071a71 71 0 0 1-1.204.762q-.86.537-1.708 1.096c-.787.516-1.582 1.018-2.381 1.515q-.904.565-1.794 1.151c-3.185 2.087-6.434 3.899-10.151 4.842l-.45.118c-2.254.601-4.634 1.004-6.97 1.013l-.324.001-.677.002-1.012.006c-7.47.032-14.746-2.807-20.515-7.49l-.414-.331c-.757-.617-1.446-1.306-2.137-1.994l-.149-.148a22 22 0 0 1-1.762-1.962l-.413-.485c-1.894-2.278-3.396-4.838-4.61-7.535l-.103-.228c-.83-1.87-1.39-3.83-1.825-5.825l-.073-.329c-.388-1.864-.51-3.746-.496-5.647q.003-.468.001-.935c.001-1.154.048-2.285.205-3.428l.039-.292c.639-4.471 2.265-8.802 4.896-12.487l.197-.281a29 29 0 0 1 3.144-3.7l.421-.422a20 20 0 0 1 1.79-1.59l.299-.246c1.333-1.073 2.794-1.97 4.242-2.878q.586-.37 1.171-.743l.245-.156.494-.315 1.217-.774.485-.308 2.908-1.851.726-.462 1.714-1.091.244-.155 1.35-.855a131 131 0 0 0 1.887-1.21c.729-.477 1.467-.94 2.206-1.4.924-.576 1.84-1.163 2.756-1.751l1.251-.798.239-.152.475-.302 1.209-.769 1.445-.919q1.292-.822 2.582-1.648a344 344 0 0 1 2.141-1.361q1.158-.731 2.311-1.467.607-.388 1.215-.774l.485-.308 4.847-3.085.726-.462 1.222-.778 1.213-.772.673-.429c3.852-2.453 7.905-4.283 12.427-5.095l.296-.054c1.607-.271 3.226-.327 4.852-.321" fill="#FEFEFE"/><path d="M128.32 47.062h.088l.171 1.179.049.334.047.329.043.299c.099.761.145 1.506.145 2.273l.001.304.001.634q0 .476.004.953a28 28 0 0 1-.196 3.566h-.088q-.004-.476-.005-.953l-.002-.274-.001-.263-.001-.242c.008-.207.008-.207.096-.471q.012-.19.011-.382l.001-.233-.001-.25v-.258l-.001-.54.001-.827v-.524l.001-.25-.001-.233v-.205c-.005-.195-.005-.195-.099-.442q-.033-.45-.053-.899c-.015-.277-.035-.511-.123-.776a9 9 0 0 1-.028-.431l-.011-.25-.011-.261-.011-.264-.027-.645" fill="#FEEDDC"/><path d="M95.466 20.34q.496.002.994.002l.63.002h.301l.275.002.243.001c.181.011.181.011.27.1q.319.028.639.044c.381.02.751.045 1.124.132v.088l-.34-.019a69 69 0 0 0-3.692-.081l-.93-.001c-1.111 0-2.215.021-3.323.1.956-.637 2.715-.376 3.809-.371" fill="#E65A29"/><path d="M23.09 73.678h.088l-.088 4.935-.176-.088c-.138-.516-.101-1.067-.099-1.597l-.001-.29v-.531c.01-.208.046-.378.1-.578q.027-.219.047-.439l.023-.25.023-.259.024-.263q.03-.32.058-.641" fill="#EF5D29"/><path d="M21.152 123.561h.088l.006 1.041.002.299.001.287.001.264c-.01.224-.01.224-.098.488a9 9 0 0 0-.01.475v.294l.001.317v.325l.003 1.029.001.697.004 1.71h-.088a16 16 0 0 1-.103-1.886l-.001-.285-.001-.596q0-.446-.004-.892c-.003-1.2.056-2.376.196-3.568" fill="#FDD9C3"/><path d="M95.887 92.803v.176l.529.088a1 1 0 0 1-.594.047c-.509-.084-1.023-.064-1.538-.064l-.338-.003c-.598-.001-1.153.031-1.737.167-.213.031-.35.008-.553-.059 1.36-.501 2.805-.386 4.23-.353" fill="#FEDEC8"/><path d="M45.917 74.824c.094.322.067.552 0 .881h-.176l.003.19.002.245.003.245c-.009.201-.009.201-.097.29a18 18 0 0 0-.009.703v.213l.003.676.001.457.004 1.124c-.662-1.219-.291-3.229.076-4.494q.088-.267.188-.53" fill="#EA6B3F"/><path d="m103.995 100.47.264.088.016.209.022.27.022.27c.004.215.004.215.116.309q.012.234.012.468v.287l-.001.302.001.302v.552c-.011.204-.011.204-.099.292a6 6 0 0 0-.05.358l-.038.347h-.176l.019-.169c.129-1.301.131-2.597-.107-3.885" fill="#FDE8D6"/><path d="M126.645 103.995h.088c.04 1.525-.044 3.086-.353 4.583h-.088q-.004-.284-.005-.567l-.003-.319c.009-.26.009-.26.097-.348q.018-.244.025-.487l.01-.299.009-.315.019-.614.008-.277c.017-.211.017-.211.105-.299q.03-.267.05-.534l.022-.295z" fill="#FEE3D0"/><path d="M106.287 50.059c.384.615.278 1.486.275 2.181l.001.295a20 20 0 0 1-.1 1.931h-.088l-.007-.352-.026-1.291-.011-.559-.016-.803-.004-.253-.005-.235-.004-.207c-.008-.197-.008-.197-.102-.443z" fill="#E84D17"/><path d="M128.32 47.062h.088c.208 1.35.405 2.687.441 4.054-.304-.456-.292-.899-.318-1.427-.015-.277-.035-.511-.123-.776a9 9 0 0 1-.028-.431l-.011-.25-.011-.261-.011-.264z" fill="#FDD8C1"/><path d="m92.009 20.711-.088.176c-.215.033-.215.033-.479.05-.346.015-.346.015-.667.127-.228.027-.457.045-.686.063-.193.004-.193.004-.283.113a20 20 0 0 1-.711.05l-.203.011-.497.027v-.088c2.741-.563 2.741-.563 3.613-.529" fill="#FEDBC5"/><path d="M126.469 99.589h.088c.136 1.21.2 2.396.176 3.613h-.088v-1.322h-.176z" fill="#FDDBC5"/><path d="M42.92 127.262h.176q.045.6.088 1.201l.026.343.024.332.022.305q.021.407.016.815h-.176v-1.234h-.176z" fill="#FEEAD8"/><path d="M125.588 95.182c.14.257.22.495.284.78l.056.25.057.259.057.253.162.75.056.247.051.234.047.208a1.16 1.16 0 0 1-.066.544c-.17-.256-.207-.357-.248-.648l-.033-.228-.033-.237-.033-.231q-.104-.736-.181-1.477h-.176z" fill="#FDDBC5"/><path d="M126.116 97.121h.176v.793h.176l.016.209.022.27.022.27c.004.215.004.215.116.309q.009.334.006.667l-.001.19-.004.466h-.088l-.171-1.091-.049-.309c-.092-.59-.17-1.178-.221-1.773" fill="#E65523"/><path d="M23.267 72.973h.088l.006.87.002.25.001.239.001.221c-.01.183-.01.183-.098.359a6 6 0 0 0-.028.364l-.011.215-.011.225-.011.227-.027.555h-.088c-.021-1.19.025-2.345.176-3.525" fill="#FEE0CC"/><path d="m57.076 87.333.268.002.206.003c-.475.264-.916.275-1.453.273h-.188q-.295 0-.59-.003l-.402-.001-.981-.004v-.088l.224-.007.821-.026.53-.016.336-.011.31-.01c.327-.024.577-.116.919-.112" fill="#E75725"/><path d="M64.072 108.137h.705c-.403.218-.824.303-1.267.408l-.249.061c-.413.098-.788.175-1.216.148l.171-.083c.176-.079.176-.079.27-.182a8 8 0 0 1 .446-.005l.245.002.19.004v-.176h.705z" fill="#FEE1CE"/><path d="m32.344 55.435.088.264-1.234 1.234-.264-.088z" fill="#FEF4E8"/><path d="M102.056 72.18h.793v.176l.226.033c.497.09.971.245 1.449.408v.176l-.137-.042c-.773-.235-1.552-.448-2.331-.663z" fill="#E95B2A"/><path d="M126.469 107.521h.088q-.018.416-.039.832l-.011.24-.011.228-.01.211c-.017.163-.017.163-.105.251a6 6 0 0 0-.05.358l-.038.347h-.176c.099-.826.207-1.648.353-2.468" fill="#E75928"/><path d="M104.612 21.68c.708.049 1.352.234 2.027.441v.176h.441v.176a32 32 0 0 1-2.468-.705z" fill="#E75F2F"/><path d="M21.945 119.683c.085.275.087.486.05.771l-.027.213-.023.161h-.176l.017.336c.002.345.002.345-.149.545l-.132.088c.053-.498.143-.97.27-1.454l.05-.194.121-.467" fill="#FDD9C3"/><path d="M89.542 71.122h1.675v.088l-.204.013c-.669.047-1.326.124-1.989.224-.275.028-.275.028-.54-.06.223-.111.38-.097.628-.094l.243.002.187.003z" fill="#E55321"/><path d="m103.995 100.47.264.088c.105.852.097 1.699.088 2.556h-.088l-.015-.186-.068-.839-.023-.292-.023-.284-.021-.26a11 11 0 0 0-.114-.783" fill="#FDD7B8"/><path d="M49.706 108.666c.706-.027 1.295-.045 1.939.264a1.4 1.4 0 0 1-.734.039l-.213-.037-.22-.04-.224-.039-.547-.098z" fill="#FDD9C4"/><path d="M96.416 42.215v.088l-.233.032a68 68 0 0 0-2.058.321c.088-.176.088-.176.243-.251.691-.226 1.329-.215 2.048-.189" fill="#FEE9D8"/><path d="m118.978 123.472.088.264c-.111.177-.111.177-.275.364l-.16.188c-.209.177-.353.211-.622.242.309-.369.624-.722.969-1.058" fill="#EA4910"/><path d="M25.206 65.658h.088v.529h-.176l.011.187a2.1 2.1 0 0 1-.187.782l-.264.088c.156-.538.326-1.064.529-1.586" fill="#FEE2CE"/><path d="M89.806 143.214v.176l-.264.088-.176.264h-.353l-.088.264-.353-.088.518-.353.291-.198c.249-.154.249-.154.425-.154" fill="#E9511A"/><path d="M24.06 69.007c.185.622.013 1.197-.264 1.763-.121-.388-.021-.698.083-1.08l.052-.199q.064-.243.13-.484" fill="#FDDBC5"/><path d="M73.149 104.612v.176h-.264l-.077.171c-.099.182-.099.182-.276.27l-.176-.088v.176l-.353-.088q.236-.155.474-.308l.266-.174c.23-.135.23-.135.406-.135" fill="#E9511D"/><path d="m87.452 71.466.245.003.245.002.19.004c-.534.293-1.158.384-1.763.353v-.088l.17-.035.221-.047.22-.047c.22-.057.239-.134.472-.144" fill="#E65626"/><path d="M23.619 70.593c.117.352.034.633-.039.986l-.039.2-.098.488h-.088c-.031-.628.004-1.099.264-1.675" fill="#E5531F"/><path d="m87.854 21.231.542.009c-.287.158-.57.244-.887.325l-.278.073c-.245.042-.245.042-.509-.046l.19-.055.245-.072.245-.071c.196-.065.254-.153.452-.163" fill="#E65724"/><path d="M22.65 116.951c.134.463.061.835-.138 1.272l-.127.226c-.138-.35-.032-.601.083-.947l.102-.313z" fill="#FDD5BD"/><path d="M124.882 92.714c.176.088.176.088.275.336.077.281.077.281.077.633h.176v.617c-.177-.266-.264-.491-.364-.793l-.094-.281c-.07-.247-.07-.247-.07-.512" fill="#E65623"/><path d="m103.202 21.328.689.165.197.046c.304.074.526.142.789.317-.648-.024-1.112-.112-1.675-.441z" fill="#FEE1CC"/><path d="M103.819 105.053c.119.358.013.509-.127.854l-.126.315-.099.241h-.088l-.088-.529.176-.088c.099-.186.099-.186.187-.402l.094-.221z" fill="#E74E18"/><path d="m120.564 121.533.088.353h-.176l-.022.16c-.084.245-.205.319-.419.457l-.176-.088z" fill="#EB5420"/><path d="m66.011 33.226.353.088q-.236.155-.474.308l-.266.174c-.23.135-.23.135-.407.135l.176-.353h.353v-.176h.264z" fill="#E7531D"/><path d="m114.835 127.086.176.088c-.244.393-.565.551-1.002.678l-.143.027c.293-.317.616-.549.969-.793" fill="#E75522"/><path d="M37.103 103.378c.846.441.846.441 1.146.793l-.176.088v-.176l-.286-.066c-.331-.11-.472-.192-.683-.463z" fill="#E7501D"/><path d="m67.949 156.874-.518.22-.291.124c-.248.097-.248.097-.424.097v-.176h.353v-.176c.338-.131.534-.196.881-.088" fill="#FEE5D1"/><path d="M97.826 138.102v.176h-.264l-.066.171c-.11.182-.11.182-.286.253-.176.017-.176.017-.353-.072l.386-.264.217-.149c.19-.115.19-.115.366-.115" fill="#EA5622"/><path d="M61.075 63.19v.176c-.309.3-.543.401-.969.441.574-.617.574-.617.969-.617" fill="#EA5423"/><path d="m66.98 131.228.176.088c-.324.358-.667.549-1.146.617.312-.257.631-.485.969-.705" fill="#FEE6D3"/><path d="M46.445 73.678c.098.293.083.347-.022.622l-.068.185c-.086.162-.086.162-.35.339l.121-.375.068-.211c.071-.196.154-.376.251-.561" fill="#E85A27"/><path d="M62.75 62.133v.176h-.264l-.055.171c-.122.182-.122.182-.397.248l-.254.022c.574-.617.574-.617.969-.617" fill="#E8511C"/><path d="M33.666 54.377c-.035.254-.07.337-.27.507l-.17.11-.176-.176c.419-.441.419-.441.617-.441" fill="#FEEADB"/><path d="m103.907 134.224-.881.529v-.264h.264l.088-.264c.264-.088.264-.088.529 0" fill="#FFE7D4"/><path d="m71.651 128.231.176.088c-.197.296-.258.316-.584.413l-.218.067-.167.049c.239-.251.502-.429.793-.617" fill="#FEE3CF"/><path d="M58.872 38.073c-.121.279-.175.352-.441.529-.193-.033-.193-.033-.353-.088l.297-.22.167-.124c.154-.097.154-.097.33-.097m15.511-9.871c-.121.279-.175.352-.441.529-.193-.033-.193-.033-.353-.088l.297-.22.167-.124c.154-.097.154-.097.33-.097" fill="#FFE9DB"/><path d="M46.181 135.37c.193.006.193.006.441.088.17.191.307.399.441.617-.348-.147-.601-.368-.881-.617z" fill="#E75526"/><path d="M89.718 116.422h.441c-.224.262-.484.384-.793.529v-.176h.176z" fill="#EA501B"/><path d="M25.206 88.484c.158.237.234.411.319.678l.122.38h-.176l-.132-.33-.074-.186c-.059-.189-.059-.189-.059-.542" fill="#E75729"/><path d="M42.656 48.032h.441c-.282.242-.529.408-.881.529v-.176h.264v-.176h.176z" fill="#E85321"/><path d="M21.945 119.154h.088l-.033.375-.019.211a1.6 1.6 0 0 1-.213.561c-.015-.434-.022-.749.176-1.146" fill="#E5521D"/><path d="M22.209 118.449h.088q.01.19.017.38l.009.214c-.031.241-.105.313-.29.464.088-.755.088-.755.176-1.058" fill="#FCD5C1"/><path d="m86.81 118.537.176.088c-.149.22-.149.22-.353.441-.242.028-.242.028-.441 0 .199-.206.377-.369.617-.529" fill="#FEE3CC"/><path d="M47.503 108.137h.793v.176l.176.088-.336-.033-.189-.019c-.18-.035-.18-.035-.444-.212" fill="#FEDBC7"/><path d="m76.851 102.145.176.088c-.541.491-.541.491-.969.529.242-.26.474-.458.793-.617" fill="#E65726"/><path d="m79.054 100.734.176.088c-.541.491-.541.491-.969.529.242-.26.474-.458.793-.617" fill="#E85A2A"/><path d="m85.827 71.819.542.008a1.7 1.7 0 0 1-.771.231l-.213.02-.162.014.171-.083c.362-.187.362-.187.433-.19" fill="#E85624"/><path d="M100.646 71.827q.19-.01.38-.016l.214-.009c.241.031.313.105.464.29-.708-.071-.708-.071-1.058-.264" fill="#E85C2D"/><path d="M128.055 45.828h.088l.094.375.053.211c.031.217.01.354-.058.561-.195-.292-.196-.383-.187-.722l.005-.241z" fill="#FCD7C3"/><path d="M127.703 44.506c.226.339.225.567.264.969l-.088-.176h-.176z" fill="#FEDEC8"/><path d="M82.051 148.149c-.066.171-.066.171-.176.353-.176.072-.176.072-.353.088l-.176-.088c.507-.353.507-.353.705-.353" fill="#EB5221"/><path d="m87.867 144.095.353.088-.705.441v-.264h.264z" fill="#FFE7D5"/><path d="m118.361 123.825.264.088-.617.529v-.353l.353-.088z" fill="#FEE7D4"/><path d="M124.971 113.602h.088c.022.292.022.292 0 .617l-.353.264z" fill="#ED6333"/><path d="M52.791 68.478v.176a9 9 0 0 1-.441.353l-.264-.176c.507-.353.507-.353.705-.353" fill="#EB5622"/><path d="M24.324 68.126h.088c.026.534.026.534 0 .705l-.264.176c.04-.306.079-.588.176-.881" fill="#FEE0CB"/><path d="M126.733 64.072h.088v.617l-.441.088.088-.264.176.088z" fill="#EE5A29"/><path d="M73.502 55.259c-.066.171-.066.171-.176.353-.176.072-.176.072-.353.088l-.176-.088c.507-.353.507-.353.705-.353" fill="#EB531E"/><path d="m92.274 43.273.176.088c-.182.247-.277.267-.589.325l-.292.027c.145-.29.412-.333.705-.441" fill="#E95724"/><path d="m50.94 42.656.441.088c-.419.342-.419.342-.617.441v-.353h.176z" fill="#EB4D14"/><path d="m80.112 24.501.176.088c-.136.271-.345.326-.617.441l-.264-.088.342-.226.192-.127z" fill="#FEE5D4"/><path d="m62.045 134.489-.793.441.088-.353c.29-.16.384-.195.705-.088" fill="#E75A29"/><path d="m119.771 122.503.088.176c-.105.226-.105.226-.264.441l-.353.088z" fill="#E95A2B"/><path d="m103.995 100.47.264.088v.793a2.5 2.5 0 0 1-.264-.881" fill="#FEE0CD"/><path d="M63.014 84.606h.176c-.055.171-.055.171-.176.353-.275.066-.275.066-.529.088l.215-.171c.162-.129.162-.129.314-.27" fill="#FEEADC"/><path d="M51.821 42.568v.176c-.154.149-.154.149-.353.264-.198-.027-.198-.027-.353-.088.507-.353.507-.353.705-.353" fill="#FDDFC6"/></svg>