<svg xmlns="http://www.w3.org/2000/svg" width="150" height="91.699" viewBox="0 0 150 91.699"><path d="m36.062 44.988.321-.001 1.021-.002h.176c1.698 0 3.386.008 5.076.19l.302.031c4.557.481 8.935 1.609 13.116 3.485l.164.074c.767.347 1.504.746 2.238 1.157l.156.087c1.797 1 3.498 2.162 5.117 3.429l.2.155a27 27 0 0 1 1.145.939 22 22 0 0 0 .621.518c.315.255.61.529.906.805a13 13 0 0 0 .402.36q.814.707 1.564 1.479a7 7 0 0 0 .337.304c.371.324.714.676 1.062 1.025l.228.227.475.475q.302.303.606.605l.469.469.223.223c.342.341.681.681.995 1.048.132.153.273.294.416.437l.089.09.185.185.279.28c.287.287.576.567.885.831.181.159.347.331.515.503.245.247.49.488.755.713.135.117.264.237.395.359.315.294.636.577.973.847a17 17 0 0 1 .419.353c2.008 1.733 4.335 3.159 6.833 4.056l.139.05c1.186.418 2.431.673 3.669.876l.209.035a21 21 0 0 0 3.343.229h.186c.971-.003 1.923-.037 2.883-.194l.214-.034a21.8 21.8 0 0 0 9.278-3.891l.12-.088q.716-.524 1.403-1.084l.152-.121c.337-.271.659-.554.975-.85a14 14 0 0 1 .489-.438c.322-.281.621-.584.923-.887l.305-.305c.334-.334.659-.671.965-1.031l.256-.282c.249-.276.485-.562.719-.851l.277-.336c.363-.437.719-.876 1.053-1.337.099-.126.099-.126.216-.185-.034.319-.09.622-.174.932l-.036.133-.119.436-.042.153a51.6 51.6 0 0 1-3.437 9.068l-.125.258c-1.454 2.974-3.332 5.764-5.584 8.193a24 24 0 0 0-.388.433c-.264.294-.542.574-.82.853l-.134.135q-.364.365-.755.702-.195.17-.386.345a21 21 0 0 1-.948.798l-.113.09a32.5 32.5 0 0 1-4.6 3.05l-.393.219c-4.33 2.395-9.383 3.552-15.232 4.097l-.131.011c-.882.072-1.762.102-2.647.104l-.16.001-.842.002-.677.002c-4.688.027-9.416-.544-18.683-3.884l-.208-.1a35 35 0 0 1-2.956-1.599l-.162-.097a40 40 0 0 1-3.998-2.774l-.2-.155a27 27 0 0 1-1.145-.939 22 22 0 0 0-.621-.518 14 14 0 0 1-.801-.708 18 18 0 0 0-.508-.459q-.36-.315-.705-.643l-.124-.116q-.382-.358-.748-.733a6 6 0 0 0-.322-.289c-.367-.32-.706-.668-1.05-1.012l-.224-.223-.466-.467-.595-.595-.461-.461-.219-.219a18 18 0 0 1-.983-1.036 8 8 0 0 0-.43-.451l-.093-.094-.194-.193-.292-.292c-.294-.294-.59-.582-.906-.853-.18-.158-.347-.33-.514-.502a11 11 0 0 0-.751-.709 15 15 0 0 1-.419-.384c-.323-.304-.65-.597-.997-.874a25 25 0 0 1-.399-.328c-2.037-1.703-4.302-3.13-6.81-4.031l-.139-.05c-1.187-.418-2.433-.674-3.673-.876l-.211-.035a21 21 0 0 0-3.305-.229h-.19c-.981.003-1.942.035-2.911.194l-.214.034a21.76 21.76 0 0 0-9.278 3.892l-.12.088q-.716.524-1.403 1.084l-.152.121a17 17 0 0 0-.975.85 14 14 0 0 1-.489.438c-.322.281-.621.584-.923.887l-.305.305c-.334.334-.659.671-.965 1.031l-.256.282c-.249.276-.485.561-.719.851l-.277.336c-.363.437-.719.876-1.053 1.337-.098.124-.098.124-.215.183.038-.459.163-.894.286-1.337l.035-.127c.277-1.005.586-1.999.91-2.99l.072-.222a48 48 0 0 1 2.037-5.109l.082-.177c.388-.84.813-1.654 1.266-2.46l.088-.158c.811-1.451 1.706-2.862 2.724-4.178l.139-.184c.3-.396.612-.778.935-1.155q.221-.261.435-.528c.175-.215.356-.415.556-.607.1-.1.191-.204.283-.312.267-.307.554-.593.843-.88l.16-.161c.268-.268.54-.528.828-.775q.188-.163.37-.334c.328-.295.673-.565 1.022-.834a23 23 0 0 0 .339-.271 24 24 0 0 1 1.719-1.242l.111-.074a29 29 0 0 1 2.164-1.318l.134-.074.268-.147.338-.187c4.29-2.353 9.3-3.526 15.128-4.056l.135-.011c.885-.07 1.767-.102 2.655-.104m37.5-45 .321-.001 1.021-.002h.176c1.698 0 3.386.009 5.076.191l.302.031c4.557.48 8.935 1.608 13.116 3.484l.164.074c.767.347 1.504.746 2.238 1.157l.156.087c1.797 1 3.498 2.162 5.117 3.429l.2.155a27 27 0 0 1 1.145.939 22 22 0 0 0 .621.518c.315.255.61.529.906.805a13 13 0 0 0 .402.36q.814.707 1.564 1.479a7 7 0 0 0 .337.304c.371.324.714.676 1.062 1.025l.228.227.475.475q.302.303.606.605l.469.469.223.223c.342.341.681.681.995 1.048.132.153.273.294.416.437l.089.09.185.185.279.28c.287.287.576.567.885.831.181.159.347.331.515.503.245.247.49.488.755.713.135.117.264.237.395.359.315.294.636.577.973.847a17 17 0 0 1 .419.353c2.008 1.733 4.335 3.159 6.833 4.056l.139.05c1.186.418 2.431.673 3.669.877l.209.035a21 21 0 0 0 3.343.229h.186c.971-.003 1.923-.037 2.883-.194l.214-.034a21.8 21.8 0 0 0 9.278-3.891l.12-.088q.716-.524 1.403-1.084l.152-.121c.337-.271.659-.554.975-.85a14 14 0 0 1 .489-.438c.322-.281.621-.584.923-.887l.305-.305c.334-.334.659-.671.965-1.031l.256-.282c.249-.276.485-.562.719-.851l.277-.336c.363-.437.719-.876 1.053-1.337.099-.127.099-.127.216-.186-.034.319-.09.622-.174.932l-.036.133-.119.436-.042.153a51.6 51.6 0 0 1-3.438 9.069l-.125.258c-1.454 2.974-3.332 5.764-5.584 8.193a24 24 0 0 0-.388.433c-.264.294-.542.574-.82.853l-.134.135q-.364.364-.755.702-.196.17-.385.345a21 21 0 0 1-.948.798l-.113.09a32.5 32.5 0 0 1-4.6 3.05l-.393.219c-4.33 2.395-9.383 3.552-15.232 4.097l-.131.011c-.882.072-1.762.102-2.647.104l-.16.001-.842.002-.677.002c-4.688.027-9.416-.544-18.683-3.884l-.208-.1a35 35 0 0 1-2.956-1.599l-.162-.097a40 40 0 0 1-3.998-2.774l-.2-.155a27 27 0 0 1-1.145-.939 22 22 0 0 0-.621-.518 14 14 0 0 1-.801-.708 18 18 0 0 0-.508-.459q-.36-.315-.705-.643l-.124-.116q-.382-.358-.748-.733a6 6 0 0 0-.322-.289c-.367-.32-.706-.668-1.05-1.012l-.224-.223-.466-.467-.595-.595-.461-.461-.219-.219a18 18 0 0 1-.983-1.036 8 8 0 0 0-.43-.451l-.093-.094-.194-.193-.292-.292a16 16 0 0 0-.905-.851c-.191-.168-.367-.351-.545-.533a12 12 0 0 0-.787-.745 13 13 0 0 1-.392-.357 18 18 0 0 0-.977-.851q-.242-.197-.477-.399c-3.487-2.901-7.436-4.558-11.927-5.061l-.156-.018c-1.647-.167-3.426-.132-5.059.135l-.214.034a21.8 21.8 0 0 0-9.278 3.894l-.12.088q-.716.524-1.403 1.084l-.152.121a17 17 0 0 0-.975.85 14 14 0 0 1-.489.438c-.322.281-.621.584-.923.887l-.305.305c-.334.334-.659.671-.965 1.031l-.256.282c-.249.276-.485.561-.719.851l-.277.336c-.363.437-.719.876-1.053 1.337-.098.124-.098.124-.215.183.038-.459.163-.894.286-1.337l.035-.127c.277-1.005.586-1.999.91-2.99l.072-.222a48 48 0 0 1 2.037-5.109l.082-.177c.388-.84.813-1.654 1.266-2.46l.088-.158c.811-1.451 1.706-2.862 2.724-4.178l.139-.184c.3-.396.612-.778.935-1.155q.221-.261.435-.528c.175-.215.356-.415.556-.607.1-.1.191-.204.283-.312.267-.307.554-.593.843-.88l.16-.161c.268-.268.54-.528.828-.775q.188-.163.37-.334c.328-.295.673-.565 1.022-.834a23 23 0 0 0 .339-.271 24 24 0 0 1 1.719-1.242l.111-.074a29 29 0 0 1 2.162-1.318l.134-.074.268-.147.338-.187C59.934 1.806 64.944.633 70.772.103l.135-.011c.885-.07 1.767-.102 2.655-.104" fill="#37BDF8"/></svg>