<svg xmlns="http://www.w3.org/2000/svg" width="150" height="154.511" viewBox="0 0 150 154.511"><path d="M20.674 7.792h3.898l3.243-.001h4.342l10.007-.001h7.61l13.611-.001h4.348q8.116.001 16.231-.001l4.344-.001 7.761-.001h7.985l7.587-.001h8.906l3.277-.001h7.079c1.283-.003 2.517.068 3.762.401l.191.051c3.584.999 6.451 3.408 8.283 6.61.519.937.889 1.941 1.166 2.975l.046.171c.31 1.239.362 2.461.358 3.734q-.001.361.001.724v3.171l.001 3.24.001 4.337.001 9.998v7.845l.001 13.363v4.343q-.001 8.109.001 16.218l.001 4.086v.254l.001 8.002v7.736l.001 7.58a9607 9607 0 0 1-.001 8.9q-.001 1.636.001 3.273.001 1.61-.001 3.22-.001.943.001 1.886.001.628-.001 1.255v.71c.014 3.881-1.344 7.302-4.066 10.065-1.644 1.635-3.748 2.782-5.979 3.379l-.171.046c-1.239.31-2.461.362-3.734.358q-.361-.001-.724.001h-3.171l-3.24.001-4.337.001-9.998.001h-7.845l-13.363.001h-4.343q-8.109-.001-16.218.001l-4.341.001-8.002.001h-7.736l-7.58.001a9607 9607 0 0 1-8.9-.001q-1.636-.001-3.273.001-1.61.001-3.22-.001-.943-.001-1.886.001-.628.001-1.255-.001h-.71c-3.881.014-7.302-1.344-10.065-4.066-.728-.732-1.326-1.559-1.873-2.432l-.077-.122c-.657-1.055-1.115-2.235-1.433-3.433l-.045-.17c-.306-1.237-.359-2.457-.355-3.727q.001-.361-.001-.724v-3.171l-.001-3.24v-4.337l-.001-9.998v-7.845l-.001-13.363v-4.343q.001-8.109-.001-16.218l-.001-4.341-.001-7.756v-7.982l-.001-7.58a9607 9607 0 0 1 .001-8.9q.001-1.636-.001-3.273-.001-1.61.001-3.22.001-.943-.001-1.886-.001-.628.001-1.255v-.71c-.014-3.871 1.34-7.291 4.049-10.052 2.653-2.645 6.178-3.795 9.86-3.787" fill="#3179C6"/><path d="M115.967 71.886h.142c5.033-.002 9.878.627 14.636 2.306v12.59a3 3 0 0 1-.58-.281l-.138-.087-.149-.094c-1.778-1.1-3.674-1.874-5.664-2.499l-.296-.096c-.828-.262-1.678-.422-2.532-.577l-.203-.038c-3.834-.7-8.066-.816-11.646.913l-.21.101c-1.362.698-2.399 1.814-2.889 3.271-.336 1.245-.148 2.614.438 3.754 2.096 3.477 6.814 5.087 10.36 6.587 3.888 1.645 7.771 3.459 10.919 6.333q.17.154.342.306c.305.269.589.54.851.852a7 7 0 0 0 .254.282c2.029 2.153 3.215 5.111 3.635 8.003l.024.166c.459 3.371.126 7.099-1.303 10.202l-.07.156a13.6 13.6 0 0 1-1.882 3.009l-.093.113c-.718.874-1.498 1.689-2.398 2.378l-.211.166c-1.232.95-2.61 1.699-4.03 2.325l-.166.074c-1.853.815-3.881 1.321-5.874 1.641l-.714.12a40 40 0 0 1-3.953.445l-.371.029c-.882.067-1.767.06-2.651.06l-.563.001a46 46 0 0 1-3.954-.148l-.172-.014a45 45 0 0 1-.876-.079l-.258-.026c-2.651-.271-5.314-.733-7.85-1.565l-.18-.058c-1.213-.394-2.414-.857-3.523-1.491v-13.465q.475.356.943.72a25.3 25.3 0 0 0 7.516 4.008q.228.075.456.155c1.383.466 2.809.763 4.252.967l.149.021c1.069.149 2.122.203 3.2.202h.19c2.539-.006 5.081-.291 7.329-1.561l.202-.113c1.224-.729 2.088-1.826 2.452-3.206.335-1.564.004-2.957-.831-4.294-.696-.988-1.626-1.824-2.631-2.486l-.149-.098a28 28 0 0 0-2.343-1.386l-.179-.095c-1.894-.993-3.878-1.806-5.851-2.628a59 59 0 0 1-2.992-1.317l-.217-.105c-1.997-.969-3.979-2.104-5.661-3.567a21 21 0 0 0-.354-.298c-.769-.64-1.492-1.328-2.112-2.115a11 11 0 0 0-.285-.347c-1.212-1.422-2.013-3.124-2.615-4.879l-.088-.249c-.548-1.655-.669-3.423-.67-5.154v-.179c.002-1.522.165-2.976.556-4.45l.045-.172c.677-2.539 2.048-4.744 3.86-6.628l.096-.1c.435-.453.89-.861 1.385-1.246l.116-.092c3.071-2.425 6.907-3.748 10.724-4.419l.149-.026a40 40 0 0 1 2.244-.301l.307-.036c1.531-.179 3.065-.192 4.605-.193m-77.39 1.366h48.205v11.041H69.479v49.282H55.812V84.291H38.577z" fill="#FEFEFE"/><path d="m92.168 117.549.269.269h-.202l.023 5.128.011 2.381.009 2.075.005 1.099.005 1.033.002.38.003.517v.154c-.002.256-.002.256.078.496l-.202-.067z" fill="#EAFEFF"/><path d="m107.316 85.705.067.202a8 8 0 0 1-.269.337 7 7 0 0 0-.269.471l-.089.171c-.185.376-.287.695-.305 1.115-.01.127-.01.127-.078.195q-.023.237-.038.476l-.017.263-.012.203h-.067c-.058-1.211.146-2.321.938-3.286z" fill="#467EBA"/><path d="M111.961 123.407c-.431.287-1.045.212-1.548.202v-.067c.521-.144 1.01-.148 1.548-.135" fill="#4A82BD"/><path d="m129.399 127.715.135.067-.295.328-.166.185a9 9 0 0 1-.28.296l-.202-.067z" fill="#407CBB"/><path d="M130.745 125.965c.047.118.047.118.067.269-.085.13-.085.13-.21.261l-.131.14-.13.138q-.1.117-.198.236l-.139.168-.135-.067.106-.131c.267-.331.526-.664.769-1.014" fill="#477FBA"/><path d="M91.966 86.984h.135l-.135 1.346h-.067l-.004-.598-.002-.172-.001-.164-.001-.152c.008-.126.008-.126.075-.26" fill="#4E85BF"/><path d="M109.268 84.089v.202l-.345.196a8 8 0 0 0-.316.196l-.146.079-.135-.067z" fill="#4A80BA"/><path d="M95.332 100.112c.242.235.46.479.673.741h-.202c-.123-.128-.123-.128-.248-.295l-.127-.166c-.096-.145-.096-.145-.096-.28" fill="#5084BE"/><path d="M127.581 129.399c0 .202 0 .202-.096.312l-.127.108-.125.11-.123.075-.202-.067z" fill="#477FBB"/><path d="m108.057 84.897.135.067-.404.471-.202-.067z" fill="#447DBA"/><path d="M132.092 109.336c.202.252.202.252.202.404h.135v.337h-.135l-.101-.257-.057-.144c-.044-.138-.044-.138-.044-.34" fill="#437EBB"/><path d="M124.955 131.216v.135c-.446.269-.446.269-.673.269v-.135l.261-.135.147-.076c.13-.058.13-.058.265-.058" fill="#447EBB"/><path d="M131.688 124.349c.05.105.05.105.067.269-.076.169-.17.314-.269.471h-.135c.098-.255.212-.497.337-.741" fill="#447DB9"/><path d="M112.971 82.877v.135c-.3.122-.492.143-.808.067v-.067l.328-.067.185-.038c.161-.03.161-.03.295-.03" fill="#4B82BC"/></svg>