<svg xmlns="http://www.w3.org/2000/svg" width="50" height="50" viewBox="0 0 50 50"><path d="m8.75 12.778.002.518q.008 2.421.024 4.843.009 1.245.012 2.489.003 1.202.013 2.404.003.458.003.915 0 .644.009 1.286l-.002.378c.024 1.446.565 2.5 1.554 3.535.962.865 2.006 1.038 3.269 1.021 1.088-.08 2.084-.55 2.894-1.278.875-1.133 1.155-2.228 1.14-3.629l-.001-.373q-.002-.608-.007-1.215l-.002-.848q-.003-1.115-.009-2.229-.009-1.784-.013-3.568-.002-.622-.006-1.243l-.003-.765-.003-.347c-.001-.646.035-1.258.153-1.893.139-.139.139-.139.626-.155l.65.002.345.001 1.095.004.741.002q.91.002 1.82.007c.29.781.575 1.558.799 2.361.794 2.605 2.053 5.107 3.513 7.401.134.237.134.237.134.515.402-.201.423-.46.582-.877.628-1.544 1.435-2.803 2.612-3.984l.249-.258c1.906-1.831 4.265-2.457 6.847-2.429 2.402.074 4.628 1.034 6.377 2.687l.385.362c1.847 1.83 2.822 4.293 2.836 6.886-.025 2.815-.989 5.368-2.979 7.384-1.632 1.577-3.55 2.544-5.798 2.868l-.517.088c-.718.086-1.409-.008-2.122-.106l-.425-.058c-1.775-.259-3.352-.711-4.853-1.731l-.039.318c-.208 1.574-.531 3.12-.855 4.673l-.248 1.201-.162.776a46 46 0 0 0-.336 1.733l-.052.295q-.067.384-.128.768c-.123.375-.123.375-.346.566-.474.123-.935.12-1.42.113l-.315-.001-.993-.009-.675-.004q-.826-.005-1.651-.014c-.14-.439-.132-.736-.036-1.184l.079-.376.089-.406.09-.425.29-1.351.375-1.757.093-.437a117 117 0 0 0 .64-3.242c.132-.713.291-1.413.472-2.116l.13-.54a10 10 0 0 1 .335-1.051c.249-.735.38-1.329.063-2.065-.454-.821-.995-1.579-1.543-2.34a12 12 0 0 1-.851-1.443l-.22-.424-.147-.285-.017.25c-.257 3.663-1.166 6.274-3.916 8.787-.47.395-.985.825-1.623.825l-.139.278c-.278.13-.278.13-.694.278l-.29.105c-2.38.837-5.046.69-7.325-.361a19 19 0 0 1-1.552-.855l-.284-.163c-1.203-.761-2.459-2.374-2.91-3.727l-.278-.278c-.507-1.416-.694-2.914-.77-4.407l-.018-.349a74 74 0 0 1-.063-3.69v-.714l.001-1.478q.001-.947-.001-1.894v-2.165l.001-.97-.001-.29c.002-.415.025-.729.158-1.127q.93-.035 1.861-.067l.633-.023.911-.032.553-.02a5.4 5.4 0 0 1 1.181.142m25.399 9.378c-.927 1.227-1.343 2.563-1.718 4.033l-.113.441c-.226.918-.226.918-.096 1.842 1.292 1.25 3.245 1.804 4.991 1.849 1.58-.029 2.609-.465 3.746-1.546.932-.98 1.29-1.94 1.332-3.289-.036-1.263-.353-2.171-1.181-3.125-1.244-1.155-2.195-1.601-3.888-1.586-1.276.048-2.213.429-3.074 1.381" fill="#080808"/><path d="m8.75 12.778.002.518q.008 2.421.024 4.843.009 1.245.012 2.489.003 1.202.013 2.404.003.458.003.915 0 .644.009 1.286l-.002.378c.024 1.446.565 2.5 1.554 3.535.963.867 2.003 1.032 3.267 1.023.494-.04.912-.166 1.373-.344.274-.105.544-.178.83-.244-.58.647-1.37.914-2.218 1.027-1.36.047-2.607-.374-3.615-1.305-1.024-1.125-1.476-2.278-1.452-3.791v-.415q.002-.673.009-1.346l.003-.938q.004-1.23.014-2.46.008-1.257.011-2.514.01-2.463.027-4.925H3.75v13.75h-.139a84 84 0 0 1-.157-5.252v-.714l.001-1.478q.001-.947-.001-1.894v-2.165l.001-.97-.001-.29c.002-.415.025-.729.158-1.127q.93-.035 1.861-.067l.633-.023.911-.032.553-.02a5.4 5.4 0 0 1 1.181.142" fill="#F2F2F2"/><path d="m18.404 12.623.65.002.345.001 1.095.004.741.002q.91.002 1.82.007l.278.72.156.405c.118.391.145.691.122 1.097-.278-.139-.278-.139-.396-.442l-.107-.374-.11-.372c-.081-.34-.081-.34-.081-.756h-5v13.611h-.139c-.132-1.493-.159-2.972-.157-4.47v-.713l.001-1.483q.001-.948-.001-1.895V15.8l.001-.976-.001-.287c.008-1.889.008-1.889.784-1.914" fill="#9D9D9D"/><path d="M17.917 12.917h5c.278.833.278.833.139 1.389l-.278-1.25h-4.722l.009 1.227q.013 2.013.02 4.025.004 1.219.013 2.439.009 1.178.011 2.356.001.448.006.897.006.63.004 1.261l.006.371c-.007 1.009-.316 1.808-.764 2.703h-.278l.086-.254.113-.336.112-.332a12 12 0 0 0 .245-.885h.278z" fill="#191919"/><path d="m42.778 16.944.139.278a7 7 0 0 1-1.328-.538c-2.558-1.262-5.576-1.202-8.255-.295v.278l-.556-.139c2.969-2.036 7.096-1.285 10 .417" fill="#D2D2D2"/><path d="M8.611 25.972h.139l.092.356c.445 1.592 1.1 2.667 2.555 3.498 1.163.495 2.44.452 3.606.001.274-.105.544-.178.83-.244-.58.647-1.37.914-2.218 1.027-1.36.047-2.607-.374-3.615-1.305-.726-.797-1.419-1.813-1.424-2.925z" fill="#CECECE"/><path d="M29.028 41.111h.139a26 26 0 0 1-.252 2.153l-.055.343c-.11.282-.11.282-.327.437-.474.172-.929.157-1.426.15l-.315-.001-.993-.009-.675-.004q-.826-.005-1.651-.014c-.136-.47-.119-.773 0-1.25h.139v.972h4.861l.417-2.361z" fill="#6F6F6F"/><path d="M26.25 29.861h.139c-.044 1.045-.115 2.01-.45 3.005-.146.454-.229.915-.317 1.383-.096.487-.219.965-.343 1.445h-.139c.044-1.15.255-2.217.548-3.324.219-.83.39-1.669.563-2.51" fill="#B5B5B5"/><path d="M17.917 21.389h.139q.021 1.089.031 2.179.004.37.011.739c.05 2.612.05 2.612-.597 3.749l-.139.278h-.278l.086-.254.113-.336.112-.332a12 12 0 0 0 .244-.884h.278z" fill="#181818"/><path d="M40 35.278c-1.721.492-3.242.379-5 .139v-.139q.934-.035 1.868-.067l.635-.023.914-.032.286-.012c.456-.014.86-.01 1.296.133" fill="#7B7B7B"/><path d="m36.806 15.538.447.004q.541.005 1.081.014v.139l-.529.011c-1.561.047-2.975.234-4.471.684v.278l-.556-.139a40 40 0 0 1 .556-.33l.313-.186c1.043-.489 2.028-.493 3.16-.474" fill="#B7B7B7"/><path d="M23.611 14.861c.258.387.422.735.599 1.162l.183.442.19.462.19.458q.398.958.782 1.92l-.278-.139v-.278l-.417-.139c-.148-.359-.148-.359-.278-.807-.166-.566-.334-.952-.694-1.415-.101-.278-.101-.278-.165-.556l-.067-.278c-.046-.278-.046-.278-.046-.833" fill="#B2B2B2"/><path d="M24.306 38.889h.139c-.202 3.295-.202 3.295-.833 4.028.09-1.37.399-2.69.694-4.028" fill="#A0A0A0"/><path d="M42.222 24.444c.389.672.38 1.327.278 2.083a8.5 8.5 0 0 1-.694 1.389l-.139-.278.319-.803c.153-.484.113-.912.097-1.419.034-.328.085-.647.139-.972" fill="#8A8A8A"/><path d="M26.528 21.25c.972 1.173.972 1.173.972 1.667l.417-.139v.694c-.528-.204-.724-.473-1.007-.955l-.219-.363c-.163-.348-.163-.348-.163-.904" fill="#A1A1A1"/><path d="M21.111 12.639h1.944c.595 1.544.595 1.544.556 2.222-.278-.139-.278-.139-.396-.437l-.107-.371-.11-.367c-.081-.353-.081-.353-.081-.908h-1.806z" fill="#E0E0E0"/><path d="m17.639 26.528.278.278c-.059.533-.341 1.042-.556 1.528h-.278l.086-.254.113-.336.112-.332a12 12 0 0 0 .245-.884" fill="#8C8C8C"/><path d="M23.611 14.861c.221.332.368.598.512.964l.114.282c.079.328.034.521-.071.838-.242-.363-.336-.556-.434-.963l-.071-.282c-.05-.283-.05-.283-.05-.839" fill="#A7A7A7"/><path d="M41.528 22.917h.278c.395.517.462.885.417 1.528-.411-.467-.545-.929-.694-1.528" fill="#9D9D9D"/></svg>