<svg xmlns="http://www.w3.org/2000/svg" width="150" height="129.911" viewBox="0 0 150 129.911"><path d="M0 0q8.238-.038 16.477-.059l.246-.001 5.17-.011 2.989-.006a2628 2628 0 0 0 6.162-.019l2.09-.01q4.372-.02 8.744-.025l1.216-.001h.242q1.927-.004 3.855-.016a488 488 0 0 1 3.875-.009q1.151.002 2.303-.01a88 88 0 0 1 1.538-.001q.438.004.876-.004c1.688-.034 1.688-.034 2.119.312.279.329.447.689.591 1.093.082.219.192.404.316.602l.212.369.362.63.596 1.034.356.618 6.179 10.71.238.412.596 1.034a349 349 0 0 0 1.15 1.984q.515.882 1.019 1.769a178 178 0 0 0 .999 1.729q.584 1 1.161 2.006l.595 1.032.238.412.119.206.356.618.119.206.236.409.747 1.294.244.422a62 62 0 0 1 .637 1.119c.292-.42.546-.855.792-1.303a77 77 0 0 1 .915-1.608 251 251 0 0 0 .919-1.58l.12-.207.24-.416.595-1.032.238-.412.475-.824.119-.206.238-.412.596-1.034a349 349 0 0 1 1.15-1.984 170 170 0 0 0 .954-1.656 188 188 0 0 1 1.064-1.842q.584-1 1.161-2.006l.595-1.032.238-.412 4.278-7.414.119-.206.238-.412.596-1.034q.603-1.047 1.21-2.091l.116-.199.106-.181.093-.16c.072-.122.072-.122.136-.185q.189-.008.378-.008h.251l.28.001h5.887l3.903.001 3.867.001h1.462l10.74.002h.131l9.031.001 5.293.001h.246Q141.868-.002 150 0a5 5 0 0 1-.302.641l-.106.19-.115.203-.12.213a122 122 0 0 1-1.033 1.789 192 192 0 0 0-.697 1.202l-.12.207-.24.416q-.296.517-.594 1.033l-.238.412-1.426 2.471-.119.206-.238.412-.596 1.034a349 349 0 0 1-1.15 1.984 170 170 0 0 0-.954 1.655 188 188 0 0 1-1.064 1.842q-.584 1-1.161 2.006l-.595 1.032-.238.412-7.129 12.357-.119.206-.238.412-.596 1.034a349 349 0 0 1-1.15 1.984 170 170 0 0 0-.955 1.656 188 188 0 0 1-1.064 1.842q-.584 1-1.161 2.006l-.595 1.032-.238.412-7.129 12.357-.119.206-.238.412-.596 1.034a349 349 0 0 1-1.15 1.984 170 170 0 0 0-.954 1.655 188 188 0 0 1-1.064 1.842q-.584 1-1.161 2.006l-.595 1.032-.238.412-7.129 12.357-.119.206-.238.412-.596 1.034a349 349 0 0 1-1.15 1.984 170 170 0 0 0-.955 1.656 188 188 0 0 1-1.064 1.842q-.584 1-1.161 2.006l-.595 1.032-.238.412-7.129 12.357-.119.206-.238.412-.596 1.034a349 349 0 0 1-1.15 1.984 170 170 0 0 0-.955 1.655 188 188 0 0 1-1.064 1.842q-.584 1-1.161 2.006l-.595 1.032-.238.412-7.129 12.357-.119.206-.238.412-.596 1.034a365 365 0 0 1-1.258 2.168 108 108 0 0 0-.614 1.065l-.07.123-.338.595-.123.216-.109.192c-.09.149-.177.289-.291.421h-.127l-.05-.092a78 78 0 0 0-1.302-2.299 184 184 0 0 1-.704-1.213l-.12-.207-.24-.416-.595-1.032-.238-.412-.119-.206-2.376-4.119-.238-.412-.596-1.034a349 349 0 0 0-1.15-1.984q-.515-.882-1.019-1.769a178 178 0 0 0-.999-1.729q-.584-1-1.161-2.006l-.595-1.032-.238-.412-.119-.206-8.08-14.005-.238-.412-.596-1.034a349 349 0 0 0-1.15-1.984q-.515-.882-1.019-1.769a178 178 0 0 0-.999-1.729q-.584-1-1.161-2.006l-.595-1.032-.238-.412-.119-.206-7.129-12.357-.238-.412-.596-1.034a349 349 0 0 0-1.15-1.984q-.515-.882-1.019-1.769a178 178 0 0 0-.999-1.729q-.584-1-1.161-2.006l-.595-1.032-.238-.412-.119-.206-7.129-12.357-.238-.412-.596-1.034a349 349 0 0 0-1.15-1.984q-.515-.881-1.019-1.769a178 178 0 0 0-.999-1.729q-.584-1-1.161-2.006l-.595-1.032-.238-.412-.119-.206-7.129-12.357-.238-.412-.596-1.034a349 349 0 0 0-1.15-1.984q-.515-.882-1.019-1.769a178 178 0 0 0-.999-1.729q-.584-1-1.161-2.006l-.595-1.032-.238-.412-.119-.206L1.988 3.564l-.236-.41-.98-1.699-.111-.192-.107-.187L.317.673.194.465.081.277C0 .127 0 .127 0 0" fill="#40B782"/><path d="M30.038 0q5.271-.048 10.542-.071l1.245-.005.25-.001q2.005-.01 4.012-.03a553 553 0 0 1 4.117-.024 239 239 0 0 0 2.54-.019q.871-.01 1.742-.008.502.003 1.005-.008c1.959-.042 1.959-.042 2.427.304.289.326.451.681.582 1.093.076.223.185.403.31.602l.212.369.362.63.596 1.034.356.618 6.179 10.71.238.412.596 1.034a349 349 0 0 0 1.15 1.984q.515.882 1.019 1.769a178 178 0 0 0 .999 1.729q.584 1 1.161 2.006l.595 1.032.356.618.356.618.119.206.236.409.747 1.294.244.422a62 62 0 0 1 .637 1.121c.292-.42.546-.855.792-1.303a77 77 0 0 1 .915-1.608 251 251 0 0 0 .919-1.58l.12-.207.24-.416.595-1.032.238-.412.475-.824.119-.206.238-.412.596-1.034a349 349 0 0 1 1.15-1.984 170 170 0 0 0 .954-1.656 188 188 0 0 1 1.064-1.842q.584-1 1.161-2.006l.595-1.032.238-.412 4.278-7.414.119-.206.238-.412.596-1.034q.603-1.047 1.21-2.091l.116-.199.106-.181.093-.16c.072-.122.072-.122.136-.185a10 10 0 0 1 .44-.008h2.928l1.767.001 2.556.001 4.146.001 4.028.001h1.496l10.333.003c-.093.239-.2.456-.328.678l-.123.214-.132.229-.137.239-.353.613-.313.544-.588 1.018-.593 1.028-.238.412-.119.206-2.258 3.913-.119.206-.238.412-.596 1.034a349 349 0 0 1-1.15 1.984 170 170 0 0 0-.954 1.656 188 188 0 0 1-1.064 1.842q-.584 1.002-1.162 2.006l-.355.615a415 415 0 0 0-1.162 2.022 204 204 0 0 1-1.124 1.947q-.584 1-1.161 2.006l-.595 1.032-.238.412-3.327 5.767-.119.206-.238.412-.596 1.034a349 349 0 0 1-1.15 1.984 170 170 0 0 0-.954 1.656 190 190 0 0 1-1.064 1.842 368 368 0 0 0-1.856 3.221 175 175 0 0 1-.991 1.712q-.425.73-.842 1.462a188 188 0 0 1-1.064 1.842q-.584 1-1.161 2.006l-.595 1.032-.238.412-1.426 2.471-.119.206-.238.412-.596 1.034a350 350 0 0 1-1.15 1.984 176 176 0 0 0-.951 1.648 390 390 0 0 1-2.015 3.492 355 355 0 0 0-1.859 3.228 184 184 0 0 1-.995 1.721q-.584 1-1.161 2.006l-.595 1.032-.238.412-2.376 4.119-.119.206-.236.409-.554.962-.26.453-.182.318c-.18.312-.36.62-.565.916a2.3 2.3 0 0 1-.467-.608l-.121-.214-.129-.231-.136-.24-.209-.37q-.34-.6-.685-1.196l-.236-.408-.118-.204-.593-1.028-.238-.412-1.545-2.677-.238-.412-.596-1.034a349 349 0 0 0-1.15-1.984q-.515-.881-1.019-1.769a151 151 0 0 0-.886-1.536q-.513-.878-1.015-1.761a151 151 0 0 0-.886-1.534 161 161 0 0 1-.951-1.648 188 188 0 0 0-1.064-1.842q-.584-1-1.161-2.006l-.595-1.032-.238-.412-.119-.206-4.278-7.414-.238-.412-.596-1.034a380 380 0 0 0-1.153-1.991 373 373 0 0 1-1.969-3.416 185 185 0 0 0-.995-1.721 317 317 0 0 1-1.758-3.05 133 133 0 0 0-.712-1.228 168 168 0 0 1-.967-1.675 188 188 0 0 0-1.064-1.842q-.584-1-1.161-2.006l-.595-1.032-.238-.412-.119-.206-3.327-5.767-.238-.412-.596-1.034a350 350 0 0 0-1.15-1.984q-.545-.934-1.079-1.873a431 431 0 0 0-1.215-2.113l-.358-.62a346 346 0 0 0-1.151-1.984q-.515-.881-1.019-1.769a178 178 0 0 0-.999-1.729q-.584-1-1.161-2.006l-.595-1.031-1.097-1.903-.111-.192-.107-.187-.237-.403-.123-.208-.113-.188c-.081-.151-.081-.151-.081-.278" fill="#34495E"/></svg>